<?xml version="1.0" encoding="UTF-8"?>
<svg width="186px" height="42px" viewBox="0 0 186 42" version="1.1" xmlns="http://www.w3.org/2000/svg" xmlns:xlink="http://www.w3.org/1999/xlink">
    <!-- Generator: Sketch 61.2 (89653) - https://sketch.com/ -->
    <title>fudeat-logo-postVector_2x</title>
    <desc>Created with Sketch.</desc>
    <g id="Page-1" stroke="none" stroke-width="1" fill="none" fill-rule="evenodd">
        <g id="fudeat-logo-postVector_2x" fill-rule="nonzero">
            <path d="M44.8498,14.2606 C47.0734,14.2606 49.2106,14.2606 51.3837,14.2606 C51.4053,14.4008 51.4435,14.533 51.4433,14.665 C51.4338,20.0896 51.4808,25.5151 51.3917,30.9384 C51.3013,36.4408 47.0734,41.0726 41.6135,41.7971 C35.5714,42.5989 31.4731,39.0575 29.6784,35.3553 C28.9868,33.9287 28.6385,32.4107 28.6374,30.8312 C28.6334,25.4467 28.6545,20.0621 28.6684,14.6776 C28.6688,14.5218 28.6948,14.3661 28.7111,14.1849 C30.8958,14.1849 33.0504,14.1849 35.2759,14.1849 C35.286,14.4362 35.3043,14.6685 35.3032,14.9007 C35.2794,19.9643 35.2461,25.0278 35.2369,30.0914 C35.2357,30.7266 35.3133,31.3708 35.4329,31.9959 C35.8907,34.3897 37.5069,35.4992 39.7657,35.6571 C40.4727,35.7065 41.1628,35.5801 41.8313,35.3542 C43.2092,34.8886 44.0573,33.9152 44.4805,32.5469 C44.7493,31.6779 44.8226,30.78 44.825,29.8784 C44.8385,24.9142 44.8427,19.9499 44.85,14.9856 C44.8501,14.7685 44.8498,14.5513 44.8498,14.2606 Z" id="Path" fill="#000000"></path>
            <path d="M118.951,14.4319 C118.951,16.3319 118.951,18.1457 118.951,20.01 C114.9946,20.01 111.0798,20.01 107.1136,20.01 C107.1136,21.6505 107.1136,23.2413 107.1136,24.9077 C109.9109,24.9922 112.7229,24.927 115.5798,24.9706 C115.5798,26.7817 115.5798,28.5484 115.5798,30.3617 C112.7495,30.3617 109.9566,30.3617 107.0805,30.3617 C107.0189,32.1528 107.0234,33.8997 107.0454,35.7373 C111.0148,35.7373 114.9459,35.7373 118.9096,35.7373 C118.9096,37.6999 118.9096,39.5727 118.9096,41.4937 C112.8447,41.4937 106.8114,41.4937 100.6945,41.4937 C100.6832,32.4604 100.7176,23.4665 100.7419,14.4319 C106.8213,14.4319 112.8547,14.4319 118.951,14.4319 Z" id="Path" fill="#000000"></path>
            <path d="M6.7391,41.1577 C4.5923,41.1577 2.5333,41.1577 0.4813,41.1577 C0.3507,40.7078 0.3221,14.8974 0.4513,14.1795 C6.2018,14.1795 11.9591,14.1795 17.7611,14.1795 C17.7611,16.0294 17.7611,17.8581 17.7611,19.7321 C15.934,19.7321 14.1206,19.7321 12.3072,19.7321 C10.5095,19.7321 8.7119,19.7321 6.8729,19.7321 C6.8729,21.6064 6.8729,23.4347 6.8729,25.3253 C9.3483,25.3253 11.8009,25.3253 14.2878,25.3253 C14.2878,27.0173 14.2878,28.6475 14.2878,30.3375 C11.8197,30.3375 9.3674,30.3375 6.8416,30.3375 C6.7572,33.9621 6.7861,37.5309 6.7391,41.1577 Z" id="Path" fill="#000000"></path>
            <path d="M185.4634,14.6701 C185.4634,16.5794 185.4634,18.4508 185.4634,20.3945 C182.8955,20.4613 180.3617,20.3581 177.7516,20.4097 C177.7383,20.637 177.716,20.8464 177.7154,21.0559 C177.7096,22.9777 177.7085,24.8995 177.7042,26.8213 C177.6935,31.5455 177.6819,36.2698 177.6708,40.994 C177.6703,41.2105 177.6707,41.4269 177.6707,41.6269 C177.2491,41.7477 171.9006,41.7428 171.2298,41.626 C171.2298,34.5821 171.2298,27.5264 171.2298,20.381 C169.8951,20.3779 168.6227,20.3799 167.3503,20.3794 C166.0724,20.3789 164.7946,20.3793 163.4727,20.3793 C163.4727,18.4552 163.4727,16.5865 163.4727,14.6701 C170.797,14.6701 178.0944,14.6701 185.4634,14.6701 Z" id="Path" fill="#000000"></path>
            <path d="M40.0749,0.4892 C42.4069,0.3613 44.681,2.4173 44.6708682,5.0904 C44.6608,7.6967 42.4538,9.691 40.0365,9.68373987 C37.6521,9.6765 35.4755,7.5922 35.469071,5.0826 C35.4625,2.5228 37.707,0.3425 40.0749,0.4892 Z" id="Path" fill="#C6666F"></path>
            <path d="M88.4771,25.1447 C87.8378,21.5421 85.8312,18.8059 82.8618,16.7447 C80.3588,15.0072 77.5299,14.3381 74.5271,14.3106 C71.5254,14.283 68.5234,14.2876 65.5215,14.2800785 C65.3264,14.2796 65.1313,14.2963 64.8637,14.3082 C64.7861,23.3384 64.8156,32.3322 64.7703,41.4019 C66.2601,41.4019 67.6399,41.4214 69.019,41.3976 C71.5177,41.3546 74.02,41.539 76.5154,41.2869 C78.1741,41.1194 79.7958,40.7828 81.3514,40.1737 C84.3302,39.0072 86.5282,37.0135 87.6878,33.9975 C88.79,31.131 89.0109,28.1531 88.4771,25.1447 Z M81.6507,31.0506 C80.9319,33.7946 79.1029,35.3109 76.3508,35.7625 C74.7419,36.0265 73.1167,35.8802 71.4981,35.8848 C71.464,35.8849 71.4299,35.8501 71.3925,35.8298 C71.3925,30.5808 71.3925,25.3302 71.3925,20.0831 C73.3461,19.9788 75.2428,19.8616 77.1078,20.3351 C79.8136,21.0221 81.3142,22.8422 81.8085,25.5166 C82.1496,27.3617 82.1301,29.2201 81.6507,31.0506 Z" id="Shape" fill="#000000"></path>
            <path d="M144.3299,14.5439 C142.2421,14.5439 140.2436,14.5439 138.2309,14.5439 C134.6147,23.536 131.0059,32.5098 127.3749,41.5387 C129.6654,41.5387 131.8574,41.5387 134.0515,41.5387 C134.731,39.8532 135.3957,38.2048 136.057,36.5644 C139.517,36.5644 142.9311,36.5644 146.3626,36.5644 C147.046,38.2848 147.715,39.9688 148.3754,41.6313 C150.6135,41.6313 152.7745,41.6313 155.0312,41.6313 C151.4374,32.5347 147.8767,23.5217 144.3299,14.5439 Z M138.03,31.5428 C139.0983,28.6111 140.1483,25.7299 141.1982,22.8487 C141.2377,22.8458 141.2772,22.8428 141.3167,22.8399 C142.3526,25.721 143.3884,28.6021 144.4457,31.5428 C142.2672,31.5428 140.1813,31.5428 138.03,31.5428 Z" id="Shape" fill="#000000"></path>
        </g>
    </g>
</svg>