<svg viewBox="0 0 130 163" xmlns="http://www.w3.org/2000/svg"> <defs> <clipPath id="clip-path" transform="translate(45.63 52.37)"> <path class="cls-1" d="m7,-46.49l-0.24,0.13l75.26,79.9l0,-36.74a25,25 0 0 0 -12.51,-21.66l-37.51,-21.63a25,25 0 0 0 -25,0" fill="none" id="svg_1"/> </clipPath> <clipPath id="clip-path-2" transform="translate(45.63 52.37)"> <path class="cls-1" d="m7,-46.49l-37.49,21.63a25,25 0 0 0 -12.51,21.66l0,43.2a25,25 0 0 0 6.8,17.14l115.42,-5.58a25,25 0 0 0 2.83,-11.56l0,-12.22c-3.56,-6.32 -9,-15.72 -14.65,-24.69c-9.77,-15.46 -21.33,-25.25 -30.67,-33.17c-6.94,-5.92 -19.89,-14.25 -26.06,-18.14a24.21,24.21 0 0 0 -3.67,1.73" fill="none" id="svg_2"/> </clipPath> <clipPath id="clip-path-3" transform="translate(45.63 52.37)"> <path class="cls-1" d="m-43,-3.2l0,43.2a25.06,25.06 0 0 0 2.36,10.62l0.18,-0.32c5.56,-9.88 13.77,-29.1 15.62,-39s-0.02,-13.74 -4.16,-20.3a57,57 0 0 0 -8.4,-10a25,25 0 0 0 -5.6,15.8" fill="none" id="svg_3"/> </clipPath> <clipPath id="clip-path-4" transform="translate(45.63 52.37)"> <path class="cls-1" d="m-4.55,16.7c-23,7.69 -36.09,33.66 -36.09,33.66l0,0.17a25.12,25.12 0 0 0 10.21,11.16l37.43,21.63a25,25 0 0 0 25,0l37.52,-21.63a25,25 0 0 0 12.27,-18.09c-2.54,-2.9 -14.78,-16.29 -30.3,-24a69.14,69.14 0 0 0 -30.82,-7.16a79.33,79.33 0 0 0 -25.22,4.26" fill="none" id="svg_4"/> </clipPath> <radialGradient id="xx5"> <stop offset="0%" stop-color="#8e8f92" stop-opacity="0.3"/> <stop offset="100%" stop-color="white" stop-opacity="0"/> </radialGradient> <linearGradient id="linear-gradient" x1="0.43607" y1="0.50514" x2="0.82956" y2="0.50514"> <stop offset="0" stop-color="#b4ff59"/> <stop offset="1" stop-color="#89b900"/> </linearGradient> <linearGradient id="linear-gradient-3" x1="-0.20416" y1="0.49533" x2="0.90326" y2="0.49533"> <stop offset="0" stop-color="#ffab90"/> <stop offset="1" stop-color="#ffb3ff"/> </linearGradient> <linearGradient id="linear-gradient-4" x1="-0.01524" y1="0.50077" x2="1.00213" y2="0.50077"> <stop offset="0" stop-color="#c90dcf"/> <stop offset="1" stop-color="#8e0dcf"/> </linearGradient> <linearGradient id="Degradado_sin_nombre_143" x1="0.12228" y1="0.15384" x2="0.8778" y2="0.84593"> <stop offset="0.7" stop-color="#fefeff" stop-opacity="0"/> <stop offset="0.79" stop-color="#fdfcff" stop-opacity="0.01"/> <stop offset="0.83" stop-color="#f9f3fd" stop-opacity="0.05"/> <stop offset="0.86" stop-color="#f2e4fa" stop-opacity="0.11"/> <stop offset="0.89" stop-color="#e8cff6" stop-opacity="0.2"/> <stop offset="0.91" stop-color="#dbb3f0" stop-opacity="0.31"/> <stop offset="0.93" stop-color="#cc92e9" stop-opacity="0.45"/> <stop offset="0.95" stop-color="#b969e1" stop-opacity="0.62"/> <stop offset="0.97" stop-color="#a43cd8" stop-opacity="0.81"/> <stop offset="0.98" stop-color="#8e0dcf"/> </linearGradient> <linearGradient id="Degradado_sin_nombre_147" x1="0.87793" y1="0.84624" x2="0.12223" y2="0.1539"> <stop offset="0.7" stop-color="#fefeff" stop-opacity="0"/> <stop offset="0.78" stop-color="#fefeff" stop-opacity="0.01"/> <stop offset="0.82" stop-color="#fefeff" stop-opacity="0.04"/> <stop offset="0.85" stop-color="#fefeff" stop-opacity="0.09"/> <stop offset="0.87" stop-color="#fefeff" stop-opacity="0.16"/> <stop offset="0.9" stop-color="#fefeff" stop-opacity="0.25"/> <stop offset="0.91" stop-color="#fefeff" stop-opacity="0.37"/> <stop offset="0.93" stop-color="#fff" stop-opacity="0.5"/> <stop offset="0.95" stop-color="#fff" stop-opacity="0.66"/> <stop offset="0.96" stop-color="#fff" stop-opacity="0.83"/> <stop offset="0.98" stop-color="#fff"/> </linearGradient> <linearGradient id="linear-gradient-2" x1="-0.07356" y1="0.49825" x2="0.7737" y2="0.49825"> <stop offset="0" stop-color="#b92dfd"/> <stop offset="1" stop-color="#fa4ab8"/> </linearGradient> </defs> <g> <title>Layer 1</title> <g class="cls-2" clip-path="url(#clip-path)" id="svg_5"> <rect transform="rotate(-40 -3.8175 68.346)" class="cls-3" x="27.97248" y="54.06629" width="111.25" height="112.25" fill="url(#linear-gradient)" id="svg_6"/> </g> <g class="cls-4" clip-path="url(#clip-path-2)" id="svg_7"> <rect transform="rotate(-30 -16.2275 40.9263)" class="cls-5" x="-34.19752" y="18.50629" width="160.99" height="153.79" fill="url(#linear-gradient-2)" id="svg_8"/> </g> <g class="cls-6" clip-path="url(#clip-path-3)" id="svg_9"> <rect transform="rotate(-10 -8.6475 5.0963)" class="cls-7" x="-14.53753" y="34.88629" width="31.8" height="72.06" fill="url(#linear-gradient-3)" id="svg_10"/> </g> <g class="cls-8" clip-path="url(#clip-path-4)" id="svg_11"> <rect class="cls-9" x="4.94248" y="64.80629" width="122.48" height="75.34" fill="url(#linear-gradient-4)" id="svg_12"/> </g> <path class="cls-10" d="m59.10248,60.63629a28.76,28.76 0 0 0 8.45,2.47a94.71,94.71 0 0 1 11,2.48a78.09,78.09 0 0 1 11,4a19.83,19.83 0 0 1 8.45,7.42a22.19,22.19 0 0 1 3.35,12.43q0,10.86 -8.85,17.78t-24.47,6.92a58,58 0 0 1 -19.22,-3.19a42.93,42.93 0 0 1 -15.18,-8.77l8.77,-14.19a40.72,40.72 0 0 0 12.07,7.38a37.69,37.69 0 0 0 14.51,3.19q6.38,0 9.65,-2.23a7,7 0 0 0 3.27,-6.06c0,-1.91 -1.15,-3.48 -3.43,-4.7a26.87,26.87 0 0 0 -8.45,-2.63a107.25,107.25 0 0 1 -11,-2.4a73.54,73.54 0 0 1 -11,-3.82a20.44,20.44 0 0 1 -8.45,-7.1" fill="#7c0dbc" id="svg_13"/> <path class="cls-11" d="m65.47248,111.63629a58.22,58.22 0 0 1 -19.21,-3.19a43.08,43.08 0 0 1 -15.23,-8.77l8.77,-14.19a40.72,40.72 0 0 0 12.12,7.33a37.69,37.69 0 0 0 14.51,3.19q6.38,0 9.65,-2.23a7,7 0 0 0 3.27,-6.06c0,-1.91 -1.15,-3.48 -3.43,-4.7a26.86,26.86 0 0 0 -8.45,-2.65a107.76,107.76 0 0 1 -11,-2.39a73.8,73.8 0 0 1 -11,-3.82a20.11,20.11 0 0 1 -11.84,-19.13q0,-10.2 8.45,-17.22t23.13,-7q17.85,0 31.09,10.53l-8.18,13.85a28.62,28.62 0 0 0 -9.81,-6.38a33.56,33.56 0 0 0 -13,-2.55a16.07,16.07 0 0 0 -8.77,2.11a6.38,6.38 0 0 0 -3.34,5.5c0,1.71 1.11,3.11 3.34,4.23a28.93,28.93 0 0 0 8.46,2.47a94.56,94.56 0 0 1 11,2.47a79.36,79.36 0 0 1 11,4a19.8,19.8 0 0 1 8.45,7.41a22.22,22.22 0 0 1 3.35,12.44q0,10.85 -8.85,17.78t-24.48,6.97z" fill="#fff" id="svg_14"/> <path class="cls-12" d="m122.41248,157.75629c0,3.4 -25.63,6.16 -57.25,6.16s-57.26,-2.76 -57.26,-6.16s25.64,-6.16 57.26,-6.16s57.25,2.77 57.25,6.16z" xstyle="fill:url(#rxx5);fill-opacity:1" fill="url(#xx5)" id="svg_15"/> <g class="cls-13" opacity="0.7" id="svg_16"> <path class="cls-14" d="m115.30248,27.36629l-37.56,-21.65a25,25 0 0 0 -21.37,-1.72l0,0l-0.28,0.12c-0.39,0.15 -0.77,0.32 -1.16,0.49l-0.55,0.25q-0.84,0.4 -1.65,0.87l-0.24,0.14l0,0l-37.33,21.5a24.85,24.85 0 0 0 -6.88,5.87l0,0l-0.19,0.24c-0.3,0.39 -0.59,0.78 -0.88,1.18l-0.27,0.38c-0.35,0.53 -0.69,1.07 -1,1.62c-0.07,0.13 -0.13,0.26 -0.2,0.38q-0.36,0.66 -0.69,1.35l-0.25,0.55q-0.28,0.66 -0.54,1.32c-0.06,0.17 -0.13,0.33 -0.19,0.5c-0.21,0.6 -0.4,1.22 -0.57,1.84l-0.06,0.28q-0.21,0.8 -0.36,1.62c0,0.2 -0.07,0.4 -0.1,0.6c-0.08,0.47 -0.14,0.94 -0.19,1.41c0,0.19 0,0.39 -0.05,0.59c-0.11,0.65 -0.11,1.27 -0.11,1.97l0,43.3a25,25 0 0 0 0.14,2.6c0,0.29 0.09,0.56 0.13,0.84c0.08,0.58 0.16,1.15 0.28,1.72c0.07,0.32 0.16,0.64 0.24,1c0.13,0.51 0.27,1 0.43,1.52c0.1,0.33 0.22,0.65 0.34,1s0.37,1 0.57,1.43c0.07,0.15 0.12,0.31 0.19,0.46l0,0l0,0.05a0.08,0.08 0 0 0 0,0l0,0c0.07,0.15 0.15,0.29 0.22,0.44l0.35,0.68c0.23,0.43 0.48,0.86 0.74,1.28c0.12,0.2 0.23,0.4 0.36,0.6c0.36,0.56 0.75,1.11 1.16,1.64a0.94,0.94 0 0 0 0.09,0.12c0.43,0.56 0.9,1.1 1.39,1.63l0.12,0.15l0,0a25.06,25.06 0 0 0 5.71,4.53l37.56,21.66a25.07,25.07 0 0 0 25,0l37.56,-21.66a25.1,25.1 0 0 0 9.69,-10.13l0,0a24.19,24.19 0 0 0 1.08,-2.37l0.09,-0.22a24.2,24.2 0 0 0 0.78,-2.41l0.09,-0.32a24.52,24.52 0 0 0 0.5,-2.44c0,-0.07 0,-0.15 0,-0.22l0,0a24.9,24.9 0 0 0 0.39,-3.58l0,-43.3a25,25 0 0 0 -12.53,-21.7z" opacity="0.7" fill="url(#Degradado_sin_nombre_143)" id="svg_17"/> <path class="cls-14" d="m115.30248,27.36629l-37.56,-21.65a25,25 0 0 0 -21.37,-1.72l0,0l-0.28,0.12c-0.39,0.15 -0.77,0.32 -1.16,0.49l-0.55,0.25q-0.84,0.4 -1.65,0.87l-0.24,0.14l0,0l-37.33,21.5a24.85,24.85 0 0 0 -6.88,5.87l0,0l-0.19,0.24c-0.3,0.39 -0.59,0.78 -0.88,1.18l-0.27,0.38c-0.35,0.53 -0.69,1.07 -1,1.62c-0.07,0.13 -0.13,0.26 -0.2,0.38q-0.36,0.66 -0.69,1.35l-0.25,0.55q-0.28,0.66 -0.54,1.32c-0.06,0.17 -0.13,0.33 -0.19,0.5c-0.21,0.6 -0.4,1.22 -0.57,1.84l-0.06,0.28q-0.21,0.8 -0.36,1.62c0,0.2 -0.07,0.4 -0.1,0.6c-0.08,0.47 -0.14,0.94 -0.19,1.41c0,0.19 0,0.39 -0.05,0.59c-0.11,0.65 -0.11,1.27 -0.11,1.97l0,43.3a25,25 0 0 0 0.14,2.6c0,0.29 0.09,0.56 0.13,0.84c0.08,0.58 0.16,1.15 0.28,1.72c0.07,0.32 0.16,0.64 0.24,1c0.13,0.51 0.27,1 0.43,1.52c0.1,0.33 0.22,0.65 0.34,1s0.37,1 0.57,1.43c0.07,0.15 0.12,0.31 0.19,0.46l0,0l0,0.05a0.08,0.08 0 0 0 0,0l0,0c0.07,0.15 0.15,0.29 0.22,0.44l0.35,0.68c0.23,0.43 0.48,0.86 0.74,1.28c0.12,0.2 0.23,0.4 0.36,0.6c0.36,0.56 0.75,1.11 1.16,1.64a0.94,0.94 0 0 0 0.09,0.12c0.43,0.56 0.9,1.1 1.39,1.63l0.12,0.15l0,0a25.06,25.06 0 0 0 5.71,4.53l37.56,21.66a25.07,25.07 0 0 0 25,0l37.56,-21.66a25.1,25.1 0 0 0 9.69,-10.13l0,0a24.19,24.19 0 0 0 1.08,-2.37l0.09,-0.22a24.2,24.2 0 0 0 0.78,-2.41l0.09,-0.32a24.52,24.52 0 0 0 0.5,-2.44c0,-0.07 0,-0.15 0,-0.22l0,0a24.9,24.9 0 0 0 0.39,-3.58l0,-43.3a25,25 0 0 0 -12.53,-21.7z" opacity="0.7" fill="url(#Degradado_sin_nombre_143)" id="svg_18"/> <path class="cls-15" d="m15.16248,114.02629l37.56,21.65a25,25 0 0 0 21.37,1.69l0,0l0.28,-0.12c0.39,-0.15 0.77,-0.32 1.15,-0.49l0.56,-0.25c0.56,-0.27 1.11,-0.55 1.65,-0.87l0.24,-0.14l0,0l37.32,-21.51a24.89,24.89 0 0 0 6.88,-5.88l0,0c0.07,-0.08 0.12,-0.16 0.18,-0.24c0.31,-0.38 0.6,-0.78 0.88,-1.18l0.28,-0.38c0.35,-0.53 0.69,-1.07 1,-1.62c0.07,-0.12 0.13,-0.25 0.2,-0.38c0.24,-0.44 0.47,-0.89 0.68,-1.34l0.26,-0.56q0.28,-0.65 0.54,-1.32l0.18,-0.5c0.22,-0.6 0.41,-1.21 0.58,-1.84l0.06,-0.28c0.14,-0.53 0.26,-1.07 0.36,-1.61c0,-0.2 0.07,-0.4 0.1,-0.61c0.07,-0.46 0.14,-0.93 0.18,-1.4c0,-0.2 0,-0.4 0.06,-0.59c0,-0.66 0.09,-1.31 0.09,-2l0,-43.19a25.05,25.05 0 0 0 -0.15,-2.61c0,-0.28 -0.08,-0.56 -0.12,-0.83c-0.08,-0.58 -0.17,-1.16 -0.28,-1.72c-0.07,-0.33 -0.16,-0.65 -0.24,-1c-0.13,-0.51 -0.27,-1 -0.43,-1.52c-0.1,-0.33 -0.22,-0.65 -0.34,-1c-0.17,-0.49 -0.37,-1 -0.58,-1.43c-0.06,-0.16 -0.11,-0.31 -0.18,-0.46l0,0l0,-0.06l0,0l0,0l-0.22,-0.43l-0.35,-0.69c-0.23,-0.43 -0.48,-0.86 -0.74,-1.28l-0.36,-0.6c-0.37,-0.56 -0.75,-1.1 -1.16,-1.63l-0.09,-0.13a21.23,21.23 0 0 0 -1.39,-1.62a0.93,0.93 0 0 0 -0.13,-0.15l0,0a25,25 0 0 0 -5.74,-4.54l-37.56,-21.65a25,25 0 0 0 -25,0l-37.58,21.65a25,25 0 0 0 -9.69,10.13l0,0a25.24,25.24 0 0 0 -1.08,2.37l-0.09,0.22a25.08,25.08 0 0 0 -0.78,2.41l-0.09,0.32c-0.21,0.8 -0.37,1.62 -0.5,2.44c0,0.08 0,0.15 0,0.22l0,0a25,25 0 0 0 -0.3,3.59l0,43.3a25.06,25.06 0 0 0 12.53,21.66z" opacity="0.35" fill="url(#Degradado_sin_nombre_147)" id="svg_19"/> <path class="cls-14" d="m115.30248,27.36629l-37.56,-21.65a25,25 0 0 0 -21.37,-1.72l0,0l-0.28,0.12c-0.39,0.15 -0.77,0.32 -1.16,0.49l-0.55,0.25q-0.84,0.4 -1.65,0.87l-0.24,0.14l0,0l-37.33,21.5a24.85,24.85 0 0 0 -6.88,5.87l0,0l-0.19,0.24c-0.3,0.39 -0.59,0.78 -0.88,1.18l-0.27,0.38c-0.35,0.53 -0.69,1.07 -1,1.62c-0.07,0.13 -0.13,0.26 -0.2,0.38q-0.36,0.66 -0.69,1.35l-0.25,0.55q-0.28,0.66 -0.54,1.32c-0.06,0.17 -0.13,0.33 -0.19,0.5c-0.21,0.6 -0.4,1.22 -0.57,1.84l-0.06,0.28q-0.21,0.8 -0.36,1.62c0,0.2 -0.07,0.4 -0.1,0.6c-0.08,0.47 -0.14,0.94 -0.19,1.41c0,0.19 0,0.39 -0.05,0.59c-0.11,0.65 -0.11,1.27 -0.11,1.97l0,43.3a25,25 0 0 0 0.14,2.6c0,0.29 0.09,0.56 0.13,0.84c0.08,0.58 0.16,1.15 0.28,1.72c0.07,0.32 0.16,0.64 0.24,1c0.13,0.51 0.27,1 0.43,1.52c0.1,0.33 0.22,0.65 0.34,1s0.37,1 0.57,1.43c0.07,0.15 0.12,0.31 0.19,0.46l0,0l0,0.05a0.08,0.08 0 0 0 0,0l0,0c0.07,0.15 0.15,0.29 0.22,0.44l0.35,0.68c0.23,0.43 0.48,0.86 0.74,1.28c0.12,0.2 0.23,0.4 0.36,0.6c0.36,0.56 0.75,1.11 1.16,1.64a0.94,0.94 0 0 0 0.09,0.12c0.43,0.56 0.9,1.1 1.39,1.63l0.12,0.15l0,0a25.06,25.06 0 0 0 5.71,4.53l37.56,21.66a25.07,25.07 0 0 0 25,0l37.56,-21.66a25.1,25.1 0 0 0 9.69,-10.13l0,0a24.19,24.19 0 0 0 1.08,-2.37l0.09,-0.22a24.2,24.2 0 0 0 0.78,-2.41l0.09,-0.32a24.52,24.52 0 0 0 0.5,-2.44c0,-0.07 0,-0.15 0,-0.22l0,0a24.9,24.9 0 0 0 0.39,-3.58l0,-43.3a25,25 0 0 0 -12.53,-21.7z" opacity="0.7" fill="url(#Degradado_sin_nombre_143)" id="svg_20"/> <path class="cls-14" d="m115.30248,27.36629l-37.56,-21.65a25,25 0 0 0 -21.37,-1.72l0,0l-0.28,0.12c-0.39,0.15 -0.77,0.32 -1.16,0.49l-0.55,0.25q-0.84,0.4 -1.65,0.87l-0.24,0.14l0,0l-37.33,21.5a24.85,24.85 0 0 0 -6.88,5.87l0,0l-0.19,0.24c-0.3,0.39 -0.59,0.78 -0.88,1.18l-0.27,0.38c-0.35,0.53 -0.69,1.07 -1,1.62c-0.07,0.13 -0.13,0.26 -0.2,0.38q-0.36,0.66 -0.69,1.35l-0.25,0.55q-0.28,0.66 -0.54,1.32c-0.06,0.17 -0.13,0.33 -0.19,0.5c-0.21,0.6 -0.4,1.22 -0.57,1.84l-0.06,0.28q-0.21,0.8 -0.36,1.62c0,0.2 -0.07,0.4 -0.1,0.6c-0.08,0.47 -0.14,0.94 -0.19,1.41c0,0.19 0,0.39 -0.05,0.59c-0.11,0.65 -0.11,1.27 -0.11,1.97l0,43.3a25,25 0 0 0 0.14,2.6c0,0.29 0.09,0.56 0.13,0.84c0.08,0.58 0.16,1.15 0.28,1.72c0.07,0.32 0.16,0.64 0.24,1c0.13,0.51 0.27,1 0.43,1.52c0.1,0.33 0.22,0.65 0.34,1s0.37,1 0.57,1.43c0.07,0.15 0.12,0.31 0.19,0.46l0,0l0,0.05a0.08,0.08 0 0 0 0,0l0,0c0.07,0.15 0.15,0.29 0.22,0.44l0.35,0.68c0.23,0.43 0.48,0.86 0.74,1.28c0.12,0.2 0.23,0.4 0.36,0.6c0.36,0.56 0.75,1.11 1.16,1.64a0.94,0.94 0 0 0 0.09,0.12c0.43,0.56 0.9,1.1 1.39,1.63l0.12,0.15l0,0a25.06,25.06 0 0 0 5.71,4.53l37.56,21.66a25.07,25.07 0 0 0 25,0l37.56,-21.66a25.1,25.1 0 0 0 9.69,-10.13l0,0a24.19,24.19 0 0 0 1.08,-2.37l0.09,-0.22a24.2,24.2 0 0 0 0.78,-2.41l0.09,-0.32a24.52,24.52 0 0 0 0.5,-2.44c0,-0.07 0,-0.15 0,-0.22l0,0a24.9,24.9 0 0 0 0.39,-3.58l0,-43.3a25,25 0 0 0 -12.53,-21.7z" opacity="0.7" fill="url(#Degradado_sin_nombre_143)" id="svg_21"/> <path class="cls-15" d="m15.16248,114.02629l37.56,21.65a25,25 0 0 0 21.37,1.69l0,0l0.28,-0.12c0.39,-0.15 0.77,-0.32 1.15,-0.49l0.56,-0.25c0.56,-0.27 1.11,-0.55 1.65,-0.87l0.24,-0.14l0,0l37.32,-21.51a24.89,24.89 0 0 0 6.88,-5.88l0,0c0.07,-0.08 0.12,-0.16 0.18,-0.24c0.31,-0.38 0.6,-0.78 0.88,-1.18l0.28,-0.38c0.35,-0.53 0.69,-1.07 1,-1.62c0.07,-0.12 0.13,-0.25 0.2,-0.38c0.24,-0.44 0.47,-0.89 0.68,-1.34l0.26,-0.56q0.28,-0.65 0.54,-1.32l0.18,-0.5c0.22,-0.6 0.41,-1.21 0.58,-1.84l0.06,-0.28c0.14,-0.53 0.26,-1.07 0.36,-1.61c0,-0.2 0.07,-0.4 0.1,-0.61c0.07,-0.46 0.14,-0.93 0.18,-1.4c0,-0.2 0,-0.4 0.06,-0.59c0,-0.66 0.09,-1.31 0.09,-2l0,-43.19a25.05,25.05 0 0 0 -0.15,-2.61c0,-0.28 -0.08,-0.56 -0.12,-0.83c-0.08,-0.58 -0.17,-1.16 -0.28,-1.72c-0.07,-0.33 -0.16,-0.65 -0.24,-1c-0.13,-0.51 -0.27,-1 -0.43,-1.52c-0.1,-0.33 -0.22,-0.65 -0.34,-1c-0.17,-0.49 -0.37,-1 -0.58,-1.43c-0.06,-0.16 -0.11,-0.31 -0.18,-0.46l0,0l0,-0.06l0,0l0,0l-0.22,-0.43l-0.35,-0.69c-0.23,-0.43 -0.48,-0.86 -0.74,-1.28l-0.36,-0.6c-0.37,-0.56 -0.75,-1.1 -1.16,-1.63l-0.09,-0.13a21.23,21.23 0 0 0 -1.39,-1.62a0.93,0.93 0 0 0 -0.13,-0.15l0,0a25,25 0 0 0 -5.74,-4.54l-37.56,-21.65a25,25 0 0 0 -25,0l-37.58,21.65a25,25 0 0 0 -9.69,10.13l0,0a25.24,25.24 0 0 0 -1.08,2.37l-0.09,0.22a25.08,25.08 0 0 0 -0.78,2.41l-0.09,0.32c-0.21,0.8 -0.37,1.62 -0.5,2.44c0,0.08 0,0.15 0,0.22l0,0a25,25 0 0 0 -0.3,3.59l0,43.3a25.06,25.06 0 0 0 12.53,21.66z" opacity="0.35" fill="url(#Degradado_sin_nombre_147)" id="svg_22"/> <path class="cls-14" d="m115.30248,27.36629l-37.56,-21.65a25,25 0 0 0 -21.37,-1.72l0,0l-0.28,0.12c-0.39,0.15 -0.77,0.32 -1.16,0.49l-0.55,0.25q-0.84,0.4 -1.65,0.87l-0.24,0.14l0,0l-37.33,21.5a24.85,24.85 0 0 0 -6.88,5.87l0,0l-0.19,0.24c-0.3,0.39 -0.59,0.78 -0.88,1.18l-0.27,0.38c-0.35,0.53 -0.69,1.07 -1,1.62c-0.07,0.13 -0.13,0.26 -0.2,0.38q-0.36,0.66 -0.69,1.35l-0.25,0.55q-0.28,0.66 -0.54,1.32c-0.06,0.17 -0.13,0.33 -0.19,0.5c-0.21,0.6 -0.4,1.22 -0.57,1.84l-0.06,0.28q-0.21,0.8 -0.36,1.62c0,0.2 -0.07,0.4 -0.1,0.6c-0.08,0.47 -0.14,0.94 -0.19,1.41c0,0.19 0,0.39 -0.05,0.59c-0.11,0.65 -0.11,1.27 -0.11,1.97l0,43.3a25,25 0 0 0 0.14,2.6c0,0.29 0.09,0.56 0.13,0.84c0.08,0.58 0.16,1.15 0.28,1.72c0.07,0.32 0.16,0.64 0.24,1c0.13,0.51 0.27,1 0.43,1.52c0.1,0.33 0.22,0.65 0.34,1s0.37,1 0.57,1.43c0.07,0.15 0.12,0.31 0.19,0.46l0,0l0,0.05a0.08,0.08 0 0 0 0,0l0,0c0.07,0.15 0.15,0.29 0.22,0.44l0.35,0.68c0.23,0.43 0.48,0.86 0.74,1.28c0.12,0.2 0.23,0.4 0.36,0.6c0.36,0.56 0.75,1.11 1.16,1.64a0.94,0.94 0 0 0 0.09,0.12c0.43,0.56 0.9,1.1 1.39,1.63l0.12,0.15l0,0a25.06,25.06 0 0 0 5.71,4.53l37.56,21.66a25.07,25.07 0 0 0 25,0l37.56,-21.66a25.1,25.1 0 0 0 9.69,-10.13l0,0a24.19,24.19 0 0 0 1.08,-2.37l0.09,-0.22a24.2,24.2 0 0 0 0.78,-2.41l0.09,-0.32a24.52,24.52 0 0 0 0.5,-2.44c0,-0.07 0,-0.15 0,-0.22l0,0a24.9,24.9 0 0 0 0.39,-3.58l0,-43.3a25,25 0 0 0 -12.53,-21.7z" opacity="0.7" fill="url(#Degradado_sin_nombre_143)" id="svg_23"/> <path class="cls-14" d="m115.30248,27.36629l-37.56,-21.65a25,25 0 0 0 -21.37,-1.72l0,0l-0.28,0.12c-0.39,0.15 -0.77,0.32 -1.16,0.49l-0.55,0.25q-0.84,0.4 -1.65,0.87l-0.24,0.14l0,0l-37.33,21.5a24.85,24.85 0 0 0 -6.88,5.87l0,0l-0.19,0.24c-0.3,0.39 -0.59,0.78 -0.88,1.18l-0.27,0.38c-0.35,0.53 -0.69,1.07 -1,1.62c-0.07,0.13 -0.13,0.26 -0.2,0.38q-0.36,0.66 -0.69,1.35l-0.25,0.55q-0.28,0.66 -0.54,1.32c-0.06,0.17 -0.13,0.33 -0.19,0.5c-0.21,0.6 -0.4,1.22 -0.57,1.84l-0.06,0.28q-0.21,0.8 -0.36,1.62c0,0.2 -0.07,0.4 -0.1,0.6c-0.08,0.47 -0.14,0.94 -0.19,1.41c0,0.19 0,0.39 -0.05,0.59c-0.11,0.65 -0.11,1.27 -0.11,1.97l0,43.3a25,25 0 0 0 0.14,2.6c0,0.29 0.09,0.56 0.13,0.84c0.08,0.58 0.16,1.15 0.28,1.72c0.07,0.32 0.16,0.64 0.24,1c0.13,0.51 0.27,1 0.43,1.52c0.1,0.33 0.22,0.65 0.34,1s0.37,1 0.57,1.43c0.07,0.15 0.12,0.31 0.19,0.46l0,0l0,0.05a0.08,0.08 0 0 0 0,0l0,0c0.07,0.15 0.15,0.29 0.22,0.44l0.35,0.68c0.23,0.43 0.48,0.86 0.74,1.28c0.12,0.2 0.23,0.4 0.36,0.6c0.36,0.56 0.75,1.11 1.16,1.64a0.94,0.94 0 0 0 0.09,0.12c0.43,0.56 0.9,1.1 1.39,1.63l0.12,0.15l0,0a25.06,25.06 0 0 0 5.71,4.53l37.56,21.66a25.07,25.07 0 0 0 25,0l37.56,-21.66a25.1,25.1 0 0 0 9.69,-10.13l0,0a24.19,24.19 0 0 0 1.08,-2.37l0.09,-0.22a24.2,24.2 0 0 0 0.78,-2.41l0.09,-0.32a24.52,24.52 0 0 0 0.5,-2.44c0,-0.07 0,-0.15 0,-0.22l0,0a24.9,24.9 0 0 0 0.39,-3.58l0,-43.3a25,25 0 0 0 -12.53,-21.7z" opacity="0.7" fill="url(#Degradado_sin_nombre_143)" id="svg_24"/> <path class="cls-16" d="m15.16248,114.02629l37.56,21.65a25,25 0 0 0 21.37,1.69l0,0l0.28,-0.12c0.39,-0.15 0.77,-0.32 1.15,-0.49l0.56,-0.25c0.56,-0.27 1.11,-0.55 1.65,-0.87l0.24,-0.14l0,0l37.32,-21.51a24.89,24.89 0 0 0 6.88,-5.88l0,0c0.07,-0.08 0.12,-0.16 0.18,-0.24c0.31,-0.38 0.6,-0.78 0.88,-1.18l0.28,-0.38c0.35,-0.53 0.69,-1.07 1,-1.62c0.07,-0.12 0.13,-0.25 0.2,-0.38c0.24,-0.44 0.47,-0.89 0.68,-1.34l0.26,-0.56q0.28,-0.65 0.54,-1.32l0.18,-0.5c0.22,-0.6 0.41,-1.21 0.58,-1.84l0.06,-0.28c0.14,-0.53 0.26,-1.07 0.36,-1.61c0,-0.2 0.07,-0.4 0.1,-0.61c0.07,-0.46 0.14,-0.93 0.18,-1.4c0,-0.2 0,-0.4 0.06,-0.59c0,-0.66 0.09,-1.31 0.09,-2l0,-43.19a25.05,25.05 0 0 0 -0.15,-2.61c0,-0.28 -0.08,-0.56 -0.12,-0.83c-0.08,-0.58 -0.17,-1.16 -0.28,-1.72c-0.07,-0.33 -0.16,-0.65 -0.24,-1c-0.13,-0.51 -0.27,-1 -0.43,-1.52c-0.1,-0.33 -0.22,-0.65 -0.34,-1c-0.17,-0.49 -0.37,-1 -0.58,-1.43c-0.06,-0.16 -0.11,-0.31 -0.18,-0.46l0,0l0,-0.06l0,0l0,0l-0.22,-0.43l-0.35,-0.69c-0.23,-0.43 -0.48,-0.86 -0.74,-1.28l-0.36,-0.6c-0.37,-0.56 -0.75,-1.1 -1.16,-1.63l-0.09,-0.13a21.23,21.23 0 0 0 -1.39,-1.62a0.93,0.93 0 0 0 -0.13,-0.15l0,0a25,25 0 0 0 -5.74,-4.54l-37.56,-21.65a25,25 0 0 0 -25,0l-37.58,21.65a25,25 0 0 0 -9.69,10.13l0,0a25.24,25.24 0 0 0 -1.08,2.37l-0.09,0.22a25.08,25.08 0 0 0 -0.78,2.41l-0.09,0.32c-0.21,0.8 -0.37,1.62 -0.5,2.44c0,0.08 0,0.15 0,0.22l0,0a25,25 0 0 0 -0.3,3.59l0,43.3a25.06,25.06 0 0 0 12.53,21.66z" fill="url(#Degradado_sin_nombre_147)" opacity="0.5" id="svg_25"/> </g> </g> </svg>