<svg viewBox="0 0 504 162" xmlns="http://www.w3.org/2000/svg"> <defs> <clipPath transform="translate(45.63 52.37)" id="clip-path"> <path id="svg_1" fill="none" d="m6,-48.49l-0.24,0.13l75.26,79.9l0,-36.74a25,25 0 0 0 -12.51,-21.66l-37.51,-21.63a25,25 0 0 0 -25,0" class="cls-1"/> </clipPath> <clipPath transform="translate(45.63 52.37)" id="clip-path-2"> <path id="svg_2" fill="none" d="m6,-48.49l-37.49,21.63a25,25 0 0 0 -12.51,21.66l0,43.2a25,25 0 0 0 6.8,17.14l115.42,-5.58a25,25 0 0 0 2.83,-11.56l0,-12.22c-3.56,-6.32 -9,-15.72 -14.65,-24.69c-9.77,-15.46 -21.33,-25.25 -30.67,-33.17c-6.94,-5.92 -19.89,-14.25 -26.06,-18.14a24.21,24.21 0 0 0 -3.67,1.73" class="cls-1"/> </clipPath> <clipPath transform="translate(45.63 52.37)" id="clip-path-3"> <path id="svg_3" fill="none" d="m-44,-5.2l0,43.2a25.06,25.06 0 0 0 2.36,10.62l0.18,-0.32c5.56,-9.88 13.77,-29.1 15.62,-39s-0.02,-13.74 -4.16,-20.3a57,57 0 0 0 -8.4,-10a25,25 0 0 0 -5.6,15.8" class="cls-1"/> </clipPath> <clipPath transform="translate(45.63 52.37)" id="clip-path-4"> <path id="svg_4" fill="none" d="m-5.55,14.7c-23,7.69 -36.09,33.66 -36.09,33.66l0,0.17a25.12,25.12 0 0 0 10.21,11.16l37.43,21.63a25,25 0 0 0 25,0l37.52,-21.63a25,25 0 0 0 12.27,-18.09c-2.54,-2.9 -14.78,-16.29 -30.3,-24a69.14,69.14 0 0 0 -30.82,-7.16a79.33,79.33 0 0 0 -25.22,4.26" class="cls-1"/> </clipPath> <radialGradient id="xx5"> <stop stop-opacity="0.3" stop-color="#8e8f92" offset="0%"/> <stop stop-opacity="0" stop-color="white" offset="100%"/> </radialGradient> <linearGradient y2="0.50514" x2="0.82956" y1="0.50514" x1="0.43607" id="linear-gradient"> <stop stop-color="#b4ff59" offset="0"/> <stop stop-color="#89b900" offset="1"/> </linearGradient> <linearGradient y2="0.49825" x2="0.7737" y1="0.49825" x1="-0.07356" id="linear-gradient-2"> <stop stop-color="#b92dfd" offset="0"/> <stop stop-color="#fa4ab8" offset="1"/> </linearGradient> <linearGradient y2="0.49533" x2="0.90326" y1="0.49533" x1="-0.20416" id="linear-gradient-3"> <stop stop-color="#ffab90" offset="0"/> <stop stop-color="#ffb3ff" offset="1"/> </linearGradient> <linearGradient y2="0.50077" x2="1.00213" y1="0.50077" x1="-0.01524" id="linear-gradient-4"> <stop stop-color="#c90dcf" offset="0"/> <stop stop-color="#8e0dcf" offset="1"/> </linearGradient> <linearGradient y2="0.84593" x2="0.8778" y1="0.15384" x1="0.12228" id="Degradado_sin_nombre_143"> <stop stop-opacity="0" stop-color="#fefeff" offset="0.7"/> <stop stop-opacity="0.01" stop-color="#fdfcff" offset="0.79"/> <stop stop-opacity="0.05" stop-color="#f9f3fd" offset="0.83"/> <stop stop-opacity="0.11" stop-color="#f2e4fa" offset="0.86"/> <stop stop-opacity="0.2" stop-color="#e8cff6" offset="0.89"/> <stop stop-opacity="0.31" stop-color="#dbb3f0" offset="0.91"/> <stop stop-opacity="0.45" stop-color="#cc92e9" offset="0.93"/> <stop stop-opacity="0.62" stop-color="#b969e1" offset="0.95"/> <stop stop-opacity="0.81" stop-color="#a43cd8" offset="0.97"/> <stop stop-color="#8e0dcf" offset="0.98"/> </linearGradient> <linearGradient y2="0.1539" x2="0.12223" y1="0.84624" x1="0.87793" id="Degradado_sin_nombre_147"> <stop stop-opacity="0" stop-color="#fefeff" offset="0.7"/> <stop stop-opacity="0.01" stop-color="#fefeff" offset="0.78"/> <stop stop-opacity="0.04" stop-color="#fefeff" offset="0.82"/> <stop stop-opacity="0.09" stop-color="#fefeff" offset="0.85"/> <stop stop-opacity="0.16" stop-color="#fefeff" offset="0.87"/> <stop stop-opacity="0.25" stop-color="#fefeff" offset="0.9"/> <stop stop-opacity="0.37" stop-color="#fefeff" offset="0.91"/> <stop stop-opacity="0.5" stop-color="#fff" offset="0.93"/> <stop stop-opacity="0.66" stop-color="#fff" offset="0.95"/> <stop stop-opacity="0.83" stop-color="#fff" offset="0.96"/> <stop stop-color="#fff" offset="0.98"/> </linearGradient> </defs> <g> <title>Layer 1</title> <g data-name="Layer 2" id="Layer_2"> <g data-name="Capa 2" id="Capa_2"> <g id="svg_5" clip-path="url(#clip-path)" class="cls-2"> <rect transform="rotate(-40 -4.82 66.35)" id="svg_6" fill="url(#linear-gradient)" height="112.25" width="111.25" y="52.07" x="26.97" class="cls-3"/> </g> <g id="svg_7" clip-path="url(#clip-path-2)" class="cls-4"> <rect transform="rotate(-30 -17.23 38.93)" id="svg_8" fill="url(#linear-gradient-2)" height="153.79" width="160.99" y="16.51" x="-35.2" class="cls-5"/> </g> <g id="svg_9" clip-path="url(#clip-path-3)" class="cls-6"> <rect transform="rotate(-10 -9.65 3.1)" id="svg_10" fill="url(#linear-gradient-3)" height="72.06" width="31.8" y="32.89" x="-15.54" class="cls-7"/> </g> <g id="svg_11" clip-path="url(#clip-path-4)" class="cls-8"> <rect id="svg_12" fill="url(#linear-gradient-4)" height="75.34" width="122.48" y="62.81" x="3.94" class="cls-9"/> </g> <path id="svg_13" fill="#7c0dbc" d="m58.1,58.64a28.76,28.76 0 0 0 8.45,2.47a94.71,94.71 0 0 1 11,2.48a78.09,78.09 0 0 1 11,4a19.83,19.83 0 0 1 8.45,7.42a22.19,22.19 0 0 1 3.35,12.43q0,10.86 -8.85,17.78t-24.47,6.92a58,58 0 0 1 -19.22,-3.19a42.93,42.93 0 0 1 -15.18,-8.77l8.77,-14.19a40.72,40.72 0 0 0 12.07,7.38a37.69,37.69 0 0 0 14.51,3.19q6.38,0 9.65,-2.23a7,7 0 0 0 3.27,-6.06c0,-1.91 -1.15,-3.48 -3.43,-4.7a26.87,26.87 0 0 0 -8.45,-2.63a107.25,107.25 0 0 1 -11,-2.4a73.54,73.54 0 0 1 -11,-3.82a20.44,20.44 0 0 1 -8.45,-7.1" class="cls-10"/> <path id="svg_14" fill="#fff" d="m64.47,109.64a58.22,58.22 0 0 1 -19.21,-3.19a43.08,43.08 0 0 1 -15.23,-8.77l8.77,-14.19a40.72,40.72 0 0 0 12.12,7.33a37.69,37.69 0 0 0 14.51,3.19q6.38,0 9.65,-2.23a7,7 0 0 0 3.27,-6.06c0,-1.91 -1.15,-3.48 -3.43,-4.7a26.86,26.86 0 0 0 -8.45,-2.65a107.76,107.76 0 0 1 -11,-2.39a73.8,73.8 0 0 1 -11,-3.82a20.11,20.11 0 0 1 -11.84,-19.13q0,-10.2 8.45,-17.22t23.13,-7q17.85,0 31.09,10.53l-8.18,13.85a28.62,28.62 0 0 0 -9.81,-6.38a33.56,33.56 0 0 0 -13,-2.55a16.07,16.07 0 0 0 -8.77,2.11a6.38,6.38 0 0 0 -3.34,5.5c0,1.71 1.11,3.11 3.34,4.23a28.93,28.93 0 0 0 8.46,2.47a94.56,94.56 0 0 1 11,2.47a79.36,79.36 0 0 1 11,4a19.8,19.8 0 0 1 8.45,7.41a22.22,22.22 0 0 1 3.35,12.44q0,10.85 -8.85,17.78t-24.48,6.97z" class="cls-11"/> <path id="svg_15" fill="url(#xx5)" xstyle="fill:url(#rxx5);fill-opacity:1" d="m121.41,155.76c0,3.4 -25.63,6.16 -57.25,6.16s-57.26,-2.76 -57.26,-6.16s25.64,-6.16 57.26,-6.16s57.25,2.77 57.25,6.16z" class="cls-12"/> <g id="svg_16" opacity="0.7" class="cls-13"> <path id="svg_17" fill="url(#Degradado_sin_nombre_143)" opacity="0.7" d="m114.3,25.37l-37.56,-21.65a25,25 0 0 0 -21.37,-1.72l0,0l-0.28,0.12c-0.39,0.15 -0.77,0.32 -1.16,0.49l-0.55,0.25q-0.84,0.4 -1.65,0.87l-0.24,0.14l0,0l-37.33,21.5a24.85,24.85 0 0 0 -6.88,5.87l0,0l-0.19,0.24c-0.3,0.39 -0.59,0.78 -0.88,1.18l-0.27,0.38c-0.35,0.53 -0.69,1.07 -1,1.62c-0.07,0.13 -0.13,0.26 -0.2,0.38q-0.36,0.66 -0.69,1.35l-0.25,0.55q-0.28,0.66 -0.54,1.32c-0.06,0.17 -0.13,0.33 -0.19,0.5c-0.21,0.6 -0.4,1.22 -0.57,1.84l-0.06,0.28q-0.21,0.8 -0.36,1.62c0,0.2 -0.07,0.4 -0.1,0.6c-0.08,0.47 -0.14,0.94 -0.19,1.41c0,0.19 0,0.39 -0.05,0.59c-0.11,0.65 -0.11,1.27 -0.11,1.97l0,43.3a25,25 0 0 0 0.14,2.6c0,0.29 0.09,0.56 0.13,0.84c0.08,0.58 0.16,1.15 0.28,1.72c0.07,0.32 0.16,0.64 0.24,1c0.13,0.51 0.27,1 0.43,1.52c0.1,0.33 0.22,0.65 0.34,1s0.37,1 0.57,1.43c0.07,0.15 0.12,0.31 0.19,0.46l0,0l0,0.05a0.08,0.08 0 0 0 0,0l0,0c0.07,0.15 0.15,0.29 0.22,0.44l0.35,0.68c0.23,0.43 0.48,0.86 0.74,1.28c0.12,0.2 0.23,0.4 0.36,0.6c0.36,0.56 0.75,1.11 1.16,1.64a0.94,0.94 0 0 0 0.09,0.12c0.43,0.56 0.9,1.1 1.39,1.63l0.12,0.15l0,0a25.06,25.06 0 0 0 5.71,4.53l37.56,21.66a25.07,25.07 0 0 0 25,0l37.56,-21.66a25.1,25.1 0 0 0 9.69,-10.13l0,0a24.19,24.19 0 0 0 1.08,-2.37l0.09,-0.22a24.2,24.2 0 0 0 0.78,-2.41l0.09,-0.32a24.52,24.52 0 0 0 0.5,-2.44c0,-0.07 0,-0.15 0,-0.22l0,0a24.9,24.9 0 0 0 0.39,-3.58l0,-43.3a25,25 0 0 0 -12.53,-21.7z" class="cls-14"/> <path id="svg_18" fill="url(#Degradado_sin_nombre_143)" opacity="0.7" d="m114.3,25.37l-37.56,-21.65a25,25 0 0 0 -21.37,-1.72l0,0l-0.28,0.12c-0.39,0.15 -0.77,0.32 -1.16,0.49l-0.55,0.25q-0.84,0.4 -1.65,0.87l-0.24,0.14l0,0l-37.33,21.5a24.85,24.85 0 0 0 -6.88,5.87l0,0l-0.19,0.24c-0.3,0.39 -0.59,0.78 -0.88,1.18l-0.27,0.38c-0.35,0.53 -0.69,1.07 -1,1.62c-0.07,0.13 -0.13,0.26 -0.2,0.38q-0.36,0.66 -0.69,1.35l-0.25,0.55q-0.28,0.66 -0.54,1.32c-0.06,0.17 -0.13,0.33 -0.19,0.5c-0.21,0.6 -0.4,1.22 -0.57,1.84l-0.06,0.28q-0.21,0.8 -0.36,1.62c0,0.2 -0.07,0.4 -0.1,0.6c-0.08,0.47 -0.14,0.94 -0.19,1.41c0,0.19 0,0.39 -0.05,0.59c-0.11,0.65 -0.11,1.27 -0.11,1.97l0,43.3a25,25 0 0 0 0.14,2.6c0,0.29 0.09,0.56 0.13,0.84c0.08,0.58 0.16,1.15 0.28,1.72c0.07,0.32 0.16,0.64 0.24,1c0.13,0.51 0.27,1 0.43,1.52c0.1,0.33 0.22,0.65 0.34,1s0.37,1 0.57,1.43c0.07,0.15 0.12,0.31 0.19,0.46l0,0l0,0.05a0.08,0.08 0 0 0 0,0l0,0c0.07,0.15 0.15,0.29 0.22,0.44l0.35,0.68c0.23,0.43 0.48,0.86 0.74,1.28c0.12,0.2 0.23,0.4 0.36,0.6c0.36,0.56 0.75,1.11 1.16,1.64a0.94,0.94 0 0 0 0.09,0.12c0.43,0.56 0.9,1.1 1.39,1.63l0.12,0.15l0,0a25.06,25.06 0 0 0 5.71,4.53l37.56,21.66a25.07,25.07 0 0 0 25,0l37.56,-21.66a25.1,25.1 0 0 0 9.69,-10.13l0,0a24.19,24.19 0 0 0 1.08,-2.37l0.09,-0.22a24.2,24.2 0 0 0 0.78,-2.41l0.09,-0.32a24.52,24.52 0 0 0 0.5,-2.44c0,-0.07 0,-0.15 0,-0.22l0,0a24.9,24.9 0 0 0 0.39,-3.58l0,-43.3a25,25 0 0 0 -12.53,-21.7z" class="cls-14"/> <path id="svg_19" fill="url(#Degradado_sin_nombre_147)" opacity="0.35" d="m14.16,112.03l37.56,21.65a25,25 0 0 0 21.37,1.69l0,0l0.28,-0.12c0.39,-0.15 0.77,-0.32 1.15,-0.49l0.56,-0.25c0.56,-0.27 1.11,-0.55 1.65,-0.87l0.24,-0.14l0,0l37.32,-21.51a24.89,24.89 0 0 0 6.88,-5.88l0,0c0.07,-0.08 0.12,-0.16 0.18,-0.24c0.31,-0.38 0.6,-0.78 0.88,-1.18l0.28,-0.38c0.35,-0.53 0.69,-1.07 1,-1.62c0.07,-0.12 0.13,-0.25 0.2,-0.38c0.24,-0.44 0.47,-0.89 0.68,-1.34l0.26,-0.56q0.28,-0.65 0.54,-1.32l0.18,-0.5c0.22,-0.6 0.41,-1.21 0.58,-1.84l0.06,-0.28c0.14,-0.53 0.26,-1.07 0.36,-1.61c0,-0.2 0.07,-0.4 0.1,-0.61c0.07,-0.46 0.14,-0.93 0.18,-1.4c0,-0.2 0,-0.4 0.06,-0.59c0,-0.66 0.09,-1.31 0.09,-2l0,-43.19a25.05,25.05 0 0 0 -0.15,-2.61c0,-0.28 -0.08,-0.56 -0.12,-0.83c-0.08,-0.58 -0.17,-1.16 -0.28,-1.72c-0.07,-0.33 -0.16,-0.65 -0.24,-1c-0.13,-0.51 -0.27,-1 -0.43,-1.52c-0.1,-0.33 -0.22,-0.65 -0.34,-1c-0.17,-0.49 -0.37,-1 -0.58,-1.43c-0.06,-0.16 -0.11,-0.31 -0.18,-0.46l0,0l0,-0.06l0,0l0,0l-0.22,-0.43l-0.35,-0.69c-0.23,-0.43 -0.48,-0.86 -0.74,-1.28l-0.36,-0.6c-0.37,-0.56 -0.75,-1.1 -1.16,-1.63l-0.09,-0.13a21.23,21.23 0 0 0 -1.39,-1.62a0.93,0.93 0 0 0 -0.13,-0.15l0,0a25,25 0 0 0 -5.74,-4.54l-37.56,-21.65a25,25 0 0 0 -25,0l-37.58,21.65a25,25 0 0 0 -9.69,10.13l0,0a25.24,25.24 0 0 0 -1.08,2.37l-0.09,0.22a25.08,25.08 0 0 0 -0.78,2.41l-0.09,0.32c-0.21,0.8 -0.37,1.62 -0.5,2.44c0,0.08 0,0.15 0,0.22l0,0a25,25 0 0 0 -0.3,3.59l0,43.3a25.06,25.06 0 0 0 12.53,21.66z" class="cls-15"/> <path id="svg_20" fill="url(#Degradado_sin_nombre_143)" opacity="0.7" d="m114.3,25.37l-37.56,-21.65a25,25 0 0 0 -21.37,-1.72l0,0l-0.28,0.12c-0.39,0.15 -0.77,0.32 -1.16,0.49l-0.55,0.25q-0.84,0.4 -1.65,0.87l-0.24,0.14l0,0l-37.33,21.5a24.85,24.85 0 0 0 -6.88,5.87l0,0l-0.19,0.24c-0.3,0.39 -0.59,0.78 -0.88,1.18l-0.27,0.38c-0.35,0.53 -0.69,1.07 -1,1.62c-0.07,0.13 -0.13,0.26 -0.2,0.38q-0.36,0.66 -0.69,1.35l-0.25,0.55q-0.28,0.66 -0.54,1.32c-0.06,0.17 -0.13,0.33 -0.19,0.5c-0.21,0.6 -0.4,1.22 -0.57,1.84l-0.06,0.28q-0.21,0.8 -0.36,1.62c0,0.2 -0.07,0.4 -0.1,0.6c-0.08,0.47 -0.14,0.94 -0.19,1.41c0,0.19 0,0.39 -0.05,0.59c-0.11,0.65 -0.11,1.27 -0.11,1.97l0,43.3a25,25 0 0 0 0.14,2.6c0,0.29 0.09,0.56 0.13,0.84c0.08,0.58 0.16,1.15 0.28,1.72c0.07,0.32 0.16,0.64 0.24,1c0.13,0.51 0.27,1 0.43,1.52c0.1,0.33 0.22,0.65 0.34,1s0.37,1 0.57,1.43c0.07,0.15 0.12,0.31 0.19,0.46l0,0l0,0.05a0.08,0.08 0 0 0 0,0l0,0c0.07,0.15 0.15,0.29 0.22,0.44l0.35,0.68c0.23,0.43 0.48,0.86 0.74,1.28c0.12,0.2 0.23,0.4 0.36,0.6c0.36,0.56 0.75,1.11 1.16,1.64a0.94,0.94 0 0 0 0.09,0.12c0.43,0.56 0.9,1.1 1.39,1.63l0.12,0.15l0,0a25.06,25.06 0 0 0 5.71,4.53l37.56,21.66a25.07,25.07 0 0 0 25,0l37.56,-21.66a25.1,25.1 0 0 0 9.69,-10.13l0,0a24.19,24.19 0 0 0 1.08,-2.37l0.09,-0.22a24.2,24.2 0 0 0 0.78,-2.41l0.09,-0.32a24.52,24.52 0 0 0 0.5,-2.44c0,-0.07 0,-0.15 0,-0.22l0,0a24.9,24.9 0 0 0 0.39,-3.58l0,-43.3a25,25 0 0 0 -12.53,-21.7z" class="cls-14"/> <path id="svg_21" fill="url(#Degradado_sin_nombre_143)" opacity="0.7" d="m114.3,25.37l-37.56,-21.65a25,25 0 0 0 -21.37,-1.72l0,0l-0.28,0.12c-0.39,0.15 -0.77,0.32 -1.16,0.49l-0.55,0.25q-0.84,0.4 -1.65,0.87l-0.24,0.14l0,0l-37.33,21.5a24.85,24.85 0 0 0 -6.88,5.87l0,0l-0.19,0.24c-0.3,0.39 -0.59,0.78 -0.88,1.18l-0.27,0.38c-0.35,0.53 -0.69,1.07 -1,1.62c-0.07,0.13 -0.13,0.26 -0.2,0.38q-0.36,0.66 -0.69,1.35l-0.25,0.55q-0.28,0.66 -0.54,1.32c-0.06,0.17 -0.13,0.33 -0.19,0.5c-0.21,0.6 -0.4,1.22 -0.57,1.84l-0.06,0.28q-0.21,0.8 -0.36,1.62c0,0.2 -0.07,0.4 -0.1,0.6c-0.08,0.47 -0.14,0.94 -0.19,1.41c0,0.19 0,0.39 -0.05,0.59c-0.11,0.65 -0.11,1.27 -0.11,1.97l0,43.3a25,25 0 0 0 0.14,2.6c0,0.29 0.09,0.56 0.13,0.84c0.08,0.58 0.16,1.15 0.28,1.72c0.07,0.32 0.16,0.64 0.24,1c0.13,0.51 0.27,1 0.43,1.52c0.1,0.33 0.22,0.65 0.34,1s0.37,1 0.57,1.43c0.07,0.15 0.12,0.31 0.19,0.46l0,0l0,0.05a0.08,0.08 0 0 0 0,0l0,0c0.07,0.15 0.15,0.29 0.22,0.44l0.35,0.68c0.23,0.43 0.48,0.86 0.74,1.28c0.12,0.2 0.23,0.4 0.36,0.6c0.36,0.56 0.75,1.11 1.16,1.64a0.94,0.94 0 0 0 0.09,0.12c0.43,0.56 0.9,1.1 1.39,1.63l0.12,0.15l0,0a25.06,25.06 0 0 0 5.71,4.53l37.56,21.66a25.07,25.07 0 0 0 25,0l37.56,-21.66a25.1,25.1 0 0 0 9.69,-10.13l0,0a24.19,24.19 0 0 0 1.08,-2.37l0.09,-0.22a24.2,24.2 0 0 0 0.78,-2.41l0.09,-0.32a24.52,24.52 0 0 0 0.5,-2.44c0,-0.07 0,-0.15 0,-0.22l0,0a24.9,24.9 0 0 0 0.39,-3.58l0,-43.3a25,25 0 0 0 -12.53,-21.7z" class="cls-14"/> <path id="svg_22" fill="url(#Degradado_sin_nombre_147)" opacity="0.35" d="m14.16,112.03l37.56,21.65a25,25 0 0 0 21.37,1.69l0,0l0.28,-0.12c0.39,-0.15 0.77,-0.32 1.15,-0.49l0.56,-0.25c0.56,-0.27 1.11,-0.55 1.65,-0.87l0.24,-0.14l0,0l37.32,-21.51a24.89,24.89 0 0 0 6.88,-5.88l0,0c0.07,-0.08 0.12,-0.16 0.18,-0.24c0.31,-0.38 0.6,-0.78 0.88,-1.18l0.28,-0.38c0.35,-0.53 0.69,-1.07 1,-1.62c0.07,-0.12 0.13,-0.25 0.2,-0.38c0.24,-0.44 0.47,-0.89 0.68,-1.34l0.26,-0.56q0.28,-0.65 0.54,-1.32l0.18,-0.5c0.22,-0.6 0.41,-1.21 0.58,-1.84l0.06,-0.28c0.14,-0.53 0.26,-1.07 0.36,-1.61c0,-0.2 0.07,-0.4 0.1,-0.61c0.07,-0.46 0.14,-0.93 0.18,-1.4c0,-0.2 0,-0.4 0.06,-0.59c0,-0.66 0.09,-1.31 0.09,-2l0,-43.19a25.05,25.05 0 0 0 -0.15,-2.61c0,-0.28 -0.08,-0.56 -0.12,-0.83c-0.08,-0.58 -0.17,-1.16 -0.28,-1.72c-0.07,-0.33 -0.16,-0.65 -0.24,-1c-0.13,-0.51 -0.27,-1 -0.43,-1.52c-0.1,-0.33 -0.22,-0.65 -0.34,-1c-0.17,-0.49 -0.37,-1 -0.58,-1.43c-0.06,-0.16 -0.11,-0.31 -0.18,-0.46l0,0l0,-0.06l0,0l0,0l-0.22,-0.43l-0.35,-0.69c-0.23,-0.43 -0.48,-0.86 -0.74,-1.28l-0.36,-0.6c-0.37,-0.56 -0.75,-1.1 -1.16,-1.63l-0.09,-0.13a21.23,21.23 0 0 0 -1.39,-1.62a0.93,0.93 0 0 0 -0.13,-0.15l0,0a25,25 0 0 0 -5.74,-4.54l-37.56,-21.65a25,25 0 0 0 -25,0l-37.58,21.65a25,25 0 0 0 -9.69,10.13l0,0a25.24,25.24 0 0 0 -1.08,2.37l-0.09,0.22a25.08,25.08 0 0 0 -0.78,2.41l-0.09,0.32c-0.21,0.8 -0.37,1.62 -0.5,2.44c0,0.08 0,0.15 0,0.22l0,0a25,25 0 0 0 -0.3,3.59l0,43.3a25.06,25.06 0 0 0 12.53,21.66z" class="cls-15"/> <path id="svg_23" fill="url(#Degradado_sin_nombre_143)" opacity="0.7" d="m114.3,25.37l-37.56,-21.65a25,25 0 0 0 -21.37,-1.72l0,0l-0.28,0.12c-0.39,0.15 -0.77,0.32 -1.16,0.49l-0.55,0.25q-0.84,0.4 -1.65,0.87l-0.24,0.14l0,0l-37.33,21.5a24.85,24.85 0 0 0 -6.88,5.87l0,0l-0.19,0.24c-0.3,0.39 -0.59,0.78 -0.88,1.18l-0.27,0.38c-0.35,0.53 -0.69,1.07 -1,1.62c-0.07,0.13 -0.13,0.26 -0.2,0.38q-0.36,0.66 -0.69,1.35l-0.25,0.55q-0.28,0.66 -0.54,1.32c-0.06,0.17 -0.13,0.33 -0.19,0.5c-0.21,0.6 -0.4,1.22 -0.57,1.84l-0.06,0.28q-0.21,0.8 -0.36,1.62c0,0.2 -0.07,0.4 -0.1,0.6c-0.08,0.47 -0.14,0.94 -0.19,1.41c0,0.19 0,0.39 -0.05,0.59c-0.11,0.65 -0.11,1.27 -0.11,1.97l0,43.3a25,25 0 0 0 0.14,2.6c0,0.29 0.09,0.56 0.13,0.84c0.08,0.58 0.16,1.15 0.28,1.72c0.07,0.32 0.16,0.64 0.24,1c0.13,0.51 0.27,1 0.43,1.52c0.1,0.33 0.22,0.65 0.34,1s0.37,1 0.57,1.43c0.07,0.15 0.12,0.31 0.19,0.46l0,0l0,0.05a0.08,0.08 0 0 0 0,0l0,0c0.07,0.15 0.15,0.29 0.22,0.44l0.35,0.68c0.23,0.43 0.48,0.86 0.74,1.28c0.12,0.2 0.23,0.4 0.36,0.6c0.36,0.56 0.75,1.11 1.16,1.64a0.94,0.94 0 0 0 0.09,0.12c0.43,0.56 0.9,1.1 1.39,1.63l0.12,0.15l0,0a25.06,25.06 0 0 0 5.71,4.53l37.56,21.66a25.07,25.07 0 0 0 25,0l37.56,-21.66a25.1,25.1 0 0 0 9.69,-10.13l0,0a24.19,24.19 0 0 0 1.08,-2.37l0.09,-0.22a24.2,24.2 0 0 0 0.78,-2.41l0.09,-0.32a24.52,24.52 0 0 0 0.5,-2.44c0,-0.07 0,-0.15 0,-0.22l0,0a24.9,24.9 0 0 0 0.39,-3.58l0,-43.3a25,25 0 0 0 -12.53,-21.7z" class="cls-14"/> <path id="svg_24" fill="url(#Degradado_sin_nombre_143)" opacity="0.7" d="m114.3,25.37l-37.56,-21.65a25,25 0 0 0 -21.37,-1.72l0,0l-0.28,0.12c-0.39,0.15 -0.77,0.32 -1.16,0.49l-0.55,0.25q-0.84,0.4 -1.65,0.87l-0.24,0.14l0,0l-37.33,21.5a24.85,24.85 0 0 0 -6.88,5.87l0,0l-0.19,0.24c-0.3,0.39 -0.59,0.78 -0.88,1.18l-0.27,0.38c-0.35,0.53 -0.69,1.07 -1,1.62c-0.07,0.13 -0.13,0.26 -0.2,0.38q-0.36,0.66 -0.69,1.35l-0.25,0.55q-0.28,0.66 -0.54,1.32c-0.06,0.17 -0.13,0.33 -0.19,0.5c-0.21,0.6 -0.4,1.22 -0.57,1.84l-0.06,0.28q-0.21,0.8 -0.36,1.62c0,0.2 -0.07,0.4 -0.1,0.6c-0.08,0.47 -0.14,0.94 -0.19,1.41c0,0.19 0,0.39 -0.05,0.59c-0.11,0.65 -0.11,1.27 -0.11,1.97l0,43.3a25,25 0 0 0 0.14,2.6c0,0.29 0.09,0.56 0.13,0.84c0.08,0.58 0.16,1.15 0.28,1.72c0.07,0.32 0.16,0.64 0.24,1c0.13,0.51 0.27,1 0.43,1.52c0.1,0.33 0.22,0.65 0.34,1s0.37,1 0.57,1.43c0.07,0.15 0.12,0.31 0.19,0.46l0,0l0,0.05a0.08,0.08 0 0 0 0,0l0,0c0.07,0.15 0.15,0.29 0.22,0.44l0.35,0.68c0.23,0.43 0.48,0.86 0.74,1.28c0.12,0.2 0.23,0.4 0.36,0.6c0.36,0.56 0.75,1.11 1.16,1.64a0.94,0.94 0 0 0 0.09,0.12c0.43,0.56 0.9,1.1 1.39,1.63l0.12,0.15l0,0a25.06,25.06 0 0 0 5.71,4.53l37.56,21.66a25.07,25.07 0 0 0 25,0l37.56,-21.66a25.1,25.1 0 0 0 9.69,-10.13l0,0a24.19,24.19 0 0 0 1.08,-2.37l0.09,-0.22a24.2,24.2 0 0 0 0.78,-2.41l0.09,-0.32a24.52,24.52 0 0 0 0.5,-2.44c0,-0.07 0,-0.15 0,-0.22l0,0a24.9,24.9 0 0 0 0.39,-3.58l0,-43.3a25,25 0 0 0 -12.53,-21.7z" class="cls-14"/> <path id="svg_25" opacity="0.5" fill="url(#Degradado_sin_nombre_147)" d="m14.16,112.03l37.56,21.65a25,25 0 0 0 21.37,1.69l0,0l0.28,-0.12c0.39,-0.15 0.77,-0.32 1.15,-0.49l0.56,-0.25c0.56,-0.27 1.11,-0.55 1.65,-0.87l0.24,-0.14l0,0l37.32,-21.51a24.89,24.89 0 0 0 6.88,-5.88l0,0c0.07,-0.08 0.12,-0.16 0.18,-0.24c0.31,-0.38 0.6,-0.78 0.88,-1.18l0.28,-0.38c0.35,-0.53 0.69,-1.07 1,-1.62c0.07,-0.12 0.13,-0.25 0.2,-0.38c0.24,-0.44 0.47,-0.89 0.68,-1.34l0.26,-0.56q0.28,-0.65 0.54,-1.32l0.18,-0.5c0.22,-0.6 0.41,-1.21 0.58,-1.84l0.06,-0.28c0.14,-0.53 0.26,-1.07 0.36,-1.61c0,-0.2 0.07,-0.4 0.1,-0.61c0.07,-0.46 0.14,-0.93 0.18,-1.4c0,-0.2 0,-0.4 0.06,-0.59c0,-0.66 0.09,-1.31 0.09,-2l0,-43.19a25.05,25.05 0 0 0 -0.15,-2.61c0,-0.28 -0.08,-0.56 -0.12,-0.83c-0.08,-0.58 -0.17,-1.16 -0.28,-1.72c-0.07,-0.33 -0.16,-0.65 -0.24,-1c-0.13,-0.51 -0.27,-1 -0.43,-1.52c-0.1,-0.33 -0.22,-0.65 -0.34,-1c-0.17,-0.49 -0.37,-1 -0.58,-1.43c-0.06,-0.16 -0.11,-0.31 -0.18,-0.46l0,0l0,-0.06l0,0l0,0l-0.22,-0.43l-0.35,-0.69c-0.23,-0.43 -0.48,-0.86 -0.74,-1.28l-0.36,-0.6c-0.37,-0.56 -0.75,-1.1 -1.16,-1.63l-0.09,-0.13a21.23,21.23 0 0 0 -1.39,-1.62a0.93,0.93 0 0 0 -0.13,-0.15l0,0a25,25 0 0 0 -5.74,-4.54l-37.56,-21.65a25,25 0 0 0 -25,0l-37.58,21.65a25,25 0 0 0 -9.69,10.13l0,0a25.24,25.24 0 0 0 -1.08,2.37l-0.09,0.22a25.08,25.08 0 0 0 -0.78,2.41l-0.09,0.32c-0.21,0.8 -0.37,1.62 -0.5,2.44c0,0.08 0,0.15 0,0.22l0,0a25,25 0 0 0 -0.3,3.59l0,43.3a25.06,25.06 0 0 0 12.53,21.66z" class="cls-16"/> </g> <path id="svg_26" fill="#353535" d="m258.23,101.96l-53.7,0l0,-79.38l9.31,0l0,69.48l-1,1.08l45.39,0l0,8.82z" class="cls-17"/> <path id="svg_27" fill="#353535" d="m297.92,101.96l-9.29,0l0,-79.38l9.31,0l-0.02,79.38z" class="cls-17"/> <path id="svg_28" fill="#353535" d="m365.83,102.94c-12.74,0 -26.07,-4.12 -34.1,-12.94l7.35,-6.86c8.43,7.74 16.27,11 26.36,11c14.7,0 22.44,-5.59 22.44,-13.13c0,-5.39 -4.61,-10.39 -15.39,-13.23c-1.76,-0.51 -12.86,-3.41 -14.6,-3.94c-14.5,-4 -24.1,-9.21 -24.1,-20.78c0,-11 9.5,-21.46 31.06,-21.46c12.74,0 23.52,4.51 30.38,12.15l-7.06,6.76c-5,-6 -12.83,-10.09 -23.22,-10.09c-14.9,0 -21.56,5.78 -21.56,12.25c0,6.08 6.08,9.21 19.21,12.84c1.76,0.49 11,3 12.83,3.53c15.68,4.11 22.05,12.15 22.05,21.36c0,11.07 -8.43,22.54 -31.65,22.54z" class="cls-17"/> <path id="svg_29" fill="#353535" d="m503.12,101.96l-10.19,0l-8.43,-19.11l0.49,-1l-43.36,0l0.49,1l-8.49,19.11l-10.2,0l34.89,-79.38l9.9,0l34.9,79.38zm-22.34,-28.91l-1,-1l-14,-31.85l-2.36,-7.94l-0.19,0l-2.45,7.94l-14,31.85l-1,1l35,0z" class="cls-17"/> <path id="svg_30" fill="#353535" d="m215.31,123.69l-0.81,1.77a8.51,8.51 0 0 0 -4.55,-1.39c-2.12,0 -3.51,0.8 -3.51,2.19c0,4.25 9.29,2 9.27,8c0,2.76 -2.43,4.53 -6,4.53a9.38,9.38 0 0 1 -6.32,-2.52l0.85,-1.7a8.19,8.19 0 0 0 5.49,2.34c2.39,0 3.87,-1 3.87,-2.55c0,-4.34 -9.27,-2 -9.27,-7.95c0,-2.6 2.29,-4.27 5.71,-4.27a9.78,9.78 0 0 1 5.27,1.55z" class="cls-17"/> <path id="svg_31" fill="#353535" d="m222.06,124.05l0,5.42l8.32,0l0,1.82l-8.32,0l0,5.66l9.62,0l0,1.79l-11.51,0l0,-16.51l11.21,0l0,1.82l-9.32,0z" class="cls-17"/> <path id="svg_32" fill="#353535" d="m249.31,130.67l0,6a10.27,10.27 0 0 1 -6.14,2.17a8.34,8.34 0 1 1 0.1,-16.66a9.29,9.29 0 0 1 6.08,2.27l-1.08,1.41a7.61,7.61 0 0 0 -5,-1.91a6.55,6.55 0 1 0 0,13.09a7.9,7.9 0 0 0 4.34,-1.39l0,-5l1.7,0.02z" class="cls-17"/> <path id="svg_33" fill="#353535" d="m267.97,131.95c0,4.29 -2.59,6.89 -6.91,6.89s-7,-2.6 -7,-6.89l0,-9.72l1.89,0l0,9.72c0,3.21 1.93,5.07 5.07,5.07s5,-1.86 5,-5.07l0,-9.72l1.89,0l0.06,9.72z" class="cls-17"/> <path id="svg_34" fill="#353535" d="m280.57,133.48c-0.35,0 -0.73,0 -1.11,0l-4.38,0l0,5.21l-1.89,0l0,-16.46l6.27,0c4.13,0 6.52,2 6.52,5.54a5.18,5.18 0 0 1 -3.71,5.36l3.87,5.61l-2.15,0l-3.42,-5.26zm-1.11,-1.77c3,0 4.7,-1.32 4.7,-3.89s-1.7,-3.77 -4.7,-3.77l-4.38,0l0,7.66l4.38,0z" class="cls-17"/> <path id="svg_35" fill="#353535" d="m306.57,130.49a8.65,8.65 0 1 1 -8.63,-8.31a8.45,8.45 0 0 1 8.63,8.31zm-15.38,0a6.73,6.73 0 1 0 6.75,-6.52a6.66,6.66 0 0 0 -6.75,6.52z" class="cls-17"/> <path id="svg_36" fill="#353535" d="m320.76,123.69l-0.81,1.77a8.51,8.51 0 0 0 -4.55,-1.39c-2.12,0 -3.51,0.8 -3.51,2.19c0,4.25 9.29,2 9.27,8c0,2.76 -2.43,4.53 -6,4.53a9.38,9.38 0 0 1 -6.32,-2.52l0.85,-1.7a8.19,8.19 0 0 0 5.49,2.34c2.38,0 3.87,-1 3.87,-2.55c0,-4.34 -9.27,-2 -9.27,-7.95c0,-2.6 2.29,-4.27 5.71,-4.27a9.78,9.78 0 0 1 5.27,1.55z" class="cls-17"/> <path id="svg_37" fill="#353535" d="m332.63,138.74l0,-16.51l1.89,0l0,16.51l-1.89,0z" class="cls-17"/> <path id="svg_38" fill="#353535" d="m351.95,138.74l-9.91,-13.26l0,13.26l-1.89,0l0,-16.51l2,0l9.91,13.28l0,-13.28l1.86,0l0,16.51l-1.97,0z" class="cls-17"/> <path id="svg_39" fill="#353535" d="m364.53,124.05l0,14.69l-1.9,0l0,-14.69l-5.38,0l0,-1.82l12.68,0l0,1.82l-5.4,0z" class="cls-17"/> <path id="svg_40" fill="#353535" d="m375.15,124.05l0,5.42l8.32,0l0,1.82l-8.32,0l0,5.66l9.62,0l0,1.79l-11.51,0l0,-16.51l11.2,0l0,1.82l-9.31,0z" class="cls-17"/> <path id="svg_41" fill="#353535" d="m398.34,136.95l0,1.79l-9.13,0l0,-16.51l1.89,0l0,14.72l7.24,0z" class="cls-17"/> <path id="svg_42" fill="#353535" d="m402,138.74l0,-16.51l1.88,0l0,16.51l-1.88,0z" class="cls-17"/> <path id="svg_43" fill="#353535" d="m422.63,130.67l0,6a10.22,10.22 0 0 1 -6.13,2.17a8.34,8.34 0 1 1 0.09,-16.66a9.32,9.32 0 0 1 6.09,2.27l-1.05,1.41a7.64,7.64 0 0 0 -5,-1.91a6.55,6.55 0 1 0 0,13.09a8,8 0 0 0 4.34,-1.39l0,-5l1.66,0.02z" class="cls-17"/> <path id="svg_44" fill="#353535" d="m429.72,124.05l0,5.42l8.33,0l0,1.82l-8.33,0l0,5.66l9.63,0l0,1.79l-11.52,0l0,-16.51l11.21,0l0,1.82l-9.32,0z" class="cls-17"/> <path id="svg_45" fill="#353535" d="m455.63,138.74l-10,-13.26l0,13.26l-1.88,0l0,-16.51l1.95,0l9.93,13.28l0,-13.28l1.86,0l0,16.51l-1.86,0z" class="cls-17"/> <path id="svg_46" fill="#353535" d="m468.16,124.05l0,14.69l-1.89,0l0,-14.69l-5.38,0l0,-1.82l12.67,0l0,1.82l-5.4,0z" class="cls-17"/> <path id="svg_47" fill="#353535" d="m478.78,124.05l0,5.42l8.32,0l0,1.82l-8.32,0l0,5.66l9.62,0l0,1.79l-11.51,0l0,-16.51l11.21,0l0,1.82l-9.32,0z" class="cls-17"/> <path id="svg_48" fill="#353535" d="m502.98,123.69l-0.8,1.77a8.51,8.51 0 0 0 -4.55,-1.39c-2.12,0 -3.52,0.8 -3.52,2.19c0,4.25 9.3,2 9.27,8c0,2.76 -2.43,4.53 -6,4.53a9.42,9.42 0 0 1 -6.33,-2.52l0.85,-1.7a8.23,8.23 0 0 0 5.5,2.34c2.38,0 3.87,-1 3.87,-2.55c0,-4.34 -9.27,-2 -9.27,-7.95c0,-2.6 2.29,-4.27 5.71,-4.27a9.72,9.72 0 0 1 5.27,1.55z" class="cls-17"/> </g> </g> </g> </svg>