<?xml version="1.0" encoding="UTF-8" standalone="no"?>
<svg
   xmlns:dc="http://purl.org/dc/elements/1.1/"
   xmlns:cc="http://creativecommons.org/ns#"
   xmlns:rdf="http://www.w3.org/1999/02/22-rdf-syntax-ns#"
   xmlns:svg="http://www.w3.org/2000/svg"
   xmlns="http://www.w3.org/2000/svg"
   xmlns:sodipodi="http://sodipodi.sourceforge.net/DTD/sodipodi-0.dtd"
   xmlns:inkscape="http://www.inkscape.org/namespaces/inkscape"
   version="1.1"
   id="Layer_1"
   x="0px"
   y="0px"
   viewBox="0 0 328.99999 41.250001"
   xml:space="preserve"
   sodipodi:docname="ATF_logo_C.svg"
   width="329"
   height="41.25"
   inkscape:version="1.0.2-2 (e86c870879, 2021-01-15)"><metadata
   id="metadata53"><rdf:RDF><cc:Work
       rdf:about=""><dc:format>image/svg+xml</dc:format><dc:type
         rdf:resource="http://purl.org/dc/dcmitype/StillImage" /><dc:title></dc:title></cc:Work></rdf:RDF></metadata><defs
   id="defs51">
	
	
	
	
	
	
	
	
	
	
	
	
	
	
	
	
</defs><sodipodi:namedview
   pagecolor="#ffffff"
   bordercolor="#666666"
   borderopacity="1"
   objecttolerance="10"
   gridtolerance="10"
   guidetolerance="10"
   inkscape:pageopacity="0"
   inkscape:pageshadow="2"
   inkscape:window-width="2041"
   inkscape:window-height="869"
   id="namedview49"
   showgrid="false"
   fit-margin-top="0"
   fit-margin-left="0"
   fit-margin-right="0"
   fit-margin-bottom="0"
   inkscape:zoom="1.2079819"
   inkscape:cx="300.55001"
   inkscape:cy="-77.675006"
   inkscape:window-x="0"
   inkscape:window-y="0"
   inkscape:window-maximized="0"
   inkscape:current-layer="Layer_1" />
<style
   type="text/css"
   id="style2">
	.st0{font-family:'SinkinSans-700Bold';}
	.st1{font-size:53.5465px;}
	.st2{letter-spacing:-2;}
	.st3{fill:#FFFFFF;}
</style>

<path
   d="M 325,33.975 H 53.7 c -2.2,0 -4,-1.8 -4,-4 v -18.7 c 0,-2.2 1.8,-4 4,-4 H 325 c 2.2,0 4,1.8 4,4 v 18.7 c -0.1,2.2 -1.8,4 -4,4 z"
   id="path6"
   style="fill:#ffffff" />

<path
   class="st3"
   d="m 74.3,28.475 h -3.5 l -1.6,-3.4 0.2,-0.3 h -7.8 l 0.2,0.3 -1.6,3.4 h -3.6 l 7.4,-15.4 h 2.9 z m -6.4,-6.4 -0.3,-0.3 -1.6,-3.3 -0.5,-1.4 v 0 l -0.5,1.4 -1.6,3.3 -0.3,0.3 z"
   id="path10"
   style="fill:#e425e0;fill-opacity:1" /><path
   class="st3"
   d="m 81.9,28.675 c -2.7,0 -5.4,-0.9 -7.3,-2.7 l 2.2,-2.2 c 1.6,1.4 3.4,2.1 5.2,2.1 2.5,0 3.4,-0.8 3.4,-1.7 0,-0.5 -0.4,-1.3 -2.5,-1.7 -0.3,-0.1 -2.5,-0.6 -2.9,-0.7 -2.7,-0.7 -5.2,-1.7 -5.2,-4.3 0,-2.5 2.3,-4.5 6.7,-4.5 2.8,0 5,0.9 6.7,2.6 l -2.3,2.2 c -1.1,-1.2 -2.7,-2 -4.5,-2 -2.5,0 -3.4,0.8 -3.4,1.5 0,0.6 0.7,1 3.2,1.7 0.3,0.1 2.1,0.6 2.5,0.6 3.2,0.8 4.8,2.5 4.8,4.5 0.3,2.3 -1.8,4.6 -6.6,4.6 z"
   id="path12"
   style="fill:#e425e0;fill-opacity:1" /><path
   class="st3"
   d="M 103.2,28.475 H 90.5 v -15.4 h 12.7 v 2.9 h -9.8 l 0.3,0.3 v 2.8 l -0.3,0.3 h 8.9 v 2.9 h -8.9 l 0.3,0.3 v 2.8 l -0.3,0.3 h 9.8 z"
   id="path14"
   style="fill:#e425e0;fill-opacity:1" /><path
   class="st3"
   d="m 120.2,28.475 h -2.8 v -1.5 c -0.9,1 -2.7,1.6 -4.5,1.6 -5.2,0 -8.2,-3 -8.2,-7.8 0,-4.8 3.1,-8 8.3,-8 2.5,0 4.8,0.7 6.4,2.4 l -2.2,2.2 c -1.1,-1.3 -2.5,-1.8 -4.1,-1.8 -3.4,0 -5,1.9 -5,5.2 0,3.1 1.5,4.9 4.9,4.9 2.4,0 4,-1.4 4.2,-3.3 l 0.3,-0.3 h -5.3 v -2.9 h 8.1 v 9.3 z"
   id="path16"
   style="fill:#e425e0;fill-opacity:1" /><path
   class="st3"
   d="m 137,21.375 c 0,4.6 -2.3,7.3 -7.2,7.3 -4.9,0 -7.3,-2.6 -7.3,-7.3 v -8.3 h 3.2 v 8.3 c 0,2.9 1.1,4.4 4,4.4 2.9,0 4,-1.5 4,-4.4 v -8.3 h 3.2 v 8.3 z"
   id="path18"
   style="fill:#e425e0;fill-opacity:1" /><path
   class="st3"
   d="m 154.4,28.475 h -3.6 l -2.1,-4.1 c -0.6,-1.2 -1.5,-1.7 -3.3,-1.7 h -3.1 l 0.3,0.3 v 5.5 h -3.2 v -15.4 h 7.5 c 3.1,0 5.9,1.5 5.9,4.8 0,1.6 -1.3,3.1 -2.6,3.7 v 0 c 0.5,0.2 1.1,0.8 1.6,1.6 z m -7.6,-12.5 h -4.5 l 0.3,0.3 v 3.4 l -0.3,0.3 h 4.3 c 2,0 2.8,-1 2.8,-2 0,-1.4 -0.9,-2 -2.6,-2 z"
   id="path20"
   style="fill:#e425e0;fill-opacity:1" /><path
   class="st3"
   d="M 171.5,28.475 H 168 l -1.6,-3.4 0.2,-0.3 h -7.7 l 0.2,0.3 -1.6,3.4 h -3.6 l 7.4,-15.4 h 2.9 z m -6.4,-6.4 -0.3,-0.3 -1.6,-3.3 -0.5,-1.4 v 0 l -0.5,1.4 -1.6,3.3 -0.3,0.3 z"
   id="path22"
   style="fill:#e425e0;fill-opacity:1" /><path
   class="st3"
   d="m 190,15.975 h -5.5 l 0.2,0.3 v 12.2 h -3.2 v -12.2 l 0.2,-0.3 h -5.5 v -2.9 h 13.9 v 2.9 z"
   id="path24"
   style="fill:#e425e0;fill-opacity:1" /><path
   class="st3"
   d="m 205.6,21.375 c 0,4.6 -2.3,7.3 -7.2,7.3 -4.9,0 -7.3,-2.6 -7.3,-7.3 v -8.3 h 3.2 v 8.3 c 0,2.9 1.1,4.4 4,4.4 2.9,0 4,-1.5 4,-4.4 v -8.3 h 3.2 v 8.3 z"
   id="path26"
   style="fill:#e425e0;fill-opacity:1" /><path
   class="st3"
   d="m 225.3,15.975 h -9.4 l 0.3,0.3 v 3.1 l -0.3,0.3 h 8.5 v 2.9 h -8.5 l 0.3,0.3 v 5.6 H 213 v -15.4 h 12.4 v 2.9 z"
   id="path28"
   style="fill:#e425e0;fill-opacity:1" /><path
   class="st3"
   d="m 242.1,28.475 h -3.5 l -1.6,-3.4 0.2,-0.3 h -7.7 l 0.2,0.3 -1.6,3.4 h -3.6 l 7.4,-15.4 h 2.9 z m -6.4,-6.4 -0.3,-0.3 -1.6,-3.3 -0.5,-1.4 v 0 l -0.5,1.4 -1.6,3.3 -0.3,0.3 z"
   id="path30"
   style="fill:#e425e0;fill-opacity:1" /><path
   class="st3"
   d="m 256.6,25.875 c -1.6,1.8 -3.8,2.8 -6.5,2.8 -5.4,0 -8.3,-3.2 -8.3,-7.8 0,-4.6 2.9,-8 8.3,-8 2.8,0 4.8,0.9 6.4,2.7 l -2.2,2.2 c -1,-1.4 -2.4,-2.1 -4.2,-2.1 -3.5,0 -5,2.2 -5,5.1 0,2.8 1.4,4.9 5,4.9 1.8,0 3.3,-0.7 4.3,-2 z"
   id="path32"
   style="fill:#e425e0;fill-opacity:1" /><path
   class="st3"
   d="M 270.5,15.975 H 265 l 0.2,0.3 v 12.2 H 262 v -12.2 l 0.2,-0.3 h -5.6 v -2.9 h 13.9 z"
   id="path34"
   style="fill:#e425e0;fill-opacity:1" /><path
   class="st3"
   d="m 286,21.375 c 0,4.6 -2.3,7.3 -7.2,7.3 -4.9,0 -7.3,-2.6 -7.3,-7.3 v -8.3 h 3.2 v 8.3 c 0,2.9 1.1,4.4 4,4.4 2.9,0 4,-1.5 4,-4.4 v -8.3 h 3.2 v 8.3 z"
   id="path36"
   style="fill:#e425e0;fill-opacity:1" /><path
   class="st3"
   d="m 303.4,28.475 h -3.6 l -2.1,-4.1 c -0.6,-1.2 -1.5,-1.7 -3.3,-1.7 h -3.1 l 0.3,0.3 v 5.5 h -3.2 v -15.4 h 7.5 c 3.1,0 5.9,1.5 5.9,4.8 0,1.6 -1.3,3.1 -2.6,3.7 v 0 c 0.5,0.2 1.1,0.8 1.6,1.6 z m -7.6,-12.5 h -4.5 l 0.3,0.3 v 3.4 l -0.3,0.3 h 4.3 c 2,0 2.8,-1 2.8,-2 0.1,-1.4 -0.9,-2 -2.6,-2 z"
   id="path38"
   style="fill:#e425e0;fill-opacity:1" /><path
   class="st3"
   d="M 320.5,28.475 H 317 l -1.6,-3.4 0.2,-0.3 h -7.7 l 0.2,0.3 -1.6,3.4 h -3.6 l 7.4,-15.4 h 2.9 z m -6.4,-6.4 -0.3,-0.3 -1.6,-3.3 -0.5,-1.4 v 0 l -0.5,1.4 -1.6,3.3 -0.3,0.3 z"
   id="path40"
   style="fill:#e425e0;fill-opacity:1" />
<g
   id="g46"
   transform="translate(-120.4,-375.325)"
   style="fill:#000000">
	<path
   id="path44"
   style="fill:#ffffff"
   d="m 154,406.3 h -5.8 l -2.7,-5.6 0.3,-0.5 H 133 l 0.3,0.5 -2.6,5.6 h -5.9 l 12.3,-25.5 h 4.7 z m -10.6,-10.5 -0.5,-0.5 -2.6,-5.5 -0.8,-2.3 h -0.1 l -0.8,2.3 -2.6,5.5 -0.5,0.5 z m -23,-6.7 v 13.7 c 0,2.5 1.3,4.8 3.5,6 l 11.7,6.8 c 2.2,1.3 4.8,1.3 7,0 l 11.7,-6.8 c 2.2,-1.3 3.5,-3.6 3.5,-6 v -13.7 c 0,-2.5 -1.3,-4.8 -3.5,-6 l -11.7,-6.8 c -2.2,-1.3 -4.9,-1.3 -7,0 l -11.7,6.8 c -2.1,1.2 -3.5,3.5 -3.5,6 z" />
</g>
</svg>
