<?xml version="1.0" encoding="UTF-8" standalone="no"?>
<svg
   xmlns:dc="http://purl.org/dc/elements/1.1/"
   xmlns:cc="http://creativecommons.org/ns#"
   xmlns:rdf="http://www.w3.org/1999/02/22-rdf-syntax-ns#"
   xmlns:svg="http://www.w3.org/2000/svg"
   xmlns="http://www.w3.org/2000/svg"
   xmlns:sodipodi="http://sodipodi.sourceforge.net/DTD/sodipodi-0.dtd"
   xmlns:inkscape="http://www.inkscape.org/namespaces/inkscape"
   version="1.1"
   id="Layer_1"
   x="0px"
   y="0px"
   viewBox="0 0 328.99999 41.250001"
   xml:space="preserve"
   sodipodi:docname="ATF_logo_T.svg"
   width="329"
   height="41.25"
   inkscape:version="1.0.2-2 (e86c870879, 2021-01-15)"><metadata
   id="metadata53"><rdf:RDF><cc:Work
       rdf:about=""><dc:format>image/svg+xml</dc:format><dc:type
         rdf:resource="http://purl.org/dc/dcmitype/StillImage" /><dc:title></dc:title></cc:Work></rdf:RDF></metadata><defs
   id="defs51">
	
	
	
	
	
	
	
	
	
	
	
	
	
	
	
	
</defs><sodipodi:namedview
   pagecolor="#ffffff"
   bordercolor="#666666"
   borderopacity="1"
   objecttolerance="10"
   gridtolerance="10"
   guidetolerance="10"
   inkscape:pageopacity="0"
   inkscape:pageshadow="2"
   inkscape:window-width="2041"
   inkscape:window-height="869"
   id="namedview49"
   showgrid="false"
   fit-margin-top="0"
   fit-margin-left="0"
   fit-margin-right="0"
   fit-margin-bottom="0"
   inkscape:zoom="3.4166888"
   inkscape:cx="164.08836"
   inkscape:cy="-10.368486"
   inkscape:window-x="0"
   inkscape:window-y="0"
   inkscape:window-maximized="0"
   inkscape:current-layer="Layer_1" />
<style
   type="text/css"
   id="style2">
	.st0{font-family:'SinkinSans-700Bold';}
	.st1{font-size:53.5465px;}
	.st2{letter-spacing:-2;}
	.st3{fill:#FFFFFF;}
</style>

<path
   id="path6"
   style="fill:#ffffff"
   d="M 53.699219 7.2753906 C 51.499219 7.2753906 49.699219 9.0753846 49.699219 11.275391 L 49.699219 29.974609 C 49.699219 32.174609 51.499219 33.974609 53.699219 33.974609 L 325 33.974609 C 327.2 33.974609 328.9 32.174609 329 29.974609 L 329 11.275391 C 329 9.0753846 327.2 7.2753906 325 7.2753906 L 53.699219 7.2753906 z M 113 12.775391 C 115.5 12.775391 117.80039 13.475781 119.40039 15.175781 L 117.19922 17.375 C 116.09922 16.075 114.69961 15.574219 113.09961 15.574219 C 109.69961 15.574219 108.09961 17.475391 108.09961 20.775391 C 108.09961 23.875391 109.6 25.675781 113 25.675781 C 115.4 25.675781 116.99922 24.275 117.19922 22.375 L 117.5 22.074219 L 112.19922 22.074219 L 112.19922 19.175781 L 120.30078 19.175781 L 120.30078 28.474609 L 120.19922 28.474609 L 117.40039 28.474609 L 117.40039 26.974609 C 116.50039 27.974609 114.70039 28.574219 112.90039 28.574219 C 107.70039 28.574219 104.69922 25.575391 104.69922 20.775391 C 104.69922 15.975391 107.8 12.775391 113 12.775391 z M 250.09961 12.875 C 252.89961 12.875 254.9 13.774219 256.5 15.574219 L 254.30078 17.775391 C 253.30078 16.375391 251.89961 15.675781 250.09961 15.675781 C 246.59961 15.675781 245.09961 17.875391 245.09961 20.775391 C 245.09961 23.575391 246.49961 25.675781 250.09961 25.675781 C 251.89961 25.675781 253.40039 24.975781 254.40039 23.675781 L 256.59961 25.875 C 254.99961 27.675 252.79961 28.675781 250.09961 28.675781 C 244.69961 28.675781 241.80078 25.475 241.80078 20.875 C 241.80078 16.275 244.69961 12.875 250.09961 12.875 z M 81.5 12.974609 C 84.3 12.974609 86.499219 13.874219 88.199219 15.574219 L 85.900391 17.775391 C 84.800391 16.575391 83.200391 15.775391 81.400391 15.775391 C 78.900391 15.775391 78 16.575391 78 17.275391 C 78 17.875391 78.699219 18.274609 81.199219 18.974609 C 81.499219 19.074609 83.299219 19.574219 83.699219 19.574219 C 86.899219 20.374219 88.5 22.074219 88.5 24.074219 C 88.8 26.374219 86.700391 28.675781 81.900391 28.675781 C 79.200391 28.675781 76.499609 27.774609 74.599609 25.974609 L 76.800781 23.775391 C 78.400781 25.175391 80.2 25.875 82 25.875 C 84.5 25.875 85.400391 25.075781 85.400391 24.175781 C 85.400391 23.675781 85.000391 22.874609 82.900391 22.474609 C 82.600391 22.374609 80.4 21.875391 80 21.775391 C 77.3 21.075391 74.800781 20.074609 74.800781 17.474609 C 74.800781 14.974609 77.1 12.974609 81.5 12.974609 z M 64 13.074219 L 66.900391 13.074219 L 74.300781 28.474609 L 70.800781 28.474609 L 69.199219 25.074219 L 69.400391 24.775391 L 61.599609 24.775391 L 61.800781 25.074219 L 60.199219 28.474609 L 56.599609 28.474609 L 64 13.074219 z M 90.5 13.074219 L 103.19922 13.074219 L 103.19922 15.974609 L 93.400391 15.974609 L 93.699219 16.275391 L 93.699219 19.074219 L 93.400391 19.375 L 102.30078 19.375 L 102.30078 22.275391 L 93.400391 22.275391 L 93.699219 22.574219 L 93.699219 25.375 L 93.400391 25.675781 L 103.19922 25.675781 L 103.19922 28.474609 L 90.5 28.474609 L 90.5 13.074219 z M 122.5 13.074219 L 125.69922 13.074219 L 125.69922 21.375 C 125.69922 24.275 126.79922 25.775391 129.69922 25.775391 C 132.59922 25.775391 133.69922 24.275 133.69922 21.375 L 133.69922 13.074219 L 136.90039 13.074219 L 136.90039 21.375 L 137 21.375 C 137 25.975 134.70078 28.675781 129.80078 28.675781 C 124.90078 28.675781 122.5 26.075 122.5 21.375 L 122.5 13.074219 z M 139.40039 13.074219 L 146.90039 13.074219 C 150.00039 13.074219 152.80078 14.575 152.80078 17.875 C 152.80078 19.475 151.49922 20.974219 150.19922 21.574219 C 150.69922 21.774219 151.30078 22.375781 151.80078 23.175781 L 154.14844 27.958984 L 161.30078 13.074219 L 164.19922 13.074219 L 171.5 28.474609 L 168 28.474609 L 166.40039 25.074219 L 166.59961 24.775391 L 158.90039 24.775391 L 159.09961 25.074219 L 157.5 28.474609 L 154.40039 28.474609 L 153.90039 28.474609 L 150.80078 28.474609 L 148.69922 24.375 C 148.09922 23.175 147.20039 22.675781 145.40039 22.675781 L 142.30078 22.675781 L 142.59961 22.974609 L 142.59961 28.474609 L 139.40039 28.474609 L 139.40039 13.074219 z M 176.19922 13.074219 L 190.09961 13.074219 L 190.09961 15.974609 L 190 15.974609 L 184.5 15.974609 L 184.69922 16.275391 L 184.69922 28.474609 L 181.5 28.474609 L 181.5 16.275391 L 181.69922 15.974609 L 176.19922 15.974609 L 176.19922 13.074219 z M 191.09961 13.074219 L 194.30078 13.074219 L 194.30078 21.375 C 194.30078 24.275 195.40078 25.775391 198.30078 25.775391 C 201.20078 25.775391 202.30078 24.275 202.30078 21.375 L 202.30078 13.074219 L 205.5 13.074219 L 205.5 21.375 L 205.59961 21.375 C 205.59961 25.975 203.30039 28.675781 198.40039 28.675781 C 193.50039 28.675781 191.09961 26.075 191.09961 21.375 L 191.09961 13.074219 z M 213 13.074219 L 225.40039 13.074219 L 225.40039 15.974609 L 225.30078 15.974609 L 215.90039 15.974609 L 216.19922 16.275391 L 216.19922 19.375 L 215.90039 19.675781 L 224.40039 19.675781 L 224.40039 22.574219 L 215.90039 22.574219 L 216.19922 22.875 L 216.19922 28.474609 L 213 28.474609 L 213 13.074219 z M 231.90039 13.074219 L 234.80078 13.074219 L 242.09961 28.474609 L 238.59961 28.474609 L 237 25.074219 L 237.19922 24.775391 L 229.5 24.775391 L 229.69922 25.074219 L 228.09961 28.474609 L 224.5 28.474609 L 231.90039 13.074219 z M 256.59961 13.074219 L 270.5 13.074219 L 270.5 15.974609 L 265 15.974609 L 265.19922 16.275391 L 265.19922 28.474609 L 262 28.474609 L 262 16.275391 L 262.19922 15.974609 L 256.59961 15.974609 L 256.59961 13.074219 z M 271.5 13.074219 L 274.69922 13.074219 L 274.69922 21.375 C 274.69922 24.275 275.79922 25.775391 278.69922 25.775391 C 281.59922 25.775391 282.69922 24.275 282.69922 21.375 L 282.69922 13.074219 L 285.90039 13.074219 L 285.90039 21.375 L 286 21.375 C 286 25.975 283.70078 28.675781 278.80078 28.675781 C 273.90078 28.675781 271.5 26.075 271.5 21.375 L 271.5 13.074219 z M 288.40039 13.074219 L 295.90039 13.074219 C 299.00039 13.074219 301.80078 14.575 301.80078 17.875 C 301.80078 19.475 300.49922 20.974219 299.19922 21.574219 C 299.69922 21.774219 300.30078 22.375781 300.80078 23.175781 L 303.14844 27.958984 L 310.30078 13.074219 L 313.19922 13.074219 L 320.5 28.474609 L 317 28.474609 L 315.40039 25.074219 L 315.59961 24.775391 L 307.90039 24.775391 L 308.09961 25.074219 L 306.5 28.474609 L 303.40039 28.474609 L 302.90039 28.474609 L 299.80078 28.474609 L 297.69922 24.375 C 297.09922 23.175 296.20039 22.675781 294.40039 22.675781 L 291.30078 22.675781 L 291.59961 22.974609 L 291.59961 28.474609 L 288.40039 28.474609 L 288.40039 13.074219 z M 142.30078 15.974609 L 142.59961 16.275391 L 142.59961 19.675781 L 142.30078 19.974609 L 146.59961 19.974609 C 148.59961 19.974609 149.40039 18.974609 149.40039 17.974609 C 149.40039 16.574609 148.50078 15.974609 146.80078 15.974609 L 142.30078 15.974609 z M 291.30078 15.974609 L 291.59961 16.275391 L 291.59961 19.675781 L 291.30078 19.974609 L 295.59961 19.974609 C 297.59961 19.974609 298.40039 18.974609 298.40039 17.974609 C 298.50039 16.574609 297.50078 15.974609 295.80078 15.974609 L 291.30078 15.974609 z M 65.5 17.074219 L 65 18.474609 L 63.400391 21.775391 L 63.099609 22.074219 L 67.900391 22.074219 L 67.599609 21.775391 L 66 18.474609 L 65.5 17.074219 z M 162.69922 17.074219 L 162.19922 18.474609 L 160.59961 21.775391 L 160.30078 22.074219 L 165.09961 22.074219 L 164.80078 21.775391 L 163.19922 18.474609 L 162.69922 17.074219 z M 233.30078 17.074219 L 232.80078 18.474609 L 231.19922 21.775391 L 230.90039 22.074219 L 235.69922 22.074219 L 235.40039 21.775391 L 233.80078 18.474609 L 233.30078 17.074219 z M 311.69922 17.074219 L 311.19922 18.474609 L 309.59961 21.775391 L 309.30078 22.074219 L 314.09961 22.074219 L 313.80078 21.775391 L 312.19922 18.474609 L 311.69922 17.074219 z " />


<g
   id="g46"
   transform="translate(-120.4,-375.325)"
   style="fill:#000000">
	<path
   id="path44"
   style="fill:#ffffff"
   d="m 154,406.3 h -5.8 l -2.7,-5.6 0.3,-0.5 H 133 l 0.3,0.5 -2.6,5.6 h -5.9 l 12.3,-25.5 h 4.7 z m -10.6,-10.5 -0.5,-0.5 -2.6,-5.5 -0.8,-2.3 h -0.1 l -0.8,2.3 -2.6,5.5 -0.5,0.5 z m -23,-6.7 v 13.7 c 0,2.5 1.3,4.8 3.5,6 l 11.7,6.8 c 2.2,1.3 4.8,1.3 7,0 l 11.7,-6.8 c 2.2,-1.3 3.5,-3.6 3.5,-6 v -13.7 c 0,-2.5 -1.3,-4.8 -3.5,-6 l -11.7,-6.8 c -2.2,-1.3 -4.9,-1.3 -7,0 l -11.7,6.8 c -2.1,1.2 -3.5,3.5 -3.5,6 z" />
</g>
</svg>
