<?xml version="1.0" encoding="UTF-8" standalone="no"?>
<svg
   xmlns:dc="http://purl.org/dc/elements/1.1/"
   xmlns:cc="http://creativecommons.org/ns#"
   xmlns:rdf="http://www.w3.org/1999/02/22-rdf-syntax-ns#"
   xmlns:svg="http://www.w3.org/2000/svg"
   xmlns="http://www.w3.org/2000/svg"
   xmlns:sodipodi="http://sodipodi.sourceforge.net/DTD/sodipodi-0.dtd"
   xmlns:inkscape="http://www.inkscape.org/namespaces/inkscape"
   version="1.1"
   id="Layer_1"
   x="0px"
   y="0px"
   width="286.405"
   height="221.13977"
   viewBox="0 0 286.405 221.13977"
   enable-background="new 0 0 1390 1023.999"
   xml:space="preserve"
   sodipodi:docname="icon05.svg"
   inkscape:version="1.0.2-2 (e86c870879, 2021-01-15)"><metadata
   id="metadata1507"><rdf:RDF><cc:Work
       rdf:about=""><dc:format>image/svg+xml</dc:format><dc:type
         rdf:resource="http://purl.org/dc/dcmitype/StillImage" /><dc:title /></cc:Work></rdf:RDF></metadata><defs
   id="defs1505" /><sodipodi:namedview
   pagecolor="#ffffff"
   bordercolor="#666666"
   borderopacity="1"
   objecttolerance="10"
   gridtolerance="10"
   guidetolerance="10"
   inkscape:pageopacity="0"
   inkscape:pageshadow="2"
   inkscape:window-width="1755"
   inkscape:window-height="948"
   id="namedview1503"
   showgrid="false"
   fit-margin-top="0"
   fit-margin-left="0"
   fit-margin-right="0"
   fit-margin-bottom="0"
   inkscape:zoom="0.73165468"
   inkscape:cx="-38.735"
   inkscape:cy="112.13629"
   inkscape:window-x="0"
   inkscape:window-y="9"
   inkscape:window-maximized="0"
   inkscape:current-layer="Layer_1"
   inkscape:document-rotation="0" />




<g
   id="g1143"
   transform="matrix(0.85683578,0,0,0.85683578,-608.18892,-326.78747)">
	<linearGradient
   id="SVGID_4_"
   gradientUnits="userSpaceOnUse"
   x1="849.40143"
   y1="582.87891"
   x2="909.21863"
   y2="485.3989">
		<stop
   offset="0.127"
   style="stop-color:#A1A1BD"
   id="stop1116" />
		<stop
   offset="0.8884"
   style="stop-color:#FFFFFF"
   id="stop1118" />
	</linearGradient>
	<polygon
   fill="url(#SVGID_4_)"
   points="900.655,621.003 1020.14,550.099 855.106,456.33 733.735,525.914 "
   id="polygon1121"
   style="fill:url(#SVGID_4_)" />
	<g
   id="g1141">
		<g
   id="g1125">
			<path
   fill="#6b1715"
   d="m 818.12,404.905 -72.125,104.658 c -3.098,4.259 -1.809,10.265 2.765,12.878 l 145.831,91.314 c 7.186,4.106 23.614,-1.267 17.43,-16.032 L 840.719,407.265 c -5.045,-9.863 -18.003,-9.052 -22.599,-2.36 z"
   id="path1123" />
		</g>
		<g
   id="g1133">
			<path
   fill="#ed604f"
   d="M 816.797,406.365 738.65,513.818 c -3.098,4.26 -1.809,10.266 2.765,12.879 l 150.592,86.059 c 7.187,4.106 15.57,-3.026 12.669,-10.777 L 832.231,408.466 c -2.472,-6.599 -11.291,-7.799 -15.434,-2.101 z"
   id="path1127" />
			<g
   id="g1131">
				<path
   fill="#ffffff"
   d="m 896.404,608.456 c -0.564,0 -1.11,-0.155 -1.669,-0.476 L 744.142,521.922 c -1.128,-0.646 -1.493,-1.656 -1.61,-2.202 -0.116,-0.544 -0.199,-1.615 0.565,-2.668 L 821.244,409.6 c 0.827,-1.14 1.912,-1.379 2.677,-1.379 0.55,0 2.401,0.156 3.156,2.172 l 72.446,193.513 c 0.404,1.081 0.289,2.127 -0.333,3.023 -0.642,0.927 -1.736,1.527 -2.786,1.527 z M 823.922,409.222 c -0.773,0 -1.402,0.325 -1.868,0.967 l -78.147,107.452 c -0.535,0.738 -0.478,1.488 -0.396,1.871 0.082,0.382 0.337,1.09 1.128,1.543 l 150.593,86.058 c 0.404,0.231 0.787,0.344 1.173,0.344 0.731,0 1.503,-0.431 1.965,-1.097 0.439,-0.633 0.511,-1.32 0.219,-2.102 L 826.144,410.745 c -0.517,-1.375 -1.726,-1.523 -2.222,-1.523 z"
   id="path1129" />
			</g>
		</g>
		<g
   id="g1137">
			<path
   fill="#ffffff"
   d="m 822.755,522.693 -0.035,19.688 c -0.004,0.397 0.006,0.692 0.028,0.884 0.037,0.313 0.131,0.582 0.282,0.806 0.151,0.224 0.354,0.384 0.616,0.483 0.602,0.229 1.236,0.131 1.909,-0.295 0.999,-0.617 1.748,-1.771 2.239,-3.471 0.492,-1.696 0.575,-3.946 0.247,-6.744 -0.538,-4.59 -1.954,-8.592 -4.245,-12.008 -2.294,-3.412 -5.105,-5.754 -8.438,-7.023 -2.46,-0.936 -4.605,-1.004 -6.443,-0.207 -1.835,0.793 -3.126,2.472 -3.866,5.033 -0.744,2.556 -0.905,5.637 -0.483,9.235 0.656,5.6 2.364,10.489 5.124,14.674 2.759,4.18 6.016,6.986 9.771,8.416 1.832,0.696 3.547,0.959 5.146,0.786 1.599,-0.174 3.081,-0.772 4.448,-1.799 l 4.023,1.531 c -0.875,1.28 -1.74,2.215 -2.597,2.803 -1.261,0.867 -2.781,1.386 -4.562,1.557 -1.779,0.17 -3.756,-0.158 -5.928,-0.984 -3.022,-1.15 -5.847,-3.115 -8.472,-5.894 -2.626,-2.774 -4.817,-6.144 -6.575,-10.101 -1.758,-3.962 -2.88,-8.014 -3.364,-12.15 -0.51,-4.347 -0.271,-8.034 0.72,-11.054 0.989,-3.023 2.537,-5.04 4.645,-6.047 2.106,-1.011 4.756,-0.908 7.948,0.308 4.121,1.568 7.678,4.585 10.67,9.045 2.991,4.464 4.811,9.45 5.457,14.963 0.383,3.267 0.229,6.068 -0.46,8.396 -0.689,2.331 -1.916,3.918 -3.68,4.755 -1.362,0.646 -2.704,0.717 -4.025,0.215 -0.785,-0.299 -1.455,-0.787 -2.009,-1.463 -0.555,-0.677 -1.012,-1.591 -1.371,-2.742 -0.744,0.798 -1.449,1.29 -2.114,1.478 -0.666,0.187 -1.417,0.121 -2.255,-0.197 -1.74,-0.662 -3.352,-2.198 -4.833,-4.604 -1.482,-2.409 -2.435,-5.411 -2.857,-9.014 -0.499,-4.26 -0.146,-7.804 1.061,-10.633 1.206,-2.828 2.999,-3.792 5.38,-2.886 0.93,0.354 1.784,0.953 2.564,1.799 0.78,0.846 1.614,2.119 2.501,3.82 l 0.008,-3.308 z m -11.068,12.106 c 0.242,2.066 0.765,3.804 1.566,5.202 0.597,1.042 1.281,1.71 2.054,2.003 0.837,0.319 1.54,0.134 2.109,-0.556 0.57,-0.685 0.943,-2.351 1.122,-4.989 0.178,-2.639 0.135,-5.086 -0.131,-7.349 -0.199,-1.701 -0.625,-3.094 -1.275,-4.169 -0.652,-1.079 -1.357,-1.763 -2.116,-2.052 -0.863,-0.329 -1.571,-0.183 -2.123,0.438 -0.741,0.828 -1.188,2.424 -1.343,4.78 -0.155,2.358 -0.11,4.586 0.137,6.692 z"
   id="path1135" />
		</g>
		<path
   fill="#ffffff"
   d="m 817.425,434.999 14.574,8.67 c 1.462,0.869 2.251,2.538 1.996,4.22 l -8.395,55.31 c -0.442,2.911 -3.674,4.466 -6.225,2.993 l -1.443,-0.833 c -1.197,-0.691 -1.975,-1.93 -2.078,-3.308 l -4.736,-63.146 c -0.253,-3.375 3.399,-5.635 6.307,-3.906 z"
   id="path1139" />
	</g>
</g>








</svg>
