<?xml version="1.0" encoding="UTF-8" standalone="no"?>
<svg
   xmlns:dc="http://purl.org/dc/elements/1.1/"
   xmlns:cc="http://creativecommons.org/ns#"
   xmlns:rdf="http://www.w3.org/1999/02/22-rdf-syntax-ns#"
   xmlns:svg="http://www.w3.org/2000/svg"
   xmlns="http://www.w3.org/2000/svg"
   xmlns:sodipodi="http://sodipodi.sourceforge.net/DTD/sodipodi-0.dtd"
   xmlns:inkscape="http://www.inkscape.org/namespaces/inkscape"
   version="1.1"
   id="Layer_1"
   x="0px"
   y="0px"
   width="292.14069"
   height="170.35678"
   viewBox="0 0 292.14069 170.35678"
   enable-background="new 0 0 1390 1023.999"
   xml:space="preserve"
   sodipodi:docname="icon03.svg"
   inkscape:version="1.0.2-2 (e86c870879, 2021-01-15)"><metadata
   id="metadata14475"><rdf:RDF><cc:Work
       rdf:about=""><dc:format>image/svg+xml</dc:format><dc:type
         rdf:resource="http://purl.org/dc/dcmitype/StillImage" /><dc:title></dc:title></cc:Work></rdf:RDF></metadata><defs
   id="defs14473" /><sodipodi:namedview
   pagecolor="#ffffff"
   bordercolor="#666666"
   borderopacity="1"
   objecttolerance="10"
   gridtolerance="10"
   guidetolerance="10"
   inkscape:pageopacity="0"
   inkscape:pageshadow="2"
   inkscape:window-width="1970"
   inkscape:window-height="814"
   id="namedview14471"
   showgrid="false"
   inkscape:zoom="0.73165468"
   inkscape:cx="441.86974"
   inkscape:cy="7.0800301"
   inkscape:window-x="0"
   inkscape:window-y="0"
   inkscape:window-maximized="0"
   inkscape:current-layer="Layer_1"
   fit-margin-top="0"
   fit-margin-left="0"
   fit-margin-right="0"
   fit-margin-bottom="0" />

<g
   id="g10368"
   transform="translate(-159.07231,-166.52285)">
	<linearGradient
   id="SVGID_1_"
   gradientUnits="userSpaceOnUse"
   x1="263.19431"
   y1="301.74319"
   x2="338.79001"
   y2="223.62759">
		<stop
   offset="0"
   style="stop-color:#A1A1BD"
   id="stop10280" />
		<stop
   offset="1"
   style="stop-color:#FFFFFF"
   id="stop10282" />
	</linearGradient>
	<path
   fill="url(#SVGID_1_)"
   d="M 451.213,283.732 258.958,171.025 c 0,0 -91.209,53.024 -91.744,53.623 -0.534,0.585 -1.042,1.183 -1.539,1.781 -0.967,1.209 -1.845,2.455 -2.583,3.715 -2.812,4.631 -4.16,9.491 -4.007,14.339 0.005,0.171 0.027,0.341 0.036,0.511 -0.023,-0.051 -0.039,-0.086 -0.039,-0.086 l 0.039,7.582 c 0.029,10.853 6.861,21.688 20.521,29.961 5.151,3.117 10.78,5.551 16.468,7.378 5.142,1.651 10.411,2.882 15.731,3.723 5.422,0.856 10.87,1.323 16.347,1.323 11.25,0 32.078,-1.417 46.457,-8.961 l 28.167,15.593 c -0.005,0.143 -0.019,0.284 -0.019,0.428 0.01,3.163 1.126,5.395 2.928,6.438 l 47.984,27.842 c -0.13,-0.076 -0.249,-0.171 -0.372,-0.26 1.842,1.316 4.518,1.28 7.515,-0.449 5.531,-3.193 90.365,-51.774 90.365,-51.774 z m -221.833,-6.08 c -17.673,0 -34.137,-3.905 -46.364,-11.018 -9.289,-5.392 -15.072,-12.055 -16.632,-19.029 1.846,-7.085 7.604,-16.617 17.944,-22.057 25.169,-13.264 66.096,-13.235 91.152,0.028 9.923,5.268 15.878,11.863 17.886,18.7 -0.271,5.939 -3.645,11.814 -9.798,17.039 -1.424,1.222 -10.903,7.658 -17.023,9.784 -11.082,3.857 -23.78,6.553 -37.165,6.553 z m -63.042,-30.229 c -0.011,-0.055 -0.024,-0.109 -0.036,-0.164 0.014,0.054 0.022,0.11 0.036,0.164 z"
   id="path10285"
   style="fill:url(#SVGID_1_)" />
	<g
   id="g10366">
		<g
   id="g10327">
			<g
   id="g10289">
				<path
   fill="#d7e7f7"
   d="m 184.328,212.492 c 25.169,-13.265 66.096,-13.238 91.152,0 14.795,7.851 20.803,18.592 18.026,28.795 -1.871,-7 -7.88,-13.774 -18.026,-19.16 -25.056,-13.264 -65.983,-13.292 -91.152,-0.027 -10.346,5.441 -16.104,14.981 -17.947,22.066 -2.834,-10.26 2.954,-23.795 17.947,-31.674 z"
   id="path10287" />
			</g>
			<g
   id="g10299">
				<g
   id="g10297">
					<g
   id="g10295">
						<g
   id="g10293">
							<path
   fill="#d7e7f7"
   d="m 300.266,240.343 0.028,10.058 c 0,5.72 -1.89,12.326 -3.754,15.344 -2.142,3.465 -4.837,6.513 -11.432,11.488 l -1.499,-10.672 c 0,0 14.942,-17.489 16.657,-26.218 z"
   id="path10291" />
						</g>
					</g>
				</g>
			</g>
			<g
   id="g10303">
				<path
   fill="#d7e7f7"
   d="m 274.644,268.423 c -8.339,3.272 -11.333,4.263 -14.386,5.155 -5.965,1.692 -12.022,2.932 -18.181,3.56 -10.771,1.101 -21.721,0.899 -32.401,-1.013 -10.438,-1.869 -20.872,-5.184 -30.07,-10.744 -13.663,-8.264 -20.525,-23.923 -20.525,-23.923 l 0.039,7.582 c 0.029,10.853 6.861,21.688 20.521,29.961 5.151,3.117 10.78,5.551 16.468,7.378 5.142,1.651 10.411,2.882 15.731,3.723 5.422,0.855 10.87,1.323 16.347,1.323 11.25,0 32.078,-1.417 46.457,-8.961 z"
   id="path10301" />
			</g>
			<g
   id="g10307">
				<polygon
   fill="#d7e7f7"
   points="303.598,288.607 274.655,272.826 274.655,282.464 303.629,298.263 "
   id="polygon10305" />
			</g>
			<g
   id="g10311">
				<path
   fill="#f8f9fd"
   d="m 284.65,267.103 c 12.888,-7.43 15.471,-18.729 15.61,-26.642 v -0.509 c 0,-0.076 -0.013,-0.153 -0.013,-0.229 0,-0.891 -0.05,-1.794 -0.178,-2.696 -0.024,-0.318 -0.063,-0.649 -0.139,-0.968 -0.102,-0.623 -0.242,-1.26 -0.395,-1.884 -0.051,-0.203 -0.446,-1.615 -0.624,-2.124 -0.076,-0.242 -0.178,-0.483 -0.254,-0.726 -0.179,-0.458 -0.356,-0.903 -0.547,-1.349 -0.127,-0.279 -0.254,-0.559 -0.381,-0.839 -0.153,-0.331 -0.332,-0.675 -0.509,-1.005 -0.267,-0.51 -1.132,-1.998 -1.285,-2.228 -0.229,-0.382 -0.471,-0.75 -0.737,-1.107 -0.013,-0.037 -2.838,-3.6 -3.08,-3.88 -0.496,-0.535 -1.005,-1.068 -1.552,-1.604 -0.561,-0.572 -1.159,-1.145 -1.794,-1.692 -1.667,-1.463 -3.511,-2.888 -5.548,-4.236 -0.687,-0.471 -1.413,-0.929 -2.15,-1.387 -0.42,-0.255 -0.84,-0.497 -1.259,-0.751 -27.47,-15.955 -72.268,-15.955 -99.916,0 -0.446,0.254 -0.877,0.51 -1.311,0.764 -0.826,0.509 -1.628,1.031 -2.417,1.552 -0.395,0.267 -0.776,0.535 -1.157,0.802 -0.765,0.535 -1.489,1.094 -2.202,1.642 -1.413,1.106 -2.71,2.252 -3.894,3.409 -0.585,0.586 -1.17,1.184 -1.705,1.782 -0.534,0.585 -1.043,1.183 -1.539,1.781 -0.967,1.209 -1.844,2.455 -2.583,3.715 -2.811,4.631 -4.16,9.491 -4.007,14.339 0.305,10.191 7.112,20.319 20.484,28.094 24.226,14.07 58.362,17.837 95.094,3.74 l 31.02,16.843 3.31,-9.466 z m -18.106,0.547 c -11.081,3.855 -23.78,6.552 -37.165,6.552 -17.673,0 -34.137,-3.905 -46.363,-11.018 -10.763,-6.247 -16.833,-14.199 -17.062,-22.367 -0.115,-3.537 0.903,-7.087 3.066,-10.663 0.548,-0.916 1.222,-1.883 1.972,-2.823 0.42,-0.522 0.865,-1.031 1.311,-1.527 0.458,-0.51 0.967,-1.018 1.424,-1.476 1.019,-1.006 2.15,-1.998 3.309,-2.914 0.611,-0.483 1.259,-0.967 1.92,-1.425 0,0 0.764,-0.534 0.981,-0.688 0.724,-0.483 1.476,-0.967 2.175,-1.399 0.395,-0.229 0.813,-0.471 1.208,-0.712 12.342,-7.112 28.895,-11.044 46.606,-11.044 17.685,0 34.187,3.919 46.338,10.979 l 0.546,0.331 c 0.204,0.115 0.407,0.229 0.7,0.42 0.649,0.395 1.272,0.789 1.909,1.221 1.729,1.146 3.346,2.38 4.848,3.715 0.495,0.421 0.954,0.866 1.5,1.413 0.407,0.407 0.802,0.827 1.196,1.247 0.47,0.561 2.226,2.786 2.71,3.396 0.152,0.23 0.305,0.446 0.432,0.675 0.179,0.268 0.814,1.362 1.031,1.769 0.14,0.255 0.267,0.521 0.369,0.726 0.102,0.229 0.217,0.458 0.306,0.661 0.14,0.344 0.28,0.688 0.42,1.044 0.063,0.178 0.126,0.356 0.178,0.509 0.127,0.395 0.407,1.375 0.458,1.565 0.115,0.458 0.216,0.915 0.292,1.374 0.026,0.102 0.052,0.305 0.077,0.407 0,0.113 0.012,0.229 0.038,0.343 0.076,0.572 0.115,1.157 0.115,1.781 0,0.115 0,0.611 0,0.611 -0.102,6.106 -3.5,12.163 -9.823,17.532 -1.423,1.223 -10.902,7.66 -17.022,9.785 z"
   id="path10309" />
			</g>
			<g
   id="g10325">
				<g
   id="g10323">
					<g
   enable-background="new    "
   id="g10321">
						<g
   id="g10315">
							<path
   fill="#034462"
   d="m 303.444,281.757 c -2.863,3.14 -4.846,7.265 -5.495,11.456 -0.108,0.746 -0.182,1.486 -0.18,2.242 0.01,3.163 1.127,5.395 2.928,6.438 l 53.008,30.871 c -1.805,-1.052 -2.92,-3.279 -2.928,-6.446 -0.016,-4.494 2,-9.044 4.722,-12.541 1.35,-1.735 2.979,-3.344 4.843,-4.52 1.752,-1.107 4.012,-1.98 6.109,-1.517 0.526,0.11 1.021,0.296 1.471,0.556 0,0 -53.125,-30.933 -53.185,-30.963 -4.018,-2.178 -8.745,1.629 -11.293,4.424 z"
   id="path10313" />
						</g>
						<g
   id="g10319">
							<path
   fill="#025a82"
   d="m 360.78,308.992 c -5.561,3.213 -10.022,10.966 -10.004,17.326 0.017,6.366 4.506,8.95 10.071,5.737 5.532,-3.192 10.022,-10.968 10.004,-17.325 -0.019,-6.359 -4.535,-8.932 -10.071,-5.738 z"
   id="path10317" />
						</g>
					</g>
				</g>
			</g>
		</g>
		<g
   id="g10364">
			<g
   id="g10339">
				<path
   fill="#3f9d9c"
   d="m 282.033,197.173 0.02,44.363 c 0.022,7.273 -5.055,14.56 -15.115,20.109 l -0.101,-47.075 c -10e-4,0 15.219,-10.123 15.196,-17.397 z"
   id="path10329" />
				<path
   fill="#3f9d9c"
   d="m 253.359,194.421 c -0.003,-0.005 -0.009,-0.009 -0.009,-0.014 -0.013,-0.418 -0.066,-0.837 -0.157,-1.255 -0.09,-0.413 -0.216,-0.822 -0.384,-1.23 -2.334,-5.729 -10.1,-8.36 -16.075,-9.352 -6.758,-1.121 -14.075,-0.699 -20.491,1.627 -1.205,0.438 -2.353,0.94 -3.424,1.51 l 0.076,47.861 c 1.074,-0.568 2.219,-1.071 3.426,-1.509 6.304,-2.29 13.468,-2.723 20.118,-1.685 5.729,0.894 12.866,3.193 15.902,8.168 0.252,0.408 0.549,0.822 0.72,1.241 0.08,0.196 0.193,0.394 0.297,0.593 v -45.955 z"
   id="path10331" />
				<polygon
   fill="#8dccdb"
   points="246.334,204.592 266.836,215.545 266.836,245.115 246.334,234.162 "
   id="polygon10333" />
				<polygon
   fill="#8dccdb"
   points="192.324,175.748 212.827,186.699 212.827,238.102 192.324,227.148 "
   id="polygon10335" />
				<path
   fill="#0cd9d4"
   d="m 267.102,175.717 c 19.467,12.613 20.481,28.84 -0.242,39.842 l -20.525,-10.967 c 9.315,-4.946 9.364,-12.963 0.11,-17.909 -9.256,-4.944 -24.305,-4.942 -33.625,-0.001 L 192.3,175.719 c 20.721,-11.003 54.034,-13.458 74.802,-0.002 z"
   id="path10337" />
			</g>
			
				<linearGradient
   id="SVGID_2_"
   gradientUnits="userSpaceOnUse"
   x1="893.44818"
   y1="242.3604"
   x2="893.4502"
   y2="242.3604"
   gradientTransform="matrix(-1,0,0,1,1147.5752,0)">
				<stop
   offset="0"
   style="stop-color:#4AFFC7"
   id="stop10341" />
				<stop
   offset="1"
   style="stop-color:#3BADEA"
   id="stop10343" />
			</linearGradient>
			<path
   fill="url(#SVGID_2_)"
   d="m 254.126,242.461 -0.001,-0.201 0.001,0.007 c 0,0.065 0,0.13 0,0.194 z"
   id="path10346"
   style="fill:url(#SVGID_2_)" />
			<polygon
   fill="#034462"
   points="212.827,238.102 212.827,196.728 198.225,188.927 198.225,230.301 "
   id="polygon10348" />
			<path
   fill="#025a82"
   d="m 192.3,185.688 20.52,10.965 c -7.455,3.956 -9.203,9.72 -4.465,14.704 l -25.98,7.04 c -10.545,-11.093 -6.653,-23.91 9.925,-32.709 z"
   id="path10350" />
			<path
   fill="#034462"
   d="m 176.567,207.316 c 0.006,0.055 0.042,0.113 0.049,0.17 0.052,0.382 0.129,0.764 0.21,1.145 0.009,0.045 0.023,0.091 0.034,0.138 0.087,0.396 0.197,0.794 0.317,1.19 0.024,0.08 0.05,0.159 0.076,0.24 0.126,0.392 0.269,0.785 0.426,1.18 0.022,0.057 0.05,0.116 0.075,0.174 0.175,0.422 0.366,0.842 0.58,1.263 0.006,0.015 0.012,0.028 0.02,0.042 0.217,0.424 0.456,0.848 0.712,1.268 0.048,0.081 0.094,0.16 0.146,0.241 0.075,0.12 0.153,0.241 0.232,0.36 0.09,0.14 0.182,0.278 0.276,0.42 0.084,0.122 0.171,0.242 0.258,0.363 0.096,0.139 0.195,0.275 0.299,0.415 0.089,0.12 0.183,0.241 0.275,0.362 0.105,0.138 0.214,0.273 0.324,0.411 0.099,0.12 0.196,0.24 0.298,0.36 0.099,0.119 0.2,0.237 0.301,0.354 0.288,0.333 0.586,0.665 0.898,0.994 l 0.08,36.106 c -0.314,-0.33 -0.61,-0.661 -0.899,-0.994 -0.033,-0.04 -0.074,-0.081 -0.111,-0.122 -0.066,-0.077 -0.126,-0.156 -0.191,-0.233 -0.1,-0.119 -0.2,-0.24 -0.298,-0.36 -0.11,-0.137 -0.215,-0.273 -0.323,-0.411 -0.093,-0.121 -0.185,-0.242 -0.278,-0.363 -0.101,-0.138 -0.2,-0.274 -0.296,-0.413 -0.089,-0.122 -0.175,-0.243 -0.257,-0.364 -0.094,-0.139 -0.185,-0.278 -0.276,-0.418 -0.079,-0.121 -0.158,-0.242 -0.233,-0.361 -0.024,-0.041 -0.051,-0.079 -0.074,-0.118 -0.026,-0.038 -0.044,-0.081 -0.07,-0.123 -0.256,-0.421 -0.496,-0.844 -0.713,-1.268 -0.007,-0.015 -0.012,-0.027 -0.019,-0.041 -0.214,-0.421 -0.404,-0.844 -0.581,-1.263 -0.016,-0.04 -0.035,-0.079 -0.052,-0.117 -0.008,-0.02 -0.015,-0.039 -0.021,-0.062 -0.159,-0.392 -0.298,-0.784 -0.425,-1.178 -0.027,-0.079 -0.051,-0.159 -0.074,-0.239 -0.121,-0.396 -0.229,-0.795 -0.317,-1.191 -0.001,-0.013 -0.007,-0.024 -0.009,-0.039 -0.008,-0.032 -0.01,-0.066 -0.015,-0.099 -0.08,-0.381 -0.146,-0.761 -0.197,-1.143 -0.008,-0.057 -0.019,-0.114 -0.024,-0.172 -0.048,-0.396 -0.078,-0.79 -0.093,-1.186 0,-0.039 -0.009,-0.079 -0.009,-0.118 -0.005,-0.139 -0.11,-0.278 -0.111,-0.415 l -0.181,-36.065 v -0.038 c 0,0.179 0.112,0.354 0.119,0.532 0.013,0.396 0.094,0.79 0.142,1.186 z"
   id="path10352" />
			<polygon
   fill="#012235"
   points="182.374,218.133 208.354,211.093 208.434,256.33 182.452,254.514 "
   id="polygon10354" />
			<path
   fill="#d43e3f"
   d="m 186.517,231.487 c 10.987,8.547 27.327,13.603 41.367,13.736 l 0.302,0.012 v 24.65 c 0,0 -1.186,-0.009 -1.783,-0.03 -14.402,-0.447 -30.68,-3.816 -41.554,-13.082 -0.861,-0.732 -1.656,-1.482 -2.394,-2.264 l -0.078,-26.668 c 1.225,1.291 2.605,2.509 4.14,3.646 z"
   id="path10356" />
			<path
   fill="#fa7564"
   d="m 228.196,227.7 v 17.535 c 0,0 -0.276,-0.012 -0.31,-0.012 -14,0 -30.435,-5.272 -41.373,-13.736 -1.534,-1.138 -2.913,-2.355 -4.137,-3.646 l 25.983,-7.033 c 3.964,4.162 11.668,6.649 19.837,6.892 z"
   id="path10358" />
			<path
   fill="#f2a437"
   d="m 266.854,244.547 0.087,17.099 c -10.571,5.599 -23.067,7.938 -35.164,8.231 -1.203,0.03 -2.152,0.03 -3.592,0.009 v -17.095 c 1.441,0.01 38.15,-7.969 38.669,-8.244 z"
   id="path10360" />
			<path
   fill="#ffc904"
   d="m 246.332,233.587 20.521,10.963 c -0.519,0.273 -1.038,0.537 -1.557,0.79 -10.208,5.011 -22.968,7.825 -34.56,7.449 -0.851,0.022 -1.702,0.022 -2.541,0.012 v -0.012 -15.519 c 4.063,0.123 8.224,-0.304 12.109,-1.358 2.342,-0.63 4.164,-1.34 6.028,-2.325 z"
   id="path10362" />
		</g>
	</g>
</g>











</svg>
