<?xml version="1.0" encoding="UTF-8" standalone="no"?>
<svg
   xmlns:dc="http://purl.org/dc/elements/1.1/"
   xmlns:cc="http://creativecommons.org/ns#"
   xmlns:rdf="http://www.w3.org/1999/02/22-rdf-syntax-ns#"
   xmlns:svg="http://www.w3.org/2000/svg"
   xmlns="http://www.w3.org/2000/svg"
   xmlns:sodipodi="http://sodipodi.sourceforge.net/DTD/sodipodi-0.dtd"
   xmlns:inkscape="http://www.inkscape.org/namespaces/inkscape"
   version="1.1"
   id="Layer_1"
   x="0px"
   y="0px"
   width="288.44199"
   height="218.94901"
   viewBox="0 0 288.44199 218.949"
   enable-background="new 0 0 1390 1023.999"
   xml:space="preserve"
   sodipodi:docname="icon04.svg"
   inkscape:version="1.0.2-2 (e86c870879, 2021-01-15)"><metadata
   id="metadata1507"><rdf:RDF><cc:Work
       rdf:about=""><dc:format>image/svg+xml</dc:format><dc:type
         rdf:resource="http://purl.org/dc/dcmitype/StillImage" /><dc:title /></cc:Work></rdf:RDF></metadata><defs
   id="defs1505" /><sodipodi:namedview
   pagecolor="#ffffff"
   bordercolor="#666666"
   borderopacity="1"
   objecttolerance="10"
   gridtolerance="10"
   guidetolerance="10"
   inkscape:pageopacity="0"
   inkscape:pageshadow="2"
   inkscape:window-width="1755"
   inkscape:window-height="957"
   id="namedview1503"
   showgrid="false"
   fit-margin-top="0"
   fit-margin-left="0"
   fit-margin-right="0"
   fit-margin-bottom="0"
   inkscape:zoom="0.73165468"
   inkscape:cx="-320.888"
   inkscape:cy="386.48351"
   inkscape:window-x="0"
   inkscape:window-y="0"
   inkscape:window-maximized="0"
   inkscape:current-layer="Layer_1"
   inkscape:document-rotation="0" />


<g
   id="g415"
   transform="matrix(0.87680057,0,0,0.87680057,-872.96323,-96.565305)">
	<linearGradient
   id="SVGID_2_"
   gradientUnits="userSpaceOnUse"
   x1="1122.6924"
   y1="320.60739"
   x2="1203.9742"
   y2="188.14819">
		<stop
   offset="0.127"
   style="stop-color:#A1A1BD"
   id="stop107" />
		<stop
   offset="0.8884"
   style="stop-color:#FFFFFF"
   id="stop109" />
	</linearGradient>
	<polygon
   fill="url(#SVGID_2_)"
   points="1188.595,176.273 1015.888,274.107 1133.729,344.465 1304.33,245.157 "
   id="polygon112"
   style="fill:url(#SVGID_2_)" />
	<g
   id="g413">
		<polygon
   id="XMLID_11050_"
   fill="#045c84"
   points="1113.74,189.966 1221.73,252.586 1133.403,303.648 1025.443,241.017 " />
		<polygon
   fill="#005478"
   points="1113.229,190.262 1025.34,241.076 1113.27,291.843 "
   id="polygon115" />
		<polygon
   fill="#023248"
   points="1221.73,287.18 1133.372,338.367 1025.235,275.472 1113.244,223.573 "
   id="polygon117" />
		<g
   id="g175">
			<polygon
   fill="#157dc6"
   points="1172.196,299.809 1172.2,213.322 1063.858,150.106 1063.923,237.928 "
   id="polygon119" />
			<g
   id="g165">
				<g
   id="g123">
					<polygon
   fill="#ed604f"
   points="1172.197,293.874 1084.733,162.286 1096.639,169.232 1172.197,282.909 "
   id="polygon121" />
				</g>
				<g
   id="g127">
					<polygon
   fill="#ed604f"
   points="1172.198,274.904 1105.331,174.305 1117.236,181.251 1172.198,263.94 "
   id="polygon125" />
				</g>
				<g
   id="g131">
					<polygon
   fill="#ed604f"
   points="1158.431,205.287 1172.2,226.002 1172.199,236.966 1146.526,198.342 "
   id="polygon129" />
				</g>
				<g
   id="g135">
					<polygon
   fill="#ed604f"
   points="1172.198,255.936 1125.929,186.323 1137.834,193.27 1172.199,244.972 "
   id="polygon133" />
				</g>
				<g
   id="g139">
					<polygon
   fill="#ed604f"
   points="1137.893,280.203 1063.872,168.841 1063.864,157.864 1149.645,286.92 "
   id="polygon137" />
				</g>
				<g
   id="g143">
					<polygon
   fill="#ed604f"
   points="1158.225,291.824 1064.136,150.268 1076.041,157.215 1169.979,298.541 "
   id="polygon141" />
				</g>
				<g
   id="g147">
					<polygon
   fill="#ed604f"
   points="1068.311,240.436 1063.923,237.928 1063.919,233.83 "
   id="polygon145" />
				</g>
				<g
   id="g151">
					<polygon
   fill="#ed604f"
   points="1167.124,210.359 1172.2,213.322 1172.2,217.996 "
   id="polygon149" />
				</g>
				<g
   id="g155">
					<polygon
   fill="#ed604f"
   points="1117.559,268.582 1063.886,187.832 1063.878,176.856 1129.311,275.299 "
   id="polygon153" />
				</g>
				<g
   id="g159">
					<polygon
   fill="#ed604f"
   points="1097.225,256.961 1063.899,206.824 1063.892,195.847 1108.978,263.679 "
   id="polygon157" />
				</g>
				<g
   id="g163">
					<polygon
   fill="#ed604f"
   points="1076.892,245.34 1063.913,225.815 1063.905,214.838 1088.645,252.057 "
   id="polygon161" />
				</g>
			</g>
			<polygon
   fill="#e5e3e4"
   points="1169.246,216.432 1114.729,219.228 1066.819,158.617 1066.876,236.213 1169.242,294.717 "
   id="polygon167" />
			<polygon
   fill="#b8bdc0"
   points="1114.739,228.537 1169.25,294.711 1066.885,236.202 "
   id="polygon169" />
			<path
   fill="#a3b5c9"
   d="m 1113.191,237.401 c -0.539,0.169 -1.119,-0.064 -1.41,-0.567 0,0 -44.222,-77.863 -43.12,-77.2 l 100.113,56.821 c 0.935,0.563 -55.583,20.946 -55.583,20.946 z"
   id="path171" />
			<path
   fill="#ffffff"
   d="m 1168.373,217.516 -55.174,16.604 c -0.539,0.162 -1.119,-0.062 -1.409,-0.544 l -44.786,-74.32 c -0.657,-1.09 0.568,-2.338 1.67,-1.702 l 99.96,57.716 c 0.934,0.539 0.772,1.934 -0.261,2.246 z"
   id="path173" />
		</g>
		<g
   id="g233">
			<polygon
   fill="#157dc6"
   points="1192.932,275.22 1192.936,188.731 1084.594,125.516 1084.657,213.338 "
   id="polygon177" />
			<g
   id="g223">
				<g
   id="g181">
					<polygon
   fill="#ed604f"
   points="1192.933,269.284 1105.469,137.696 1117.374,144.643 1192.933,258.319 "
   id="polygon179" />
				</g>
				<g
   id="g185">
					<polygon
   fill="#ed604f"
   points="1192.934,250.314 1126.066,149.715 1137.972,156.661 1192.934,239.351 "
   id="polygon183" />
				</g>
				<g
   id="g189">
					<polygon
   fill="#ed604f"
   points="1179.166,180.697 1192.936,201.412 1192.935,212.376 1167.262,173.752 "
   id="polygon187" />
				</g>
				<g
   id="g193">
					<polygon
   fill="#ed604f"
   points="1192.934,231.346 1146.664,161.733 1158.569,168.68 1192.935,220.382 "
   id="polygon191" />
				</g>
				<g
   id="g197">
					<polygon
   fill="#ed604f"
   points="1158.628,255.613 1084.607,144.252 1084.6,133.275 1170.38,262.33 "
   id="polygon195" />
				</g>
				<g
   id="g201">
					<polygon
   fill="#ed604f"
   points="1178.96,267.234 1084.871,125.678 1096.776,132.625 1190.714,273.951 "
   id="polygon199" />
				</g>
				<g
   id="g205">
					<polygon
   fill="#ed604f"
   points="1089.046,215.846 1084.657,213.338 1084.654,209.24 "
   id="polygon203" />
				</g>
				<g
   id="g209">
					<polygon
   fill="#ed604f"
   points="1187.859,185.77 1192.936,188.731 1192.936,193.406 "
   id="polygon207" />
				</g>
				<g
   id="g213">
					<polygon
   fill="#ed604f"
   points="1138.294,243.992 1084.621,163.242 1084.613,152.267 1150.046,250.709 "
   id="polygon211" />
				</g>
				<g
   id="g217">
					<polygon
   fill="#ed604f"
   points="1117.96,232.371 1084.635,182.234 1084.627,171.257 1129.714,239.089 "
   id="polygon215" />
				</g>
				<g
   id="g221">
					<polygon
   fill="#ed604f"
   points="1097.626,220.75 1084.649,201.226 1084.641,190.248 1109.38,227.467 "
   id="polygon219" />
				</g>
			</g>
			<polygon
   fill="#e5e3e4"
   points="1189.981,191.842 1135.464,194.638 1087.555,134.027 1087.611,211.623 1189.978,270.127 "
   id="polygon225" />
			<polygon
   fill="#b8bdc0"
   points="1135.474,203.947 1189.985,270.12 1087.62,211.612 "
   id="polygon227" />
			<path
   fill="#a3b5c9"
   d="m 1133.927,212.812 c -0.539,0.169 -1.119,-0.064 -1.41,-0.567 0,0 -44.222,-77.864 -43.12,-77.2 l 100.114,56.821 c 0.933,0.562 -55.584,20.946 -55.584,20.946 z"
   id="path229" />
			<path
   fill="#ffffff"
   d="m 1189.108,192.926 -55.174,16.604 c -0.539,0.162 -1.119,-0.062 -1.41,-0.544 l -44.785,-74.32 c -0.657,-1.09 0.568,-2.338 1.67,-1.702 l 99.96,57.716 c 0.935,0.54 0.773,1.934 -0.261,2.246 z"
   id="path231" />
		</g>
		<g
   id="g291">
			<polygon
   fill="#157dc6"
   points="1158.692,315.42 1158.696,228.932 1050.354,165.717 1050.418,253.538 "
   id="polygon235" />
			<g
   id="g281">
				<g
   id="g239">
					<polygon
   fill="#ed604f"
   points="1158.692,309.484 1071.229,177.896 1083.135,184.844 1158.693,298.52 "
   id="polygon237" />
				</g>
				<g
   id="g243">
					<polygon
   fill="#ed604f"
   points="1158.693,290.515 1091.827,189.915 1103.731,196.861 1158.693,279.551 "
   id="polygon241" />
				</g>
				<g
   id="g247">
					<polygon
   fill="#ed604f"
   points="1144.927,220.897 1158.695,241.613 1158.695,252.576 1133.022,213.952 "
   id="polygon245" />
				</g>
				<g
   id="g251">
					<polygon
   fill="#ed604f"
   points="1158.694,271.545 1112.425,201.934 1124.329,208.88 1158.694,260.582 "
   id="polygon249" />
				</g>
				<g
   id="g255">
					<polygon
   fill="#ed604f"
   points="1124.388,295.813 1050.367,184.451 1050.359,173.475 1136.14,302.53 "
   id="polygon253" />
				</g>
				<g
   id="g259">
					<polygon
   fill="#ed604f"
   points="1144.721,307.435 1050.631,165.878 1062.537,172.824 1156.474,314.151 "
   id="polygon257" />
				</g>
				<g
   id="g263">
					<polygon
   fill="#ed604f"
   points="1054.806,256.047 1050.418,253.538 1050.415,249.439 "
   id="polygon261" />
				</g>
				<g
   id="g267">
					<polygon
   fill="#ed604f"
   points="1153.619,225.97 1158.696,228.932 1158.695,233.607 "
   id="polygon265" />
				</g>
				<g
   id="g271">
					<polygon
   fill="#ed604f"
   points="1104.055,284.193 1050.382,203.443 1050.373,192.467 1115.807,290.909 "
   id="polygon269" />
				</g>
				<g
   id="g275">
					<polygon
   fill="#ed604f"
   points="1083.721,272.571 1050.396,222.435 1050.388,211.457 1095.474,279.289 "
   id="polygon273" />
				</g>
				<g
   id="g279">
					<polygon
   fill="#ed604f"
   points="1063.387,260.95 1050.409,241.426 1050.401,230.448 1075.14,267.668 "
   id="polygon277" />
				</g>
			</g>
			<polygon
   fill="#e5e3e4"
   points="1155.741,232.041 1101.224,234.838 1053.315,174.227 1053.371,251.823 1155.737,310.327 "
   id="polygon283" />
			<polygon
   fill="#b8bdc0"
   points="1101.234,244.146 1155.745,310.32 1053.38,251.813 "
   id="polygon285" />
			<path
   fill="#a3b5c9"
   d="m 1099.687,253.012 c -0.539,0.169 -1.119,-0.064 -1.409,-0.567 0,0 -44.222,-77.864 -43.12,-77.2 l 100.113,56.821 c 0.934,0.563 -55.584,20.946 -55.584,20.946 z"
   id="path287" />
			<path
   fill="#ffffff"
   d="m 1154.869,233.125 -55.175,16.605 c -0.539,0.162 -1.119,-0.062 -1.409,-0.543 l -44.786,-74.321 c -0.656,-1.09 0.569,-2.339 1.671,-1.702 l 99.96,57.716 c 0.933,0.54 0.772,1.934 -0.261,2.245 z"
   id="path289" />
		</g>
		<g
   id="g349">
			<polygon
   fill="#157dc6"
   points="1147.411,326.426 1147.414,239.938 1039.072,176.723 1039.137,264.544 "
   id="polygon293" />
			<g
   id="g339">
				<g
   id="g297">
					<polygon
   fill="#ed604f"
   points="1147.411,320.49 1059.947,188.902 1071.853,195.85 1147.411,309.525 "
   id="polygon295" />
				</g>
				<g
   id="g301">
					<polygon
   fill="#ed604f"
   points="1147.411,301.521 1080.545,200.921 1092.45,207.867 1147.412,290.557 "
   id="polygon299" />
				</g>
				<g
   id="g305">
					<polygon
   fill="#ed604f"
   points="1133.645,231.903 1147.413,252.618 1147.413,263.582 1121.74,224.958 "
   id="polygon303" />
				</g>
				<g
   id="g309">
					<polygon
   fill="#ed604f"
   points="1147.412,282.551 1101.143,212.939 1113.048,219.886 1147.413,271.588 "
   id="polygon307" />
				</g>
				<g
   id="g313">
					<polygon
   fill="#ed604f"
   points="1113.106,306.819 1039.086,195.457 1039.078,184.48 1124.858,313.536 "
   id="polygon311" />
				</g>
				<g
   id="g317">
					<polygon
   fill="#ed604f"
   points="1133.438,318.44 1039.35,176.884 1051.255,183.83 1145.192,325.157 "
   id="polygon315" />
				</g>
				<g
   id="g321">
					<polygon
   fill="#ed604f"
   points="1043.524,267.053 1039.137,264.544 1039.134,260.445 "
   id="polygon319" />
				</g>
				<g
   id="g325">
					<polygon
   fill="#ed604f"
   points="1142.338,236.976 1147.414,239.938 1147.414,244.613 "
   id="polygon323" />
				</g>
				<g
   id="g329">
					<polygon
   fill="#ed604f"
   points="1092.772,295.198 1039.1,214.448 1039.092,203.473 1104.524,301.915 "
   id="polygon327" />
				</g>
				<g
   id="g333">
					<polygon
   fill="#ed604f"
   points="1072.438,283.577 1039.113,233.44 1039.105,222.463 1084.192,290.295 "
   id="polygon331" />
				</g>
				<g
   id="g337">
					<polygon
   fill="#ed604f"
   points="1052.104,271.956 1039.128,252.432 1039.119,241.454 1063.858,278.674 "
   id="polygon335" />
				</g>
			</g>
			<polygon
   fill="#e5e3e4"
   points="1144.46,243.047 1089.942,245.844 1042.033,185.232 1042.09,262.829 1144.456,321.333 "
   id="polygon341" />
			<polygon
   fill="#b8bdc0"
   points="1089.952,255.152 1144.464,321.326 1042.099,262.818 "
   id="polygon343" />
			<path
   fill="#a3b5c9"
   d="m 1088.405,264.018 c -0.539,0.169 -1.119,-0.064 -1.41,-0.567 0,0 -44.222,-77.864 -43.12,-77.2 l 100.114,56.821 c 0.934,0.563 -55.584,20.946 -55.584,20.946 z"
   id="path345" />
			<path
   fill="#ffffff"
   d="m 1143.587,244.131 -55.174,16.605 c -0.539,0.162 -1.119,-0.062 -1.41,-0.543 l -44.785,-74.322 c -0.657,-1.089 0.568,-2.338 1.67,-1.701 l 99.96,57.716 c 0.934,0.54 0.772,1.934 -0.261,2.245 z"
   id="path347" />
		</g>
		<g
   id="g407">
			<polygon
   fill="#157dc6"
   points="1136.129,333.729 1136.133,247.242 1027.79,184.026 1027.854,271.849 "
   id="polygon351" />
			<g
   id="g397">
				<g
   id="g355">
					<polygon
   fill="#ed604f"
   points="1136.129,327.794 1048.665,196.207 1060.571,203.153 1136.13,316.83 "
   id="polygon353" />
				</g>
				<g
   id="g359">
					<polygon
   fill="#ed604f"
   points="1136.13,308.824 1069.264,208.225 1081.168,215.172 1136.13,297.861 "
   id="polygon357" />
				</g>
				<g
   id="g363">
					<polygon
   fill="#ed604f"
   points="1122.363,239.208 1136.132,259.923 1136.132,270.886 1110.459,232.262 "
   id="polygon361" />
				</g>
				<g
   id="g367">
					<polygon
   fill="#ed604f"
   points="1136.131,289.855 1089.861,220.243 1101.767,227.189 1136.131,278.892 "
   id="polygon365" />
				</g>
				<g
   id="g371">
					<polygon
   fill="#ed604f"
   points="1101.824,314.124 1027.804,202.762 1027.796,191.785 1113.577,320.84 "
   id="polygon369" />
				</g>
				<g
   id="g375">
					<polygon
   fill="#ed604f"
   points="1122.157,325.744 1028.067,184.188 1039.974,191.135 1133.91,332.461 "
   id="polygon373" />
				</g>
				<g
   id="g379">
					<polygon
   fill="#ed604f"
   points="1032.243,274.356 1027.854,271.849 1027.852,267.75 "
   id="polygon377" />
				</g>
				<g
   id="g383">
					<polygon
   fill="#ed604f"
   points="1131.056,244.279 1136.133,247.242 1136.132,251.917 "
   id="polygon381" />
				</g>
				<g
   id="g387">
					<polygon
   fill="#ed604f"
   points="1081.491,302.503 1027.818,221.753 1027.81,210.776 1093.243,309.22 "
   id="polygon385" />
				</g>
				<g
   id="g391">
					<polygon
   fill="#ed604f"
   points="1061.157,290.882 1027.832,240.744 1027.824,229.767 1072.91,297.599 "
   id="polygon389" />
				</g>
				<g
   id="g395">
					<polygon
   fill="#ed604f"
   points="1040.823,279.261 1027.846,259.735 1027.838,248.758 1052.576,285.978 "
   id="polygon393" />
				</g>
			</g>
			<polygon
   fill="#e5e3e4"
   points="1133.179,250.352 1078.661,253.147 1030.752,192.537 1030.808,270.133 1133.174,328.638 "
   id="polygon399" />
			<polygon
   fill="#b8bdc0"
   points="1078.671,262.457 1133.183,328.631 1030.817,270.122 "
   id="polygon401" />
			<path
   fill="#a3b5c9"
   d="m 1077.123,271.321 c -0.539,0.169 -1.119,-0.064 -1.409,-0.567 0,0 -44.222,-77.863 -43.12,-77.2 l 100.113,56.821 c 0.935,0.563 -55.584,20.946 -55.584,20.946 z"
   id="path403" />
			<path
   fill="#ffffff"
   d="m 1132.306,251.436 -55.174,16.605 c -0.539,0.162 -1.119,-0.063 -1.41,-0.544 l -44.786,-74.321 c -0.656,-1.09 0.569,-2.338 1.671,-1.702 l 99.96,57.716 c 0.934,0.539 0.772,1.935 -0.261,2.246 z"
   id="path405" />
		</g>
		<path
   id="XMLID_10983_"
   fill="#116dac"
   d="m 1133.372,338.367 0.031,-34.719 -25.913,-15.428 c -1.961,-1.168 -4.374,-1.287 -6.44,-0.318 l -15.91,7.453 c -3.262,1.529 -7.151,0.282 -8.918,-2.857 L 1058.44,260.88 c -0.616,-1.095 -1.52,-2 -2.613,-2.618 l -30.521,-17.242 v 34.595 z" />
		<path
   fill="#f5c300"
   d="m 1058.439,264.818 17.782,31.617 c 1.767,3.141 5.656,4.387 8.919,2.858 l 15.909,-7.454 c 2.066,-0.969 4.479,-0.849 6.44,0.318 l 25.909,15.426 v -3.936 l -25.913,-15.428 c -1.961,-1.168 -4.374,-1.287 -6.44,-0.318 l -15.909,7.453 c -3.263,1.528 -7.152,0.282 -8.919,-2.857 l -17.782,-31.618 c -0.616,-1.095 -1.52,-2 -2.613,-2.618 l -30.521,-17.242 v 3.938 l 30.521,17.243 c 1.094,0.618 1.997,1.523 2.613,2.618 z"
   id="path410" />
		<polygon
   id="XMLID_10982_"
   fill="#005478"
   points="1221.73,287.18 1133.372,338.367 1133.403,303.648 1221.73,252.586 " />
	</g>
</g>










</svg>
