<?xml version="1.0" encoding="utf-8"?>
<!-- Generator: Adobe Illustrator 19.2.1, SVG Export Plug-In . SVG Version: 6.00 Build 0)  -->
<svg version="1.1" id="Layer_1" xmlns="http://www.w3.org/2000/svg" xmlns:xlink="http://www.w3.org/1999/xlink" x="0px" y="0px"
	 viewBox="0 0 933.9 134" style="enable-background:new 0 0 933.9 134;" xml:space="preserve">
<style type="text/css">
	.st0{fill:#FFFFFF;}
</style>
<g>
	<g>
		<path class="st0" d="M40,82.5H2.9V27.7h6.4v48l-0.7,0.7H40V82.5z"/>
		<path class="st0" d="M67.4,82.5H61V27.7h6.4V82.5z"/>
		<path class="st0" d="M114.3,83.2c-8.8,0-18-2.8-23.5-8.9l5.1-4.7c5.8,5.3,11.2,7.6,18.2,7.6c10.1,0,15.5-3.9,15.5-9.1
			c0-3.7-3.2-7.2-10.6-9.1c-1.2-0.3-8.9-2.4-10.1-2.7c-10-2.8-16.6-6.4-16.6-14.3c0-7.6,6.6-14.8,21.5-14.8c8.8,0,16.2,3.1,21,8.4
			l-4.9,4.7c-3.5-4.1-8.9-7-16-7c-10.3,0-14.9,4-14.9,8.5c0,4.2,4.2,6.4,13.3,8.9c1.2,0.3,7.6,2.1,8.9,2.4
			c10.8,2.8,15.2,8.4,15.2,14.8C136.1,75.3,130.3,83.2,114.3,83.2z"/>
		<path class="st0" d="M209.1,82.5h-7l-5.8-13.2l0.3-0.7h-30l0.3,0.7l-5.8,13.2h-7l24.1-54.8h6.8L209.1,82.5z M193.7,62.5l-0.7-0.7
			l-9.7-22l-1.6-5.5h-0.1l-1.7,5.5l-9.7,22l-0.7,0.7H193.7z"/>
	</g>
</g>
<g>
	<g>
		<path class="st0" d="M7.2,106.5c-1.8,0-3.7-0.6-4.9-1.8l1-1c1.2,1.1,2.3,1.6,3.8,1.6c2.1,0,3.2-0.8,3.2-1.9c0-0.8-0.7-1.5-2.2-1.9
			C7.9,101.4,6.3,101,6,101c-2.1-0.6-3.4-1.3-3.4-3c0-1.6,1.4-3.1,4.4-3.1c1.8,0,3.4,0.6,4.3,1.7l-1,1c-0.7-0.9-1.8-1.4-3.3-1.4
			C4.9,96.2,4,97,4,97.9c0,0.9,0.9,1.3,2.7,1.8c0.3,0.1,1.6,0.4,1.8,0.5c2.2,0.6,3.1,1.7,3.1,3C11.7,104.9,10.5,106.5,7.2,106.5z"/>
		<path class="st0" d="M15.7,96.4v3.7h5.7v1.2h-5.7v3.9h6.6v1.2h-7.8V95.2h7.6v1.2H15.7z"/>
		<path class="st0" d="M34.3,100.9v4.1c-1.1,0.9-2.7,1.5-4.2,1.5c-3.3,0-5.9-2.5-5.9-5.7c0-3.2,2.6-5.7,5.9-5.7
			c1.6,0,3.1,0.6,4.1,1.5l-0.7,1c-0.9-0.8-2.2-1.3-3.4-1.3c-2.6,0-4.6,2-4.6,4.4c0,2.5,2.1,4.5,4.6,4.5c1,0,2.1-0.4,3-0.9v-3.4H34.3
			z"/>
		<path class="st0" d="M47,101.8c0,2.9-1.8,4.7-4.7,4.7c-3,0-4.7-1.8-4.7-4.7v-6.6h1.3v6.6c0,2.2,1.3,3.5,3.5,3.5s3.4-1.3,3.4-3.5
			v-6.6H47V101.8z"/>
		<path class="st0" d="M55.5,102.8c-0.2,0-0.5,0-0.8,0h-3v3.5h-1.3V95.2h4.3c2.8,0,4.4,1.4,4.4,3.8c0,1.9-0.9,3.1-2.5,3.6l2.6,3.8
			h-1.5L55.5,102.8z M54.8,101.6c2,0,3.2-0.9,3.2-2.6c0-1.7-1.2-2.6-3.2-2.6h-3v5.2H54.8z"/>
		<path class="st0" d="M73.2,100.8c0,3.2-2.6,5.7-5.9,5.7c-3.3,0-5.9-2.5-5.9-5.7c0-3.2,2.6-5.7,5.9-5.7
			C70.6,95.1,73.2,97.6,73.2,100.8z M62.8,100.8c0,2.5,2.1,4.4,4.6,4.4c2.5,0,4.6-2,4.6-4.4c0-2.5-2.1-4.4-4.6-4.4
			C64.8,96.3,62.8,98.3,62.8,100.8z"/>
		<path class="st0" d="M79.8,106.5c-1.8,0-3.7-0.6-4.9-1.8l1-1c1.2,1.1,2.3,1.6,3.8,1.6c2.1,0,3.2-0.8,3.2-1.9
			c0-0.8-0.7-1.5-2.2-1.9c-0.3-0.1-1.8-0.5-2.1-0.6c-2.1-0.6-3.4-1.3-3.4-3c0-1.6,1.4-3.1,4.4-3.1c1.8,0,3.4,0.6,4.3,1.7l-1,1
			c-0.7-0.9-1.8-1.4-3.3-1.4c-2.1,0-3.1,0.8-3.1,1.7c0,0.9,0.9,1.3,2.7,1.8c0.3,0.1,1.6,0.4,1.8,0.5c2.2,0.6,3.1,1.7,3.1,3
			C84.4,104.9,83.1,106.5,79.8,106.5z"/>
		<path class="st0" d="M91.9,106.4V95.2h1.3v11.2H91.9z"/>
		<path class="st0" d="M105,106.4l-6.7-9v9H97V95.2h1.3l6.7,9v-9h1.3v11.2H105z"/>
		<path class="st0" d="M113.6,96.4v10h-1.3v-10h-3.7v-1.2h8.6v1.2H113.6z"/>
		<path class="st0" d="M120.8,96.4v3.7h5.7v1.2h-5.7v3.9h6.6v1.2h-7.8V95.2h7.6v1.2H120.8z"/>
		<path class="st0" d="M136.6,105.2v1.2h-6.2V95.2h1.3v10H136.6z"/>
		<path class="st0" d="M139.1,106.4V95.2h1.3v11.2H139.1z"/>
		<path class="st0" d="M153.1,100.9v4.1c-1.1,0.9-2.7,1.5-4.2,1.5c-3.3,0-5.9-2.5-5.9-5.7c0-3.2,2.6-5.7,5.9-5.7
			c1.6,0,3.1,0.6,4.1,1.5l-0.7,1c-0.9-0.8-2.2-1.3-3.4-1.3c-2.6,0-4.6,2-4.6,4.4c0,2.5,2.1,4.5,4.6,4.5c1,0,2.1-0.4,3-0.9v-3.4
			H153.1z"/>
		<path class="st0" d="M157.9,96.4v3.7h5.7v1.2h-5.7v3.9h6.6v1.2h-7.8V95.2h7.6v1.2H157.9z"/>
		<path class="st0" d="M175.5,106.4l-6.7-9v9h-1.3V95.2h1.3l6.7,9v-9h1.3v11.2H175.5z"/>
		<path class="st0" d="M184.1,96.4v10h-1.3v-10h-3.7v-1.2h8.6v1.2H184.1z"/>
		<path class="st0" d="M191.3,96.4v3.7h5.7v1.2h-5.7v3.9h6.6v1.2H190V95.2h7.6v1.2H191.3z"/>
		<path class="st0" d="M204.7,106.5c-1.8,0-3.7-0.6-4.9-1.8l1-1c1.2,1.1,2.3,1.6,3.8,1.6c2.1,0,3.2-0.8,3.2-1.9
			c0-0.8-0.7-1.5-2.2-1.9c-0.3-0.1-1.8-0.5-2.1-0.6c-2.1-0.6-3.4-1.3-3.4-3c0-1.6,1.4-3.1,4.4-3.1c1.8,0,3.4,0.6,4.3,1.7l-1,1
			c-0.7-0.9-1.8-1.4-3.3-1.4c-2.1,0-3.1,0.8-3.1,1.7c0,0.9,0.9,1.3,2.7,1.8c0.3,0.1,1.6,0.4,1.8,0.5c2.2,0.6,3.1,1.7,3.1,3
			C209.2,104.9,208,106.5,204.7,106.5z"/>
	</g>
</g>
<g>
	<g>
		<path class="st0" d="M212.6,27.7v4.2h-0.8v-4.2h-1.6v-0.8h4v0.8H212.6z"/>
		<path class="st0" d="M219,31.9l0-3.7l-1.6,3.2h-0.5l-1.6-3.2v3.7h-0.8v-5h1l1.6,3.3l1.6-3.3h1v5H219z"/>
	</g>
</g>
<g>
	<path class="st0" d="M366.5,77.3h-7.6l-3.5-7.3l0.4-0.6H339l0.4,0.6l-3.5,7.3h-7.7l16-33.3h6.2L366.5,77.3z M352.6,63.6l-0.7-0.7
		l-3.5-7.2l-1-3l-0.1,0l-1,3l-3.5,7.2l-0.7,0.7H352.6z"/>
	<path class="st0" d="M385,77.8c-5.9,0-11.6-1.8-15.8-5.9L374,67c3.4,3.1,7.4,4.5,11.2,4.5c5.5,0,7.4-1.7,7.4-3.6
		c0-1.1-0.9-2.7-5.3-3.8c-0.7-0.2-5.4-1.3-6.2-1.5c-5.9-1.5-11.2-3.7-11.2-9.4c0-5.3,5.1-9.7,14.6-9.7c6,0,10.9,2,14.5,5.7l-4.9,4.8
		c-2.3-2.6-5.8-4.4-9.7-4.4c-5.4,0-7.4,1.7-7.4,3.3c0,1.4,1.5,2.3,6.9,3.6c0.7,0.2,4.6,1.2,5.4,1.4c6.9,1.7,10.4,5.3,10.4,9.7
		C399.8,73,395.2,77.8,385,77.8z"/>
	<path class="st0" d="M433,77.3h-27.5V44.1H433v6.2h-21.2l0.7,0.7v6l-0.7,0.7h19.2v6.2h-19.2l0.7,0.7v6l-0.7,0.7H433V77.3z"/>
	<path class="st0" d="M471.6,77.4h-6v-3.2c-2,2.1-5.9,3.5-9.7,3.5c-11.3,0-17.7-6.6-17.7-16.8c0-10.4,6.7-17.3,18-17.3
		c5.3,0,10.4,1.6,13.8,5.1l-4.8,4.8c-2.3-2.7-5.4-3.8-9-3.8c-7.4,0-10.9,4.1-10.9,11.1c0,6.7,3.3,10.6,10.6,10.6
		c5.1,0,8.7-3,9.2-7.1l0.7-0.7h-11.5v-6.2h17.4V77.4z"/>
	<path class="st0" d="M510.1,62c0,9.9-5,15.7-15.6,15.7c-10.6,0-15.7-5.7-15.7-15.7v-18h7V62c0,6.3,2.3,9.5,8.7,9.5
		c6.3,0,8.7-3.2,8.7-9.5V44.1h7V62z"/>
	<path class="st0" d="M549.8,77.3h-7.8l-4.6-8.8c-1.4-2.6-3.2-3.7-7.1-3.7h-6.6l0.7,0.6v11.9h-7V44.1h16.1c6.6,0,12.7,3.3,12.7,10.4
		c0,3.5-2.7,6.7-5.7,8.1v0.1c1.1,0.5,2.5,1.7,3.4,3.5L549.8,77.3z M533.4,50.3h-9.8l0.7,0.6v7.3l-0.7,0.7h9.4c4.3,0,6-2.1,6-4.2
		C539,51.8,537.1,50.3,533.4,50.3z"/>
	<path class="st0" d="M588.7,77.3h-7.6l-3.5-7.3l0.4-0.6h-16.7l0.4,0.6l-3.5,7.3h-7.7l16-33.3h6.2L588.7,77.3z M574.9,63.6l-0.7-0.7
		l-3.5-7.2l-1-3l-0.1,0l-1,3l-3.5,7.2l-0.7,0.7H574.9z"/>
	<path class="st0" d="M632.9,50.3H621l0.4,0.7v26.4h-7V51l0.4-0.7h-11.9v-6.2h30V50.3z"/>
	<path class="st0" d="M668.5,62c0,9.9-5,15.7-15.6,15.7c-10.6,0-15.7-5.7-15.7-15.7v-18h7V62c0,6.3,2.3,9.5,8.7,9.5
		c6.3,0,8.7-3.2,8.7-9.5V44.1h7V62z"/>
	<path class="st0" d="M715.1,50.3h-20.4l0.7,0.6v6.7l-0.7,0.7l18.4,0v6.2h-18.4l0.7,0.7v12.1h-7V44.1h26.7V50.3z"/>
	<path class="st0" d="M753.5,77.3h-7.6l-3.5-7.3l0.4-0.6h-16.7l0.4,0.6l-3.5,7.3h-7.7l16-33.3h6.2L753.5,77.3z M739.7,63.6l-0.7-0.7
		l-3.5-7.2l-1-3l-0.1,0l-1,3l-3.5,7.2l-0.7,0.7H739.7z"/>
	<path class="st0" d="M787,71.8c-3.5,3.8-8.3,6-14,6c-11.7,0-17.8-6.9-17.8-16.9s6.4-17.2,17.9-17.2c6,0,10.4,1.9,13.9,5.8l-4.8,4.8
		c-2.1-2.9-5.1-4.4-9.1-4.4c-7.6,0-10.8,4.7-10.8,11c0,6.1,3,10.6,10.7,10.6c4,0,7.1-1.6,9.3-4.4L787,71.8z"/>
	<path class="st0" d="M819,50.3h-11.9l0.4,0.7v26.4h-7V51l0.4-0.7H789v-6.2h30V50.3z"/>
	<path class="st0" d="M854.6,62c0,9.9-5,15.7-15.6,15.7c-10.6,0-15.7-5.7-15.7-15.7v-18h7V62c0,6.3,2.3,9.5,8.7,9.5
		c6.3,0,8.7-3.2,8.7-9.5V44.1h7V62z"/>
	<path class="st0" d="M894.3,77.3h-7.8l-4.6-8.8c-1.4-2.6-3.2-3.7-7.1-3.7h-6.6l0.7,0.6v11.9h-7V44.1h16.1c6.6,0,12.7,3.3,12.7,10.4
		c0,3.5-2.7,6.7-5.7,8.1v0.1c1.1,0.5,2.5,1.7,3.4,3.5L894.3,77.3z M877.9,50.3h-9.8l0.7,0.6v7.3l-0.7,0.7h9.4c4.3,0,6-2.1,6-4.2
		C883.5,51.8,881.6,50.3,877.9,50.3z"/>
	<path class="st0" d="M933.2,77.3h-7.6l-3.5-7.3l0.4-0.6h-16.7l0.4,0.6l-3.5,7.3h-7.7l16-33.3h6.2L933.2,77.3z M919.4,63.6l-0.7-0.7
		l-3.5-7.2l-1-3l-0.1,0l-1,3l-3.5,7.2l-0.7,0.7H919.4z"/>
</g>
<g>
</g>
<g>
</g>
<g>
</g>
<g>
</g>
<g>
</g>
<g>
</g>
</svg>
