<?xml version="1.0" encoding="UTF-8" standalone="no"?>
<svg
   xmlns:dc="http://purl.org/dc/elements/1.1/"
   xmlns:cc="http://creativecommons.org/ns#"
   xmlns:rdf="http://www.w3.org/1999/02/22-rdf-syntax-ns#"
   xmlns:svg="http://www.w3.org/2000/svg"
   xmlns="http://www.w3.org/2000/svg"
   xmlns:sodipodi="http://sodipodi.sourceforge.net/DTD/sodipodi-0.dtd"
   xmlns:inkscape="http://www.inkscape.org/namespaces/inkscape"
   version="1.1"
   id="Layer_1"
   x="0px"
   y="0px"
   viewBox="0 0 217.39999 79.599998"
   xml:space="preserve"
   sodipodi:docname="logo02k.svg"
   width="217.39999"
   height="79.599998"
   inkscape:version="1.0.2-2 (e86c870879, 2021-01-15)"><metadata
   id="metadata117"><rdf:RDF><cc:Work
       rdf:about=""><dc:format>image/svg+xml</dc:format><dc:type
         rdf:resource="http://purl.org/dc/dcmitype/StillImage" /><dc:title></dc:title></cc:Work></rdf:RDF></metadata><defs
   id="defs115" /><sodipodi:namedview
   pagecolor="#ffffff"
   bordercolor="#666666"
   borderopacity="1"
   objecttolerance="10"
   gridtolerance="10"
   guidetolerance="10"
   inkscape:pageopacity="0"
   inkscape:pageshadow="2"
   inkscape:window-width="1850"
   inkscape:window-height="841"
   id="namedview113"
   showgrid="false"
   fit-margin-top="0"
   fit-margin-left="0"
   fit-margin-right="0"
   fit-margin-bottom="0"
   inkscape:zoom="1.0889817"
   inkscape:cx="470.06083"
   inkscape:cy="40.1"
   inkscape:window-x="0"
   inkscape:window-y="0"
   inkscape:window-maximized="0"
   inkscape:current-layer="Layer_1" />
<style
   type="text/css"
   id="style2">
	.st0{opacity:0.7;}
</style>
<g
   class="st0"
   id="g14"
   transform="translate(-2.3,-26.9)">
	<g
   id="g12">
		<path
   d="M 40,82.5 H 2.9 V 27.7 h 6.4 v 48 L 8.6,76.4 H 40 Z"
   id="path4" />
		<path
   d="M 67.4,82.5 H 61 V 27.7 h 6.4 z"
   id="path6" />
		<path
   d="m 114.3,83.2 c -8.8,0 -18,-2.8 -23.5,-8.9 l 5.1,-4.7 c 5.8,5.3 11.2,7.6 18.2,7.6 10.1,0 15.5,-3.9 15.5,-9.1 0,-3.7 -3.2,-7.2 -10.6,-9.1 -1.2,-0.3 -8.9,-2.4 -10.1,-2.7 -10,-2.8 -16.6,-6.4 -16.6,-14.3 0,-7.6 6.6,-14.8 21.5,-14.8 8.8,0 16.2,3.1 21,8.4 l -4.9,4.7 c -3.5,-4.1 -8.9,-7 -16,-7 -10.3,0 -14.9,4 -14.9,8.5 0,4.2 4.2,6.4 13.3,8.9 1.2,0.3 7.6,2.1 8.9,2.4 10.8,2.8 15.2,8.4 15.2,14.8 -0.3,7.4 -6.1,15.3 -22.1,15.3 z"
   id="path8" />
		<path
   d="m 209.1,82.5 h -7 l -5.8,-13.2 0.3,-0.7 h -30 l 0.3,0.7 -5.8,13.2 h -7 l 24.1,-54.8 h 6.8 z m -15.4,-20 -0.7,-0.7 -9.7,-22 -1.6,-5.5 h -0.1 l -1.7,5.5 -9.7,22 -0.7,0.7 z"
   id="path10" />
	</g>
</g>
<g
   class="st0"
   id="g56"
   transform="translate(-2.3,-26.9)">
	<g
   id="g54">
		<path
   d="m 7.2,106.5 c -1.8,0 -3.7,-0.6 -4.9,-1.8 l 1,-1 c 1.2,1.1 2.3,1.6 3.8,1.6 2.1,0 3.2,-0.8 3.2,-1.9 0,-0.8 -0.7,-1.5 -2.2,-1.9 C 7.9,101.4 6.3,101 6,101 3.9,100.4 2.6,99.7 2.6,98 2.6,96.4 4,94.9 7,94.9 c 1.8,0 3.4,0.6 4.3,1.7 l -1,1 C 9.6,96.7 8.5,96.2 7,96.2 c -2.1,0 -3,0.8 -3,1.7 0,0.9 0.9,1.3 2.7,1.8 0.3,0.1 1.6,0.4 1.8,0.5 2.2,0.6 3.1,1.7 3.1,3 0.1,1.7 -1.1,3.3 -4.4,3.3 z"
   id="path16" />
		<path
   d="m 15.7,96.4 v 3.7 h 5.7 v 1.2 h -5.7 v 3.9 h 6.6 v 1.2 H 14.5 V 95.2 h 7.6 v 1.2 z"
   id="path18" />
		<path
   d="m 34.3,100.9 v 4.1 c -1.1,0.9 -2.7,1.5 -4.2,1.5 -3.3,0 -5.9,-2.5 -5.9,-5.7 0,-3.2 2.6,-5.7 5.9,-5.7 1.6,0 3.1,0.6 4.1,1.5 l -0.7,1 c -0.9,-0.8 -2.2,-1.3 -3.4,-1.3 -2.6,0 -4.6,2 -4.6,4.4 0,2.5 2.1,4.5 4.6,4.5 1,0 2.1,-0.4 3,-0.9 v -3.4 z"
   id="path20" />
		<path
   d="m 47,101.8 c 0,2.9 -1.8,4.7 -4.7,4.7 -3,0 -4.7,-1.8 -4.7,-4.7 v -6.6 h 1.3 v 6.6 c 0,2.2 1.3,3.5 3.5,3.5 2.2,0 3.4,-1.3 3.4,-3.5 V 95.2 H 47 Z"
   id="path22" />
		<path
   d="m 55.5,102.8 c -0.2,0 -0.5,0 -0.8,0 h -3 v 3.5 H 50.4 V 95.2 h 4.3 c 2.8,0 4.4,1.4 4.4,3.8 0,1.9 -0.9,3.1 -2.5,3.6 l 2.6,3.8 h -1.5 z m -0.7,-1.2 c 2,0 3.2,-0.9 3.2,-2.6 0,-1.7 -1.2,-2.6 -3.2,-2.6 h -3 v 5.2 z"
   id="path24" />
		<path
   d="m 73.2,100.8 c 0,3.2 -2.6,5.7 -5.9,5.7 -3.3,0 -5.9,-2.5 -5.9,-5.7 0,-3.2 2.6,-5.7 5.9,-5.7 3.3,0 5.9,2.5 5.9,5.7 z m -10.4,0 c 0,2.5 2.1,4.4 4.6,4.4 2.5,0 4.6,-2 4.6,-4.4 0,-2.5 -2.1,-4.4 -4.6,-4.4 -2.6,-0.1 -4.6,1.9 -4.6,4.4 z"
   id="path26" />
		<path
   d="m 79.8,106.5 c -1.8,0 -3.7,-0.6 -4.9,-1.8 l 1,-1 c 1.2,1.1 2.3,1.6 3.8,1.6 2.1,0 3.2,-0.8 3.2,-1.9 0,-0.8 -0.7,-1.5 -2.2,-1.9 -0.3,-0.1 -1.8,-0.5 -2.1,-0.6 -2.1,-0.6 -3.4,-1.3 -3.4,-3 0,-1.6 1.4,-3.1 4.4,-3.1 1.8,0 3.4,0.6 4.3,1.7 l -1,1 c -0.7,-0.9 -1.8,-1.4 -3.3,-1.4 -2.1,0 -3.1,0.8 -3.1,1.7 0,0.9 0.9,1.3 2.7,1.8 0.3,0.1 1.6,0.4 1.8,0.5 2.2,0.6 3.1,1.7 3.1,3 0.3,1.8 -1,3.4 -4.3,3.4 z"
   id="path28" />
		<path
   d="M 91.9,106.4 V 95.2 h 1.3 v 11.2 z"
   id="path30" />
		<path
   d="m 105,106.4 -6.7,-9 v 9 H 97 V 95.2 h 1.3 l 6.7,9 v -9 h 1.3 v 11.2 z"
   id="path32" />
		<path
   d="m 113.6,96.4 v 10 h -1.3 v -10 h -3.7 v -1.2 h 8.6 v 1.2 z"
   id="path34" />
		<path
   d="m 120.8,96.4 v 3.7 h 5.7 v 1.2 h -5.7 v 3.9 h 6.6 v 1.2 h -7.8 V 95.2 h 7.6 v 1.2 z"
   id="path36" />
		<path
   d="m 136.6,105.2 v 1.2 h -6.2 V 95.2 h 1.3 v 10 z"
   id="path38" />
		<path
   d="M 139.1,106.4 V 95.2 h 1.3 v 11.2 z"
   id="path40" />
		<path
   d="m 153.1,100.9 v 4.1 c -1.1,0.9 -2.7,1.5 -4.2,1.5 -3.3,0 -5.9,-2.5 -5.9,-5.7 0,-3.2 2.6,-5.7 5.9,-5.7 1.6,0 3.1,0.6 4.1,1.5 l -0.7,1 c -0.9,-0.8 -2.2,-1.3 -3.4,-1.3 -2.6,0 -4.6,2 -4.6,4.4 0,2.5 2.1,4.5 4.6,4.5 1,0 2.1,-0.4 3,-0.9 v -3.4 z"
   id="path42" />
		<path
   d="m 157.9,96.4 v 3.7 h 5.7 v 1.2 h -5.7 v 3.9 h 6.6 v 1.2 h -7.8 V 95.2 h 7.6 v 1.2 z"
   id="path44" />
		<path
   d="m 175.5,106.4 -6.7,-9 v 9 h -1.3 V 95.2 h 1.3 l 6.7,9 v -9 h 1.3 v 11.2 z"
   id="path46" />
		<path
   d="m 184.1,96.4 v 10 h -1.3 v -10 h -3.7 v -1.2 h 8.6 v 1.2 z"
   id="path48" />
		<path
   d="m 191.3,96.4 v 3.7 h 5.7 v 1.2 h -5.7 v 3.9 h 6.6 v 1.2 H 190 V 95.2 h 7.6 v 1.2 z"
   id="path50" />
		<path
   d="m 204.7,106.5 c -1.8,0 -3.7,-0.6 -4.9,-1.8 l 1,-1 c 1.2,1.1 2.3,1.6 3.8,1.6 2.1,0 3.2,-0.8 3.2,-1.9 0,-0.8 -0.7,-1.5 -2.2,-1.9 -0.3,-0.1 -1.8,-0.5 -2.1,-0.6 -2.1,-0.6 -3.4,-1.3 -3.4,-3 0,-1.6 1.4,-3.1 4.4,-3.1 1.8,0 3.4,0.6 4.3,1.7 l -1,1 c -0.7,-0.9 -1.8,-1.4 -3.3,-1.4 -2.1,0 -3.1,0.8 -3.1,1.7 0,0.9 0.9,1.3 2.7,1.8 0.3,0.1 1.6,0.4 1.8,0.5 2.2,0.6 3.1,1.7 3.1,3 0.2,1.8 -1,3.4 -4.3,3.4 z"
   id="path52" />
	</g>
</g>
<g
   class="st0"
   id="g64"
   transform="translate(-2.3,-26.9)">
	<g
   id="g62">
		<path
   d="m 212.6,27.7 v 4.2 h -0.8 v -4.2 h -1.6 v -0.8 h 4 v 0.8 z"
   id="path58" />
		<path
   d="m 219,31.9 v -3.7 l -1.6,3.2 h -0.5 l -1.6,-3.2 v 3.7 h -0.8 v -5 h 1 l 1.6,3.3 1.6,-3.3 h 1 v 5 z"
   id="path60" />
	</g>
</g>

<g
   id="g100"
   transform="translate(-2.3,-26.9)">
</g>
<g
   id="g102"
   transform="translate(-2.3,-26.9)">
</g>
<g
   id="g104"
   transform="translate(-2.3,-26.9)">
</g>
<g
   id="g106"
   transform="translate(-2.3,-26.9)">
</g>
<g
   id="g108"
   transform="translate(-2.3,-26.9)">
</g>
<g
   id="g110"
   transform="translate(-2.3,-26.9)">
</g>
</svg>
