<?xml version="1.0" encoding="UTF-8" standalone="no"?>
<svg
   xmlns:dc="http://purl.org/dc/elements/1.1/"
   xmlns:cc="http://creativecommons.org/ns#"
   xmlns:rdf="http://www.w3.org/1999/02/22-rdf-syntax-ns#"
   xmlns:svg="http://www.w3.org/2000/svg"
   xmlns="http://www.w3.org/2000/svg"
   xmlns:sodipodi="http://sodipodi.sourceforge.net/DTD/sodipodi-0.dtd"
   xmlns:inkscape="http://www.inkscape.org/namespaces/inkscape"
   id="Mỗi_hình_1_layer_riêng"
   data-name="Mỗi hình 1 layer riêng"
   viewBox="0 0 720.62012 686.81079"
   version="1.1"
   sodipodi:docname="star2.svg"
   inkscape:version="1.0.2-2 (e86c870879, 2021-01-15)"
   width="720.62012"
   height="686.81079">
  <metadata
     id="metadata211">
    <rdf:RDF>
      <cc:Work
         rdf:about="">
        <dc:format>image/svg+xml</dc:format>
        <dc:type
           rdf:resource="http://purl.org/dc/dcmitype/StillImage" />
        <dc:title>09</dc:title>
      </cc:Work>
    </rdf:RDF>
  </metadata>
  <sodipodi:namedview
     pagecolor="#ffffff"
     bordercolor="#666666"
     borderopacity="1"
     objecttolerance="10"
     gridtolerance="10"
     guidetolerance="10"
     inkscape:pageopacity="0"
     inkscape:pageshadow="2"
     inkscape:window-width="1894"
     inkscape:window-height="854"
     id="namedview209"
     showgrid="false"
     inkscape:zoom="0.66436004"
     inkscape:cx="267.07455"
     inkscape:cy="345.44835"
     inkscape:window-x="0"
     inkscape:window-y="0"
     inkscape:window-maximized="0"
     inkscape:current-layer="Mỗi_hình_1_layer_riêng"
     fit-margin-top="0"
     fit-margin-left="0"
     fit-margin-right="0"
     fit-margin-bottom="0"
     inkscape:document-rotation="0" />
  <defs
     id="defs4">
    <style
       id="style2">.cls-1,.cls-27,.cls-28,.cls-29{fill:#fff;}.cls-2{fill:#f3f3f4;}.cls-3{fill:#ebecee;}.cls-4{fill:#d3d7db;}.cls-5{fill:#e0e2e5;}.cls-6{fill:#fefefe;}.cls-25,.cls-7{fill:#3d4f53;}.cls-7{opacity:0.09;}.cls-8{fill:#b51a1a;}.cls-9{fill:#960c0c;}.cls-10{fill:#ffc5b8;}.cls-11,.cls-21{fill:#e98970;}.cls-12{fill:#2b363c;}.cls-13{fill:#1c2426;}.cls-14{fill:#33231c;}.cls-15{opacity:0.61;}.cls-16{opacity:0.21;}.cls-17{fill:#4c2409;}.cls-18{fill:#6d3713;}.cls-19{fill:#87461b;}.cls-20{fill:#3d0b01;}.cls-21{opacity:0.56;}.cls-22{fill:#231f20;}.cls-23{fill:#dbdbdb;}.cls-24{fill:#000f11;opacity:0.13;}.cls-26{fill:#ffc606;}.cls-27{opacity:0.4;}.cls-28{opacity:0.23;}.cls-29{opacity:0.2;}</style>
  </defs>
  <title
     id="title6">09</title>
  <path
     class="cls-26"
     d="M 685.6825,256.8353 H 456.76174 a 13.526238,13.526238 0 0 1 -4.00708,-0.63962 14.38221,14.38221 0 0 1 -3.53677,-1.74017 13.940115,13.940115 0 0 1 -3.1511,-2.93476 l -0.0659,-0.0658 a 13.168799,13.168799 0 0 1 -2.0976,-3.96005 L 373.15867,29.767576 a 13.253456,13.253456 0 0 0 -12.84898,-9.340441 11.720231,11.720231 0 0 0 -3.01942,0.442095 14.043584,14.043584 0 0 0 -2.18226,0.705472 13.037111,13.037111 0 0 0 -2.92535,1.599068 11.804888,11.804888 0 0 0 -2.60554,2.483259 v 0 a 14.05299,14.05299 0 0 0 -2.09761,4.082328 L 330.5482,81.756114 276.70662,247.46664 a 1.3168799,1.3168799 0 0 1 -0.0847,0.15991 12.961861,12.961861 0 0 1 -1.98473,3.76251 l -0.0847,0.0941 a 13.940115,13.940115 0 0 1 -6.65965,4.70314 13.479207,13.479207 0 0 1 -4.04471,0.64903 H 34.927473 a 13.893083,13.893083 0 0 0 -3.489731,0.47032 c -0.150501,0 -0.301002,0.0658 -0.442096,0.11287 a 13.629707,13.629707 0 0 0 -9.406285,15.27581 13.102955,13.102955 0 0 0 5.408614,8.59734 v 0 l 103.111695,74.91166 82.06984,59.62644 a 12.943048,12.943048 0 0 1 3.16992,3.32042 1.1193479,1.1193479 0 0 0 0.0752,0.1505 14.241116,14.241116 0 0 1 1.77778,3.99767 0.20693827,0.20693827 0 0 1 0,0.0752 14.269335,14.269335 0 0 1 0.47973,3.68727 13.488613,13.488613 0 0 1 -0.60201,3.88479 L 146.33546,648.6635 a 14.109428,14.109428 0 0 0 -0.65844,3.93183 c 0,0.0752 0,0.1599 0,0.23515 -0.13169,10.41276 12.09648,17.76847 21.47455,10.94892 L 352.36138,529.22251 a 13.488613,13.488613 0 0 1 15.88721,0 l 185.20976,134.55691 a 15.050056,15.050056 0 0 0 2.14463,1.28866 c 0.17872,0.0847 0.36684,0.13169 0.54556,0.21634 a 13.432175,13.432175 0 0 0 1.71195,0.63022 l 0.42328,0.0941 a 12.717298,12.717298 0 0 0 1.92829,0.32922 h 0.10347 c 8.85131,0.71488 17.15706,-7.80722 13.94952,-17.68382 l -70.74467,-217.7179 a 13.441582,13.441582 0 0 1 -0.61141,-3.87539 14.617367,14.617367 0 0 1 0.48913,-3.76252 v 0 a 14.109428,14.109428 0 0 1 1.77778,-4.01648 1.1193479,1.1193479 0 0 0 0.0753,-0.1505 12.745516,12.745516 0 0 1 3.17932,-3.33923 l 23.29937,-16.93132 v 0 L 693.6214,281.28224 a 14.598555,14.598555 0 0 0 1.95651,-1.73076 c 0.15991,-0.16931 0.29159,-0.34803 0.43269,-0.51734 0.14109,-0.16932 0.301,-0.34804 0.44209,-0.52676 0.1411,-0.17872 0.46091,-0.6114 0.66785,-0.94062 0.11288,-0.17872 0.21634,-0.35744 0.31981,-0.54557 0.20694,-0.34803 0.41388,-0.69606 0.58319,-1.0535 0,-0.0847 0.0564,-0.16932 0.0941,-0.24457 0.0376,-0.0752 0.10347,-0.29159 0.1599,-0.43269 l 0.11288,-0.29159 a 13.563863,13.563863 0 0 0 0.56438,-2.05057 c 0,-0.0752 0,-0.1505 0.047,-0.21635 A 13.507425,13.507425 0 0 0 685.6825,256.8353 Z"
     id="path188"
     style="fill:none;fill-opacity:1;stroke:#ffc606;stroke-width:37.6251;stroke-miterlimit:4;stroke-dasharray:none;stroke-opacity:1" />
</svg>
