<?xml version="1.0" encoding="UTF-8" standalone="no"?>
<svg
   xmlns:dc="http://purl.org/dc/elements/1.1/"
   xmlns:cc="http://creativecommons.org/ns#"
   xmlns:rdf="http://www.w3.org/1999/02/22-rdf-syntax-ns#"
   xmlns:svg="http://www.w3.org/2000/svg"
   xmlns="http://www.w3.org/2000/svg"
   xmlns:sodipodi="http://sodipodi.sourceforge.net/DTD/sodipodi-0.dtd"
   xmlns:inkscape="http://www.inkscape.org/namespaces/inkscape"
   id="Mỗi_hình_1_layer_riêng"
   data-name="Mỗi hình 1 layer riêng"
   viewBox="0 0 720.62012 686.81079"
   version="1.1"
   sodipodi:docname="star1.svg"
   inkscape:version="1.0.2-2 (e86c870879, 2021-01-15)"
   width="720.62012"
   height="686.81079">
  <metadata
     id="metadata211">
    <rdf:RDF>
      <cc:Work
         rdf:about="">
        <dc:format>image/svg+xml</dc:format>
        <dc:type
           rdf:resource="http://purl.org/dc/dcmitype/StillImage" />
        <dc:title>09</dc:title>
      </cc:Work>
    </rdf:RDF>
  </metadata>
  <sodipodi:namedview
     pagecolor="#ffffff"
     bordercolor="#666666"
     borderopacity="1"
     objecttolerance="10"
     gridtolerance="10"
     guidetolerance="10"
     inkscape:pageopacity="0"
     inkscape:pageshadow="2"
     inkscape:window-width="1894"
     inkscape:window-height="854"
     id="namedview209"
     showgrid="false"
     inkscape:zoom="0.21730769"
     inkscape:cx="210.22007"
     inkscape:cy="1163.8014"
     inkscape:window-x="0"
     inkscape:window-y="0"
     inkscape:window-maximized="0"
     inkscape:current-layer="Mỗi_hình_1_layer_riêng"
     fit-margin-top="0"
     fit-margin-left="0"
     fit-margin-right="0"
     fit-margin-bottom="0"
     inkscape:document-rotation="0" />
  <defs
     id="defs4">
    <style
       id="style2">.cls-1,.cls-27,.cls-28,.cls-29{fill:#fff;}.cls-2{fill:#f3f3f4;}.cls-3{fill:#ebecee;}.cls-4{fill:#d3d7db;}.cls-5{fill:#e0e2e5;}.cls-6{fill:#fefefe;}.cls-25,.cls-7{fill:#3d4f53;}.cls-7{opacity:0.09;}.cls-8{fill:#b51a1a;}.cls-9{fill:#960c0c;}.cls-10{fill:#ffc5b8;}.cls-11,.cls-21{fill:#e98970;}.cls-12{fill:#2b363c;}.cls-13{fill:#1c2426;}.cls-14{fill:#33231c;}.cls-15{opacity:0.61;}.cls-16{opacity:0.21;}.cls-17{fill:#4c2409;}.cls-18{fill:#6d3713;}.cls-19{fill:#87461b;}.cls-20{fill:#3d0b01;}.cls-21{opacity:0.56;}.cls-22{fill:#231f20;}.cls-23{fill:#dbdbdb;}.cls-24{fill:#000f11;opacity:0.13;}.cls-26{fill:#ffc606;}.cls-27{opacity:0.4;}.cls-28{opacity:0.23;}.cls-29{opacity:0.2;}</style>
  </defs>
  <title
     id="title6">09</title>
  <path
     class="cls-26"
     d="m 706.22007,251.37139 h -243.37 a 14.38,14.38 0 0 1 -4.26,-0.68 15.29,15.29 0 0 1 -3.76,-1.85 14.82,14.82 0 0 1 -3.35,-3.12 l -0.07,-0.07 a 14,14 0 0 1 -2.23,-4.21 l -75.21,-231.4700032 a 14.09,14.09 0 0 0 -13.66,-9.93000001 12.46,12.46 0 0 0 -3.21,0.47 14.93,14.93 0 0 0 -2.32,0.75000001 13.86,13.86 0 0 0 -3.11,1.7 12.55,12.55 0 0 0 -2.77,2.64 v 0 a 14.94,14.94 0 0 0 -2.23,4.34 l -18,55.3000002 -57.24,176.170003 a 1.4,1.4 0 0 1 -0.09,0.17 13.78,13.78 0 0 1 -2.11,4 l -0.09,0.1 a 14.82,14.82 0 0 1 -7.08,5 14.33,14.33 0 0 1 -4.3,0.69 H 14.390073 a 14.77,14.77 0 0 0 -3.71,0.5 c -0.16,0 -0.32,0.07 -0.47,0.12 a 14.49,14.49 0 0 0 -9.99999994,16.24 13.93,13.93 0 0 0 5.75000004,9.14 v 0 l 109.6199969,79.64 87.25,63.39 a 13.76,13.76 0 0 1 3.37,3.53 1.19,1.19 0 0 0 0.08,0.16 15.14,15.14 0 0 1 1.89,4.25 0.22,0.22 0 0 1 0,0.08 15.17,15.17 0 0 1 0.51,3.92 14.34,14.34 0 0 1 -0.64,4.13 l -75.21,231.46 a 15,15 0 0 0 -0.7,4.18 c 0,0.08 0,0.17 0,0.25 -0.14,11.07 12.86,18.89 22.83,11.64 l 196.9,-143.05 a 14.34,14.34 0 0 1 16.89,0 l 196.9,143.05 a 16,16 0 0 0 2.28,1.37 c 0.19,0.09 0.39,0.14 0.58,0.23 a 14.28,14.28 0 0 0 1.82,0.67 l 0.45,0.1 a 13.52,13.52 0 0 0 2.05,0.35 h 0.11 c 9.41,0.76 18.24,-8.3 14.83,-18.8 l -75.21,-231.46 a 14.29,14.29 0 0 1 -0.65,-4.12 15.54,15.54 0 0 1 0.52,-4 v 0 a 15,15 0 0 1 1.89,-4.27 1.19,1.19 0 0 0 0.08,-0.16 13.55,13.55 0 0 1 3.38,-3.55 l 24.77,-18 v 0 l 172.11,-125 a 15.52,15.52 0 0 0 2.08,-1.84 c 0.17,-0.18 0.31,-0.37 0.46,-0.55 0.15,-0.18 0.32,-0.37 0.47,-0.56 0.15,-0.19 0.49,-0.65 0.71,-1 0.12,-0.19 0.23,-0.38 0.34,-0.58 0.22,-0.37 0.44,-0.74 0.62,-1.12 0,-0.09 0.06,-0.18 0.1,-0.26 0.04,-0.08 0.11,-0.31 0.17,-0.46 l 0.12,-0.31 a 14.42,14.42 0 0 0 0.6,-2.18 c 0,-0.08 0,-0.16 0.05,-0.23 a 14.36,14.36 0 0 0 -14.16,-16.9 z"
     id="path188" />
</svg>
