<svg xmlns="http://www.w3.org/2000/svg" fill="none" viewBox="0 0 30 30"><path fill="gray" d="M9 16.178a14.775 14.775 0 00-7.23 2.636 1.98 1.98 0 00-.77 1.58V23.5h22v-3.106a1.979 1.979 0 00-.77-1.58A14.775 14.775 0 0015 16.178"/><path fill="#b2b2b2" d="M22.23 18.814A14.775 14.775 0 0015 16.178H9a14.775 14.775 0 00-7.23 2.636 1.98 1.98 0 00-.77 1.58V23.5h.019a1.961 1.961 0 01.751-1.413A14.783 14.783 0 019 19.45h6c2.6.225 5.095 1.135 7.23 2.637a1.96 1.96 0 01.751 1.413H23v-3.106a1.979 1.979 0 00-.77-1.58z"/><path fill="#ff808c" d="M9 13.7v2.8c.9.581 1.932.925 3 1a6.337 6.337 0 003-1v-2.8"/><path fill="#ffdda1" stroke="#191919" stroke-linecap="round" stroke-linejoin="round" d="M17.8 10a5.988 5.988 0 01-11.6 0c1.3.02 3.62.2 5.43-1.6a.531.531 0 01.74 0c1.81 1.8 4.13 1.62 5.43 1.6z"/><path fill="#ffdda1" d="M17.91 5.5H6.09a5.993 5.993 0 0111.82 0z"/><path fill="#ffdda1" d="M12 3a5.964 5.964 0 014.848 2.5h1.062a5.993 5.993 0 00-11.82 0h1.062A5.964 5.964 0 0112 3z"/><path stroke="#191919" stroke-linecap="round" stroke-linejoin="round" d="M17.91 5.5H6.09a5.993 5.993 0 0111.82 0v0zm-4.41 6a2.5 2.5 0 00-3 0"/><path fill="gray" stroke="#191919" stroke-linecap="round" stroke-linejoin="round" d="M18 6.5v2a6.165 6.165 0 01-.19 1.5h-.01c-1.3.02-3.62.2-5.43-1.6a.53.53 0 00-.74 0C9.82 10.2 7.5 10.02 6.2 10h-.01A6.164 6.164 0 016 8.5v-2c0-.335.03-.67.09-1h11.82c.06.33.09.665.09 1v0z"/><path stroke="#191919" stroke-linecap="round" stroke-linejoin="round" d="M17.92 5.5h-.01m-11.82 0h-.01M23 23.5v-3.107a1.978 1.978 0 00-.77-1.579A14.775 14.775 0 0015 16.178m-6 0a14.775 14.775 0 00-7.23 2.636A1.978 1.978 0 001 20.393V23.5m8-9.8v2.8c.9.581 1.932.925 3 1a6.337 6.337 0 003-1v-2.8m-4 3.669v-2.953m2 2.953v-2.953M10 3V.842M14 3V.842M12 2.5v-2m-3.5 7h1m6 0h-1"/></svg>