<svg xmlns="http://www.w3.org/2000/svg" fill="none" viewBox="0 0 30 30"><path stroke="#191919" stroke-linecap="round" stroke-linejoin="round" d="M.5 6.5v-3a3 3 0 013-3h3m17 6v-3a3 3 0 00-3-3h-3m-17 17v3a3 3 0 003 3h3m17-6v3a3 3 0 01-3 3h-3"/><path fill="#ffdda1" d="M14.511 20.75v-2.5h.751a2.055 2.055 0 002.252-2v-2h2.112a.372.372 0 00.355-.489C18.574 9.4 17.556 4.225 12.909 3.375a7.5 7.5 0 00-8.878 6.5A7.821 7.821 0 007 16.75v4h7.511z"/><path fill="#ffe4b4" d="M13.012 6.64c3.8.694 5.423 3.987 6.637 7.609a.374.374 0 00.332-.488C18.574 9.4 17.556 4.225 12.909 3.375a7.5 7.5 0 00-8.878 6.5c-.03.344-.038.69-.023 1.035a8.515 8.515 0 019.004-4.27z"/><path stroke="#191919" stroke-linecap="round" stroke-linejoin="round" d="M14.511 20.75v-2.5h.751a2.055 2.055 0 002.252-2v-2h2.112a.372.372 0 00.355-.489C18.574 9.4 17.556 4.225 12.909 3.375a7.5 7.5 0 00-8.878 6.5A7.821 7.821 0 007 16.75v4"/></svg>