<svg xmlns="http://www.w3.org/2000/svg" fill="none" viewBox="0 0 30 30"><path fill="#ffbfc5" d="M10.753 22.474a9.311 9.311 0 100-18.622 9.311 9.311 0 000 18.622z"/><path fill="#ff808c" d="M10.753 17.301a9.312 9.312 0 01-8.94-6.725 9.312 9.312 0 1017.88 0 9.312 9.312 0 01-8.94 6.725z"/><path fill="#fff" stroke="#191919" stroke-linecap="round" stroke-linejoin="round" d="M10.753 18.91a5.748 5.748 0 100-11.496 5.748 5.748 0 000 11.496z" stroke-width=".828"/><path stroke="#191919" stroke-linecap="round" stroke-linejoin="round" d="M19.843 11.093a9.312 9.312 0 11-6.805-6.972" stroke-width=".9"/><path fill="#66e1ff" stroke="#191919" stroke-linecap="round" stroke-linejoin="round" d="M17.05 3.244a2.07 2.07 0 00-.606 1.463v2.765h2.764a2.07 2.07 0 001.463-.607l2.498-2.497h-3.621V.746z" stroke-width="1.035"/><path fill="#ff808c" stroke="#191919" stroke-linecap="round" stroke-linejoin="round" d="M10.753 15.896a2.734 2.734 0 100-5.468 2.734 2.734 0 000 5.468z" stroke-width=".828"/><path stroke="#191919" stroke-linecap="round" stroke-linejoin="round" d="M10.753 13.162l5.69-5.69" stroke-width="1.035"/></svg>