<?xml version="1.0" encoding="utf-8"?>
<!-- Generator: Adobe Illustrator 19.2.1, SVG Export Plug-In . SVG Version: 6.00 Build 0)  -->
<svg version="1.1" id="Layer_1" xmlns="http://www.w3.org/2000/svg" xmlns:xlink="http://www.w3.org/1999/xlink" x="0px" y="0px"
	 viewBox="0 0 504 162" style="enable-background:new 0 0 504 162;" xml:space="preserve">
<style type="text/css">
	.st0{fill:#FFFFFF;}
	.st1{fill:#FFFFFF;enable-background:new    ;}
</style>
<title>Layer 1</title>
<path id="svg_26" class="st0" d="M258.2,102h-53.7V22.6h9.3v69.5l-1,1.1h45.4C258.2,93.1,258.2,102,258.2,102z"/>
<path id="svg_27" class="st0" d="M297.9,102h-9.3V22.6h9.3L297.9,102z"/>
<path id="svg_28" class="st0" d="M365.8,102.9c-12.7,0-26.1-4.1-34.1-12.9l7.4-6.9c8.4,7.7,16.3,11,26.4,11
	c14.7,0,22.4-5.6,22.4-13.1c0-5.4-4.6-10.4-15.4-13.2c-1.8-0.5-12.9-3.4-14.6-3.9c-14.5-4-24.1-9.2-24.1-20.8
	c0-11,9.5-21.5,31.1-21.5c12.7,0,23.5,4.5,30.4,12.2l-7.1,6.8c-5-6-12.8-10.1-23.2-10.1c-14.9,0-21.6,5.8-21.6,12.3
	c0,6.1,6.1,9.2,19.2,12.8c1.8,0.5,11,3,12.8,3.5c15.7,4.1,22,12.2,22,21.4C397.5,91.5,389,102.9,365.8,102.9L365.8,102.9z"/>
<path id="svg_29" class="st0" d="M503.1,102h-10.2l-8.4-19.1l0.5-1h-43.4l0.5,1l-8.5,19.1h-10.2l34.9-79.4h9.9L503.1,102z M480.8,73
	l-1-1l-14-31.8l-2.4-7.9h-0.2l-2.5,7.9l-14,31.8l-1,1H480.8z"/>
<path id="svg_30" class="st0" d="M215.3,123.7l-0.8,1.8c-1.4-0.9-2.9-1.4-4.6-1.4c-2.1,0-3.5,0.8-3.5,2.2c0,4.3,9.3,2,9.3,8
	c0,2.8-2.4,4.5-6,4.5c-2.3,0-4.6-0.9-6.3-2.5l0.9-1.7c1.5,1.4,3.4,2.3,5.5,2.3c2.4,0,3.9-1,3.9-2.6c0-4.3-9.3-2-9.3-7.9
	c0-2.6,2.3-4.3,5.7-4.3C211.9,122.1,213.7,122.7,215.3,123.7L215.3,123.7z"/>
<path id="svg_31" class="st0" d="M222.1,124v5.4h8.3v1.8h-8.3v5.7h9.6v1.8h-11.5v-16.5h11.2v1.8H222.1z"/>
<path id="svg_32" class="st0" d="M249.3,130.7v6c-1.8,1.4-3.9,2.1-6.1,2.2c-4.6,0.2-8.5-3.4-8.7-8c-0.2-4.6,3.4-8.5,8-8.7
	c0.3,0,0.5,0,0.8,0c2.2,0,4.4,0.8,6.1,2.3l-1.1,1.4c-1.4-1.2-3.2-1.9-5-1.9c-3.6-0.1-6.7,2.7-6.8,6.3s2.7,6.7,6.3,6.8
	c0.2,0,0.3,0,0.5,0c1.6,0,3.1-0.5,4.3-1.4v-5L249.3,130.7z"/>
<path id="svg_33" class="st0" d="M268,131.9c0,4.3-2.6,6.9-6.9,6.9s-7-2.6-7-6.9v-9.7h1.9v9.7c0,3.2,1.9,5.1,5.1,5.1s5-1.9,5-5.1
	v-9.7h1.9L268,131.9z"/>
<path id="svg_34" class="st0" d="M280.6,133.5c-0.4,0-0.7,0-1.1,0h-4.4v5.2h-1.9v-16.5h6.3c4.1,0,6.5,2,6.5,5.5
	c0.2,2.4-1.4,4.7-3.7,5.4l3.9,5.6H284L280.6,133.5L280.6,133.5z M279.5,131.7c3,0,4.7-1.3,4.7-3.9s-1.7-3.8-4.7-3.8h-4.4v7.7H279.5z
	"/>
<path id="svg_35" class="st0" d="M306.6,130.5c0.2,4.8-3.5,8.8-8.3,9c-4.8,0.2-8.8-3.5-9-8.3c-0.2-4.8,3.5-8.8,8.3-9
	c0.1,0,0.2,0,0.4,0C302.6,122.1,306.5,125.8,306.6,130.5C306.6,130.5,306.6,130.5,306.6,130.5z M291.2,130.5
	c-0.1,3.7,2.8,6.8,6.5,6.9c3.7,0.1,6.8-2.8,6.9-6.5c0.1-3.7-2.8-6.8-6.5-6.9c-0.1,0-0.1,0-0.2,0
	C294.3,123.9,291.3,126.8,291.2,130.5z"/>
<path id="svg_36" class="st0" d="M320.8,123.7l-0.8,1.8c-1.4-0.9-2.9-1.4-4.5-1.4c-2.1,0-3.5,0.8-3.5,2.2c0,4.3,9.3,2,9.3,8
	c0,2.8-2.4,4.5-6,4.5c-2.3,0-4.6-0.9-6.3-2.5l0.9-1.7c1.5,1.4,3.4,2.3,5.5,2.3c2.4,0,3.9-1,3.9-2.6c0-4.3-9.3-2-9.3-7.9
	c0-2.6,2.3-4.3,5.7-4.3C317.4,122.1,319.2,122.7,320.8,123.7L320.8,123.7z"/>
<path id="svg_37" class="st0" d="M332.6,138.7v-16.5h1.9v16.5H332.6z"/>
<path id="svg_38" class="st0" d="M352,138.7l-9.9-13.3v13.3h-1.9v-16.5h2l9.9,13.3v-13.3h1.9v16.5H352L352,138.7z"/>
<path id="svg_39" class="st0" d="M364.5,124v14.7h-1.9V124h-5.4v-1.8h12.7v1.8H364.5z"/>
<path id="svg_40" class="st0" d="M375.1,124v5.4h8.3v1.8h-8.3v5.7h9.6v1.8h-11.5v-16.5h11.2v1.8H375.1z"/>
<path id="svg_41" class="st0" d="M398.3,136.9v1.8h-9.1v-16.5h1.9v14.7L398.3,136.9L398.3,136.9z"/>
<path id="svg_42" class="st0" d="M402,138.7v-16.5h1.9v16.5H402z"/>
<path id="svg_43" class="st0" d="M422.6,130.7v6c-1.8,1.4-3.9,2.1-6.1,2.2c-4.6,0.2-8.5-3.4-8.7-8c-0.2-4.6,3.4-8.5,8-8.7
	c0.3,0,0.5,0,0.8,0c2.2,0,4.4,0.8,6.1,2.3l-1,1.4c-1.4-1.2-3.2-1.9-5-1.9c-3.6-0.1-6.7,2.7-6.8,6.3s2.7,6.7,6.3,6.8
	c0.2,0,0.3,0,0.5,0c1.6,0,3.1-0.5,4.3-1.4v-5L422.6,130.7z"/>
<path id="svg_44" class="st0" d="M429.7,124v5.4h8.3v1.8h-8.3v5.7h9.6v1.8h-11.5v-16.5H439v1.8H429.7z"/>
<path id="svg_45" class="st0" d="M455.6,138.7l-10-13.3v13.3h-1.9v-16.5h2l9.9,13.3v-13.3h1.9v16.5H455.6z"/>
<path id="svg_46" class="st0" d="M468.2,124v14.7h-1.9V124h-5.4v-1.8h12.7v1.8H468.2z"/>
<path id="svg_47" class="st0" d="M478.8,124v5.4h8.3v1.8h-8.3v5.7h9.6v1.8h-11.5v-16.5h11.2v1.8H478.8L478.8,124z"/>
<path id="svg_48" class="st0" d="M503,123.7l-0.8,1.8c-1.4-0.9-2.9-1.4-4.5-1.4c-2.1,0-3.5,0.8-3.5,2.2c0,4.3,9.3,2,9.3,8
	c0,2.8-2.4,4.5-6,4.5c-2.4,0-4.6-0.9-6.3-2.5l0.9-1.7c1.5,1.4,3.4,2.3,5.5,2.3c2.4,0,3.9-1,3.9-2.6c0-4.3-9.3-2-9.3-7.9
	c0-2.6,2.3-4.3,5.7-4.3C499.6,122.1,501.4,122.7,503,123.7L503,123.7z"/>
<path class="st1" d="M114,25.9L114,25.9L76.4,4.2c-6.5-3.8-14.3-4.4-21.4-1.7l-0.3,0.1c-0.4,0.1-0.8,0.3-1.2,0.5l-0.6,0.3
	c-0.6,0.3-1.1,0.6-1.6,0.9l-0.2,0.1L13.9,25.9c-2.6,1.5-5,3.5-6.9,5.9L6.8,32c-0.3,0.4-0.6,0.8-0.9,1.2l-0.3,0.4
	c-0.3,0.5-0.7,1.1-1,1.6c-0.1,0.1-0.1,0.3-0.2,0.4C4.2,36,4,36.4,3.7,36.9l-0.3,0.5c-0.2,0.4-0.4,0.9-0.5,1.3
	c-0.1,0.2-0.1,0.3-0.2,0.5c-0.2,0.6-0.4,1.2-0.6,1.8l-0.1,0.3C2,41.9,1.9,42.5,1.8,43c0,0.2-0.1,0.4-0.1,0.6
	c-0.1,0.5-0.1,0.9-0.2,1.4c0,0.2,0,0.4,0,0.6c-0.1,0.6-0.1,1.3-0.1,2v43.3c0,0.9,0,1.7,0.1,2.6c0,0.3,0.1,0.6,0.1,0.8
	c0.1,0.6,0.2,1.2,0.3,1.7c0.1,0.3,0.2,0.6,0.2,1c0.1,0.5,0.3,1,0.4,1.5c0.1,0.3,0.2,0.6,0.3,1c0.1,0.3,0.4,1,0.6,1.4
	c0.1,0.1,0.1,0.3,0.2,0.5v0.1c0.1,0.1,0.2,0.3,0.2,0.4l0.3,0.7c0.2,0.4,0.5,0.9,0.7,1.3c0.1,0.2,0.2,0.4,0.4,0.6
	c0.4,0.6,0.8,1.1,1.2,1.6c0,0,0.1,0.1,0.1,0.1c0.4,0.6,0.9,1.1,1.4,1.6l0.1,0.2c1.7,1.8,3.6,3.3,5.7,4.5l37.6,21.7
	c7.7,4.5,17.3,4.5,25,0l37.6-21.7c4.1-2.4,7.5-5.9,9.7-10.1c0.4-0.8,0.8-1.6,1.1-2.4l0.1-0.2c0.3-0.8,0.6-1.6,0.8-2.4l0.1-0.3
	c0.2-0.8,0.4-1.6,0.5-2.4c0-0.1,0-0.1,0-0.2c0.2-1.2,0.3-2.4,0.4-3.6V47.6C126.5,38.6,121.8,30.3,114,25.9z M89,102.7
	c-5.9,4.6-14.1,6.9-24.5,7c-6.5,0-13-1.1-19.2-3.2c-5.6-1.8-10.8-4.8-15.2-8.8l8.8-14.2c3.6,3.1,7.7,5.6,12.1,7.3
	c4.6,2,9.5,3.1,14.5,3.2c4.3,0,7.5-0.7,9.6-2.2c2.1-1.3,3.3-3.6,3.3-6.1c0-1.9-1.2-3.5-3.4-4.7c-2.7-1.3-5.5-2.2-8.5-2.6
	c-3.7-0.6-7.4-1.4-11-2.4c-3.8-1-7.4-2.3-11-3.8C37,68.8,32.3,61.2,32.6,53c0-6.8,2.8-12.5,8.4-17.2c5.6-4.7,13.3-7,23.1-7
	c11.9,0,22.3,3.5,31.1,10.5l-8.2,13.9c-2.8-2.8-6.1-5-9.8-6.4c-4.1-1.7-8.5-2.6-13-2.5c-3.1-0.1-6.1,0.6-8.8,2.1
	c-2,1.1-3.3,3.2-3.3,5.5c0,1.7,1.1,3.1,3.3,4.2c2.7,1.3,5.5,2.1,8.5,2.5c3.7,0.6,7.4,1.4,11,2.5c3.8,1.1,7.4,2.4,11,4
	c3.5,1.6,6.4,4.2,8.5,7.4c2.3,3.7,3.5,8.1,3.3,12.4C97.8,92.1,94.9,98,89,102.7z"/>
</svg>
