<?xml version="1.0" encoding="utf-8"?>
<!-- Generator: Adobe Illustrator 19.2.1, SVG Export Plug-In . SVG Version: 6.00 Build 0)  -->
<svg version="1.1" id="Layer_1" xmlns="http://www.w3.org/2000/svg" xmlns:xlink="http://www.w3.org/1999/xlink" x="0px" y="0px"
	 viewBox="0 0 189.1 189.1" style="enable-background:new 0 0 189.1 189.1;" xml:space="preserve">
<style type="text/css">
	.st0{fill:#FFFFFF;}
</style>
<g>
	<g>
		<path class="st0" d="M94.5,63.1c17.4,0,31.5,14.1,31.5,31.5c0,17.4-14.1,31.5-31.5,31.5s-31.5-14.1-31.5-31.5
			C63.1,77.2,77.2,63.1,94.5,63.1 M94.5,45.7c-27,0-48.9,21.9-48.9,48.9c0,27,21.9,48.9,48.9,48.9c27,0,48.9-21.9,48.9-48.9
			C143.4,67.6,121.5,45.7,94.5,45.7L94.5,45.7z"/>
	</g>
	<g>
		<path class="st0" d="M136.2,17.4c19.6,0,35.5,15.9,35.5,35.5v83.3c0,19.6-15.9,35.5-35.5,35.5H52.9c-19.6,0-35.5-15.9-35.5-35.5
			V52.9c0-19.6,15.9-35.5,35.5-35.5H136.2 M136.2,0H52.9C23.7,0,0,23.7,0,52.9v83.3c0,29.2,23.7,52.9,52.9,52.9h83.3
			c29.2,0,52.9-23.7,52.9-52.9V52.9C189.1,23.7,165.4,0,136.2,0L136.2,0z"/>
	</g>
	<circle class="st0" cx="146" cy="43.1" r="11.5"/>
</g>
</svg>
