<?xml version="1.0" encoding="utf-8"?>
<!-- Generator: Adobe Illustrator 19.2.1, SVG Export Plug-In . SVG Version: 6.00 Build 0)  -->
<svg version="1.1" id="Layer_1" xmlns="http://www.w3.org/2000/svg" xmlns:xlink="http://www.w3.org/1999/xlink" x="0px" y="0px"
	 viewBox="0 0 324 330.7" style="enable-background:new 0 0 324 330.7;" xml:space="preserve">
<style type="text/css">
	.st0{fill:#FFFFFF;}
</style>
<g>
	<path class="st0" d="M214.9,67.5H109.1c-24.9,0-45,20.1-45,45v105.7c0,24.9,20.1,45,45,45h105.7c24.9,0,45-20.1,45-45V112.5
		C259.9,87.6,239.7,67.5,214.9,67.5z M162,227.4c-34.2,0-62-27.8-62-62c0-34.2,27.8-62,62-62c34.2,0,62,27.8,62,62
		C224,199.6,196.2,227.4,162,227.4z M227.2,114.7c-8.1,0-14.6-6.5-14.6-14.6c0-8.1,6.5-14.6,14.6-14.6c8.1,0,14.6,6.5,14.6,14.6
		C241.9,108.2,235.3,114.7,227.2,114.7z"/>
	<path class="st0" d="M254,0H70C31.3,0,0,31.3,0,70v190.7c0,38.7,31.3,70,70,70h184c38.7,0,70-31.3,70-70V70C324,31.3,292.6,0,254,0
		z M281.9,218.2c0,37-30.1,67.1-67.1,67.1H109.1c-37,0-67.1-30.1-67.1-67.1V112.5c0-37,30.1-67.1,67.1-67.1h105.7
		c37,0,67.1,30.1,67.1,67.1V218.2z"/>
	<circle class="st0" cx="162" cy="165.4" r="39.9"/>
</g>
</svg>
