<?xml version="1.0" encoding="utf-8"?>
<!-- Generator: Adobe Illustrator 19.2.1, SVG Export Plug-In . SVG Version: 6.00 Build 0)  -->
<svg version="1.1" id="Layer_1" xmlns="http://www.w3.org/2000/svg" xmlns:xlink="http://www.w3.org/1999/xlink" x="0px" y="0px"
	 viewBox="0 0 324 330.7" style="enable-background:new 0 0 324 330.7;" xml:space="preserve">
<style type="text/css">
	.st0{fill:#FFFFFF;}
</style>
<path class="st0" d="M254,0H70C31.3,0,0,31.3,0,70v190.7c0,38.7,31.3,70,70,70h184c38.7,0,70-31.3,70-70V70C324,31.3,292.6,0,254,0z
	 M104.9,266.5h-42V128.7h42V266.5z M83.8,111.1c-13.8,0-25-11.2-25-25s11.2-25,25-25c13.8,0,25,11.2,25,25S97.6,111.1,83.8,111.1z
	 M266,266.5h-44.5v-76.2c0-8.9-2.2-16.1-6.7-21.2c-8.2-9.3-24.3-7.8-33,1.6c-0.1,0.1-0.2,0.2-0.3,0.4c-5.7,6.2-8.8,17.5-8.8,41v54.5
	H131V128.7h41.7v19.1c12.2-20.8,32.1-23.7,46.5-22.6c0.7,0.1,1.5,0.1,2.2,0.2c25.2,1.9,44.7,16.3,44.7,68.5V266.5z"/>
</svg>
