<?xml version="1.0" encoding="utf-8"?>
<!-- Generator: Adobe Illustrator 19.2.1, SVG Export Plug-In . SVG Version: 6.00 Build 0)  -->
<svg version="1.1" id="Layer_1" xmlns="http://www.w3.org/2000/svg" xmlns:xlink="http://www.w3.org/1999/xlink" x="0px" y="0px"
	 viewBox="0 0 190.3 188.6" style="enable-background:new 0 0 190.3 188.6;" xml:space="preserve">
<style type="text/css">
	.st0{fill:#FFFFFF;}
</style>
<g>
	<circle class="st0" cx="23" cy="23" r="23"/>
	<rect x="3.7" y="62.1" class="st0" width="38.6" height="126.5"/>
	<path class="st0" d="M104.5,79.6V62.1H66.2v126.5h38.3v-50c0-21.7,2.9-32,8.1-37.7c0.1-0.1,0.2-0.2,0.3-0.3c8-8.6,22.8-10,30.3-1.5
		c4.1,4.7,6.2,11.3,6.1,19.5v70h40.9V122c0-48-17.9-61.1-41.1-62.9c-0.7-0.1-1.4-0.1-2-0.2C134,57.9,115.7,60.5,104.5,79.6z"/>
</g>
</svg>
