<?xml version="1.0" encoding="utf-8"?>
<!-- Generator: Adobe Illustrator 19.2.1, SVG Export Plug-In . SVG Version: 6.00 Build 0)  -->
<svg version="1.1" id="Layer_1" xmlns="http://www.w3.org/2000/svg" xmlns:xlink="http://www.w3.org/1999/xlink" x="0px" y="0px"
	 viewBox="0 0 197.4 162.4" style="enable-background:new 0 0 197.4 162.4;" xml:space="preserve">
<style type="text/css">
	.st0{fill:#FFFFFF;}
</style>
<path class="st0" d="M174.9,25.4c9.3-6.1,13.7-9.8,17.2-22.4c0,0-16.9,9.6-25.9,9.6c-0.1,0-0.3,0-0.4,0C158.3,4.9,147.8,0,136.2,0
	c-22.5,0-40.7,18.2-40.7,40.7c0,2.9,0.3,5.7,0.9,8.4c-0.2,0.1-0.3,0.2-0.5,0.2c-44.5,1.9-82.7-42-82.7-42
	c-13.8,28.5,1.6,46.3,11.7,55c-5.4-0.7-11.1-1.7-17.4-4.8c0,9,1.8,30.4,31.5,40.1c-5.5,1.4-11.1,0.7-17.4,0.6
	c0,0,4.4,25.8,37.1,28.3c-15,11.6-31.1,18.3-58.6,16.9c21.4,12.4,62,31.2,112.3,7.5l8.4-4.8c33.1-19,54.2-53.6,56-91.8l0.7-14.5
	c7.9-3.3,17.2-15,20-19.8C189.3,22.9,183.8,24.4,174.9,25.4z"/>
</svg>
