<?xml version="1.0" encoding="utf-8"?>
<!-- Generator: Adobe Illustrator 19.2.1, SVG Export Plug-In . SVG Version: 6.00 Build 0)  -->
<svg version="1.1" id="Layer_1" xmlns="http://www.w3.org/2000/svg" xmlns:xlink="http://www.w3.org/1999/xlink" x="0px" y="0px"
	 viewBox="0 0 186 23.7" style="enable-background:new 0 0 186 23.7;" xml:space="preserve">
<style type="text/css">
	.st0{fill:#A93EE9;}
	.st1{fill:#FFFFFF;}
</style>
<path class="st0" d="M176.5,23.7H9.5c-5.3,0-9.5-4.3-9.5-9.5l0-4.6C0,4.3,4.3,0,9.5,0l166.9,0c5.3,0,9.5,4.3,9.5,9.5v4.6
	C186,19.4,181.7,23.7,176.5,23.7z"/>
<g>
	<path class="st1" d="M19.5,15.2h-4.9l-0.8,2.4h-2.6l4.5-12.4h2.9L23,17.6h-2.6L19.5,15.2z M18.8,13.2L17,8l-1.8,5.2H18.8z"/>
	<path class="st1" d="M25.4,17.3c-0.6-0.3-1.1-0.7-1.5-1.2c-0.4-0.5-0.6-1-0.6-1.7h2.5c0,0.4,0.2,0.7,0.6,0.9
		c0.3,0.2,0.7,0.4,1.2,0.4c0.5,0,0.8-0.1,1.1-0.3c0.3-0.2,0.4-0.4,0.4-0.7c0-0.3-0.2-0.6-0.5-0.7s-0.8-0.3-1.6-0.5
		c-0.7-0.2-1.3-0.4-1.8-0.6c-0.5-0.2-0.9-0.5-1.2-0.9c-0.3-0.4-0.5-0.9-0.5-1.6c0-0.5,0.2-1,0.5-1.5c0.3-0.5,0.8-0.8,1.4-1.1
		c0.6-0.3,1.3-0.4,2.1-0.4c1.2,0,2.1,0.3,2.8,0.9c0.7,0.6,1.1,1.4,1.2,2.4h-2.4c0-0.4-0.2-0.7-0.5-0.9s-0.7-0.3-1.2-0.3
		c-0.5,0-0.8,0.1-1,0.2c-0.2,0.2-0.4,0.4-0.4,0.7c0,0.3,0.2,0.6,0.5,0.8c0.3,0.2,0.8,0.3,1.5,0.5c0.7,0.2,1.3,0.4,1.8,0.6
		c0.5,0.2,0.9,0.5,1.2,0.9c0.3,0.4,0.5,0.9,0.5,1.6c0,0.6-0.2,1.1-0.5,1.5c-0.3,0.5-0.8,0.8-1.4,1.1c-0.6,0.3-1.3,0.4-2.1,0.4
		C26.7,17.7,26,17.6,25.4,17.3z"/>
	<path class="st1" d="M41.6,13.4h-7.2c0.1,0.7,0.3,1.3,0.7,1.7s1,0.6,1.6,0.6c0.9,0,1.6-0.4,2-1.2h2.7c-0.3,0.9-0.8,1.7-1.6,2.3
		s-1.8,0.9-3,0.9c-0.9,0-1.8-0.2-2.6-0.6c-0.8-0.4-1.3-1-1.8-1.8c-0.4-0.8-0.6-1.7-0.6-2.7c0-1,0.2-1.9,0.6-2.7
		c0.4-0.8,1-1.4,1.7-1.8c0.7-0.4,1.6-0.6,2.6-0.6c0.9,0,1.8,0.2,2.5,0.6c0.7,0.4,1.3,1,1.7,1.7c0.4,0.7,0.6,1.6,0.6,2.6
		C41.7,12.8,41.7,13.1,41.6,13.4z M39.1,11.7c0-0.6-0.2-1.2-0.7-1.5c-0.5-0.4-1-0.6-1.7-0.6c-0.6,0-1.1,0.2-1.6,0.6
		c-0.4,0.4-0.7,0.9-0.8,1.6H39.1z"/>
	<path class="st1" d="M48.4,8c0.6,0.3,1,0.7,1.3,1.1V7.7h2.5v9.9c0,0.9-0.2,1.7-0.6,2.4c-0.4,0.7-0.9,1.3-1.7,1.7
		c-0.7,0.4-1.6,0.6-2.7,0.6c-1.4,0-2.5-0.3-3.4-1c-0.9-0.7-1.4-1.5-1.5-2.7h2.5c0.1,0.5,0.4,0.8,0.8,1.1s1,0.4,1.6,0.4
		c0.7,0,1.3-0.2,1.8-0.6s0.7-1.1,0.7-2v-1.5c-0.3,0.5-0.8,0.8-1.3,1.2s-1.2,0.5-1.9,0.5c-0.8,0-1.6-0.2-2.3-0.6
		c-0.7-0.4-1.2-1-1.6-1.8c-0.4-0.8-0.6-1.7-0.6-2.7c0-1,0.2-1.9,0.6-2.7s0.9-1.4,1.6-1.8c0.7-0.4,1.4-0.6,2.3-0.6
		C47.2,7.6,47.9,7.7,48.4,8z M49.4,11.1c-0.2-0.4-0.6-0.8-1-1c-0.4-0.2-0.8-0.3-1.3-0.3c-0.5,0-0.9,0.1-1.3,0.3
		c-0.4,0.2-0.7,0.6-1,1c-0.2,0.4-0.4,0.9-0.4,1.5c0,0.6,0.1,1.1,0.4,1.6s0.6,0.8,1,1s0.8,0.4,1.3,0.4c0.5,0,0.9-0.1,1.3-0.3
		c0.4-0.2,0.7-0.6,1-1s0.4-1,0.4-1.6S49.6,11.5,49.4,11.1z"/>
	<path class="st1" d="M63.1,7.7v9.9h-2.5v-1.2c-0.3,0.4-0.7,0.8-1.3,1c-0.5,0.2-1.1,0.4-1.7,0.4c-0.8,0-1.5-0.2-2-0.5
		s-1.1-0.8-1.4-1.4c-0.3-0.6-0.5-1.4-0.5-2.3V7.7h2.5v5.4c0,0.8,0.2,1.4,0.6,1.8c0.4,0.4,0.9,0.6,1.6,0.6c0.7,0,1.2-0.2,1.6-0.6
		c0.4-0.4,0.6-1,0.6-1.8V7.7H63.1z"/>
	<path class="st1" d="M68.4,8c0.5-0.3,1.1-0.4,1.8-0.4v2.6h-0.7c-0.8,0-1.4,0.2-1.8,0.6c-0.4,0.4-0.6,1-0.6,1.9v4.9h-2.5V7.7h2.5
		v1.5C67.5,8.7,67.9,8.3,68.4,8z"/>
	<path class="st1" d="M70.9,10c0.4-0.8,0.9-1.4,1.6-1.8c0.7-0.4,1.4-0.6,2.3-0.6c0.7,0,1.4,0.1,1.9,0.4c0.6,0.3,1,0.7,1.3,1.1V7.7
		h2.5v9.9h-2.5v-1.4c-0.3,0.5-0.8,0.8-1.3,1.1c-0.6,0.3-1.2,0.5-1.9,0.5c-0.8,0-1.6-0.2-2.3-0.6c-0.7-0.4-1.2-1-1.6-1.8
		c-0.4-0.8-0.6-1.7-0.6-2.7C70.3,11.6,70.5,10.7,70.9,10z M77.8,11.1c-0.2-0.4-0.6-0.8-1-1c-0.4-0.2-0.8-0.3-1.3-0.3
		c-0.5,0-0.9,0.1-1.3,0.3c-0.4,0.2-0.7,0.6-1,1c-0.2,0.4-0.4,0.9-0.4,1.5c0,0.6,0.1,1.1,0.4,1.6s0.6,0.8,1,1s0.8,0.4,1.3,0.4
		c0.5,0,0.9-0.1,1.3-0.3c0.4-0.2,0.7-0.6,1-1s0.4-1,0.4-1.6S78,11.5,77.8,11.1z"/>
	<path class="st1" d="M91.8,9.8v4.8c0,0.3,0.1,0.6,0.2,0.7s0.4,0.2,0.8,0.2H94v2.1h-1.6c-2.1,0-3.2-1-3.2-3.1V9.8h-1.2v-2h1.2V5.3
		h2.5v2.4H94v2H91.8z"/>
	<path class="st1" d="M104.2,7.7v9.9h-2.5v-1.2c-0.3,0.4-0.7,0.8-1.3,1c-0.5,0.2-1.1,0.4-1.7,0.4c-0.8,0-1.5-0.2-2-0.5
		s-1.1-0.8-1.4-1.4c-0.3-0.6-0.5-1.4-0.5-2.3V7.7h2.5v5.4c0,0.8,0.2,1.4,0.6,1.8c0.4,0.4,0.9,0.6,1.6,0.6c0.7,0,1.2-0.2,1.6-0.6
		c0.4-0.4,0.6-1,0.6-1.8V7.7H104.2z"/>
	<path class="st1" d="M120.1,5.2v2h-5.2v3.2h4v2h-4v5.2h-2.5V5.2H120.1z"/>
	<path class="st1" d="M120.9,10c0.4-0.8,0.9-1.4,1.6-1.8c0.7-0.4,1.4-0.6,2.3-0.6c0.7,0,1.4,0.1,1.9,0.4c0.6,0.3,1,0.7,1.3,1.1V7.7
		h2.5v9.9h-2.5v-1.4c-0.3,0.5-0.8,0.8-1.3,1.1c-0.6,0.3-1.2,0.5-1.9,0.5c-0.8,0-1.6-0.2-2.3-0.6c-0.7-0.4-1.2-1-1.6-1.8
		c-0.4-0.8-0.6-1.7-0.6-2.7C120.3,11.6,120.5,10.7,120.9,10z M127.7,11.1c-0.2-0.4-0.6-0.8-1-1c-0.4-0.2-0.8-0.3-1.3-0.3
		c-0.5,0-0.9,0.1-1.3,0.3c-0.4,0.2-0.7,0.6-1,1c-0.2,0.4-0.4,0.9-0.4,1.5c0,0.6,0.1,1.1,0.4,1.6c0.2,0.4,0.6,0.8,1,1
		c0.4,0.2,0.8,0.4,1.3,0.4c0.5,0,0.9-0.1,1.3-0.3c0.4-0.2,0.7-0.6,1-1s0.4-1,0.4-1.6S128,11.5,127.7,11.1z"/>
	<path class="st1" d="M132.1,10c0.4-0.8,1-1.4,1.7-1.8c0.7-0.4,1.6-0.6,2.5-0.6c1.2,0,2.2,0.3,3,0.9c0.8,0.6,1.3,1.5,1.6,2.6h-2.7
		c-0.1-0.4-0.4-0.8-0.7-1s-0.8-0.4-1.3-0.4c-0.7,0-1.3,0.3-1.7,0.8s-0.6,1.2-0.6,2.2c0,0.9,0.2,1.7,0.6,2.2s1,0.8,1.7,0.8
		c1,0,1.7-0.5,2-1.4h2.7c-0.3,1.1-0.8,1.9-1.6,2.5c-0.8,0.6-1.8,0.9-3,0.9c-0.9,0-1.8-0.2-2.5-0.6s-1.3-1-1.7-1.8
		c-0.4-0.8-0.6-1.7-0.6-2.7C131.5,11.6,131.7,10.7,132.1,10z"/>
	<path class="st1" d="M144.9,9.8v4.8c0,0.3,0.1,0.6,0.2,0.7s0.4,0.2,0.8,0.2h1.2v2.1h-1.6c-2.1,0-3.1-1-3.1-3.1V9.8h-1.2v-2h1.2V5.3
		h2.5v2.4h2.2v2H144.9z"/>
	<path class="st1" d="M157.3,7.7v9.9h-2.5v-1.2c-0.3,0.4-0.7,0.8-1.3,1s-1.1,0.4-1.7,0.4c-0.8,0-1.5-0.2-2-0.5s-1.1-0.8-1.4-1.4
		c-0.3-0.6-0.5-1.4-0.5-2.3V7.7h2.5v5.4c0,0.8,0.2,1.4,0.6,1.8c0.4,0.4,0.9,0.6,1.6,0.6c0.7,0,1.2-0.2,1.6-0.6
		c0.4-0.4,0.6-1,0.6-1.8V7.7H157.3z"/>
	<path class="st1" d="M162.6,8c0.5-0.3,1.1-0.4,1.8-0.4v2.6h-0.7c-0.8,0-1.4,0.2-1.8,0.6c-0.4,0.4-0.6,1-0.6,1.9v4.9h-2.5V7.7h2.5
		v1.5C161.7,8.7,162.1,8.3,162.6,8z"/>
	<path class="st1" d="M165.1,10c0.4-0.8,0.9-1.4,1.6-1.8c0.7-0.4,1.4-0.6,2.3-0.6c0.7,0,1.4,0.1,1.9,0.4c0.6,0.3,1,0.7,1.3,1.1V7.7
		h2.5v9.9h-2.5v-1.4c-0.3,0.5-0.8,0.8-1.3,1.1c-0.6,0.3-1.2,0.5-1.9,0.5c-0.8,0-1.6-0.2-2.3-0.6c-0.7-0.4-1.2-1-1.6-1.8
		c-0.4-0.8-0.6-1.7-0.6-2.7C164.5,11.6,164.7,10.7,165.1,10z M171.9,11.1c-0.2-0.4-0.6-0.8-1-1s-0.8-0.3-1.3-0.3s-0.9,0.1-1.3,0.3
		c-0.4,0.2-0.7,0.6-1,1c-0.2,0.4-0.4,0.9-0.4,1.5c0,0.6,0.1,1.1,0.4,1.6c0.2,0.4,0.6,0.8,1,1c0.4,0.2,0.8,0.4,1.3,0.4
		c0.5,0,0.9-0.1,1.3-0.3c0.4-0.2,0.7-0.6,1-1s0.4-1,0.4-1.6S172.1,11.5,171.9,11.1z"/>
</g>
</svg>
