<?xml version="1.0" encoding="utf-8"?>
<!-- Generator: Adobe Illustrator 19.2.1, SVG Export Plug-In . SVG Version: 6.00 Build 0)  -->
<svg version="1.1"
	 id="Layer_1" inkscape:version="1.0.2-2 (e86c870879, 2021-01-15)" sodipodi:docname="atf0.svg" xmlns:cc="http://creativecommons.org/ns#" xmlns:dc="http://purl.org/dc/elements/1.1/" xmlns:inkscape="http://www.inkscape.org/namespaces/inkscape" xmlns:rdf="http://www.w3.org/1999/02/22-rdf-syntax-ns#" xmlns:sodipodi="http://sodipodi.sourceforge.net/DTD/sodipodi-0.dtd" xmlns:svg="http://www.w3.org/2000/svg"
	 xmlns="http://www.w3.org/2000/svg" xmlns:xlink="http://www.w3.org/1999/xlink" x="0px" y="0px" viewBox="0 0 191.8 28.3"
	 style="enable-background:new 0 0 191.8 28.3;" xml:space="preserve">
<style type="text/css">
	.st0{fill:url(#path4_1_);}
	.st1{stroke:#000000;stroke-width:0.5;stroke-miterlimit:10;}
	.st2{fill:#FFFFFF;stroke:#FFFFFF;stroke-width:0.5;stroke-miterlimit:10;}
</style>
<sodipodi:namedview  bordercolor="#666666" borderopacity="1" gridtolerance="10" guidetolerance="10" id="namedview53" inkscape:current-layer="Layer_1" inkscape:cx="95.900002" inkscape:cy="14.15" inkscape:pageopacity="0" inkscape:pageshadow="2" inkscape:window-height="654" inkscape:window-maximized="0" inkscape:window-width="1700" inkscape:window-x="62" inkscape:window-y="0" inkscape:zoom="5.3023982" objecttolerance="10" pagecolor="#ffffff" showgrid="false">
	</sodipodi:namedview>
<linearGradient id="path4_1_" gradientUnits="userSpaceOnUse" x1="95.8516" y1="-2.930095e-005" x2="95.8516" y2="28.3">
	<stop  offset="0" style="stop-color:#0BFF00"/>
	<stop  offset="1" style="stop-color:#179400"/>
</linearGradient>
<path id="path4" class="st0" d="M186.8,28.3H5c-2.8,0-5-2.3-5-5V5c0-2.8,2.3-5,5-5h181.7c2.8,0,5,2.3,5,5v18.2
	C191.8,26.1,189.6,28.3,186.8,28.3z"/>
<g id="g40">
</g>
<g id="g42">
</g>
<g id="g44">
</g>
<g id="g46">
</g>
<g id="g48">
</g>
<g id="g50">
</g>
<g>
	<path class="st1" d="M10.5,21c-0.8-0.3-1.4-0.8-1.9-1.4C8.2,18.9,8,18.2,8,17.3h3c0,0.6,0.2,1,0.6,1.4c0.4,0.3,0.9,0.5,1.5,0.5
		c0.7,0,1.2-0.2,1.5-0.5c0.4-0.3,0.6-0.7,0.6-1.2c0-0.4-0.1-0.8-0.4-1c-0.3-0.3-0.6-0.5-0.9-0.6c-0.4-0.2-0.9-0.3-1.6-0.5
		c-0.9-0.3-1.6-0.5-2.2-0.8c-0.6-0.3-1.1-0.7-1.5-1.2C8.2,12.8,8,12.1,8,11.2c0-0.8,0.2-1.5,0.6-2.2c0.4-0.6,1-1.1,1.7-1.4
		C11.1,7.3,12,7.2,13,7.2c1.4,0,2.6,0.3,3.5,1c0.9,0.7,1.4,1.7,1.5,2.9h-3.1c0-0.5-0.2-0.9-0.6-1.2c-0.4-0.3-0.9-0.5-1.5-0.5
		c-0.5,0-1,0.1-1.3,0.4c-0.3,0.3-0.5,0.7-0.5,1.2c0,0.4,0.1,0.7,0.4,0.9c0.2,0.2,0.6,0.4,0.9,0.6c0.4,0.2,0.9,0.3,1.5,0.5
		c0.9,0.3,1.6,0.5,2.2,0.8s1.1,0.7,1.5,1.2c0.4,0.5,0.6,1.2,0.6,2.1c0,0.7-0.2,1.4-0.6,2.1c-0.4,0.6-1,1.2-1.7,1.5s-1.6,0.6-2.7,0.6
		C12.2,21.5,11.3,21.3,10.5,21z"/>
	<path class="st1" d="M30.2,16.6h-8.1c0.1,0.8,0.3,1.4,0.8,1.9c0.5,0.5,1.1,0.7,1.8,0.7c1,0,1.8-0.4,2.2-1.3h3
		c-0.3,1.1-0.9,1.9-1.8,2.6c-0.9,0.7-2,1-3.3,1c-1.1,0-2-0.2-2.9-0.7c-0.8-0.5-1.5-1.1-2-2c-0.5-0.9-0.7-1.9-0.7-3
		c0-1.1,0.2-2.2,0.7-3c0.5-0.9,1.1-1.5,2-2c0.8-0.5,1.8-0.7,2.9-0.7c1.1,0,2,0.2,2.8,0.7c0.8,0.5,1.5,1.1,1.9,1.9s0.7,1.8,0.7,2.9
		C30.2,15.9,30.2,16.3,30.2,16.6z M27.3,14.7c0-0.7-0.3-1.3-0.8-1.7c-0.5-0.4-1.1-0.6-1.9-0.6c-0.7,0-1.3,0.2-1.8,0.6
		s-0.8,1-0.9,1.8H27.3z"/>
	<path class="st1" d="M38.2,10.6c0.6,0.3,1.1,0.8,1.5,1.3v-1.6h2.8v11.2c0,1-0.2,1.9-0.6,2.8c-0.4,0.8-1,1.4-1.9,1.9
		c-0.8,0.5-1.8,0.7-3,0.7c-1.6,0-2.9-0.4-3.9-1.1s-1.6-1.7-1.7-3h2.8c0.1,0.5,0.5,0.9,0.9,1.2s1.1,0.5,1.8,0.5c0.8,0,1.5-0.2,2-0.7
		c0.5-0.5,0.8-1.2,0.8-2.2v-1.7c-0.4,0.5-0.9,1-1.5,1.3c-0.6,0.3-1.4,0.5-2.2,0.5c-0.9,0-1.8-0.2-2.6-0.7s-1.4-1.2-1.8-2
		c-0.4-0.9-0.7-1.9-0.7-3c0-1.1,0.2-2.1,0.7-3c0.4-0.9,1.1-1.5,1.8-2c0.8-0.5,1.6-0.7,2.6-0.7C36.8,10.1,37.6,10.2,38.2,10.6z
		 M39.3,14c-0.3-0.5-0.6-0.9-1.1-1.1c-0.5-0.3-0.9-0.4-1.5-0.4s-1,0.1-1.4,0.4c-0.4,0.3-0.8,0.6-1.1,1.1c-0.3,0.5-0.4,1.1-0.4,1.7
		c0,0.7,0.1,1.3,0.4,1.8s0.6,0.9,1.1,1.2s0.9,0.4,1.4,0.4c0.5,0,1-0.1,1.5-0.4c0.5-0.3,0.8-0.6,1.1-1.1s0.4-1.1,0.4-1.8
		C39.7,15.1,39.5,14.5,39.3,14z"/>
	<path class="st1" d="M55.1,10.2v11.1h-2.8v-1.4c-0.4,0.5-0.8,0.9-1.4,1.1c-0.6,0.3-1.2,0.4-1.9,0.4c-0.9,0-1.6-0.2-2.3-0.5
		c-0.7-0.4-1.2-0.9-1.6-1.6c-0.4-0.7-0.6-1.6-0.6-2.5v-6.5h2.8v6.1c0,0.9,0.2,1.6,0.7,2c0.4,0.5,1,0.7,1.8,0.7
		c0.8,0,1.4-0.2,1.8-0.7c0.4-0.5,0.7-1.2,0.7-2v-6.1H55.1z"/>
	<path class="st1" d="M61.5,10.6c0.6-0.3,1.2-0.5,2-0.5V13h-0.7c-0.9,0-1.5,0.2-2,0.6c-0.4,0.4-0.7,1.1-0.7,2.2v5.5h-2.8V10.2h2.8
		V12C60.4,11.4,60.9,10.9,61.5,10.6z"/>
	<path class="st1" d="M66.8,20.8c-0.9-0.5-1.5-1.1-2-2c-0.5-0.9-0.7-1.9-0.7-3c0-1.1,0.3-2.1,0.8-3s1.2-1.5,2-2
		c0.9-0.5,1.8-0.7,2.9-0.7c1.1,0,2,0.2,2.9,0.7c0.9,0.5,1.5,1.1,2,2s0.8,1.9,0.8,3c0,1.1-0.3,2.1-0.8,3s-1.2,1.5-2.1,2
		c-0.9,0.5-1.9,0.7-2.9,0.7C68.6,21.5,67.6,21.3,66.8,20.8z M71.1,18.7c0.4-0.2,0.8-0.6,1.1-1.1s0.4-1.1,0.4-1.8
		c0-1.1-0.3-1.9-0.8-2.4c-0.6-0.6-1.2-0.8-2-0.8c-0.8,0-1.5,0.3-2,0.8c-0.5,0.6-0.8,1.4-0.8,2.4s0.3,1.9,0.8,2.4
		c0.5,0.6,1.2,0.9,2,0.9C70.2,19.1,70.6,18.9,71.1,18.7z"/>
	<path class="st1" d="M96.3,7.4v14h-2.8v-9.1l-3.7,9.1h-2.1l-3.8-9.1v9.1h-2.8v-14h3.2l4.4,10.4l4.4-10.4H96.3z"/>
	<path class="st1" d="M97.9,12.8c0.4-0.9,1.1-1.5,1.8-2c0.8-0.5,1.6-0.7,2.6-0.7c0.8,0,1.5,0.2,2.2,0.5c0.6,0.3,1.1,0.8,1.5,1.3
		v-1.6h2.8v11.1h-2.8v-1.6c-0.4,0.5-0.9,1-1.5,1.3c-0.6,0.3-1.4,0.5-2.2,0.5c-0.9,0-1.8-0.2-2.5-0.7c-0.8-0.5-1.4-1.2-1.8-2
		c-0.4-0.9-0.7-1.9-0.7-3C97.2,14.6,97.4,13.6,97.9,12.8z M105.5,14c-0.3-0.5-0.6-0.9-1.1-1.1c-0.5-0.3-0.9-0.4-1.5-0.4
		s-1,0.1-1.4,0.4s-0.8,0.6-1.1,1.1c-0.3,0.5-0.4,1.1-0.4,1.7c0,0.7,0.1,1.3,0.4,1.8s0.6,0.9,1.1,1.2s0.9,0.4,1.4,0.4
		c0.5,0,1-0.1,1.5-0.4c0.5-0.3,0.8-0.6,1.1-1.1c0.3-0.5,0.4-1.1,0.4-1.8C105.9,15.1,105.8,14.5,105.5,14z"/>
	<path class="st1" d="M110.4,12.8c0.5-0.9,1.1-1.5,1.9-2c0.8-0.5,1.7-0.7,2.6-0.7c0.8,0,1.5,0.1,2.1,0.5c0.6,0.3,1.1,0.7,1.5,1.1
		v-1.4h2.8v16.4h-2.8v-6.8c-0.4,0.5-0.9,0.9-1.5,1.2c-0.6,0.3-1.3,0.5-2.1,0.5c-0.9,0-1.8-0.2-2.6-0.7c-0.8-0.5-1.4-1.2-1.9-2
		c-0.5-0.9-0.7-1.9-0.7-3C109.7,14.7,109.9,13.7,110.4,12.8z M118,14c-0.3-0.5-0.6-0.9-1.1-1.1c-0.4-0.3-0.9-0.4-1.4-0.4
		c-0.5,0-1,0.1-1.4,0.4c-0.4,0.3-0.8,0.6-1.1,1.1c-0.3,0.5-0.4,1.1-0.4,1.8c0,0.7,0.1,1.3,0.4,1.8s0.6,0.9,1.1,1.1
		c0.4,0.3,0.9,0.4,1.4,0.4c0.5,0,1-0.1,1.4-0.4c0.4-0.3,0.8-0.6,1.1-1.1c0.3-0.5,0.4-1.1,0.4-1.8C118.4,15.1,118.3,14.5,118,14z"/>
	<path class="st1" d="M133.3,10.2v11.1h-2.8v-1.4c-0.4,0.5-0.8,0.9-1.4,1.1c-0.6,0.3-1.2,0.4-1.9,0.4c-0.9,0-1.6-0.2-2.3-0.5
		c-0.7-0.4-1.2-0.9-1.6-1.6c-0.4-0.7-0.6-1.6-0.6-2.5v-6.5h2.8v6.1c0,0.9,0.2,1.6,0.7,2c0.4,0.5,1,0.7,1.8,0.7
		c0.8,0,1.4-0.2,1.8-0.7c0.4-0.5,0.7-1.2,0.7-2v-6.1H133.3z"/>
	<path class="st1" d="M135.2,8.5c-0.3-0.3-0.5-0.7-0.5-1.2c0-0.5,0.2-0.9,0.5-1.2c0.3-0.3,0.7-0.5,1.2-0.5s0.9,0.2,1.2,0.5
		c0.3,0.3,0.5,0.7,0.5,1.2c0,0.5-0.2,0.9-0.5,1.2c-0.3,0.3-0.7,0.5-1.2,0.5S135.5,8.8,135.2,8.5z M137.8,10.2v11.1H135V10.2H137.8z"
		/>
	<path class="st1" d="M148.8,11.3c0.8,0.8,1.2,2,1.2,3.5v6.5h-2.8v-6.1c0-0.9-0.2-1.6-0.7-2s-1-0.7-1.8-0.7c-0.8,0-1.4,0.2-1.8,0.7
		c-0.4,0.5-0.7,1.1-0.7,2v6.1h-2.8V10.2h2.8v1.4c0.4-0.5,0.8-0.9,1.4-1.1s1.2-0.4,1.9-0.4C146.9,10.1,148,10.5,148.8,11.3z"/>
	<path class="st1" d="M151.5,12.8c0.4-0.9,1.1-1.5,1.8-2c0.8-0.5,1.6-0.7,2.6-0.7c0.8,0,1.5,0.2,2.2,0.5c0.6,0.3,1.1,0.8,1.5,1.3
		v-1.6h2.8v11.1h-2.8v-1.6c-0.4,0.5-0.9,1-1.5,1.3c-0.6,0.3-1.4,0.5-2.2,0.5c-0.9,0-1.8-0.2-2.5-0.7c-0.8-0.5-1.4-1.2-1.8-2
		c-0.4-0.9-0.7-1.9-0.7-3C150.8,14.6,151.1,13.6,151.5,12.8z M159.2,14c-0.3-0.5-0.6-0.9-1.1-1.1c-0.5-0.3-0.9-0.4-1.5-0.4
		c-0.5,0-1,0.1-1.4,0.4c-0.4,0.3-0.8,0.6-1.1,1.1c-0.3,0.5-0.4,1.1-0.4,1.7c0,0.7,0.1,1.3,0.4,1.8c0.3,0.5,0.6,0.9,1.1,1.2
		c0.4,0.3,0.9,0.4,1.4,0.4c0.5,0,1-0.1,1.5-0.4c0.5-0.3,0.8-0.6,1.1-1.1s0.4-1.1,0.4-1.8C159.6,15.1,159.4,14.5,159.2,14z"/>
	<path class="st1" d="M168.2,10.6c0.6-0.3,1.2-0.5,2-0.5V13h-0.7c-0.9,0-1.5,0.2-2,0.6c-0.4,0.4-0.7,1.1-0.7,2.2v5.5H164V10.2h2.8
		V12C167.2,11.4,167.7,10.9,168.2,10.6z"/>
	<path class="st1" d="M171.2,8.5c-0.3-0.3-0.5-0.7-0.5-1.2c0-0.5,0.2-0.9,0.5-1.2c0.3-0.3,0.7-0.5,1.2-0.5s0.9,0.2,1.2,0.5
		c0.3,0.3,0.5,0.7,0.5,1.2c0,0.5-0.2,0.9-0.5,1.2c-0.3,0.3-0.7,0.5-1.2,0.5S171.5,8.8,171.2,8.5z M173.8,10.2v11.1H171V10.2H173.8z"
		/>
	<path class="st1" d="M175.4,12.8c0.4-0.9,1.1-1.5,1.8-2c0.8-0.5,1.6-0.7,2.6-0.7c0.8,0,1.5,0.2,2.2,0.5c0.6,0.3,1.1,0.8,1.5,1.3
		v-1.6h2.8v11.1h-2.8v-1.6c-0.4,0.5-0.9,1-1.5,1.3c-0.6,0.3-1.4,0.5-2.2,0.5c-0.9,0-1.8-0.2-2.5-0.7c-0.8-0.5-1.4-1.2-1.8-2
		c-0.4-0.9-0.7-1.9-0.7-3C174.7,14.6,175,13.6,175.4,12.8z M183.1,14c-0.3-0.5-0.6-0.9-1.1-1.1c-0.5-0.3-0.9-0.4-1.5-0.4
		c-0.5,0-1,0.1-1.4,0.4c-0.4,0.3-0.8,0.6-1.1,1.1c-0.3,0.5-0.4,1.1-0.4,1.7c0,0.7,0.1,1.3,0.4,1.8c0.3,0.5,0.6,0.9,1.1,1.2
		c0.4,0.3,0.9,0.4,1.4,0.4c0.5,0,1-0.1,1.5-0.4c0.5-0.3,0.8-0.6,1.1-1.1s0.4-1.1,0.4-1.8C183.5,15.1,183.3,14.5,183.1,14z"/>
</g>
<g>
	<path class="st2" d="M9.5,20c-0.8-0.3-1.4-0.8-1.9-1.4c-0.5-0.6-0.7-1.4-0.7-2.2h3c0,0.6,0.2,1,0.6,1.4c0.4,0.3,0.9,0.5,1.5,0.5
		c0.7,0,1.2-0.2,1.5-0.5c0.4-0.3,0.6-0.7,0.6-1.2c0-0.4-0.1-0.8-0.4-1c-0.3-0.3-0.6-0.5-0.9-0.6c-0.4-0.2-0.9-0.3-1.6-0.5
		C10.3,14,9.6,13.8,9,13.5c-0.6-0.3-1.1-0.7-1.5-1.2C7.2,11.8,7,11.1,7,10.2c0-0.8,0.2-1.5,0.6-2.2C8,7.4,8.6,7,9.3,6.7
		c0.7-0.3,1.6-0.5,2.6-0.5c1.4,0,2.6,0.3,3.5,1c0.9,0.7,1.4,1.7,1.5,2.9h-3.1c0-0.5-0.2-0.9-0.6-1.2c-0.4-0.3-0.9-0.5-1.5-0.5
		c-0.5,0-1,0.1-1.3,0.4C10,9.2,9.9,9.6,9.9,10.1c0,0.4,0.1,0.7,0.4,0.9c0.2,0.2,0.6,0.4,0.9,0.6c0.4,0.2,0.9,0.3,1.5,0.5
		c0.9,0.3,1.6,0.5,2.2,0.8s1.1,0.7,1.5,1.2c0.4,0.5,0.6,1.2,0.6,2.1c0,0.7-0.2,1.4-0.6,2.1c-0.4,0.6-1,1.2-1.7,1.5s-1.6,0.6-2.7,0.6
		C11.1,20.5,10.3,20.3,9.5,20z"/>
	<path class="st2" d="M29.1,15.6H21c0.1,0.8,0.3,1.4,0.8,1.9c0.5,0.5,1.1,0.7,1.8,0.7c1,0,1.8-0.4,2.2-1.3h3
		c-0.3,1.1-0.9,1.9-1.8,2.6c-0.9,0.7-2,1-3.3,1c-1.1,0-2-0.2-2.9-0.7c-0.8-0.5-1.5-1.1-2-2c-0.5-0.9-0.7-1.9-0.7-3
		c0-1.1,0.2-2.2,0.7-3c0.5-0.9,1.1-1.5,2-2c0.8-0.5,1.8-0.7,2.9-0.7c1.1,0,2,0.2,2.8,0.7c0.8,0.5,1.5,1.1,1.9,1.9s0.7,1.8,0.7,2.9
		C29.2,14.9,29.1,15.3,29.1,15.6z M26.3,13.7c0-0.7-0.3-1.3-0.8-1.7c-0.5-0.4-1.1-0.6-1.9-0.6c-0.7,0-1.3,0.2-1.8,0.6
		s-0.8,1-0.9,1.8H26.3z"/>
	<path class="st2" d="M37.1,9.6c0.6,0.3,1.1,0.8,1.5,1.3V9.2h2.8v11.2c0,1-0.2,1.9-0.6,2.8c-0.4,0.8-1,1.4-1.9,1.9
		c-0.8,0.5-1.8,0.7-3,0.7c-1.6,0-2.9-0.4-3.9-1.1s-1.6-1.7-1.7-3h2.8c0.1,0.5,0.5,0.9,0.9,1.2s1.1,0.5,1.8,0.5c0.8,0,1.5-0.2,2-0.7
		c0.5-0.5,0.8-1.2,0.8-2.2v-1.7c-0.4,0.5-0.9,1-1.5,1.3c-0.6,0.3-1.4,0.5-2.2,0.5c-0.9,0-1.8-0.2-2.6-0.7s-1.4-1.2-1.8-2
		c-0.4-0.9-0.7-1.9-0.7-3c0-1.1,0.2-2.1,0.7-3c0.4-0.9,1.1-1.5,1.8-2c0.8-0.5,1.6-0.7,2.6-0.7C35.8,9.1,36.5,9.2,37.1,9.6z M38.2,13
		c-0.3-0.5-0.6-0.9-1.1-1.1c-0.5-0.3-0.9-0.4-1.5-0.4s-1,0.1-1.4,0.4c-0.4,0.3-0.8,0.6-1.1,1.1c-0.3,0.5-0.4,1.1-0.4,1.7
		c0,0.7,0.1,1.3,0.4,1.8c0.3,0.5,0.6,0.9,1.1,1.2s0.9,0.4,1.4,0.4c0.5,0,1-0.1,1.5-0.4c0.5-0.3,0.8-0.6,1.1-1.1s0.4-1.1,0.4-1.8
		C38.6,14.1,38.5,13.5,38.2,13z"/>
	<path class="st2" d="M54,9.2v11.1h-2.8v-1.4c-0.4,0.5-0.8,0.9-1.4,1.1c-0.6,0.3-1.2,0.4-1.9,0.4c-0.9,0-1.6-0.2-2.3-0.5
		c-0.7-0.4-1.2-0.9-1.6-1.6c-0.4-0.7-0.6-1.6-0.6-2.5V9.2h2.8v6.1c0,0.9,0.2,1.6,0.7,2c0.4,0.5,1,0.7,1.8,0.7c0.8,0,1.4-0.2,1.8-0.7
		c0.4-0.5,0.7-1.2,0.7-2V9.2H54z"/>
	<path class="st2" d="M60.4,9.6c0.6-0.3,1.2-0.5,2-0.5V12h-0.7c-0.9,0-1.5,0.2-2,0.6c-0.4,0.4-0.7,1.1-0.7,2.2v5.5h-2.8V9.2H59V11
		C59.3,10.4,59.8,9.9,60.4,9.6z"/>
	<path class="st2" d="M65.7,19.8c-0.9-0.5-1.5-1.1-2-2c-0.5-0.9-0.7-1.9-0.7-3c0-1.1,0.3-2.1,0.8-3s1.2-1.5,2-2
		c0.9-0.5,1.8-0.7,2.9-0.7c1.1,0,2,0.2,2.9,0.7c0.9,0.5,1.5,1.1,2,2s0.8,1.9,0.8,3c0,1.1-0.3,2.1-0.8,3s-1.2,1.5-2.1,2
		c-0.9,0.5-1.9,0.7-2.9,0.7C67.5,20.5,66.6,20.3,65.7,19.8z M70,17.7c0.4-0.2,0.8-0.6,1.1-1.1s0.4-1.1,0.4-1.8
		c0-1.1-0.3-1.9-0.8-2.4c-0.6-0.6-1.2-0.8-2-0.8c-0.8,0-1.5,0.3-2,0.8c-0.5,0.6-0.8,1.4-0.8,2.4s0.3,1.9,0.8,2.4
		c0.5,0.6,1.2,0.9,2,0.9C69.1,18.1,69.6,17.9,70,17.7z"/>
	<path class="st2" d="M95.2,6.4v14h-2.8v-9.1l-3.7,9.1h-2.1l-3.8-9.1v9.1H80v-14h3.2l4.4,10.4L92,6.4H95.2z"/>
	<path class="st2" d="M96.8,11.8c0.4-0.9,1.1-1.5,1.8-2c0.8-0.5,1.6-0.7,2.6-0.7c0.8,0,1.5,0.2,2.2,0.5c0.6,0.3,1.1,0.8,1.5,1.3V9.2
		h2.8v11.1h-2.8v-1.6c-0.4,0.5-0.9,1-1.5,1.3c-0.6,0.3-1.4,0.5-2.2,0.5c-0.9,0-1.8-0.2-2.5-0.7c-0.8-0.5-1.4-1.2-1.8-2
		c-0.4-0.9-0.7-1.9-0.7-3C96.1,13.6,96.4,12.6,96.8,11.8z M104.5,13c-0.3-0.5-0.6-0.9-1.1-1.1c-0.5-0.3-0.9-0.4-1.5-0.4
		s-1,0.1-1.4,0.4s-0.8,0.6-1.1,1.1c-0.3,0.5-0.4,1.1-0.4,1.7c0,0.7,0.1,1.3,0.4,1.8c0.3,0.5,0.6,0.9,1.1,1.2s0.9,0.4,1.4,0.4
		c0.5,0,1-0.1,1.5-0.4c0.5-0.3,0.8-0.6,1.1-1.1c0.3-0.5,0.4-1.1,0.4-1.8C104.9,14.1,104.7,13.5,104.5,13z"/>
	<path class="st2" d="M109.3,11.8c0.5-0.9,1.1-1.5,1.9-2c0.8-0.5,1.7-0.7,2.6-0.7c0.8,0,1.5,0.1,2.1,0.5c0.6,0.3,1.1,0.7,1.5,1.1
		V9.2h2.8v16.4h-2.8v-6.8c-0.4,0.5-0.9,0.9-1.5,1.2c-0.6,0.3-1.3,0.5-2.1,0.5c-0.9,0-1.8-0.2-2.6-0.7c-0.8-0.5-1.4-1.2-1.9-2
		c-0.5-0.9-0.7-1.9-0.7-3C108.6,13.7,108.8,12.7,109.3,11.8z M116.9,13c-0.3-0.5-0.6-0.9-1.1-1.1c-0.4-0.3-0.9-0.4-1.4-0.4
		c-0.5,0-1,0.1-1.4,0.4c-0.4,0.3-0.8,0.6-1.1,1.1c-0.3,0.5-0.4,1.1-0.4,1.8c0,0.7,0.1,1.3,0.4,1.8s0.6,0.9,1.1,1.1
		c0.4,0.3,0.9,0.4,1.4,0.4c0.5,0,1-0.1,1.4-0.4c0.4-0.3,0.8-0.6,1.1-1.1c0.3-0.5,0.4-1.1,0.4-1.8C117.3,14.1,117.2,13.5,116.9,13z"
		/>
	<path class="st2" d="M132.2,9.2v11.1h-2.8v-1.4c-0.4,0.5-0.8,0.9-1.4,1.1c-0.6,0.3-1.2,0.4-1.9,0.4c-0.9,0-1.6-0.2-2.3-0.5
		c-0.7-0.4-1.2-0.9-1.6-1.6c-0.4-0.7-0.6-1.6-0.6-2.5V9.2h2.8v6.1c0,0.9,0.2,1.6,0.7,2c0.4,0.5,1,0.7,1.8,0.7c0.8,0,1.4-0.2,1.8-0.7
		c0.4-0.5,0.7-1.2,0.7-2V9.2H132.2z"/>
	<path class="st2" d="M134.1,7.5c-0.3-0.3-0.5-0.7-0.5-1.2c0-0.5,0.2-0.9,0.5-1.2c0.3-0.3,0.7-0.5,1.2-0.5s0.9,0.2,1.2,0.5
		c0.3,0.3,0.5,0.7,0.5,1.2c0,0.5-0.2,0.9-0.5,1.2c-0.3,0.3-0.7,0.5-1.2,0.5S134.4,7.8,134.1,7.5z M136.7,9.2v11.1h-2.8V9.2H136.7z"
		/>
	<path class="st2" d="M147.7,10.3c0.8,0.8,1.2,2,1.2,3.5v6.5h-2.8v-6.1c0-0.9-0.2-1.6-0.7-2s-1-0.7-1.8-0.7c-0.8,0-1.4,0.2-1.8,0.7
		c-0.4,0.5-0.7,1.1-0.7,2v6.1h-2.8V9.2h2.8v1.4c0.4-0.5,0.8-0.9,1.4-1.1s1.2-0.4,1.9-0.4C145.8,9.1,146.9,9.5,147.7,10.3z"/>
	<path class="st2" d="M150.4,11.8c0.4-0.9,1.1-1.5,1.8-2c0.8-0.5,1.6-0.7,2.6-0.7c0.8,0,1.5,0.2,2.2,0.5c0.6,0.3,1.1,0.8,1.5,1.3
		V9.2h2.8v11.1h-2.8v-1.6c-0.4,0.5-0.9,1-1.5,1.3c-0.6,0.3-1.4,0.5-2.2,0.5c-0.9,0-1.8-0.2-2.5-0.7c-0.8-0.5-1.4-1.2-1.8-2
		c-0.4-0.9-0.7-1.9-0.7-3C149.8,13.6,150,12.6,150.4,11.8z M158.1,13c-0.3-0.5-0.6-0.9-1.1-1.1c-0.5-0.3-0.9-0.4-1.5-0.4
		c-0.5,0-1,0.1-1.4,0.4c-0.4,0.3-0.8,0.6-1.1,1.1c-0.3,0.5-0.4,1.1-0.4,1.7c0,0.7,0.1,1.3,0.4,1.8c0.3,0.5,0.6,0.9,1.1,1.2
		c0.4,0.3,0.9,0.4,1.4,0.4c0.5,0,1-0.1,1.5-0.4c0.5-0.3,0.8-0.6,1.1-1.1s0.4-1.1,0.4-1.8C158.5,14.1,158.4,13.5,158.1,13z"/>
	<path class="st2" d="M167.2,9.6c0.6-0.3,1.2-0.5,2-0.5V12h-0.7c-0.9,0-1.5,0.2-2,0.6c-0.4,0.4-0.7,1.1-0.7,2.2v5.5h-2.8V9.2h2.8V11
		C166.1,10.4,166.6,9.9,167.2,9.6z"/>
	<path class="st2" d="M170.1,7.5c-0.3-0.3-0.5-0.7-0.5-1.2c0-0.5,0.2-0.9,0.5-1.2c0.3-0.3,0.7-0.5,1.2-0.5s0.9,0.2,1.2,0.5
		c0.3,0.3,0.5,0.7,0.5,1.2c0,0.5-0.2,0.9-0.5,1.2c-0.3,0.3-0.7,0.5-1.2,0.5S170.4,7.8,170.1,7.5z M172.7,9.2v11.1h-2.8V9.2H172.7z"
		/>
	<path class="st2" d="M174.3,11.8c0.4-0.9,1.1-1.5,1.8-2c0.8-0.5,1.6-0.7,2.6-0.7c0.8,0,1.5,0.2,2.2,0.5c0.6,0.3,1.1,0.8,1.5,1.3
		V9.2h2.8v11.1h-2.8v-1.6c-0.4,0.5-0.9,1-1.5,1.3c-0.6,0.3-1.4,0.5-2.2,0.5c-0.9,0-1.8-0.2-2.5-0.7c-0.8-0.5-1.4-1.2-1.8-2
		c-0.4-0.9-0.7-1.9-0.7-3C173.7,13.6,173.9,12.6,174.3,11.8z M182,13c-0.3-0.5-0.6-0.9-1.1-1.1c-0.5-0.3-0.9-0.4-1.5-0.4
		c-0.5,0-1,0.1-1.4,0.4c-0.4,0.3-0.8,0.6-1.1,1.1c-0.3,0.5-0.4,1.1-0.4,1.7c0,0.7,0.1,1.3,0.4,1.8c0.3,0.5,0.6,0.9,1.1,1.2
		c0.4,0.3,0.9,0.4,1.4,0.4c0.5,0,1-0.1,1.5-0.4c0.5-0.3,0.8-0.6,1.1-1.1s0.4-1.1,0.4-1.8C182.4,14.1,182.3,13.5,182,13z"/>
</g>
</svg>
