<?xml version="1.0" encoding="utf-8"?>
<!-- Generator: Adobe Illustrator 19.2.1, SVG Export Plug-In . SVG Version: 6.00 Build 0)  -->
<svg version="1.1" id="Layer_1" xmlns="http://www.w3.org/2000/svg" xmlns:xlink="http://www.w3.org/1999/xlink" x="0px" y="0px"
	 viewBox="0 0 128 42.9" style="enable-background:new 0 0 128 42.9;" xml:space="preserve">
<style type="text/css">
	.st0{fill:#A93EE9;}
	.st1{fill:#E98800;}
	.st2{fill:#FFFFFF;}
</style>
<path class="st0" d="M128,4.2c0-2.3-1.9-4.2-4.2-4.2H4.2C1.9,0,0,1.9,0,4.2v34.6c0,2.3,1.9,4.2,4.2,4.2h111.2L128,30.3V4.2z"/>
<path class="st1" d="M128,38.8v-8.5l-12.6,12.6h8.5C126.1,42.9,128,41.1,128,38.8z"/>
<g>
	<path class="st2" d="M19.5,15.2h-4.9l-0.8,2.4h-2.6l4.5-12.4h2.9L23,17.6h-2.6L19.5,15.2z M18.8,13.2L17,8l-1.8,5.2H18.8z"/>
	<path class="st2" d="M25.4,17.3c-0.6-0.3-1.1-0.7-1.5-1.2c-0.4-0.5-0.6-1-0.6-1.7h2.5c0,0.4,0.2,0.7,0.6,0.9
		c0.3,0.2,0.7,0.4,1.2,0.4c0.5,0,0.8-0.1,1.1-0.3c0.3-0.2,0.4-0.4,0.4-0.7c0-0.3-0.2-0.6-0.5-0.7s-0.8-0.3-1.6-0.5
		c-0.7-0.2-1.3-0.4-1.8-0.6c-0.5-0.2-0.9-0.5-1.2-0.9c-0.3-0.4-0.5-0.9-0.5-1.6c0-0.5,0.2-1,0.5-1.5c0.3-0.5,0.8-0.8,1.4-1.1
		c0.6-0.3,1.3-0.4,2.1-0.4c1.2,0,2.1,0.3,2.8,0.9c0.7,0.6,1.1,1.4,1.2,2.4h-2.4c0-0.4-0.2-0.7-0.5-0.9s-0.7-0.3-1.2-0.3
		c-0.5,0-0.8,0.1-1,0.2c-0.2,0.2-0.4,0.4-0.4,0.7c0,0.3,0.2,0.6,0.5,0.8c0.3,0.2,0.8,0.3,1.5,0.5c0.7,0.2,1.3,0.4,1.8,0.6
		c0.5,0.2,0.9,0.5,1.2,0.9c0.3,0.4,0.5,0.9,0.5,1.6c0,0.6-0.2,1.1-0.5,1.5c-0.3,0.5-0.8,0.8-1.4,1.1c-0.6,0.3-1.3,0.4-2.1,0.4
		C26.7,17.7,26,17.6,25.4,17.3z"/>
	<path class="st2" d="M41.6,13.4h-7.2c0.1,0.7,0.3,1.3,0.7,1.7s1,0.6,1.6,0.6c0.9,0,1.6-0.4,2-1.2h2.7c-0.3,0.9-0.8,1.7-1.6,2.3
		s-1.8,0.9-3,0.9c-0.9,0-1.8-0.2-2.6-0.6c-0.8-0.4-1.3-1-1.8-1.8c-0.4-0.8-0.6-1.7-0.6-2.7c0-1,0.2-1.9,0.6-2.7
		c0.4-0.8,1-1.4,1.7-1.8c0.7-0.4,1.6-0.6,2.6-0.6c0.9,0,1.8,0.2,2.5,0.6c0.7,0.4,1.3,1,1.7,1.7c0.4,0.7,0.6,1.6,0.6,2.6
		C41.7,12.8,41.7,13.1,41.6,13.4z M39.1,11.7c0-0.6-0.2-1.2-0.7-1.5c-0.5-0.4-1-0.6-1.7-0.6c-0.6,0-1.1,0.2-1.6,0.6
		c-0.4,0.4-0.7,0.9-0.8,1.6H39.1z"/>
	<path class="st2" d="M48.4,8c0.6,0.3,1,0.7,1.3,1.1V7.7h2.5v9.9c0,0.9-0.2,1.7-0.6,2.4c-0.4,0.7-0.9,1.3-1.7,1.7
		c-0.7,0.4-1.6,0.6-2.7,0.6c-1.4,0-2.5-0.3-3.4-1c-0.9-0.7-1.4-1.5-1.5-2.7h2.5c0.1,0.5,0.4,0.8,0.8,1.1s1,0.4,1.6,0.4
		c0.7,0,1.3-0.2,1.8-0.6s0.7-1.1,0.7-2v-1.5c-0.3,0.5-0.8,0.8-1.3,1.2s-1.2,0.5-1.9,0.5c-0.8,0-1.6-0.2-2.3-0.6
		c-0.7-0.4-1.2-1-1.6-1.8S42,13.6,42,12.6c0-1,0.2-1.9,0.6-2.7s0.9-1.4,1.6-1.8c0.7-0.4,1.4-0.6,2.3-0.6C47.2,7.6,47.9,7.7,48.4,8z
		 M49.4,11.1c-0.2-0.4-0.6-0.8-1-1c-0.4-0.2-0.8-0.3-1.3-0.3c-0.5,0-0.9,0.1-1.3,0.3c-0.4,0.2-0.7,0.6-1,1c-0.2,0.4-0.4,0.9-0.4,1.5
		c0,0.6,0.1,1.1,0.4,1.6s0.6,0.8,1,1s0.8,0.4,1.3,0.4c0.5,0,0.9-0.1,1.3-0.3c0.4-0.2,0.7-0.6,1-1s0.4-1,0.4-1.6S49.6,11.5,49.4,11.1
		z"/>
	<path class="st2" d="M63.1,7.7v9.9h-2.5v-1.2c-0.3,0.4-0.7,0.8-1.3,1c-0.5,0.2-1.1,0.4-1.7,0.4c-0.8,0-1.5-0.2-2-0.5
		s-1.1-0.8-1.4-1.4c-0.3-0.6-0.5-1.4-0.5-2.3V7.7h2.5v5.4c0,0.8,0.2,1.4,0.6,1.8c0.4,0.4,0.9,0.6,1.6,0.6c0.7,0,1.2-0.2,1.6-0.6
		c0.4-0.4,0.6-1,0.6-1.8V7.7H63.1z"/>
	<path class="st2" d="M68.4,8c0.5-0.3,1.1-0.4,1.8-0.4v2.6h-0.7c-0.8,0-1.4,0.2-1.8,0.6c-0.4,0.4-0.6,1-0.6,1.9v4.9h-2.5V7.7h2.5
		v1.5C67.5,8.7,67.9,8.3,68.4,8z"/>
	<path class="st2" d="M70.9,10c0.4-0.8,0.9-1.4,1.6-1.8c0.7-0.4,1.4-0.6,2.3-0.6c0.7,0,1.4,0.1,1.9,0.4c0.6,0.3,1,0.7,1.3,1.1V7.7
		h2.5v9.9h-2.5v-1.4c-0.3,0.5-0.8,0.8-1.3,1.1c-0.6,0.3-1.2,0.5-1.9,0.5c-0.8,0-1.6-0.2-2.3-0.6c-0.7-0.4-1.2-1-1.6-1.8
		s-0.6-1.7-0.6-2.7C70.3,11.6,70.5,10.7,70.9,10z M77.8,11.1c-0.2-0.4-0.6-0.8-1-1c-0.4-0.2-0.8-0.3-1.3-0.3c-0.5,0-0.9,0.1-1.3,0.3
		c-0.4,0.2-0.7,0.6-1,1c-0.2,0.4-0.4,0.9-0.4,1.5c0,0.6,0.1,1.1,0.4,1.6s0.6,0.8,1,1s0.8,0.4,1.3,0.4c0.5,0,0.9-0.1,1.3-0.3
		c0.4-0.2,0.7-0.6,1-1s0.4-1,0.4-1.6S78,11.5,77.8,11.1z"/>
	<path class="st2" d="M31.5,27.8v4.8c0,0.3,0.1,0.6,0.2,0.7s0.4,0.2,0.8,0.2h1.2v2.1h-1.6c-2.1,0-3.1-1-3.1-3.1v-4.8h-1.2v-2H29
		v-2.4h2.5v2.4h2.2v2H31.5z"/>
	<path class="st2" d="M43.9,25.7v9.9h-2.5v-1.2c-0.3,0.4-0.7,0.8-1.3,1c-0.5,0.2-1.1,0.4-1.7,0.4c-0.8,0-1.5-0.2-2-0.5
		s-1.1-0.8-1.4-1.4c-0.3-0.6-0.5-1.4-0.5-2.3v-5.8H37v5.4c0,0.8,0.2,1.4,0.6,1.8c0.4,0.4,0.9,0.6,1.6,0.6c0.7,0,1.2-0.2,1.6-0.6
		c0.4-0.4,0.6-1,0.6-1.8v-5.4H43.9z"/>
	<path class="st2" d="M59.9,23.2v2h-5.2v3.2h4v2h-4v5.2h-2.5V23.2H59.9z"/>
	<path class="st2" d="M60.7,28c0.4-0.8,0.9-1.4,1.6-1.8c0.7-0.4,1.4-0.6,2.3-0.6c0.7,0,1.4,0.1,1.9,0.4c0.6,0.3,1,0.7,1.3,1.1v-1.4
		h2.5v9.9h-2.5v-1.4c-0.3,0.5-0.8,0.8-1.3,1.1c-0.6,0.3-1.2,0.5-1.9,0.5c-0.8,0-1.6-0.2-2.3-0.6c-0.7-0.4-1.2-1-1.6-1.8
		s-0.6-1.7-0.6-2.7C60.1,29.6,60.3,28.7,60.7,28z M67.5,29.1c-0.2-0.4-0.6-0.8-1-1c-0.4-0.2-0.8-0.3-1.3-0.3c-0.5,0-0.9,0.1-1.3,0.3
		c-0.4,0.2-0.7,0.6-1,1c-0.2,0.4-0.4,0.9-0.4,1.5c0,0.6,0.1,1.1,0.4,1.6s0.6,0.8,1,1c0.4,0.2,0.8,0.4,1.3,0.4c0.5,0,0.9-0.1,1.3-0.3
		c0.4-0.2,0.7-0.6,1-1c0.2-0.4,0.4-1,0.4-1.6S67.7,29.5,67.5,29.1z"/>
	<path class="st2" d="M71.9,28c0.4-0.8,1-1.4,1.7-1.8c0.7-0.4,1.6-0.6,2.5-0.6c1.2,0,2.2,0.3,3,0.9c0.8,0.6,1.3,1.5,1.6,2.6h-2.7
		c-0.1-0.4-0.4-0.8-0.7-1c-0.3-0.2-0.8-0.4-1.3-0.4c-0.7,0-1.3,0.3-1.7,0.8c-0.4,0.5-0.6,1.2-0.6,2.2c0,0.9,0.2,1.7,0.6,2.2
		c0.4,0.5,1,0.8,1.7,0.8c1,0,1.7-0.5,2-1.4h2.7c-0.3,1.1-0.8,1.9-1.6,2.5c-0.8,0.6-1.8,0.9-3,0.9c-0.9,0-1.8-0.2-2.5-0.6
		c-0.7-0.4-1.3-1-1.7-1.8c-0.4-0.8-0.6-1.7-0.6-2.7S71.5,28.7,71.9,28z"/>
	<path class="st2" d="M84.6,27.8v4.8c0,0.3,0.1,0.6,0.2,0.7s0.4,0.2,0.8,0.2h1.2v2.1h-1.6c-2.1,0-3.1-1-3.1-3.1v-4.8H81v-2h1.2v-2.4
		h2.5v2.4h2.2v2H84.6z"/>
	<path class="st2" d="M97.1,25.7v9.9h-2.5v-1.2c-0.3,0.4-0.7,0.8-1.3,1c-0.5,0.2-1.1,0.4-1.7,0.4c-0.8,0-1.5-0.2-2-0.5
		c-0.6-0.3-1.1-0.8-1.4-1.4c-0.3-0.6-0.5-1.4-0.5-2.3v-5.8h2.5v5.4c0,0.8,0.2,1.4,0.6,1.8c0.4,0.4,0.9,0.6,1.6,0.6
		c0.7,0,1.2-0.2,1.6-0.6c0.4-0.4,0.6-1,0.6-1.8v-5.4H97.1z"/>
	<path class="st2" d="M102.4,26c0.5-0.3,1.1-0.4,1.8-0.4v2.6h-0.7c-0.8,0-1.4,0.2-1.8,0.6c-0.4,0.4-0.6,1-0.6,1.9v4.9h-2.5v-9.9h2.5
		v1.5C101.4,26.7,101.8,26.3,102.4,26z"/>
	<path class="st2" d="M104.9,28c0.4-0.8,0.9-1.4,1.6-1.8c0.7-0.4,1.4-0.6,2.3-0.6c0.7,0,1.4,0.1,1.9,0.4s1,0.7,1.3,1.1v-1.4h2.5v9.9
		H112v-1.4c-0.3,0.5-0.8,0.8-1.3,1.1c-0.6,0.3-1.2,0.5-1.9,0.5c-0.8,0-1.6-0.2-2.3-0.6c-0.7-0.4-1.2-1-1.6-1.8s-0.6-1.7-0.6-2.7
		C104.3,29.6,104.5,28.7,104.9,28z M111.7,29.1c-0.2-0.4-0.6-0.8-1-1c-0.4-0.2-0.8-0.3-1.3-0.3s-0.9,0.1-1.3,0.3
		c-0.4,0.2-0.7,0.6-1,1c-0.2,0.4-0.4,0.9-0.4,1.5c0,0.6,0.1,1.1,0.4,1.6c0.2,0.4,0.6,0.8,1,1c0.4,0.2,0.8,0.4,1.3,0.4
		c0.5,0,0.9-0.1,1.3-0.3c0.4-0.2,0.7-0.6,1-1c0.2-0.4,0.4-1,0.4-1.6S111.9,29.5,111.7,29.1z"/>
</g>
<g>
</g>
<g>
</g>
<g>
</g>
<g>
</g>
<g>
</g>
<g>
</g>
</svg>
