<?xml version="1.0" encoding="UTF-8" standalone="no"?>
<svg
   xmlns:dc="http://purl.org/dc/elements/1.1/"
   xmlns:cc="http://creativecommons.org/ns#"
   xmlns:rdf="http://www.w3.org/1999/02/22-rdf-syntax-ns#"
   xmlns:svg="http://www.w3.org/2000/svg"
   xmlns="http://www.w3.org/2000/svg"
   xmlns:sodipodi="http://sodipodi.sourceforge.net/DTD/sodipodi-0.dtd"
   xmlns:inkscape="http://www.inkscape.org/namespaces/inkscape"
   version="1.1"
   id="Layer_1"
   inkscape:version="1.0.2-2 (e86c870879, 2021-01-15)"
   sodipodi:docname="atf3.svg"
   x="0px"
   y="0px"
   viewBox="0 0 115.2 47.1"
   style="enable-background:new 0 0 115.2 47.1;"
   xml:space="preserve"><metadata
   id="metadata88"><rdf:RDF><cc:Work
       rdf:about=""><dc:format>image/svg+xml</dc:format><dc:type
         rdf:resource="http://purl.org/dc/dcmitype/StillImage" /></cc:Work></rdf:RDF></metadata><defs
   id="defs86" />
<style
   type="text/css"
   id="style2">
	.st0{fill:url(#path4_1_);}
	.st1{stroke:#000000;stroke-width:0.5;stroke-miterlimit:10;}
	.st2{fill:#FFFFFF;stroke:#FFFFFF;stroke-width:0.5;stroke-miterlimit:10;}
</style>
<sodipodi:namedview
   bordercolor="#666666"
   borderopacity="1"
   gridtolerance="10"
   guidetolerance="10"
   id="namedview53"
   inkscape:current-layer="Layer_1"
   inkscape:cx="61.901056"
   inkscape:cy="24.874929"
   inkscape:pageopacity="0"
   inkscape:pageshadow="2"
   inkscape:window-height="779"
   inkscape:window-maximized="0"
   inkscape:window-width="1895"
   inkscape:window-x="123"
   inkscape:window-y="93"
   inkscape:zoom="8.8281252"
   objecttolerance="10"
   pagecolor="#ffffff"
   showgrid="false"
   inkscape:document-rotation="0">
	</sodipodi:namedview>
<linearGradient
   id="path4_1_"
   gradientUnits="userSpaceOnUse"
   x1="57.5516"
   y1="-2.929923e-005"
   x2="57.5516"
   y2="47.1">
	<stop
   offset="0"
   style="stop-color:#0BFF00"
   id="stop5" />
	<stop
   offset="1"
   style="stop-color:#179400"
   id="stop7" />
</linearGradient>
<path
   id="path4"
   class="st0"
   d="M110.1,47.1H5c-2.8,0-5-2.3-5-5V5c0-2.8,2.3-5,5-5h105.1c2.8,0,5,2.3,5,5v37  C115.2,44.8,112.9,47.1,110.1,47.1z" />
<g
   id="g40">
</g>
<g
   id="g42">
</g>
<g
   id="g44">
</g>
<g
   id="g46">
</g>
<g
   id="g48">
</g>
<g
   id="g50">
</g>


<path
   class="st0"
   d="M 0,13.425256 V 5 C 0,2.2 2.3,0 5,0 h 105.1 c 2.8,0 5,2.3 5,5 v 8.325256 z"
   id="path4-3"
   style="fill:#00ff00;fill-opacity:1"
   sodipodi:nodetypes="csssscc" /><g
   aria-label="PARTNER"
   id="text886"
   style="font-style:normal;font-variant:normal;font-weight:normal;font-stretch:normal;font-size:8.83518px;line-height:1.25;font-family:'Panton ExtraBold';-inkscape-font-specification:'Panton ExtraBold, Normal';font-variant-ligatures:normal;font-variant-caps:normal;font-variant-numeric:normal;font-variant-east-asian:normal;letter-spacing:0px;fill:#3e105a;fill-opacity:1;stroke:none;stroke-width:0.22088"
   transform="translate(-0.4814157,-0.01994712)"><path
     d="m 74.200551,3.8255327 c -0.273891,0 -0.362243,0.088352 -0.362243,0.3622424 v 5.5484933 c 0,0.2738906 0.08835,0.3622426 0.362243,0.3622426 H 74.9162 c 0.273891,0 0.362243,-0.08835 0.362243,-0.3622426 V 8.0575841 h 1.289936 c 1.342947,0 2.164619,-0.7951662 2.164619,-2.1116081 0,-1.3164419 -0.830507,-2.1204433 -2.164619,-2.1204433 z m 1.077892,2.9156095 V 5.1331394 h 1.139738 c 0.521275,0 0.821672,0.3092313 0.821672,0.8128366 0,0.5036053 -0.300397,0.7951662 -0.821672,0.7951662 z"
     style="font-style:normal;font-variant:normal;font-weight:normal;font-stretch:normal;font-size:8.83518px;font-family:'Panton ExtraBold';-inkscape-font-specification:'Panton ExtraBold, Normal';font-variant-ligatures:normal;font-variant-caps:normal;font-variant-numeric:normal;font-variant-east-asian:normal;fill:#3e105a;fill-opacity:1;stroke-width:0.22088"
     id="path897" /><path
     d="M 82.31124,4.1082585 C 82.231724,3.887379 82.125702,3.8255327 81.869481,3.8255327 h -0.680309 c -0.25622,0 -0.362242,0.061846 -0.441759,0.3003962 l -2.111608,5.6191746 c -0.08835,0.2385499 -0.0088,0.3534075 0.23855,0.3534075 h 0.609628 c 0.432923,0 0.547781,-0.07068 0.644968,-0.3269019 l 0.282726,-0.830507 h 2.182289 l 0.273891,0.830507 c 0.07952,0.2562199 0.220879,0.3269019 0.653803,0.3269019 h 0.662639 c 0.247385,0 0.326901,-0.1148576 0.238549,-0.3534075 z m -0.08835,3.6665998 h -1.4313 l 0.45943,-1.3782881 c 0.141363,-0.4152535 0.212044,-0.8393421 0.203209,-1.2545956 h 0.08835 l 0.0088,0.1678684 c 0.0088,0.2385499 0.09719,0.7156496 0.212044,1.0955624 z"
     style="font-style:normal;font-variant:normal;font-weight:normal;font-stretch:normal;font-size:8.83518px;font-family:'Panton ExtraBold';-inkscape-font-specification:'Panton ExtraBold, Normal';font-variant-ligatures:normal;font-variant-caps:normal;font-variant-numeric:normal;font-variant-east-asian:normal;fill:#3e105a;fill-opacity:1;stroke-width:0.22088"
     id="path899" /><path
     d="m 85.271017,3.8255327 c -0.273891,0 -0.362243,0.088352 -0.362243,0.3622424 v 5.5484933 c 0,0.2738906 0.08835,0.3622426 0.362243,0.3622426 h 0.715649 c 0.273891,0 0.362243,-0.08835 0.362243,-0.3622426 V 7.8720453 h 0.362242 c 0.503605,0 0.671474,0.1060222 0.874683,0.5212756 l 0.653803,1.3606178 c 0.132528,0.2738903 0.291561,0.3445723 0.742155,0.3445723 h 0.706815 c 0.25622,0 0.318066,-0.1678687 0.185539,-0.379913 L 88.964122,7.9780675 C 88.8581,7.7925287 88.796254,7.6953417 88.778583,7.6688362 c 0.680309,-0.3092313 1.024881,-0.9188588 1.024881,-1.811212 0,-1.272266 -0.804001,-2.0320915 -2.085102,-2.0320915 z M 88.12478,6.387735 c -0.132528,0.1325277 -0.309231,0.194374 -0.547781,0.194374 h -1.22809 V 5.1331394 h 1.22809 c 0.23855,0 0.415253,0.061846 0.547781,0.1855388 0.123692,0.1325277 0.185539,0.3092313 0.185539,0.538946 0,0.2297147 -0.06185,0.4064183 -0.185539,0.5301108 z"
     style="font-style:normal;font-variant:normal;font-weight:normal;font-stretch:normal;font-size:8.83518px;font-family:'Panton ExtraBold';-inkscape-font-specification:'Panton ExtraBold, Normal';font-variant-ligatures:normal;font-variant-caps:normal;font-variant-numeric:normal;font-variant-east-asian:normal;fill:#3e105a;fill-opacity:1;stroke-width:0.22088"
     id="path901" /><path
     d="m 90.563266,3.8255327 c -0.27389,0 -0.362242,0.088352 -0.362242,0.3622424 v 0.5919571 c 0,0.2738906 0.08835,0.3534072 0.362242,0.3534072 h 1.387123 v 4.603129 c 0,0.2738906 0.07952,0.3622426 0.353408,0.3622426 h 0.715649 c 0.273891,0 0.362243,-0.08835 0.362243,-0.3622426 v -4.603129 h 1.378288 c 0.27389,0 0.362242,-0.079517 0.362242,-0.3534072 V 4.1877751 c 0,-0.2738906 -0.08835,-0.3622424 -0.362242,-0.3622424 z"
     style="font-style:normal;font-variant:normal;font-weight:normal;font-stretch:normal;font-size:8.83518px;font-family:'Panton ExtraBold';-inkscape-font-specification:'Panton ExtraBold, Normal';font-variant-ligatures:normal;font-variant-caps:normal;font-variant-numeric:normal;font-variant-east-asian:normal;fill:#3e105a;fill-opacity:1;stroke-width:0.22088"
     id="path903" /><path
     d="m 99.857862,3.8255327 c -0.273891,0 -0.362243,0.088352 -0.362243,0.3622424 v 2.1116081 c 0,0.7156496 0.09719,1.369453 0.282726,1.9525749 h -0.07068 C 99.698828,8.2254525 99.583971,7.8632101 99.486784,7.6334954 99.389597,7.4037808 99.195223,6.9885273 98.983179,6.6704608 L 97.216143,3.9934012 C 97.136626,3.8785438 97.021769,3.8255327 96.871571,3.8255327 h -0.73332 c -0.273891,0 -0.362243,0.088352 -0.362243,0.3622424 v 5.5484933 c 0,0.2738906 0.08835,0.3622426 0.362243,0.3622426 h 0.653803 c 0.273891,0 0.362243,-0.08835 0.362243,-0.3622426 V 7.6246603 c 0,-0.5212757 -0.07952,-1.1839142 -0.247385,-1.9790804 h 0.06185 c 0.185539,0.6449681 0.432924,1.1927493 0.742155,1.6521787 l 1.731695,2.6328837 c 0.07068,0.1148577 0.185539,0.1678687 0.353407,0.1678687 h 0.715651 c 0.27389,0 0.3534,-0.08835 0.3534,-0.3622426 V 4.1877751 c 0,-0.2738906 -0.0795,-0.3622424 -0.3534,-0.3622424 z"
     style="font-style:normal;font-variant:normal;font-weight:normal;font-stretch:normal;font-size:8.83518px;font-family:'Panton ExtraBold';-inkscape-font-specification:'Panton ExtraBold, Normal';font-variant-ligatures:normal;font-variant-caps:normal;font-variant-numeric:normal;font-variant-east-asian:normal;fill:#3e105a;fill-opacity:1;stroke-width:0.22088"
     id="path905" /><path
     d="m 102.31404,3.8255327 c -0.27389,0 -0.36225,0.088352 -0.36225,0.3622424 v 5.5484933 c 0,0.2738906 0.0884,0.3622426 0.36225,0.3622426 h 3.64009 c 0.27389,0 0.36224,-0.08835 0.36224,-0.3622426 V 9.1443113 c 0,-0.2562203 -0.10602,-0.3622424 -0.36224,-0.3622424 h -2.5622 V 7.5804844 h 2.03209 c 0.27389,0 0.36224,-0.088352 0.36224,-0.3622424 V 6.6262849 c 0,-0.2738906 -0.0884,-0.3534072 -0.36224,-0.3534072 h -2.03209 V 5.1331394 h 2.47385 c 0.27389,0 0.36224,-0.079517 0.36224,-0.3534072 V 4.1877751 c 0,-0.2738906 -0.0884,-0.3622424 -0.36224,-0.3622424 z"
     style="font-style:normal;font-variant:normal;font-weight:normal;font-stretch:normal;font-size:8.83518px;font-family:'Panton ExtraBold';-inkscape-font-specification:'Panton ExtraBold, Normal';font-variant-ligatures:normal;font-variant-caps:normal;font-variant-numeric:normal;font-variant-east-asian:normal;fill:#3e105a;fill-opacity:1;stroke-width:0.22088"
     id="path907" /><path
     d="m 107.47378,3.8255327 c -0.27389,0 -0.36224,0.088352 -0.36224,0.3622424 v 5.5484933 c 0,0.2738906 0.0883,0.3622426 0.36224,0.3622426 h 0.71565 c 0.27389,0 0.36224,-0.08835 0.36224,-0.3622426 V 7.8720453 h 0.36224 c 0.50361,0 0.67148,0.1060222 0.87469,0.5212756 l 0.6538,1.3606178 c 0.13253,0.2738903 0.29156,0.3445723 0.74215,0.3445723 h 0.70682 c 0.25622,0 0.31806,-0.1678687 0.18554,-0.379913 l -0.91003,-1.7405305 c -0.10602,-0.1855388 -0.16786,-0.2827258 -0.18554,-0.3092313 0.68031,-0.3092313 1.02489,-0.9188588 1.02489,-1.811212 0,-1.272266 -0.80401,-2.0320915 -2.08511,-2.0320915 z m 2.85376,2.5622023 c -0.13253,0.1325277 -0.30923,0.194374 -0.54778,0.194374 h -1.22809 V 5.1331394 h 1.22809 c 0.23855,0 0.41525,0.061846 0.54778,0.1855388 0.12369,0.1325277 0.18554,0.3092313 0.18554,0.538946 0,0.2297147 -0.0619,0.4064183 -0.18554,0.5301108 z"
     style="font-style:normal;font-variant:normal;font-weight:normal;font-stretch:normal;font-size:8.83518px;font-family:'Panton ExtraBold';-inkscape-font-specification:'Panton ExtraBold, Normal';font-variant-ligatures:normal;font-variant-caps:normal;font-variant-numeric:normal;font-variant-east-asian:normal;fill:#3e105a;fill-opacity:1;stroke-width:0.22088"
     id="path909" /></g><g
   id="g980"
   transform="matrix(0.87282516,0,0,0.87282516,2.3679659,7.2133273)"><g
     id="g49">
	<path
   class="st1"
   d="M 9.6,20.5 C 8.8,20.2 8.2,19.7 7.8,19.1 7.4,18.5 7.1,17.8 7.1,16.9 H 10 c 0,0.6 0.2,1 0.6,1.3 0.4,0.3 0.8,0.5 1.5,0.5 0.6,0 1.1,-0.2 1.5,-0.5 C 14,17.9 14.1,17.5 14.1,17 14.1,16.6 14,16.3 13.7,16 13.5,15.7 13.1,15.5 12.8,15.4 12.5,15.3 12,15.2 11.3,15 10.4,14.7 9.7,14.5 9.2,14.2 8.7,13.9 8.2,13.6 7.8,13.1 7.4,12.6 7.2,11.9 7.2,11.1 7.2,10.3 7.4,9.6 7.8,9 8.2,8.4 8.8,8 9.5,7.6 10.2,7.3 11,7.1 12,7.1 c 1.4,0 2.5,0.3 3.4,1 0.9,0.7 1.4,1.6 1.4,2.8 h -3 c 0,-0.5 -0.2,-0.8 -0.6,-1.2 -0.4,-0.3 -0.9,-0.5 -1.5,-0.5 -0.5,0 -1,0.1 -1.3,0.4 -0.3,0.5 -0.4,0.9 -0.4,1.4 0,0.4 0.1,0.7 0.4,0.9 0.2,0.2 0.5,0.4 0.9,0.6 0.4,0.1 0.9,0.3 1.5,0.5 0.9,0.3 1.6,0.5 2.2,0.8 0.6,0.3 1,0.6 1.4,1.2 0.4,0.5 0.6,1.2 0.6,2 0,0.7 -0.2,1.4 -0.6,2 -0.4,0.6 -0.9,1.1 -1.6,1.5 C 14,20.8 13.1,21 12.1,21 11.2,21 10.3,20.8 9.6,20.5 Z"
   id="path17" />
	<path
   class="st1"
   d="m 28.6,16.3 h -7.8 c 0.1,0.8 0.3,1.4 0.8,1.8 0.5,0.4 1.1,0.7 1.8,0.7 1,0 1.7,-0.4 2.2,-1.3 h 2.9 c -0.3,1 -0.9,1.9 -1.8,2.5 -0.9,0.7 -2,1 -3.2,1 -1,0 -2,-0.2 -2.8,-0.7 -0.8,-0.5 -1.5,-1.1 -1.9,-1.9 -0.4,-0.8 -0.8,-1.8 -0.8,-2.9 0,-1.1 0.2,-2.1 0.7,-2.9 0.5,-0.8 1.1,-1.5 1.9,-1.9 0.8,-0.5 1.7,-0.7 2.8,-0.7 1,0 1.9,0.2 2.7,0.7 0.8,0.4 1.4,1.1 1.9,1.9 0.4,0.8 0.7,1.7 0.7,2.8 0,0.2 -0.1,0.6 -0.1,0.9 z m -2.7,-1.8 c 0,-0.7 -0.3,-1.3 -0.8,-1.7 -0.5,-0.4 -1.1,-0.6 -1.8,-0.6 -0.7,0 -1.2,0.2 -1.7,0.6 -0.5,0.4 -0.7,1 -0.8,1.7 z"
   id="path19" />
	<path
   class="st1"
   d="m 36.4,10.4 c 0.6,0.3 1.1,0.7 1.4,1.2 v -1.5 h 2.7 v 10.8 c 0,1 -0.2,1.9 -0.6,2.7 -0.4,0.8 -1,1.4 -1.8,1.9 -0.8,0.5 -1.8,0.7 -2.9,0.7 -1.5,0 -2.8,-0.4 -3.7,-1.1 -1,-0.7 -1.5,-1.7 -1.7,-2.9 h 2.7 c 0.1,0.5 0.4,0.9 0.9,1.2 0.5,0.3 1,0.4 1.7,0.4 0.8,0 1.4,-0.2 1.9,-0.7 0.5,-0.5 0.7,-1.2 0.7,-2.1 v -1.7 c -0.3,0.5 -0.8,0.9 -1.4,1.3 -0.6,0.3 -1.3,0.4 -2,0.4 -0.9,0 -1.7,-0.2 -2.5,-0.7 -0.7,-0.5 -1.3,-1.1 -1.8,-2 -0.4,-0.8 -0.6,-1.8 -0.6,-2.9 0,-1.1 0.2,-2 0.6,-2.9 0.4,-0.8 1,-1.5 1.8,-1.9 0.7,-0.5 1.6,-0.7 2.5,-0.7 0.8,0 1.5,0.2 2.1,0.5 z m 1,3.4 C 37.1,13.3 36.8,13 36.4,12.7 36,12.4 35.5,12.3 35,12.3 c -0.5,0 -1,0.1 -1.4,0.4 -0.4,0.2 -0.8,0.6 -1,1.1 -0.2,0.5 -0.4,1 -0.4,1.7 0,0.6 0.1,1.2 0.4,1.7 0.3,0.5 0.6,0.9 1,1.1 0.4,0.3 0.9,0.4 1.4,0.4 0.5,0 1,-0.1 1.4,-0.4 0.4,-0.3 0.8,-0.6 1,-1.1 0.3,-0.5 0.4,-1 0.4,-1.7 0,-0.7 -0.1,-1.2 -0.4,-1.7 z"
   id="path21" />
	<path
   class="st1"
   d="M 52.7,10.1 V 20.8 H 50 v -1.4 c -0.3,0.5 -0.8,0.8 -1.4,1.1 -0.6,0.3 -1.2,0.4 -1.8,0.4 -0.8,0 -1.6,-0.2 -2.2,-0.5 C 44,20 43.4,19.5 43.1,18.8 42.7,18.1 42.5,17.3 42.5,16.3 V 10 h 2.7 v 6 c 0,0.9 0.2,1.5 0.6,2 0.4,0.5 1,0.7 1.7,0.7 0.7,0 1.3,-0.2 1.8,-0.7 0.5,-0.5 0.6,-1.1 0.6,-2 v -5.9 z"
   id="path23" />
	<path
   class="st1"
   d="M 58.9,10.5 C 59.5,10.2 60.1,10 60.8,10 v 2.8 h -0.7 c -0.9,0 -1.5,0.2 -1.9,0.6 -0.4,0.4 -0.6,1.1 -0.6,2.1 v 5.3 H 54.9 V 10.1 h 2.7 v 1.7 c 0.3,-0.6 0.7,-1 1.3,-1.3 z"
   id="path25" />
	<path
   class="st1"
   d="m 64.1,20.3 c -0.8,-0.5 -1.5,-1.1 -1.9,-1.9 -0.5,-0.8 -0.7,-1.8 -0.7,-2.9 0,-1.1 0.2,-2.1 0.7,-2.9 0.5,-0.8 1.1,-1.5 2,-1.9 C 65,10.2 66,10 67,10 c 1,0 2,0.2 2.8,0.7 0.8,0.5 1.5,1.1 2,1.9 0.5,0.8 0.7,1.8 0.7,2.9 0,1.1 -0.2,2.1 -0.7,2.9 -0.5,0.8 -1.2,1.5 -2,1.9 -0.8,0.4 -1.9,0.7 -3,0.7 -1,0 -1.9,-0.2 -2.7,-0.7 z m 4.1,-2 c 0.4,-0.2 0.8,-0.6 1,-1.1 0.3,-0.5 0.4,-1.1 0.4,-1.7 0,-1 -0.3,-1.8 -0.8,-2.4 -0.5,-0.5 -1.2,-0.8 -2,-0.8 -0.8,0 -1.4,0.3 -1.9,0.8 -0.5,0.5 -0.8,1.3 -0.8,2.4 0,1 0.3,1.8 0.8,2.4 0.5,0.5 1.2,0.8 1.9,0.8 0.5,0 1,-0.2 1.4,-0.4 z"
   id="path27" />
	<path
   class="st1"
   d="M 22.2,25.5 V 39 H 19.5 V 30.2 L 15.9,39 H 13.8 L 10.2,30.2 V 39 H 7.5 V 25.5 h 3.1 l 4.3,10.1 4.3,-10.1 z"
   id="path29" />
	<path
   class="st1"
   d="m 23.8,30.7 c 0.4,-0.8 1,-1.5 1.8,-1.9 0.7,-0.5 1.6,-0.7 2.5,-0.7 0.8,0 1.5,0.2 2.1,0.5 0.6,0.3 1.1,0.7 1.4,1.2 v -1.5 h 2.7 V 39 h -2.7 v -1.6 c -0.3,0.5 -0.8,0.9 -1.4,1.3 -0.6,0.3 -1.3,0.5 -2.1,0.5 -0.9,0 -1.7,-0.2 -2.5,-0.7 -0.7,-0.5 -1.3,-1.1 -1.8,-2 -0.5,-0.9 -0.6,-1.8 -0.6,-2.9 -0.1,-1.1 0.1,-2.1 0.6,-2.9 z m 7.4,1.2 c -0.3,-0.5 -0.6,-0.8 -1,-1.1 -0.4,-0.3 -0.9,-0.4 -1.4,-0.4 -0.5,0 -1,0.1 -1.4,0.4 -0.4,0.2 -0.8,0.6 -1,1.1 -0.3,0.5 -0.4,1 -0.4,1.7 0,0.7 0.1,1.2 0.4,1.7 0.3,0.5 0.6,0.9 1,1.1 0.4,0.3 0.9,0.4 1.4,0.4 0.5,0 1,-0.1 1.4,-0.4 0.4,-0.3 0.8,-0.6 1,-1.1 0.3,-0.5 0.4,-1 0.4,-1.7 0,-0.7 -0.2,-1.2 -0.4,-1.7 z"
   id="path31" />
	<path
   class="st1"
   d="m 35.9,30.7 c 0.4,-0.8 1,-1.5 1.8,-1.9 0.8,-0.5 1.6,-0.7 2.5,-0.7 0.8,0 1.4,0.1 2,0.4 0.6,0.3 1.1,0.7 1.4,1.1 v -1.4 h 2.7 V 44 h -2.7 v -6.6 c -0.4,0.5 -0.8,0.9 -1.5,1.2 -0.6,0.3 -1.3,0.5 -2.1,0.5 -0.9,0 -1.7,-0.2 -2.5,-0.7 -0.8,-0.5 -1.4,-1.1 -1.8,-2 -0.4,-0.8 -0.7,-1.8 -0.7,-2.9 0,-1.1 0.4,-1.9 0.9,-2.8 z m 7.3,1.2 c -0.3,-0.5 -0.6,-0.8 -1.1,-1.1 -0.4,-0.2 -0.9,-0.4 -1.4,-0.4 -0.5,0 -0.9,0.1 -1.4,0.4 -0.4,0.2 -0.8,0.6 -1.1,1.1 -0.3,0.5 -0.4,1 -0.4,1.7 0,0.7 0.1,1.2 0.4,1.7 0.3,0.5 0.6,0.8 1.1,1.1 0.5,0.3 0.9,0.4 1.4,0.4 0.5,0 1,-0.1 1.4,-0.4 0.4,-0.3 0.8,-0.6 1.1,-1.1 0.3,-0.5 0.4,-1 0.4,-1.7 0,-0.7 -0.1,-1.2 -0.4,-1.7 z"
   id="path33" />
	<path
   class="st1"
   d="M 58.1,28.2 V 39 h -2.7 v -1.4 c -0.3,0.5 -0.8,0.8 -1.4,1.1 -0.6,0.3 -1.2,0.4 -1.8,0.4 -0.8,0 -1.6,-0.2 -2.2,-0.5 -0.6,-0.4 -1.2,-0.9 -1.5,-1.6 -0.4,-0.7 -0.6,-1.5 -0.6,-2.5 v -6.3 h 2.7 v 5.9 c 0,0.9 0.2,1.5 0.6,2 0.4,0.5 1,0.7 1.7,0.7 0.7,0 1.3,-0.2 1.8,-0.7 0.4,-0.5 0.6,-1.1 0.6,-2 v -5.9 z"
   id="path35" />
	<path
   class="st1"
   d="m 59.9,26.5 c -0.3,-0.3 -0.5,-0.7 -0.5,-1.1 0,-0.4 0.2,-0.8 0.5,-1.1 0.3,-0.3 0.7,-0.5 1.2,-0.5 0.5,0 0.9,0.2 1.2,0.5 0.3,0.3 0.5,0.7 0.5,1.1 0,0.4 -0.2,0.8 -0.5,1.1 -0.3,0.3 -0.7,0.5 -1.2,0.5 -0.5,0 -0.9,-0.2 -1.2,-0.5 z m 2.5,1.7 V 39 H 59.7 V 28.2 Z"
   id="path37" />
	<path
   class="st1"
   d="m 73.1,29.3 c 0.8,0.8 1.2,1.9 1.2,3.4 V 39 h -2.7 v -6 c 0,-0.9 -0.2,-1.5 -0.6,-2 -0.4,-0.5 -1,-0.7 -1.7,-0.7 -0.7,0 -1.3,0.2 -1.8,0.7 -0.4,0.5 -0.6,1.1 -0.6,2 v 6 H 64 V 28.2 h 2.7 v 1.3 c 0.4,-0.5 0.8,-0.8 1.4,-1.1 0.6,-0.3 1.2,-0.4 1.8,-0.4 1.3,0.1 2.4,0.5 3.2,1.3 z"
   id="path39" />
	<path
   class="st1"
   d="m 75.7,30.7 c 0.4,-0.8 1,-1.5 1.8,-1.9 0.7,-0.5 1.6,-0.7 2.5,-0.7 0.8,0 1.5,0.2 2.1,0.5 0.6,0.3 1.1,0.7 1.4,1.2 v -1.5 h 2.7 V 39 h -2.7 v -1.6 c -0.3,0.5 -0.8,0.9 -1.4,1.3 -0.6,0.4 -1.3,0.5 -2.1,0.5 -0.9,0 -1.7,-0.2 -2.5,-0.7 -0.7,-0.5 -1.3,-1.1 -1.8,-2 -0.5,-0.9 -0.6,-1.8 -0.6,-2.9 0,-1.1 0.2,-2.1 0.6,-2.9 z m 7.4,1.2 c -0.3,-0.5 -0.6,-0.8 -1,-1.1 -0.4,-0.3 -0.9,-0.4 -1.4,-0.4 -0.5,0 -1,0.1 -1.4,0.4 -0.4,0.2 -0.8,0.6 -1,1.1 -0.3,0.5 -0.4,1 -0.4,1.7 0,0.7 0.1,1.2 0.4,1.7 0.3,0.5 0.6,0.9 1,1.1 0.4,0.3 0.9,0.4 1.4,0.4 0.5,0 1,-0.1 1.4,-0.4 0.4,-0.3 0.8,-0.6 1,-1.1 0.3,-0.5 0.4,-1 0.4,-1.7 0,-0.7 -0.1,-1.2 -0.4,-1.7 z"
   id="path41" />
	<path
   class="st1"
   d="m 91.9,28.6 c 0.6,-0.3 1.2,-0.5 1.9,-0.5 v 2.8 h -0.7 c -0.9,0 -1.5,0.2 -1.9,0.6 -0.4,0.4 -0.6,1.1 -0.6,2.1 V 39 H 87.9 V 28.2 h 2.7 v 1.7 c 0.3,-0.6 0.7,-1 1.3,-1.3 z"
   id="path43" />
	<path
   class="st1"
   d="m 94.8,26.5 c -0.3,-0.3 -0.5,-0.7 -0.5,-1.1 0,-0.4 0.2,-0.8 0.5,-1.1 0.3,-0.3 0.7,-0.5 1.2,-0.5 0.5,0 0.9,0.2 1.2,0.5 0.3,0.3 0.5,0.7 0.5,1.1 0,0.4 -0.2,0.8 -0.5,1.1 -0.4,0.3 -0.8,0.5 -1.2,0.5 -0.4,0 -0.9,-0.2 -1.2,-0.5 z m 2.5,1.7 V 39 H 94.6 V 28.2 Z"
   id="path45" />
	<path
   class="st1"
   d="m 98.8,30.7 c 0.4,-0.8 1,-1.5 1.8,-1.9 0.7,-0.5 1.6,-0.7 2.5,-0.7 0.8,0 1.5,0.2 2.1,0.5 0.6,0.3 1.1,0.7 1.4,1.2 v -1.5 h 2.7 V 39 h -2.7 v -1.6 c -0.3,0.5 -0.8,0.9 -1.4,1.3 -0.6,0.4 -1.3,0.5 -2.1,0.5 -0.9,0 -1.7,-0.2 -2.5,-0.7 -0.7,-0.5 -1.3,-1.1 -1.8,-2 -0.5,-0.9 -0.6,-1.8 -0.6,-2.9 0,-1.1 0.2,-2.1 0.6,-2.9 z m 7.5,1.2 c -0.3,-0.5 -0.6,-0.8 -1,-1.1 -0.4,-0.3 -0.9,-0.4 -1.4,-0.4 -0.5,0 -1,0.1 -1.4,0.4 -0.4,0.2 -0.8,0.6 -1,1.1 -0.3,0.5 -0.4,1 -0.4,1.7 0,0.7 0.1,1.2 0.4,1.7 0.3,0.5 0.6,0.9 1,1.1 0.4,0.3 0.9,0.4 1.4,0.4 0.5,0 1,-0.1 1.4,-0.4 0.4,-0.3 0.8,-0.6 1,-1.1 0.3,-0.5 0.4,-1 0.4,-1.7 -0.1,-0.7 -0.2,-1.2 -0.4,-1.7 z"
   id="path47" />
</g><g
     id="g83">
	<path
   class="st2"
   d="M 8.9,19.7 C 8.1,19.4 7.5,18.9 7.1,18.3 6.7,17.7 6.4,17 6.4,16.1 h 2.9 c 0,0.6 0.2,1 0.6,1.3 0.4,0.3 0.8,0.5 1.5,0.5 0.6,0 1.1,-0.2 1.5,-0.5 0.4,-0.3 0.5,-0.7 0.5,-1.2 0,-0.4 -0.1,-0.7 -0.4,-1 C 12.7,14.9 12.4,14.7 12.1,14.6 11.8,14.5 11.2,14.3 10.6,14.1 9.7,13.8 9,13.6 8.5,13.3 8,13 7.5,12.7 7.1,12.2 6.7,11.7 6.5,11 6.5,10.2 6.5,9.4 6.7,8.7 7.1,8.1 c 0.4,-0.6 1,-1 1.7,-1.4 0.7,-0.3 1.5,-0.5 2.5,-0.5 1.4,0 2.5,0.3 3.4,1 0.9,0.7 1.4,1.6 1.4,2.8 h -3 C 13.1,9.5 12.9,9.2 12.5,8.8 12.1,8.5 11.6,8.3 11,8.3 10.5,8.3 10,8.4 9.7,8.7 9.4,9 9.2,9.4 9.2,9.9 c 0,0.4 0.1,0.7 0.4,0.9 0.2,0.2 0.5,0.4 0.9,0.6 0.4,0.1 0.9,0.3 1.5,0.5 0.9,0.3 1.6,0.5 2.2,0.8 0.6,0.3 1,0.6 1.4,1.2 0.4,0.5 0.6,1.2 0.6,2 0,0.7 -0.2,1.4 -0.6,2 -0.4,0.6 -0.9,1.1 -1.6,1.5 -0.7,0.4 -1.6,0.6 -2.6,0.6 -0.9,0.1 -1.8,0 -2.5,-0.3 z"
   id="path51" />
	<path
   class="st2"
   d="M 27.9,15.5 H 20 c 0.1,0.8 0.3,1.4 0.8,1.8 0.5,0.4 1.1,0.7 1.8,0.7 1,0 1.7,-0.4 2.2,-1.3 h 2.9 c -0.3,1 -0.9,1.9 -1.8,2.5 -0.9,0.7 -2,1 -3.2,1 -1,0 -2,-0.2 -2.8,-0.7 -0.8,-0.5 -1.5,-1.1 -1.9,-1.9 -0.4,-0.8 -0.7,-1.8 -0.7,-2.9 0,-1.1 0.2,-2.1 0.7,-2.9 0.5,-0.8 1.1,-1.5 1.9,-1.9 0.8,-0.5 1.7,-0.7 2.8,-0.7 1,0 1.9,0.2 2.7,0.7 0.8,0.4 1.4,1.1 1.9,1.9 0.4,0.8 0.7,1.7 0.7,2.8 -0.1,0.2 -0.1,0.5 -0.1,0.9 z m -2.8,-1.9 c 0,-0.7 -0.3,-1.3 -0.8,-1.7 -0.5,-0.4 -1.1,-0.6 -1.8,-0.6 -0.7,0 -1.2,0.2 -1.7,0.6 -0.5,0.4 -0.7,1 -0.8,1.7 z"
   id="path53" />
	<path
   class="st2"
   d="m 35.6,9.6 c 0.6,0.3 1.1,0.7 1.4,1.2 V 9.3 h 2.7 v 10.8 c 0,1 -0.2,1.9 -0.6,2.7 -0.4,0.8 -1,1.4 -1.8,1.9 -0.8,0.5 -1.8,0.7 -2.9,0.7 -1.5,0 -2.8,-0.4 -3.7,-1.1 -1,-0.7 -1.5,-1.7 -1.7,-2.9 h 2.7 c 0.1,0.5 0.4,0.9 0.9,1.2 0.5,0.3 1,0.4 1.7,0.4 0.8,0 1.4,-0.2 1.9,-0.7 0.5,-0.5 0.7,-1.2 0.7,-2.1 v -1.7 c -0.3,0.5 -0.8,0.9 -1.4,1.3 -0.6,0.3 -1.3,0.5 -2.1,0.5 -0.9,0 -1.7,-0.2 -2.5,-0.7 -0.7,-0.5 -1.3,-1.1 -1.8,-2 -0.4,-0.8 -0.6,-1.8 -0.6,-2.9 0,-1.1 0.2,-2 0.6,-2.9 0.4,-0.8 1,-1.5 1.8,-1.9 0.7,-0.5 1.6,-0.7 2.5,-0.7 0.9,-0.1 1.6,0.1 2.2,0.4 z m 1.1,3.3 c -0.3,-0.5 -0.6,-0.8 -1,-1.1 -0.4,-0.3 -0.9,-0.4 -1.4,-0.4 -0.5,0 -1,0.1 -1.4,0.4 -0.4,0.2 -0.8,0.6 -1,1.1 -0.2,0.5 -0.4,1 -0.4,1.7 0,0.6 0.1,1.2 0.4,1.7 0.3,0.5 0.6,0.9 1,1.1 0.4,0.3 0.9,0.4 1.4,0.4 0.5,0 1,-0.1 1.4,-0.4 0.4,-0.3 0.8,-0.6 1,-1.1 0.3,-0.5 0.4,-1 0.4,-1.7 0,-0.6 -0.2,-1.2 -0.4,-1.7 z"
   id="path55" />
	<path
   class="st2"
   d="M 52,9.3 V 20 h -2.7 v -1.4 c -0.3,0.5 -0.8,0.8 -1.4,1.1 -0.6,0.3 -1.2,0.4 -1.8,0.4 -0.8,0 -1.6,-0.2 -2.2,-0.5 C 43.3,19.2 42.7,18.7 42.4,18 42,17.3 41.8,16.5 41.8,15.5 V 9.3 h 2.7 v 5.9 c 0,0.9 0.2,1.5 0.6,2 0.4,0.5 1,0.7 1.7,0.7 0.7,0 1.3,-0.2 1.8,-0.7 0.5,-0.5 0.6,-1.1 0.6,-2 V 9.3 Z"
   id="path57" />
	<path
   class="st2"
   d="M 58.2,9.6 C 58.8,9.3 59.4,9.1 60.1,9.1 V 12 h -0.7 c -0.9,0 -1.5,0.2 -1.9,0.6 -0.4,0.4 -0.6,1.1 -0.6,2.1 V 20 H 54.2 V 9.3 h 2.7 V 11 c 0.3,-0.6 0.7,-1.1 1.3,-1.4 z"
   id="path59" />
	<path
   class="st2"
   d="m 63.3,19.5 c -0.8,-0.5 -1.5,-1.1 -1.9,-1.9 -0.5,-0.8 -0.7,-1.8 -0.7,-2.9 0,-1.1 0.2,-2.1 0.7,-2.9 0.5,-0.8 1.1,-1.5 2,-1.9 0.8,-0.5 1.8,-0.7 2.8,-0.7 1,0 2,0.2 2.8,0.7 0.8,0.5 1.5,1.1 2,1.9 0.5,0.8 0.7,1.8 0.7,2.9 0,1.1 -0.2,2.1 -0.7,2.9 -0.5,0.8 -1.2,1.5 -2,1.9 -0.8,0.4 -1.8,0.7 -2.8,0.7 -1.1,0 -2.1,-0.2 -2.9,-0.7 z m 4.2,-2 c 0.4,-0.2 0.8,-0.6 1,-1.1 0.3,-0.5 0.4,-1.1 0.4,-1.7 0,-1 -0.3,-1.8 -0.8,-2.4 -0.5,-0.5 -1.2,-0.8 -2,-0.8 -0.8,0 -1.4,0.3 -1.9,0.8 -0.5,0.5 -0.8,1.3 -0.8,2.4 0,1 0.3,1.8 0.8,2.4 0.5,0.5 1.2,0.8 1.9,0.8 0.5,-0.1 1,-0.2 1.4,-0.4 z"
   id="path61" />
	<path
   class="st2"
   d="m 21.5,24.6 v 13.5 h -2.7 v -8.8 l -3.6,8.8 H 13.1 L 9.5,29.3 v 8.8 H 6.7 V 24.6 h 3.1 l 4.3,10.1 4.3,-10.1 z"
   id="path63" />
	<path
   class="st2"
   d="m 23,29.8 c 0.4,-0.8 1,-1.5 1.8,-1.9 0.7,-0.5 1.6,-0.7 2.5,-0.7 0.8,0 1.5,0.2 2.1,0.5 0.6,0.3 1.1,0.7 1.4,1.2 v -1.5 h 2.7 v 10.7 h -2.7 v -1.6 c -0.3,0.5 -0.8,0.9 -1.4,1.3 -0.6,0.3 -1.3,0.5 -2.1,0.5 -0.9,0 -1.7,-0.2 -2.5,-0.7 -0.7,-0.5 -1.3,-1.1 -1.8,-2 -0.5,-0.9 -0.6,-1.8 -0.6,-2.9 0,-1.1 0.2,-2 0.6,-2.9 z m 7.4,1.3 C 30.1,30.6 29.8,30.3 29.4,30 29,29.7 28.5,29.6 28,29.6 c -0.5,0 -1,0.1 -1.4,0.4 -0.4,0.2 -0.8,0.6 -1,1.1 -0.3,0.5 -0.4,1 -0.4,1.7 0,0.7 0.1,1.2 0.4,1.7 0.3,0.5 0.6,0.9 1,1.1 0.4,0.3 0.9,0.4 1.4,0.4 0.5,0 1,-0.1 1.4,-0.4 0.4,-0.3 0.8,-0.6 1,-1.1 0.3,-0.5 0.4,-1 0.4,-1.7 0,-0.7 -0.1,-1.3 -0.4,-1.7 z"
   id="path65" />
	<path
   class="st2"
   d="m 35.1,29.9 c 0.4,-0.8 1,-1.5 1.8,-1.9 0.8,-0.5 1.6,-0.7 2.5,-0.7 0.8,0 1.4,0.1 2,0.4 0.6,0.3 1.1,0.7 1.4,1.1 v -1.4 h 2.7 v 15.8 h -2.7 v -6.6 c -0.4,0.5 -0.8,0.9 -1.5,1.2 -0.6,0.3 -1.3,0.5 -2.1,0.5 -0.9,0 -1.7,-0.2 -2.5,-0.7 -0.8,-0.5 -1.4,-1.1 -1.8,-2 -0.4,-0.8 -0.7,-1.8 -0.7,-2.9 0.3,-1 0.5,-2 0.9,-2.8 z m 7.4,1.2 C 42.2,30.6 41.9,30.3 41.4,30 41,29.8 40.5,29.6 40,29.6 c -0.5,0 -0.9,0.1 -1.4,0.4 -0.4,0.2 -0.8,0.6 -1.1,1.1 -0.3,0.5 -0.4,1 -0.4,1.7 0,0.7 0.1,1.2 0.4,1.7 0.3,0.5 0.6,0.8 1.1,1.1 0.5,0.3 0.9,0.4 1.4,0.4 0.5,0 1,-0.1 1.4,-0.4 0.4,-0.3 0.8,-0.6 1.1,-1.1 0.3,-0.5 0.4,-1 0.4,-1.7 0,-0.7 -0.1,-1.3 -0.4,-1.7 z"
   id="path67" />
	<path
   class="st2"
   d="m 57.4,27.4 v 10.7 h -2.7 v -1.4 c -0.3,0.5 -0.8,0.8 -1.4,1.1 -0.6,0.3 -1.2,0.4 -1.8,0.4 -0.8,0 -1.6,-0.2 -2.2,-0.5 -0.6,-0.4 -1.2,-0.9 -1.5,-1.6 -0.4,-0.7 -0.6,-1.5 -0.6,-2.5 v -6.3 h 2.7 v 5.9 c 0,0.9 0.2,1.5 0.6,2 0.4,0.5 1,0.7 1.7,0.7 0.7,0 1.3,-0.2 1.8,-0.7 0.4,-0.5 0.6,-1.1 0.6,-2 v -5.9 h 2.8 z"
   id="path69" />
	<path
   class="st2"
   d="m 59.1,25.7 c -0.3,-0.3 -0.5,-0.7 -0.5,-1.1 0,-0.4 0.2,-0.8 0.5,-1.1 0.3,-0.3 0.7,-0.5 1.2,-0.5 0.5,0 0.9,0.2 1.2,0.5 0.3,0.3 0.5,0.7 0.5,1.1 0,0.4 -0.2,0.8 -0.5,1.1 -0.3,0.3 -0.7,0.5 -1.2,0.5 -0.5,0 -0.8,-0.2 -1.2,-0.5 z m 2.6,1.7 V 38.1 H 59 V 27.4 Z"
   id="path71" />
	<path
   class="st2"
   d="m 72.3,28.4 c 0.8,0.8 1.2,1.9 1.2,3.4 v 6.3 h -2.7 v -5.9 c 0,-0.9 -0.2,-1.5 -0.6,-2 -0.4,-0.5 -1,-0.7 -1.7,-0.7 -0.7,0 -1.3,0.2 -1.8,0.7 -0.4,0.5 -0.6,1.1 -0.6,2 v 5.9 H 63.4 V 27.4 H 66 v 1.3 c 0.4,-0.5 0.8,-0.8 1.4,-1.1 0.6,-0.3 1.2,-0.4 1.8,-0.4 1.3,0 2.3,0.4 3.1,1.2 z"
   id="path73" />
	<path
   class="st2"
   d="m 75,29.8 c 0.4,-0.8 1,-1.5 1.8,-1.9 0.7,-0.5 1.6,-0.7 2.5,-0.7 0.8,0 1.5,0.2 2.1,0.5 0.6,0.3 1.1,0.7 1.4,1.2 v -1.5 h 2.7 v 10.7 h -2.7 v -1.6 c -0.3,0.5 -0.8,0.9 -1.4,1.3 -0.6,0.4 -1.3,0.5 -2.1,0.5 -0.9,0 -1.7,-0.2 -2.5,-0.7 -0.7,-0.5 -1.3,-1.1 -1.8,-2 -0.5,-0.9 -0.6,-1.8 -0.6,-2.9 -0.1,-1.1 0.1,-2 0.6,-2.9 z m 7.4,1.3 C 82.1,30.6 81.8,30.3 81.4,30 81,29.7 80.5,29.6 80,29.6 c -0.5,0 -1,0.1 -1.4,0.4 -0.4,0.2 -0.8,0.6 -1,1.1 -0.3,0.5 -0.4,1 -0.4,1.7 0,0.7 0.1,1.2 0.4,1.7 0.3,0.5 0.6,0.9 1,1.1 0.4,0.3 0.9,0.4 1.4,0.4 0.5,0 1,-0.1 1.4,-0.4 0.4,-0.3 0.8,-0.6 1,-1.1 0.3,-0.5 0.4,-1 0.4,-1.7 0,-0.7 -0.2,-1.3 -0.4,-1.7 z"
   id="path75" />
	<path
   class="st2"
   d="m 91.2,27.7 c 0.6,-0.3 1.2,-0.5 1.9,-0.5 V 30 h -0.7 c -0.9,0 -1.5,0.2 -1.9,0.6 -0.4,0.4 -0.6,1.1 -0.6,2.1 V 38 H 87.2 V 27.4 h 2.7 v 1.7 c 0.2,-0.6 0.7,-1.1 1.3,-1.4 z"
   id="path77" />
	<path
   class="st2"
   d="m 94,25.7 c -0.3,-0.3 -0.5,-0.7 -0.5,-1.1 0,-0.4 0.2,-0.8 0.5,-1.1 0.3,-0.3 0.7,-0.5 1.2,-0.5 0.5,0 0.9,0.2 1.2,0.5 0.3,0.3 0.5,0.7 0.5,1.1 0,0.4 -0.2,0.8 -0.5,1.1 -0.3,0.3 -0.7,0.5 -1.2,0.5 -0.5,0 -0.9,-0.2 -1.2,-0.5 z m 2.6,1.7 V 38.1 H 93.9 V 27.4 Z"
   id="path79" />
	<path
   class="st2"
   d="m 98.1,29.8 c 0.4,-0.8 1,-1.5 1.8,-1.9 0.7,-0.5 1.6,-0.7 2.5,-0.7 0.8,0 1.5,0.2 2.1,0.5 0.6,0.3 1.1,0.7 1.4,1.2 v -1.5 h 2.7 v 10.7 h -2.7 v -1.6 c -0.3,0.5 -0.8,0.9 -1.4,1.3 -0.6,0.4 -1.3,0.5 -2.1,0.5 -0.9,0 -1.7,-0.2 -2.5,-0.7 -0.7,-0.5 -1.3,-1.1 -1.8,-2 -0.5,-0.9 -0.6,-1.8 -0.6,-2.9 0,-1.1 0.2,-2 0.6,-2.9 z m 7.4,1.3 c -0.3,-0.5 -0.6,-0.8 -1,-1.1 -0.4,-0.3 -0.9,-0.4 -1.4,-0.4 -0.5,0 -1,0.1 -1.4,0.4 -0.4,0.2 -0.8,0.6 -1,1.1 -0.3,0.5 -0.4,1 -0.4,1.7 0,0.7 0.1,1.2 0.4,1.7 0.3,0.5 0.6,0.9 1,1.1 0.4,0.3 0.9,0.4 1.4,0.4 0.5,0 1,-0.1 1.4,-0.4 0.4,-0.3 0.8,-0.6 1,-1.1 0.3,-0.5 0.4,-1 0.4,-1.7 0,-0.7 -0.1,-1.3 -0.4,-1.7 z"
   id="path81" />
</g></g></svg>
