<?xml version="1.0" encoding="UTF-8" standalone="no"?>
<svg
   xmlns:dc="http://purl.org/dc/elements/1.1/"
   xmlns:cc="http://creativecommons.org/ns#"
   xmlns:rdf="http://www.w3.org/1999/02/22-rdf-syntax-ns#"
   xmlns:svg="http://www.w3.org/2000/svg"
   xmlns="http://www.w3.org/2000/svg"
   xmlns:sodipodi="http://sodipodi.sourceforge.net/DTD/sodipodi-0.dtd"
   xmlns:inkscape="http://www.inkscape.org/namespaces/inkscape"
   version="1.1"
   id="Layer_1"
   inkscape:version="1.0.2-2 (e86c870879, 2021-01-15)"
   sodipodi:docname="atf3.svg"
   x="0px"
   y="0px"
   viewBox="0 0 115.2 47.1"
   style="enable-background:new 0 0 115.2 47.1;"
   xml:space="preserve"><metadata
   id="metadata88"><rdf:RDF><cc:Work
       rdf:about=""><dc:format>image/svg+xml</dc:format><dc:type
         rdf:resource="http://purl.org/dc/dcmitype/StillImage" /></cc:Work></rdf:RDF></metadata><defs
   id="defs86" />
<style
   type="text/css"
   id="style2">
	.st0{fill:url(#path4_1_);}
	.st1{stroke:#000000;stroke-width:0.5;stroke-miterlimit:10;}
	.st2{fill:#FFFFFF;stroke:#FFFFFF;stroke-width:0.5;stroke-miterlimit:10;}
</style>
<sodipodi:namedview
   bordercolor="#666666"
   borderopacity="1"
   gridtolerance="10"
   guidetolerance="10"
   id="namedview53"
   inkscape:current-layer="Layer_1"
   inkscape:cx="61.901056"
   inkscape:cy="24.874929"
   inkscape:pageopacity="0"
   inkscape:pageshadow="2"
   inkscape:window-height="779"
   inkscape:window-maximized="0"
   inkscape:window-width="1895"
   inkscape:window-x="123"
   inkscape:window-y="93"
   inkscape:zoom="8.8281252"
   objecttolerance="10"
   pagecolor="#ffffff"
   showgrid="false"
   inkscape:document-rotation="0">
	</sodipodi:namedview>
<linearGradient
   id="path4_1_"
   gradientUnits="userSpaceOnUse"
   x1="57.5516"
   y1="-2.929923e-005"
   x2="57.5516"
   y2="47.1">
	<stop
   offset="0"
   style="stop-color:#0BFF00"
   id="stop5" />
	<stop
   offset="1"
   style="stop-color:#179400"
   id="stop7" />
</linearGradient>
<path
   id="path4"
   class="st0"
   d="M110.1,47.1H5c-2.8,0-5-2.3-5-5V5c0-2.8,2.3-5,5-5h105.1c2.8,0,5,2.3,5,5v37  C115.2,44.8,112.9,47.1,110.1,47.1z" />
<g
   id="g40">
</g>
<g
   id="g42">
</g>
<g
   id="g44">
</g>
<g
   id="g46">
</g>
<g
   id="g48">
</g>
<g
   id="g50">
</g>
<g
   id="g49">
	<path
   class="st1"
   d="M9.6,20.5c-0.8-0.3-1.4-0.8-1.8-1.4c-0.4-0.6-0.7-1.3-0.7-2.2H10c0,0.6,0.2,1,0.6,1.3c0.4,0.3,0.8,0.5,1.5,0.5   c0.6,0,1.1-0.2,1.5-0.5c0.4-0.3,0.5-0.7,0.5-1.2c0-0.4-0.1-0.7-0.4-1c-0.2-0.3-0.6-0.5-0.9-0.6S12,15.2,11.3,15   c-0.9-0.3-1.6-0.5-2.1-0.8c-0.5-0.3-1-0.6-1.4-1.1s-0.6-1.2-0.6-2c0-0.8,0.2-1.5,0.6-2.1c0.4-0.6,1-1,1.7-1.4   c0.7-0.3,1.5-0.5,2.5-0.5c1.4,0,2.5,0.3,3.4,1c0.9,0.7,1.4,1.6,1.4,2.8h-3c0-0.5-0.2-0.8-0.6-1.2c-0.4-0.3-0.9-0.5-1.5-0.5   c-0.5,0-1,0.1-1.3,0.4C10.1,10.1,10,10.5,10,11c0,0.4,0.1,0.7,0.4,0.9c0.2,0.2,0.5,0.4,0.9,0.6c0.4,0.1,0.9,0.3,1.5,0.5   c0.9,0.3,1.6,0.5,2.2,0.8c0.6,0.3,1,0.6,1.4,1.2c0.4,0.5,0.6,1.2,0.6,2c0,0.7-0.2,1.4-0.6,2c-0.4,0.6-0.9,1.1-1.6,1.5   C14,20.8,13.1,21,12.1,21C11.2,21,10.3,20.8,9.6,20.5z"
   id="path17" />
	<path
   class="st1"
   d="M28.6,16.3h-7.8c0.1,0.8,0.3,1.4,0.8,1.8s1.1,0.7,1.8,0.7c1,0,1.7-0.4,2.2-1.3h2.9c-0.3,1-0.9,1.9-1.8,2.5   c-0.9,0.7-2,1-3.2,1c-1,0-2-0.2-2.8-0.7c-0.8-0.5-1.5-1.1-1.9-1.9S18,16.6,18,15.5c0-1.1,0.2-2.1,0.7-2.9c0.5-0.8,1.1-1.5,1.9-1.9   c0.8-0.5,1.7-0.7,2.8-0.7c1,0,1.9,0.2,2.7,0.7c0.8,0.4,1.4,1.1,1.9,1.9c0.4,0.8,0.7,1.7,0.7,2.8C28.7,15.6,28.6,16,28.6,16.3z    M25.9,14.5c0-0.7-0.3-1.3-0.8-1.7c-0.5-0.4-1.1-0.6-1.8-0.6c-0.7,0-1.2,0.2-1.7,0.6c-0.5,0.4-0.7,1-0.8,1.7H25.9z"
   id="path19" />
	<path
   class="st1"
   d="M36.4,10.4c0.6,0.3,1.1,0.7,1.4,1.2v-1.5h2.7v10.8c0,1-0.2,1.9-0.6,2.7c-0.4,0.8-1,1.4-1.8,1.9   c-0.8,0.5-1.8,0.7-2.9,0.7c-1.5,0-2.8-0.4-3.7-1.1c-1-0.7-1.5-1.7-1.7-2.9h2.7c0.1,0.5,0.4,0.9,0.9,1.2c0.5,0.3,1,0.4,1.7,0.4   c0.8,0,1.4-0.2,1.9-0.7c0.5-0.5,0.7-1.2,0.7-2.1v-1.7c-0.3,0.5-0.8,0.9-1.4,1.3C35.7,20.9,35,21,34.3,21c-0.9,0-1.7-0.2-2.5-0.7   c-0.7-0.5-1.3-1.1-1.8-2c-0.4-0.8-0.6-1.8-0.6-2.9c0-1.1,0.2-2,0.6-2.9c0.4-0.8,1-1.5,1.8-1.9c0.7-0.5,1.6-0.7,2.5-0.7   C35.1,9.9,35.8,10.1,36.4,10.4z M37.4,13.8c-0.3-0.5-0.6-0.8-1-1.1c-0.4-0.3-0.9-0.4-1.4-0.4c-0.5,0-1,0.1-1.4,0.4   c-0.4,0.2-0.8,0.6-1,1.1s-0.4,1-0.4,1.7c0,0.6,0.1,1.2,0.4,1.7s0.6,0.9,1,1.1c0.4,0.3,0.9,0.4,1.4,0.4c0.5,0,1-0.1,1.4-0.4   c0.4-0.3,0.8-0.6,1-1.1c0.3-0.5,0.4-1,0.4-1.7C37.8,14.8,37.7,14.3,37.4,13.8z"
   id="path21" />
	<path
   class="st1"
   d="M52.7,10.1v10.7H50v-1.4c-0.3,0.5-0.8,0.8-1.4,1.1c-0.6,0.3-1.2,0.4-1.8,0.4c-0.8,0-1.6-0.2-2.2-0.5   c-0.6-0.4-1.2-0.9-1.5-1.6c-0.4-0.7-0.6-1.5-0.6-2.5v-6.3h2.7V16c0,0.9,0.2,1.5,0.6,2c0.4,0.5,1,0.7,1.7,0.7c0.7,0,1.3-0.2,1.8-0.7   s0.6-1.1,0.6-2v-5.9H52.7z"
   id="path23" />
	<path
   class="st1"
   d="M58.9,10.5c0.6-0.3,1.2-0.5,1.9-0.5v2.8h-0.7c-0.9,0-1.5,0.2-1.9,0.6s-0.6,1.1-0.6,2.1v5.3h-2.7V10.1h2.7v1.7   C57.9,11.2,58.3,10.8,58.9,10.5z"
   id="path25" />
	<path
   class="st1"
   d="M64.1,20.3c-0.8-0.5-1.5-1.1-1.9-1.9c-0.5-0.8-0.7-1.8-0.7-2.9c0-1.1,0.2-2.1,0.7-2.9s1.1-1.5,2-1.9   c0.8-0.5,1.8-0.7,2.8-0.7s2,0.2,2.8,0.7c0.8,0.5,1.5,1.1,2,1.9c0.5,0.8,0.7,1.8,0.7,2.9c0,1.1-0.2,2.1-0.7,2.9   c-0.5,0.8-1.2,1.5-2,1.9S67.9,21,66.8,21C65.8,21,64.9,20.8,64.1,20.3z M68.2,18.3c0.4-0.2,0.8-0.6,1-1.1c0.3-0.5,0.4-1.1,0.4-1.7   c0-1-0.3-1.8-0.8-2.4c-0.5-0.5-1.2-0.8-2-0.8c-0.8,0-1.4,0.3-1.9,0.8c-0.5,0.5-0.8,1.3-0.8,2.4c0,1,0.3,1.8,0.8,2.4   c0.5,0.5,1.2,0.8,1.9,0.8C67.3,18.7,67.8,18.5,68.2,18.3z"
   id="path27" />
	<path
   class="st1"
   d="M22.2,25.5V39h-2.7v-8.8L15.9,39h-2.1l-3.6-8.8V39H7.5V25.5h3.1l4.3,10.1l4.3-10.1H22.2z"
   id="path29" />
	<path
   class="st1"
   d="M23.8,30.7c0.4-0.8,1-1.5,1.8-1.9c0.7-0.5,1.6-0.7,2.5-0.7c0.8,0,1.5,0.2,2.1,0.5s1.1,0.7,1.4,1.2v-1.5h2.7V39   h-2.7v-1.6c-0.3,0.5-0.8,0.9-1.4,1.3c-0.6,0.3-1.3,0.5-2.1,0.5c-0.9,0-1.7-0.2-2.5-0.7c-0.7-0.5-1.3-1.1-1.8-2s-0.6-1.8-0.6-2.9   C23.1,32.5,23.3,31.5,23.8,30.7z M31.2,31.9c-0.3-0.5-0.6-0.8-1-1.1c-0.4-0.3-0.9-0.4-1.4-0.4c-0.5,0-1,0.1-1.4,0.4   c-0.4,0.2-0.8,0.6-1,1.1c-0.3,0.5-0.4,1-0.4,1.7s0.1,1.2,0.4,1.7c0.3,0.5,0.6,0.9,1,1.1c0.4,0.3,0.9,0.4,1.4,0.4   c0.5,0,1-0.1,1.4-0.4c0.4-0.3,0.8-0.6,1-1.1c0.3-0.5,0.4-1,0.4-1.7C31.6,32.9,31.4,32.4,31.2,31.9z"
   id="path31" />
	<path
   class="st1"
   d="M35.9,30.7c0.4-0.8,1-1.5,1.8-1.9c0.8-0.5,1.6-0.7,2.5-0.7c0.8,0,1.4,0.1,2,0.4c0.6,0.3,1.1,0.7,1.4,1.1v-1.4   h2.7v15.8h-2.7v-6.6c-0.4,0.5-0.8,0.9-1.5,1.2c-0.6,0.3-1.3,0.5-2.1,0.5c-0.9,0-1.7-0.2-2.5-0.7s-1.4-1.1-1.8-2   c-0.4-0.8-0.7-1.8-0.7-2.9S35.4,31.6,35.9,30.7z M43.2,31.9c-0.3-0.5-0.6-0.8-1.1-1.1c-0.4-0.2-0.9-0.4-1.4-0.4   c-0.5,0-0.9,0.1-1.4,0.4c-0.4,0.2-0.8,0.6-1.1,1.1c-0.3,0.5-0.4,1-0.4,1.7s0.1,1.2,0.4,1.7s0.6,0.8,1.1,1.1s0.9,0.4,1.4,0.4   c0.5,0,1-0.1,1.4-0.4s0.8-0.6,1.1-1.1c0.3-0.5,0.4-1,0.4-1.7C43.6,32.9,43.5,32.4,43.2,31.9z"
   id="path33" />
	<path
   class="st1"
   d="M58.1,28.2V39h-2.7v-1.4c-0.3,0.5-0.8,0.8-1.4,1.1c-0.6,0.3-1.2,0.4-1.8,0.4c-0.8,0-1.6-0.2-2.2-0.5   c-0.6-0.4-1.2-0.9-1.5-1.6c-0.4-0.7-0.6-1.5-0.6-2.5v-6.3h2.7v5.9c0,0.9,0.2,1.5,0.6,2c0.4,0.5,1,0.7,1.7,0.7   c0.7,0,1.3-0.2,1.8-0.7c0.4-0.5,0.6-1.1,0.6-2v-5.9H58.1z"
   id="path35" />
	<path
   class="st1"
   d="M59.9,26.5c-0.3-0.3-0.5-0.7-0.5-1.1s0.2-0.8,0.5-1.1c0.3-0.3,0.7-0.5,1.2-0.5s0.9,0.2,1.2,0.5   c0.3,0.3,0.5,0.7,0.5,1.1s-0.2,0.8-0.5,1.1c-0.3,0.3-0.7,0.5-1.2,0.5S60.2,26.8,59.9,26.5z M62.4,28.2V39h-2.7V28.2H62.4z"
   id="path37" />
	<path
   class="st1"
   d="M73.1,29.3c0.8,0.8,1.2,1.9,1.2,3.4V39h-2.7V33c0-0.9-0.2-1.5-0.6-2c-0.4-0.5-1-0.7-1.7-0.7   c-0.7,0-1.3,0.2-1.8,0.7c-0.4,0.5-0.6,1.1-0.6,2V39H64V28.2h2.7v1.3c0.4-0.5,0.8-0.8,1.4-1.1c0.6-0.3,1.2-0.4,1.8-0.4   C71.2,28.1,72.3,28.5,73.1,29.3z"
   id="path39" />
	<path
   class="st1"
   d="M75.7,30.7c0.4-0.8,1-1.5,1.8-1.9c0.7-0.5,1.6-0.7,2.5-0.7c0.8,0,1.5,0.2,2.1,0.5s1.1,0.7,1.4,1.2v-1.5h2.7V39   h-2.7v-1.6c-0.3,0.5-0.8,0.9-1.4,1.3s-1.3,0.5-2.1,0.5c-0.9,0-1.7-0.2-2.5-0.7c-0.7-0.5-1.3-1.1-1.8-2s-0.6-1.8-0.6-2.9   C75.1,32.5,75.3,31.5,75.7,30.7z M83.1,31.9c-0.3-0.5-0.6-0.8-1-1.1c-0.4-0.3-0.9-0.4-1.4-0.4s-1,0.1-1.4,0.4   c-0.4,0.2-0.8,0.6-1,1.1c-0.3,0.5-0.4,1-0.4,1.7s0.1,1.2,0.4,1.7c0.3,0.5,0.6,0.9,1,1.1c0.4,0.3,0.9,0.4,1.4,0.4   c0.5,0,1-0.1,1.4-0.4c0.4-0.3,0.8-0.6,1-1.1c0.3-0.5,0.4-1,0.4-1.7C83.5,32.9,83.4,32.4,83.1,31.9z"
   id="path41" />
	<path
   class="st1"
   d="M91.9,28.6c0.6-0.3,1.2-0.5,1.9-0.5v2.8h-0.7c-0.9,0-1.5,0.2-1.9,0.6c-0.4,0.4-0.6,1.1-0.6,2.1V39h-2.7V28.2   h2.7v1.7C90.9,29.3,91.3,28.9,91.9,28.6z"
   id="path43" />
	<path
   class="st1"
   d="M94.8,26.5c-0.3-0.3-0.5-0.7-0.5-1.1s0.2-0.8,0.5-1.1c0.3-0.3,0.7-0.5,1.2-0.5s0.9,0.2,1.2,0.5   c0.3,0.3,0.5,0.7,0.5,1.1s-0.2,0.8-0.5,1.1C96.8,26.8,96.4,27,96,27S95.1,26.8,94.8,26.5z M97.3,28.2V39h-2.7V28.2H97.3z"
   id="path45" />
	<path
   class="st1"
   d="M98.8,30.7c0.4-0.8,1-1.5,1.8-1.9c0.7-0.5,1.6-0.7,2.5-0.7c0.8,0,1.5,0.2,2.1,0.5s1.1,0.7,1.4,1.2v-1.5h2.7V39   h-2.7v-1.6c-0.3,0.5-0.8,0.9-1.4,1.3s-1.3,0.5-2.1,0.5c-0.9,0-1.7-0.2-2.5-0.7c-0.7-0.5-1.3-1.1-1.8-2s-0.6-1.8-0.6-2.9   C98.2,32.5,98.4,31.5,98.8,30.7z M106.3,31.9c-0.3-0.5-0.6-0.8-1-1.1c-0.4-0.3-0.9-0.4-1.4-0.4s-1,0.1-1.4,0.4   c-0.4,0.2-0.8,0.6-1,1.1c-0.3,0.5-0.4,1-0.4,1.7s0.1,1.2,0.4,1.7c0.3,0.5,0.6,0.9,1,1.1c0.4,0.3,0.9,0.4,1.4,0.4   c0.5,0,1-0.1,1.4-0.4c0.4-0.3,0.8-0.6,1-1.1c0.3-0.5,0.4-1,0.4-1.7C106.6,32.9,106.5,32.4,106.3,31.9z"
   id="path47" />
</g>
<g
   id="g83">
	<path
   class="st2"
   d="M8.9,19.7c-0.8-0.3-1.4-0.8-1.8-1.4c-0.4-0.6-0.7-1.3-0.7-2.2h2.9c0,0.6,0.2,1,0.6,1.3   c0.4,0.3,0.8,0.5,1.5,0.5c0.6,0,1.1-0.2,1.5-0.5c0.4-0.3,0.5-0.7,0.5-1.2c0-0.4-0.1-0.7-0.4-1s-0.6-0.5-0.9-0.6s-0.9-0.3-1.5-0.5   c-0.9-0.3-1.6-0.5-2.1-0.8c-0.5-0.3-1-0.6-1.4-1.1s-0.6-1.2-0.6-2c0-0.8,0.2-1.5,0.6-2.1c0.4-0.6,1-1,1.7-1.4   c0.7-0.3,1.5-0.5,2.5-0.5c1.4,0,2.5,0.3,3.4,1c0.9,0.7,1.4,1.6,1.4,2.8h-3c0-0.5-0.2-0.8-0.6-1.2c-0.4-0.3-0.9-0.5-1.5-0.5   c-0.5,0-1,0.1-1.3,0.4c-0.3,0.3-0.5,0.7-0.5,1.2c0,0.4,0.1,0.7,0.4,0.9c0.2,0.2,0.5,0.4,0.9,0.6c0.4,0.1,0.9,0.3,1.5,0.5   c0.9,0.3,1.6,0.5,2.2,0.8c0.6,0.3,1,0.6,1.4,1.2c0.4,0.5,0.6,1.2,0.6,2c0,0.7-0.2,1.4-0.6,2c-0.4,0.6-0.9,1.1-1.6,1.5   c-0.7,0.4-1.6,0.6-2.6,0.6C10.5,20.1,9.6,20,8.9,19.7z"
   id="path51" />
	<path
   class="st2"
   d="M27.9,15.5H20c0.1,0.8,0.3,1.4,0.8,1.8s1.1,0.7,1.8,0.7c1,0,1.7-0.4,2.2-1.3h2.9c-0.3,1-0.9,1.9-1.8,2.5   c-0.9,0.7-2,1-3.2,1c-1,0-2-0.2-2.8-0.7c-0.8-0.5-1.5-1.1-1.9-1.9s-0.7-1.8-0.7-2.9c0-1.1,0.2-2.1,0.7-2.9c0.5-0.8,1.1-1.5,1.9-1.9   c0.8-0.5,1.7-0.7,2.8-0.7c1,0,1.9,0.2,2.7,0.7c0.8,0.4,1.4,1.1,1.9,1.9c0.4,0.8,0.7,1.7,0.7,2.8C27.9,14.8,27.9,15.1,27.9,15.5z    M25.1,13.6c0-0.7-0.3-1.3-0.8-1.7c-0.5-0.4-1.1-0.6-1.8-0.6c-0.7,0-1.2,0.2-1.7,0.6c-0.5,0.4-0.7,1-0.8,1.7H25.1z"
   id="path53" />
	<path
   class="st2"
   d="M35.6,9.6c0.6,0.3,1.1,0.7,1.4,1.2V9.3h2.7v10.8c0,1-0.2,1.9-0.6,2.7c-0.4,0.8-1,1.4-1.8,1.9   c-0.8,0.5-1.8,0.7-2.9,0.7c-1.5,0-2.8-0.4-3.7-1.1c-1-0.7-1.5-1.7-1.7-2.9h2.7c0.1,0.5,0.4,0.9,0.9,1.2c0.5,0.3,1,0.4,1.7,0.4   c0.8,0,1.4-0.2,1.9-0.7c0.5-0.5,0.7-1.2,0.7-2.1v-1.7c-0.3,0.5-0.8,0.9-1.4,1.3c-0.6,0.3-1.3,0.5-2.1,0.5c-0.9,0-1.7-0.2-2.5-0.7   c-0.7-0.5-1.3-1.1-1.8-2c-0.4-0.8-0.6-1.8-0.6-2.9c0-1.1,0.2-2,0.6-2.9c0.4-0.8,1-1.5,1.8-1.9c0.7-0.5,1.6-0.7,2.5-0.7   C34.3,9.1,35,9.3,35.6,9.6z M36.7,12.9c-0.3-0.5-0.6-0.8-1-1.1c-0.4-0.3-0.9-0.4-1.4-0.4c-0.5,0-1,0.1-1.4,0.4   c-0.4,0.2-0.8,0.6-1,1.1s-0.4,1-0.4,1.7c0,0.6,0.1,1.2,0.4,1.7c0.3,0.5,0.6,0.9,1,1.1c0.4,0.3,0.9,0.4,1.4,0.4c0.5,0,1-0.1,1.4-0.4   c0.4-0.3,0.8-0.6,1-1.1c0.3-0.5,0.4-1,0.4-1.7C37.1,14,36.9,13.4,36.7,12.9z"
   id="path55" />
	<path
   class="st2"
   d="M52,9.3V20h-2.7v-1.4c-0.3,0.5-0.8,0.8-1.4,1.1c-0.6,0.3-1.2,0.4-1.8,0.4c-0.8,0-1.6-0.2-2.2-0.5   c-0.6-0.4-1.2-0.9-1.5-1.6c-0.4-0.7-0.6-1.5-0.6-2.5V9.3h2.7v5.9c0,0.9,0.2,1.5,0.6,2c0.4,0.5,1,0.7,1.7,0.7c0.7,0,1.3-0.2,1.8-0.7   s0.6-1.1,0.6-2V9.3H52z"
   id="path57" />
	<path
   class="st2"
   d="M58.2,9.6c0.6-0.3,1.2-0.5,1.9-0.5V12h-0.7c-0.9,0-1.5,0.2-1.9,0.6s-0.6,1.1-0.6,2.1V20h-2.7V9.3h2.7v1.7   C57.2,10.4,57.6,9.9,58.2,9.6z"
   id="path59" />
	<path
   class="st2"
   d="M63.3,19.5c-0.8-0.5-1.5-1.1-1.9-1.9c-0.5-0.8-0.7-1.8-0.7-2.9c0-1.1,0.2-2.1,0.7-2.9s1.1-1.5,2-1.9   c0.8-0.5,1.8-0.7,2.8-0.7s2,0.2,2.8,0.7c0.8,0.5,1.5,1.1,2,1.9c0.5,0.8,0.7,1.8,0.7,2.9c0,1.1-0.2,2.1-0.7,2.9   c-0.5,0.8-1.2,1.5-2,1.9s-1.8,0.7-2.8,0.7C65.1,20.2,64.1,20,63.3,19.5z M67.5,17.5c0.4-0.2,0.8-0.6,1-1.1c0.3-0.5,0.4-1.1,0.4-1.7   c0-1-0.3-1.8-0.8-2.4c-0.5-0.5-1.2-0.8-2-0.8c-0.8,0-1.4,0.3-1.9,0.8c-0.5,0.5-0.8,1.3-0.8,2.4c0,1,0.3,1.8,0.8,2.4   c0.5,0.5,1.2,0.8,1.9,0.8C66.6,17.8,67.1,17.7,67.5,17.5z"
   id="path61" />
	<path
   class="st2"
   d="M21.5,24.6v13.5h-2.7v-8.8l-3.6,8.8h-2.1l-3.6-8.8v8.8H6.7V24.6h3.1l4.3,10.1l4.3-10.1H21.5z"
   id="path63" />
	<path
   class="st2"
   d="M23,29.8c0.4-0.8,1-1.5,1.8-1.9c0.7-0.5,1.6-0.7,2.5-0.7c0.8,0,1.5,0.2,2.1,0.5s1.1,0.7,1.4,1.2v-1.5h2.7v10.7   h-2.7v-1.6c-0.3,0.5-0.8,0.9-1.4,1.3c-0.6,0.3-1.3,0.5-2.1,0.5c-0.9,0-1.7-0.2-2.5-0.7c-0.7-0.5-1.3-1.1-1.8-2s-0.6-1.8-0.6-2.9   C22.4,31.6,22.6,30.7,23,29.8z M30.4,31.1c-0.3-0.5-0.6-0.8-1-1.1c-0.4-0.3-0.9-0.4-1.4-0.4c-0.5,0-1,0.1-1.4,0.4   c-0.4,0.2-0.8,0.6-1,1.1c-0.3,0.5-0.4,1-0.4,1.7s0.1,1.2,0.4,1.7c0.3,0.5,0.6,0.9,1,1.1c0.4,0.3,0.9,0.4,1.4,0.4   c0.5,0,1-0.1,1.4-0.4c0.4-0.3,0.8-0.6,1-1.1c0.3-0.5,0.4-1,0.4-1.7C30.8,32.1,30.7,31.5,30.4,31.1z"
   id="path65" />
	<path
   class="st2"
   d="M35.1,29.9c0.4-0.8,1-1.5,1.8-1.9c0.8-0.5,1.6-0.7,2.5-0.7c0.8,0,1.4,0.1,2,0.4c0.6,0.3,1.1,0.7,1.4,1.1v-1.4   h2.7v15.8h-2.7v-6.6c-0.4,0.5-0.8,0.9-1.5,1.2c-0.6,0.3-1.3,0.5-2.1,0.5c-0.9,0-1.7-0.2-2.5-0.7s-1.4-1.1-1.8-2   c-0.4-0.8-0.7-1.8-0.7-2.9C34.5,31.7,34.7,30.7,35.1,29.9z M42.5,31.1c-0.3-0.5-0.6-0.8-1.1-1.1c-0.4-0.2-0.9-0.4-1.4-0.4   c-0.5,0-0.9,0.1-1.4,0.4c-0.4,0.2-0.8,0.6-1.1,1.1c-0.3,0.5-0.4,1-0.4,1.7s0.1,1.2,0.4,1.7s0.6,0.8,1.1,1.1s0.9,0.4,1.4,0.4   c0.5,0,1-0.1,1.4-0.4s0.8-0.6,1.1-1.1c0.3-0.5,0.4-1,0.4-1.7C42.9,32.1,42.8,31.5,42.5,31.1z"
   id="path67" />
	<path
   class="st2"
   d="M57.4,27.4v10.7h-2.7v-1.4c-0.3,0.5-0.8,0.8-1.4,1.1c-0.6,0.3-1.2,0.4-1.8,0.4c-0.8,0-1.6-0.2-2.2-0.5   c-0.6-0.4-1.2-0.9-1.5-1.6c-0.4-0.7-0.6-1.5-0.6-2.5v-6.3h2.7v5.9c0,0.9,0.2,1.5,0.6,2c0.4,0.5,1,0.7,1.7,0.7   c0.7,0,1.3-0.2,1.8-0.7c0.4-0.5,0.6-1.1,0.6-2v-5.9H57.4z"
   id="path69" />
	<path
   class="st2"
   d="M59.1,25.7c-0.3-0.3-0.5-0.7-0.5-1.1s0.2-0.8,0.5-1.1c0.3-0.3,0.7-0.5,1.2-0.5s0.9,0.2,1.2,0.5   c0.3,0.3,0.5,0.7,0.5,1.1s-0.2,0.8-0.5,1.1c-0.3,0.3-0.7,0.5-1.2,0.5S59.5,26,59.1,25.7z M61.7,27.4v10.7H59V27.4H61.7z"
   id="path71" />
	<path
   class="st2"
   d="M72.3,28.4c0.8,0.8,1.2,1.9,1.2,3.4v6.3h-2.7v-5.9c0-0.9-0.2-1.5-0.6-2c-0.4-0.5-1-0.7-1.7-0.7   c-0.7,0-1.3,0.2-1.8,0.7c-0.4,0.5-0.6,1.1-0.6,2v5.9h-2.7V27.4H66v1.3c0.4-0.5,0.8-0.8,1.4-1.1c0.6-0.3,1.2-0.4,1.8-0.4   C70.5,27.2,71.5,27.6,72.3,28.4z"
   id="path73" />
	<path
   class="st2"
   d="M75,29.8c0.4-0.8,1-1.5,1.8-1.9c0.7-0.5,1.6-0.7,2.5-0.7c0.8,0,1.5,0.2,2.1,0.5s1.1,0.7,1.4,1.2v-1.5h2.7v10.7   h-2.7v-1.6c-0.3,0.5-0.8,0.9-1.4,1.3s-1.3,0.5-2.1,0.5c-0.9,0-1.7-0.2-2.5-0.7c-0.7-0.5-1.3-1.1-1.8-2s-0.6-1.8-0.6-2.9   C74.3,31.6,74.5,30.7,75,29.8z M82.4,31.1c-0.3-0.5-0.6-0.8-1-1.1c-0.4-0.3-0.9-0.4-1.4-0.4s-1,0.1-1.4,0.4c-0.4,0.2-0.8,0.6-1,1.1   c-0.3,0.5-0.4,1-0.4,1.7s0.1,1.2,0.4,1.7c0.3,0.5,0.6,0.9,1,1.1c0.4,0.3,0.9,0.4,1.4,0.4c0.5,0,1-0.1,1.4-0.4   c0.4-0.3,0.8-0.6,1-1.1c0.3-0.5,0.4-1,0.4-1.7C82.8,32.1,82.6,31.5,82.4,31.1z"
   id="path75" />
	<path
   class="st2"
   d="M91.2,27.7c0.6-0.3,1.2-0.5,1.9-0.5v2.8h-0.7c-0.9,0-1.5,0.2-1.9,0.6c-0.4,0.4-0.6,1.1-0.6,2.1v5.3h-2.7V27.4   h2.7v1.7C90.1,28.5,90.6,28,91.2,27.7z"
   id="path77" />
	<path
   class="st2"
   d="M94,25.7c-0.3-0.3-0.5-0.7-0.5-1.1s0.2-0.8,0.5-1.1c0.3-0.3,0.7-0.5,1.2-0.5s0.9,0.2,1.2,0.5   c0.3,0.3,0.5,0.7,0.5,1.1s-0.2,0.8-0.5,1.1c-0.3,0.3-0.7,0.5-1.2,0.5S94.3,26,94,25.7z M96.6,27.4v10.7h-2.7V27.4H96.6z"
   id="path79" />
	<path
   class="st2"
   d="M98.1,29.8c0.4-0.8,1-1.5,1.8-1.9c0.7-0.5,1.6-0.7,2.5-0.7c0.8,0,1.5,0.2,2.1,0.5s1.1,0.7,1.4,1.2v-1.5h2.7   v10.7h-2.7v-1.6c-0.3,0.5-0.8,0.9-1.4,1.3s-1.3,0.5-2.1,0.5c-0.9,0-1.7-0.2-2.5-0.7c-0.7-0.5-1.3-1.1-1.8-2s-0.6-1.8-0.6-2.9   C97.5,31.6,97.7,30.7,98.1,29.8z M105.5,31.1c-0.3-0.5-0.6-0.8-1-1.1c-0.4-0.3-0.9-0.4-1.4-0.4s-1,0.1-1.4,0.4   c-0.4,0.2-0.8,0.6-1,1.1c-0.3,0.5-0.4,1-0.4,1.7s0.1,1.2,0.4,1.7c0.3,0.5,0.6,0.9,1,1.1c0.4,0.3,0.9,0.4,1.4,0.4   c0.5,0,1-0.1,1.4-0.4c0.4-0.3,0.8-0.6,1-1.1c0.3-0.5,0.4-1,0.4-1.7C105.9,32.1,105.8,31.5,105.5,31.1z"
   id="path81" />
</g>
</svg>
