<svg viewBox="0 0 217.93 317.18" xmlns="http://www.w3.org/2000/svg"> <defs> <clipPath transform="translate(0.15 52.37)" id="clip-path"> <path id="svg_1" fill="none" d="m95.51,-47.57816l-0.25,0.13l75.27,79.9l0,-36.74a25,25 0 0 0 -12.53,-21.66l-37.51,-21.63a25,25 0 0 0 -25,0" class="cls-1"/> </clipPath> <clipPath transform="translate(0.15 52.37)" id="clip-path-2"> <path id="svg_2" fill="none" d="m95.51,-47.57816l-37.51,21.63a25,25 0 0 0 -12.52,21.66l0,43.2a25,25 0 0 0 6.79,17.14l115.43,-5.58a25,25 0 0 0 2.83,-11.56l0,-12.22c-3.56,-6.32 -9,-15.72 -14.66,-24.69c-9.77,-15.46 -21.32,-25.25 -30.66,-33.17c-6.95,-5.92 -19.9,-14.25 -26.07,-18.14a24.58,24.58 0 0 0 -3.63,1.73" class="cls-1"/> </clipPath> <clipPath transform="translate(0.15 52.37)" id="clip-path-3"> <path id="svg_3" fill="none" d="m45.48,-4.28816l0,43.2a25.06,25.06 0 0 0 2.36,10.62l0.18,-0.32c5.55,-9.88 13.76,-29.1 15.62,-39s0,-13.79 -4.14,-20.39a56.18,56.18 0 0 0 -8.4,-10a25,25 0 0 0 -5.62,15.8" class="cls-1"/> </clipPath> <clipPath transform="translate(0.15 52.37)" id="clip-path-4"> <path id="svg_4" fill="none" d="m83.93,15.61184c-23,7.69 -36.1,33.66 -36.1,33.66s0,0.06 0,0.17a25.1,25.1 0 0 0 10.17,11.16l37.52,21.63a25,25 0 0 0 25,0l37.48,-21.63a25,25 0 0 0 12.27,-18.09c-2.55,-2.9 -14.78,-16.29 -30.31,-24a69.11,69.11 0 0 0 -30.82,-7.16a79.27,79.27 0 0 0 -25.21,4.26" class="cls-1"/> </clipPath> <radialGradient id="xx5"> <stop stop-opacity="0.3" stop-color="#8e8f92" offset="0%"/> <stop stop-opacity="0" stop-color="white" offset="100%"/> </radialGradient> <linearGradient y2="0.50303" x2="0.79271" y1="0.50303" x1="0.40166" id="linear-gradient"> <stop stop-color="#b4ff59" offset="0"/> <stop stop-color="#89b900" offset="1"/> </linearGradient> <linearGradient y2="0.49981" x2="0.78652" y1="0.49981" x1="-0.06073" id="linear-gradient-2"> <stop stop-color="#b92dfd" offset="0"/> <stop stop-color="#fa4ab8" offset="1"/> </linearGradient> <linearGradient y2="0.49779" x2="0.99481" y1="0.49779" x1="-0.11261" id="linear-gradient-3"> <stop stop-color="#ffab90" offset="0"/> <stop stop-color="#ffb3ff" offset="1"/> </linearGradient> <linearGradient y2="0.50235" x2="0.99831" y1="0.50235" x1="-0.02542" id="linear-gradient-4"> <stop stop-color="#c90dcf" offset="0"/> <stop stop-color="#8e0dcf" offset="1"/> </linearGradient> <linearGradient y2="0.84605" x2="0.87828" y1="0.15385" x1="0.1222" id="Degradado_sin_nombre_143"> <stop stop-opacity="0" stop-color="#fefeff" offset="0.7"/> <stop stop-opacity="0.01" stop-color="#fdfcff" offset="0.79"/> <stop stop-opacity="0.05" stop-color="#f9f3fd" offset="0.83"/> <stop stop-opacity="0.11" stop-color="#f2e4fa" offset="0.86"/> <stop stop-opacity="0.2" stop-color="#e8cff6" offset="0.89"/> <stop stop-opacity="0.31" stop-color="#dbb3f0" offset="0.91"/> <stop stop-opacity="0.45" stop-color="#cc92e9" offset="0.93"/> <stop stop-opacity="0.62" stop-color="#b969e1" offset="0.95"/> <stop stop-opacity="0.81" stop-color="#a43cd8" offset="0.97"/> <stop stop-color="#8e0dcf" offset="0.98"/> </linearGradient> <linearGradient y2="0.15398" x2="0.12231" y1="0.84624" x1="0.87801" id="Degradado_sin_nombre_147"> <stop stop-opacity="0" stop-color="#fefeff" offset="0.7"/> <stop stop-opacity="0.01" stop-color="#fefeff" offset="0.78"/> <stop stop-opacity="0.04" stop-color="#fefeff" offset="0.82"/> <stop stop-opacity="0.09" stop-color="#fefeff" offset="0.85"/> <stop stop-opacity="0.16" stop-color="#fefeff" offset="0.87"/> <stop stop-opacity="0.25" stop-color="#fefeff" offset="0.9"/> <stop stop-opacity="0.37" stop-color="#fefeff" offset="0.91"/> <stop stop-opacity="0.5" stop-color="#fff" offset="0.93"/> <stop stop-opacity="0.66" stop-color="#fff" offset="0.95"/> <stop stop-opacity="0.83" stop-color="#fff" offset="0.96"/> <stop stop-color="#fff" offset="0.98"/> </linearGradient> </defs> <g> <title>Layer 1</title> <g data-name="Layer 2" id="Layer_2"> <g data-name="Capa 2" id="Capa_2"> <g id="svg_5" clip-path="url(#clip-path)" class="cls-2"> <rect transform="rotate(-40 4.34 96.4918)" id="svg_6" fill="url(#linear-gradient)" height="112.25" width="111.25" y="82.21184" x="81.61" class="cls-3"/> </g> <g id="svg_7" clip-path="url(#clip-path-2)" class="cls-4"> <rect transform="rotate(-30 -12.61 62.5818)" id="svg_8" fill="url(#linear-gradient-2)" height="153.79" width="160.99" y="40.16184" x="14.9" class="cls-5"/> </g> <g id="svg_9" clip-path="url(#clip-path-3)" class="cls-6"> <rect transform="rotate(-10 -10.43 11.9118)" id="svg_10" fill="url(#linear-gradient-3)" height="72.06" width="31.8" y="41.70184" x="29.15" class="cls-7"/> </g> <g id="svg_11" clip-path="url(#clip-path-4)" class="cls-8"> <rect id="svg_12" fill="url(#linear-gradient-4)" height="75.34" width="122.48" y="63.72184" x="47.94" class="cls-9"/> </g> <path id="svg_13" fill="#7c0dbc" d="m102.09,59.55184a28.86,28.86 0 0 0 8.45,2.47a94.85,94.85 0 0 1 11,2.48a78.54,78.54 0 0 1 11,4a19.83,19.83 0 0 1 8.45,7.42a22.19,22.19 0 0 1 3.35,12.43q0,10.86 -8.85,17.78t-24.48,6.94a57.92,57.92 0 0 1 -19.21,-3.19a42.84,42.84 0 0 1 -15.23,-8.77l8.78,-14.21a40.46,40.46 0 0 0 12.12,7.38a37.69,37.69 0 0 0 14.51,3.19q6.38,0 9.64,-2.23a7,7 0 0 0 3.27,-6.06q0,-2.86 -3.42,-4.7a26.93,26.93 0 0 0 -8.46,-2.63a108.41,108.41 0 0 1 -11,-2.4a73.8,73.8 0 0 1 -11,-3.82a20.32,20.32 0 0 1 -8.45,-7.1" class="cls-10"/> <path id="svg_14" fill="#fff" d="m108.47,110.55184a58.17,58.17 0 0 1 -19.21,-3.19a43,43 0 0 1 -15.23,-8.77l8.77,-14.19a40.46,40.46 0 0 0 12.12,7.33a37.65,37.65 0 0 0 14.51,3.19q6.38,0 9.64,-2.23a7,7 0 0 0 3.27,-6.06q0,-2.86 -3.43,-4.7a26.78,26.78 0 0 0 -8.45,-2.65a107.61,107.61 0 0 1 -11,-2.39a73.4,73.4 0 0 1 -11,-3.82a20.11,20.11 0 0 1 -11.88,-19.13q0,-10.2 8.45,-17.22t23.12,-7q17.86,0 31.09,10.53l-8.09,13.85a28.47,28.47 0 0 0 -9.8,-6.38a33.59,33.59 0 0 0 -13,-2.55a16,16 0 0 0 -8.81,2.11q-3.39,2.2 -3.39,5.54c0,1.71 1.12,3.11 3.35,4.23a28.86,28.86 0 0 0 8.45,2.47a94.1,94.1 0 0 1 11,2.47a79.51,79.51 0 0 1 11,4a19.86,19.86 0 0 1 8.45,7.41a22.22,22.22 0 0 1 3.35,12.44q0,10.85 -8.85,17.78t-24.43,6.93z" class="cls-11"/> <path id="svg_15" fill="url(#xx5)" opacity="1" d="m165.4,156.67184c0,3.4 -25.63,6.16 -57.25,6.16s-57.25,-2.76 -57.25,-6.16s25.63,-6.16 57.25,-6.16s57.25,2.77 57.25,6.16z" class="cls-12"/> <g id="svg_16" opacity="0.7" class="cls-13"> <path id="svg_17" fill="url(#Degradado_sin_nombre_143)" opacity="0.7" d="m158.29,26.28184l-37.56,-21.65a25,25 0 0 0 -21.36,-1.72l0,0l-0.27,0.12c-0.39,0.15 -0.78,0.32 -1.16,0.49l-0.55,0.25q-0.84,0.4 -1.65,0.87l-0.25,0.14l0,0l-37.34,21.5a24.9,24.9 0 0 0 -6.89,5.87l0,0l-0.18,0.24c-0.31,0.39 -0.6,0.78 -0.88,1.18l-0.27,0.38c-0.36,0.53 -0.7,1.07 -1,1.62c-0.07,0.13 -0.13,0.26 -0.2,0.38q-0.36,0.66 -0.69,1.35c-0.09,0.18 -0.17,0.37 -0.25,0.55q-0.29,0.66 -0.54,1.32c-0.06,0.17 -0.13,0.33 -0.19,0.5c-0.21,0.6 -0.41,1.22 -0.57,1.84c0,0.09 0,0.19 -0.07,0.28c-0.13,0.53 -0.25,1.07 -0.35,1.62c0,0.2 -0.07,0.4 -0.1,0.6c-0.08,0.47 -0.14,0.94 -0.19,1.41l-0.06,0.59c-0.05,0.65 -0.08,1.31 -0.08,2l0,43.27a25,25 0 0 0 0.14,2.6c0,0.29 0.08,0.56 0.12,0.84c0.08,0.58 0.17,1.15 0.29,1.72c0.07,0.32 0.15,0.64 0.23,1c0.13,0.51 0.27,1 0.43,1.52c0.11,0.33 0.22,0.65 0.34,1s0.37,1 0.58,1.43c0.07,0.15 0.12,0.31 0.19,0.46l0,0l0,0.05a0.17,0.17 0 0 1 0,0l0,0c0.07,0.15 0.15,0.29 0.22,0.44s0.23,0.45 0.35,0.68c0.23,0.43 0.48,0.86 0.73,1.28c0.12,0.2 0.24,0.4 0.37,0.6c0.36,0.56 0.74,1.11 1.15,1.64l0.09,0.12c0.44,0.56 0.91,1.1 1.39,1.63l0.13,0.15l0,0a25.06,25.06 0 0 0 5.76,4.5l37.56,21.66a25,25 0 0 0 25,0l37.56,-21.66a25.12,25.12 0 0 0 9.7,-10.13l0,0a24.13,24.13 0 0 0 1.07,-2.37c0,-0.07 0.07,-0.14 0.1,-0.22c0.3,-0.78 0.55,-1.59 0.78,-2.41l0.09,-0.32a24.49,24.49 0 0 0 0.49,-2.44c0,-0.07 0,-0.15 0,-0.22l0,0a24.9,24.9 0 0 0 0.26,-3.57l0,-43.28a25,25 0 0 0 -12.47,-21.7z" class="cls-14"/> <path id="svg_18" fill="url(#Degradado_sin_nombre_143)" opacity="0.7" d="m158.29,26.28184l-37.56,-21.65a25,25 0 0 0 -21.36,-1.72l0,0l-0.27,0.12c-0.39,0.15 -0.78,0.32 -1.16,0.49l-0.55,0.25q-0.84,0.4 -1.65,0.87l-0.25,0.14l0,0l-37.34,21.5a24.9,24.9 0 0 0 -6.89,5.87l0,0l-0.18,0.24c-0.31,0.39 -0.6,0.78 -0.88,1.18l-0.27,0.38c-0.36,0.53 -0.7,1.07 -1,1.62c-0.07,0.13 -0.13,0.26 -0.2,0.38q-0.36,0.66 -0.69,1.35c-0.09,0.18 -0.17,0.37 -0.25,0.55q-0.29,0.66 -0.54,1.32c-0.06,0.17 -0.13,0.33 -0.19,0.5c-0.21,0.6 -0.41,1.22 -0.57,1.84c0,0.09 0,0.19 -0.07,0.28c-0.13,0.53 -0.25,1.07 -0.35,1.62c0,0.2 -0.07,0.4 -0.1,0.6c-0.08,0.47 -0.14,0.94 -0.19,1.41l-0.06,0.59c-0.05,0.65 -0.08,1.31 -0.08,2l0,43.27a25,25 0 0 0 0.14,2.6c0,0.29 0.08,0.56 0.12,0.84c0.08,0.58 0.17,1.15 0.29,1.72c0.07,0.32 0.15,0.64 0.23,1c0.13,0.51 0.27,1 0.43,1.52c0.11,0.33 0.22,0.65 0.34,1s0.37,1 0.58,1.43c0.07,0.15 0.12,0.31 0.19,0.46l0,0l0,0.05a0.17,0.17 0 0 1 0,0l0,0c0.07,0.15 0.15,0.29 0.22,0.44s0.23,0.45 0.35,0.68c0.23,0.43 0.48,0.86 0.73,1.28c0.12,0.2 0.24,0.4 0.37,0.6c0.36,0.56 0.74,1.11 1.15,1.64l0.09,0.12c0.44,0.56 0.91,1.1 1.39,1.63l0.13,0.15l0,0a25.06,25.06 0 0 0 5.76,4.5l37.56,21.66a25,25 0 0 0 25,0l37.56,-21.66a25.12,25.12 0 0 0 9.7,-10.13l0,0a24.13,24.13 0 0 0 1.07,-2.37c0,-0.07 0.07,-0.14 0.1,-0.22c0.3,-0.78 0.55,-1.59 0.78,-2.41l0.09,-0.32a24.49,24.49 0 0 0 0.49,-2.44c0,-0.07 0,-0.15 0,-0.22l0,0a24.9,24.9 0 0 0 0.26,-3.57l0,-43.28a25,25 0 0 0 -12.47,-21.7z" class="cls-14"/> <path id="svg_19" fill="url(#Degradado_sin_nombre_147)" opacity="0.35" d="m58.15,112.94184l37.56,21.65a25,25 0 0 0 21.37,1.69l0,0l0.27,-0.12c0.39,-0.15 0.78,-0.32 1.16,-0.49l0.55,-0.25c0.56,-0.27 1.11,-0.55 1.65,-0.87l0.25,-0.14l0,0l37.31,-21.51a24.93,24.93 0 0 0 6.89,-5.88l0,0l0.18,-0.24c0.31,-0.38 0.6,-0.78 0.88,-1.18l0.27,-0.38c0.36,-0.53 0.7,-1.07 1,-1.62c0.07,-0.12 0.13,-0.25 0.2,-0.38c0.25,-0.44 0.47,-0.89 0.69,-1.34c0.09,-0.19 0.17,-0.37 0.25,-0.56c0.2,-0.43 0.37,-0.87 0.54,-1.32c0.06,-0.17 0.13,-0.33 0.19,-0.5c0.21,-0.6 0.41,-1.21 0.57,-1.84a2.29,2.29 0 0 0 0.07,-0.28c0.14,-0.53 0.25,-1.07 0.35,-1.61c0,-0.2 0.07,-0.4 0.11,-0.61c0.07,-0.46 0.13,-0.93 0.18,-1.4l0.06,-0.59c0,-0.66 0.08,-1.31 0.08,-2l0,-43.19a25.06,25.06 0 0 0 -0.14,-2.61c0,-0.28 -0.08,-0.56 -0.12,-0.83c-0.08,-0.58 -0.17,-1.16 -0.29,-1.72c-0.07,-0.33 -0.15,-0.65 -0.23,-1c-0.13,-0.51 -0.27,-1 -0.43,-1.52c-0.11,-0.33 -0.22,-0.65 -0.34,-1c-0.18,-0.49 -0.37,-1 -0.58,-1.43c-0.07,-0.16 -0.12,-0.31 -0.18,-0.46l0,0l0,-0.06l0,0l0,0l-0.23,-0.43c-0.11,-0.23 -0.23,-0.46 -0.35,-0.69c-0.23,-0.43 -0.47,-0.86 -0.73,-1.28c-0.12,-0.2 -0.24,-0.4 -0.37,-0.6c-0.36,-0.56 -0.74,-1.1 -1.15,-1.63l-0.09,-0.13c-0.44,-0.56 -0.91,-1.1 -1.39,-1.62c-0.05,-0.05 -0.08,-0.11 -0.13,-0.15l0,0a24.53,24.53 0 0 0 -5.74,-4.54l-37.56,-21.65a25,25 0 0 0 -25,0l-37.58,21.65a25,25 0 0 0 -9.7,10.12l0,0a25.24,25.24 0 0 0 -1.07,2.37a2,2 0 0 0 -0.09,0.22a25.13,25.13 0 0 0 -0.79,2.41c0,0.11 -0.06,0.21 -0.09,0.32c-0.2,0.8 -0.36,1.62 -0.49,2.44c0,0.08 0,0.15 -0.05,0.22l0,0a25,25 0 0 0 -0.26,3.58l0,43.32a25,25 0 0 0 12.54,21.66z" class="cls-15"/> <path id="svg_20" fill="url(#Degradado_sin_nombre_143)" opacity="0.7" d="m158.29,26.28184l-37.56,-21.65a25,25 0 0 0 -21.36,-1.72l0,0l-0.27,0.12c-0.39,0.15 -0.78,0.32 -1.16,0.49l-0.55,0.25q-0.84,0.4 -1.65,0.87l-0.25,0.14l0,0l-37.34,21.5a24.9,24.9 0 0 0 -6.89,5.87l0,0l-0.18,0.24c-0.31,0.39 -0.6,0.78 -0.88,1.18l-0.27,0.38c-0.36,0.53 -0.7,1.07 -1,1.62c-0.07,0.13 -0.13,0.26 -0.2,0.38q-0.36,0.66 -0.69,1.35c-0.09,0.18 -0.17,0.37 -0.25,0.55q-0.29,0.66 -0.54,1.32c-0.06,0.17 -0.13,0.33 -0.19,0.5c-0.21,0.6 -0.41,1.22 -0.57,1.84c0,0.09 0,0.19 -0.07,0.28c-0.13,0.53 -0.25,1.07 -0.35,1.62c0,0.2 -0.07,0.4 -0.1,0.6c-0.08,0.47 -0.14,0.94 -0.19,1.41l-0.06,0.59c-0.05,0.65 -0.08,1.31 -0.08,2l0,43.27a25,25 0 0 0 0.14,2.6c0,0.29 0.08,0.56 0.12,0.84c0.08,0.58 0.17,1.15 0.29,1.72c0.07,0.32 0.15,0.64 0.23,1c0.13,0.51 0.27,1 0.43,1.52c0.11,0.33 0.22,0.65 0.34,1s0.37,1 0.58,1.43c0.07,0.15 0.12,0.31 0.19,0.46l0,0l0,0.05a0.17,0.17 0 0 1 0,0l0,0c0.07,0.15 0.15,0.29 0.22,0.44s0.23,0.45 0.35,0.68c0.23,0.43 0.48,0.86 0.73,1.28c0.12,0.2 0.24,0.4 0.37,0.6c0.36,0.56 0.74,1.11 1.15,1.64l0.09,0.12c0.44,0.56 0.91,1.1 1.39,1.63l0.13,0.15l0,0a25.06,25.06 0 0 0 5.76,4.5l37.56,21.66a25,25 0 0 0 25,0l37.56,-21.66a25.12,25.12 0 0 0 9.7,-10.13l0,0a24.13,24.13 0 0 0 1.07,-2.37c0,-0.07 0.07,-0.14 0.1,-0.22c0.3,-0.78 0.55,-1.59 0.78,-2.41l0.09,-0.32a24.49,24.49 0 0 0 0.49,-2.44c0,-0.07 0,-0.15 0,-0.22l0,0a24.9,24.9 0 0 0 0.26,-3.57l0,-43.28a25,25 0 0 0 -12.47,-21.7z" class="cls-14"/> <path id="svg_21" fill="url(#Degradado_sin_nombre_143)" opacity="0.7" d="m158.29,26.28184l-37.56,-21.65a25,25 0 0 0 -21.36,-1.72l0,0l-0.27,0.12c-0.39,0.15 -0.78,0.32 -1.16,0.49l-0.55,0.25q-0.84,0.4 -1.65,0.87l-0.25,0.14l0,0l-37.34,21.5a24.9,24.9 0 0 0 -6.89,5.87l0,0l-0.18,0.24c-0.31,0.39 -0.6,0.78 -0.88,1.18l-0.27,0.38c-0.36,0.53 -0.7,1.07 -1,1.62c-0.07,0.13 -0.13,0.26 -0.2,0.38q-0.36,0.66 -0.69,1.35c-0.09,0.18 -0.17,0.37 -0.25,0.55q-0.29,0.66 -0.54,1.32c-0.06,0.17 -0.13,0.33 -0.19,0.5c-0.21,0.6 -0.41,1.22 -0.57,1.84c0,0.09 0,0.19 -0.07,0.28c-0.13,0.53 -0.25,1.07 -0.35,1.62c0,0.2 -0.07,0.4 -0.1,0.6c-0.08,0.47 -0.14,0.94 -0.19,1.41l-0.06,0.59c-0.05,0.65 -0.08,1.31 -0.08,2l0,43.27a25,25 0 0 0 0.14,2.6c0,0.29 0.08,0.56 0.12,0.84c0.08,0.58 0.17,1.15 0.29,1.72c0.07,0.32 0.15,0.64 0.23,1c0.13,0.51 0.27,1 0.43,1.52c0.11,0.33 0.22,0.65 0.34,1s0.37,1 0.58,1.43c0.07,0.15 0.12,0.31 0.19,0.46l0,0l0,0.05a0.17,0.17 0 0 1 0,0l0,0c0.07,0.15 0.15,0.29 0.22,0.44s0.23,0.45 0.35,0.68c0.23,0.43 0.48,0.86 0.73,1.28c0.12,0.2 0.24,0.4 0.37,0.6c0.36,0.56 0.74,1.11 1.15,1.64l0.09,0.12c0.44,0.56 0.91,1.1 1.39,1.63l0.13,0.15l0,0a25.06,25.06 0 0 0 5.76,4.5l37.56,21.66a25,25 0 0 0 25,0l37.56,-21.66a25.12,25.12 0 0 0 9.7,-10.13l0,0a24.13,24.13 0 0 0 1.07,-2.37c0,-0.07 0.07,-0.14 0.1,-0.22c0.3,-0.78 0.55,-1.59 0.78,-2.41l0.09,-0.32a24.49,24.49 0 0 0 0.49,-2.44c0,-0.07 0,-0.15 0,-0.22l0,0a24.9,24.9 0 0 0 0.26,-3.57l0,-43.28a25,25 0 0 0 -12.47,-21.7z" class="cls-14"/> <path id="svg_22" fill="url(#Degradado_sin_nombre_147)" opacity="0.35" d="m58.15,112.94184l37.56,21.65a25,25 0 0 0 21.37,1.69l0,0l0.27,-0.12c0.39,-0.15 0.78,-0.32 1.16,-0.49l0.55,-0.25c0.56,-0.27 1.11,-0.55 1.65,-0.87l0.25,-0.14l0,0l37.31,-21.51a24.93,24.93 0 0 0 6.89,-5.88l0,0l0.18,-0.24c0.31,-0.38 0.6,-0.78 0.88,-1.18l0.27,-0.38c0.36,-0.53 0.7,-1.07 1,-1.62c0.07,-0.12 0.13,-0.25 0.2,-0.38c0.25,-0.44 0.47,-0.89 0.69,-1.34c0.09,-0.19 0.17,-0.37 0.25,-0.56c0.2,-0.43 0.37,-0.87 0.54,-1.32c0.06,-0.17 0.13,-0.33 0.19,-0.5c0.21,-0.6 0.41,-1.21 0.57,-1.84a2.29,2.29 0 0 0 0.07,-0.28c0.14,-0.53 0.25,-1.07 0.35,-1.61c0,-0.2 0.07,-0.4 0.11,-0.61c0.07,-0.46 0.13,-0.93 0.18,-1.4l0.06,-0.59c0,-0.66 0.08,-1.31 0.08,-2l0,-43.19a25.06,25.06 0 0 0 -0.14,-2.61c0,-0.28 -0.08,-0.56 -0.12,-0.83c-0.08,-0.58 -0.17,-1.16 -0.29,-1.72c-0.07,-0.33 -0.15,-0.65 -0.23,-1c-0.13,-0.51 -0.27,-1 -0.43,-1.52c-0.11,-0.33 -0.22,-0.65 -0.34,-1c-0.18,-0.49 -0.37,-1 -0.58,-1.43c-0.07,-0.16 -0.12,-0.31 -0.18,-0.46l0,0l0,-0.06l0,0l0,0l-0.23,-0.43c-0.11,-0.23 -0.23,-0.46 -0.35,-0.69c-0.23,-0.43 -0.47,-0.86 -0.73,-1.28c-0.12,-0.2 -0.24,-0.4 -0.37,-0.6c-0.36,-0.56 -0.74,-1.1 -1.15,-1.63l-0.09,-0.13c-0.44,-0.56 -0.91,-1.1 -1.39,-1.62c-0.05,-0.05 -0.08,-0.11 -0.13,-0.15l0,0a24.53,24.53 0 0 0 -5.74,-4.54l-37.56,-21.65a25,25 0 0 0 -25,0l-37.58,21.65a25,25 0 0 0 -9.7,10.12l0,0a25.24,25.24 0 0 0 -1.07,2.37a2,2 0 0 0 -0.09,0.22a25.13,25.13 0 0 0 -0.79,2.41c0,0.11 -0.06,0.21 -0.09,0.32c-0.2,0.8 -0.36,1.62 -0.49,2.44c0,0.08 0,0.15 -0.05,0.22l0,0a25,25 0 0 0 -0.26,3.58l0,43.32a25,25 0 0 0 12.54,21.66z" class="cls-15"/> <path id="svg_23" fill="url(#Degradado_sin_nombre_143)" opacity="0.7" d="m158.29,26.28184l-37.56,-21.65a25,25 0 0 0 -21.36,-1.72l0,0l-0.27,0.12c-0.39,0.15 -0.78,0.32 -1.16,0.49l-0.55,0.25q-0.84,0.4 -1.65,0.87l-0.25,0.14l0,0l-37.34,21.5a24.9,24.9 0 0 0 -6.89,5.87l0,0l-0.18,0.24c-0.31,0.39 -0.6,0.78 -0.88,1.18l-0.27,0.38c-0.36,0.53 -0.7,1.07 -1,1.62c-0.07,0.13 -0.13,0.26 -0.2,0.38q-0.36,0.66 -0.69,1.35c-0.09,0.18 -0.17,0.37 -0.25,0.55q-0.29,0.66 -0.54,1.32c-0.06,0.17 -0.13,0.33 -0.19,0.5c-0.21,0.6 -0.41,1.22 -0.57,1.84c0,0.09 0,0.19 -0.07,0.28c-0.13,0.53 -0.25,1.07 -0.35,1.62c0,0.2 -0.07,0.4 -0.1,0.6c-0.08,0.47 -0.14,0.94 -0.19,1.41l-0.06,0.59c-0.05,0.65 -0.08,1.31 -0.08,2l0,43.27a25,25 0 0 0 0.14,2.6c0,0.29 0.08,0.56 0.12,0.84c0.08,0.58 0.17,1.15 0.29,1.72c0.07,0.32 0.15,0.64 0.23,1c0.13,0.51 0.27,1 0.43,1.52c0.11,0.33 0.22,0.65 0.34,1s0.37,1 0.58,1.43c0.07,0.15 0.12,0.31 0.19,0.46l0,0l0,0.05a0.17,0.17 0 0 1 0,0l0,0c0.07,0.15 0.15,0.29 0.22,0.44s0.23,0.45 0.35,0.68c0.23,0.43 0.48,0.86 0.73,1.28c0.12,0.2 0.24,0.4 0.37,0.6c0.36,0.56 0.74,1.11 1.15,1.64l0.09,0.12c0.44,0.56 0.91,1.1 1.39,1.63l0.13,0.15l0,0a25.06,25.06 0 0 0 5.76,4.5l37.56,21.66a25,25 0 0 0 25,0l37.56,-21.66a25.12,25.12 0 0 0 9.7,-10.13l0,0a24.13,24.13 0 0 0 1.07,-2.37c0,-0.07 0.07,-0.14 0.1,-0.22c0.3,-0.78 0.55,-1.59 0.78,-2.41l0.09,-0.32a24.49,24.49 0 0 0 0.49,-2.44c0,-0.07 0,-0.15 0,-0.22l0,0a24.9,24.9 0 0 0 0.26,-3.57l0,-43.28a25,25 0 0 0 -12.47,-21.7z" class="cls-14"/> <path id="svg_24" fill="url(#Degradado_sin_nombre_143)" opacity="0.7" d="m158.29,26.28184l-37.56,-21.65a25,25 0 0 0 -21.36,-1.72l0,0l-0.27,0.12c-0.39,0.15 -0.78,0.32 -1.16,0.49l-0.55,0.25q-0.84,0.4 -1.65,0.87l-0.25,0.14l0,0l-37.34,21.5a24.9,24.9 0 0 0 -6.89,5.87l0,0l-0.18,0.24c-0.31,0.39 -0.6,0.78 -0.88,1.18l-0.27,0.38c-0.36,0.53 -0.7,1.07 -1,1.62c-0.07,0.13 -0.13,0.26 -0.2,0.38q-0.36,0.66 -0.69,1.35c-0.09,0.18 -0.17,0.37 -0.25,0.55q-0.29,0.66 -0.54,1.32c-0.06,0.17 -0.13,0.33 -0.19,0.5c-0.21,0.6 -0.41,1.22 -0.57,1.84c0,0.09 0,0.19 -0.07,0.28c-0.13,0.53 -0.25,1.07 -0.35,1.62c0,0.2 -0.07,0.4 -0.1,0.6c-0.08,0.47 -0.14,0.94 -0.19,1.41l-0.06,0.59c-0.05,0.65 -0.08,1.31 -0.08,2l0,43.27a25,25 0 0 0 0.14,2.6c0,0.29 0.08,0.56 0.12,0.84c0.08,0.58 0.17,1.15 0.29,1.72c0.07,0.32 0.15,0.64 0.23,1c0.13,0.51 0.27,1 0.43,1.52c0.11,0.33 0.22,0.65 0.34,1s0.37,1 0.58,1.43c0.07,0.15 0.12,0.31 0.19,0.46l0,0l0,0.05a0.17,0.17 0 0 1 0,0l0,0c0.07,0.15 0.15,0.29 0.22,0.44s0.23,0.45 0.35,0.68c0.23,0.43 0.48,0.86 0.73,1.28c0.12,0.2 0.24,0.4 0.37,0.6c0.36,0.56 0.74,1.11 1.15,1.64l0.09,0.12c0.44,0.56 0.91,1.1 1.39,1.63l0.13,0.15l0,0a25.06,25.06 0 0 0 5.76,4.5l37.56,21.66a25,25 0 0 0 25,0l37.56,-21.66a25.12,25.12 0 0 0 9.7,-10.13l0,0a24.13,24.13 0 0 0 1.07,-2.37c0,-0.07 0.07,-0.14 0.1,-0.22c0.3,-0.78 0.55,-1.59 0.78,-2.41l0.09,-0.32a24.49,24.49 0 0 0 0.49,-2.44c0,-0.07 0,-0.15 0,-0.22l0,0a24.9,24.9 0 0 0 0.26,-3.57l0,-43.28a25,25 0 0 0 -12.47,-21.7z" class="cls-14"/> <path id="svg_25" opacity="0.5" fill="url(#Degradado_sin_nombre_147)" d="m58.15,112.94184l37.56,21.65a25,25 0 0 0 21.37,1.69l0,0l0.27,-0.12c0.39,-0.15 0.78,-0.32 1.16,-0.49l0.55,-0.25c0.56,-0.27 1.11,-0.55 1.65,-0.87l0.25,-0.14l0,0l37.31,-21.51a24.93,24.93 0 0 0 6.89,-5.88l0,0l0.18,-0.24c0.31,-0.38 0.6,-0.78 0.88,-1.18l0.27,-0.38c0.36,-0.53 0.7,-1.07 1,-1.62c0.07,-0.12 0.13,-0.25 0.2,-0.38c0.25,-0.44 0.47,-0.89 0.69,-1.34c0.09,-0.19 0.17,-0.37 0.25,-0.56c0.2,-0.43 0.37,-0.87 0.54,-1.32c0.06,-0.17 0.13,-0.33 0.19,-0.5c0.21,-0.6 0.41,-1.21 0.57,-1.84a2.29,2.29 0 0 0 0.07,-0.28c0.14,-0.53 0.25,-1.07 0.35,-1.61c0,-0.2 0.07,-0.4 0.11,-0.61c0.07,-0.46 0.13,-0.93 0.18,-1.4l0.06,-0.59c0,-0.66 0.08,-1.31 0.08,-2l0,-43.19a25.06,25.06 0 0 0 -0.14,-2.61c0,-0.28 -0.08,-0.56 -0.12,-0.83c-0.08,-0.58 -0.17,-1.16 -0.29,-1.72c-0.07,-0.33 -0.15,-0.65 -0.23,-1c-0.13,-0.51 -0.27,-1 -0.43,-1.52c-0.11,-0.33 -0.22,-0.65 -0.34,-1c-0.18,-0.49 -0.37,-1 -0.58,-1.43c-0.07,-0.16 -0.12,-0.31 -0.18,-0.46l0,0l0,-0.06l0,0l0,0l-0.23,-0.43c-0.11,-0.23 -0.23,-0.46 -0.35,-0.69c-0.23,-0.43 -0.47,-0.86 -0.73,-1.28c-0.12,-0.2 -0.24,-0.4 -0.37,-0.6c-0.36,-0.56 -0.74,-1.1 -1.15,-1.63l-0.09,-0.13c-0.44,-0.56 -0.91,-1.1 -1.39,-1.62c-0.05,-0.05 -0.08,-0.11 -0.13,-0.15l0,0a24.53,24.53 0 0 0 -5.74,-4.54l-37.56,-21.65a25,25 0 0 0 -25,0l-37.58,21.65a25,25 0 0 0 -9.7,10.12l0,0a25.24,25.24 0 0 0 -1.07,2.37a2,2 0 0 0 -0.09,0.22a25.13,25.13 0 0 0 -0.79,2.41c0,0.11 -0.06,0.21 -0.09,0.32c-0.2,0.8 -0.36,1.62 -0.49,2.44c0,0.08 0,0.15 -0.05,0.22l0,0a25,25 0 0 0 -0.26,3.58l0,43.32a25,25 0 0 0 12.54,21.66z" class="cls-16"/> </g> <path id="svg_26" fill="#ffffff" d="m40.55,287.38184l-38.9,0l0,-57.5l6.74,0l0,50.33l-0.71,0.78l32.87,0l0,6.39z" class="cls-17"/> <path id="svg_27" fill="#ffffff" d="m69.3,287.38184l-6.75,0l0,-57.5l6.75,0l0,57.5z" class="cls-17"/> <path id="svg_28" fill="#ffffff" d="m118.48,288.09184c-9.22,0 -18.88,-3 -24.7,-9.37l5.33,-5c6.1,5.61 11.78,7.95 19.09,7.95c10.65,0 16.26,-4.05 16.26,-9.51c0,-3.91 -3.34,-7.53 -11.15,-9.59c-1.28,-0.35 -9.3,-2.48 -10.58,-2.84c-10.5,-2.91 -17.46,-6.67 -17.46,-15c0,-7.95 6.89,-15.55 22.5,-15.55c9.23,0 17,3.27 22,8.8l-5.11,4.9c-3.62,-4.33 -9.3,-7.31 -16.82,-7.31c-10.79,0 -15.62,4.19 -15.62,8.87c0,4.4 4.4,6.67 13.91,9.3c1.28,0.36 8,2.2 9.3,2.56c11.36,3 16,8.8 16,15.47c-0.02,8.01 -6.12,16.32 -22.95,16.32z" class="cls-17"/> <path id="svg_29" fill="#ffffff" d="m217.93,287.38184l-7.38,0l-6.11,-13.85l0.36,-0.71l-31.45,0l0.36,0.71l-6.11,13.85l-7.38,0l25.27,-57.5l7.17,0l25.27,57.5zm-16.18,-20.94l-0.71,-0.71l-10.15,-23.07l-1.74,-5.75l-0.14,0l-1.77,5.75l-10.09,23.07l-0.71,0.71l25.31,0z" class="cls-17"/> <path id="svg_30" fill="#ffffff" d="m8.76,303.12184l-0.61,1.28a6.14,6.14 0 0 0 -3.3,-1c-1.53,0 -2.54,0.58 -2.54,1.59c0,3.08 6.73,1.47 6.71,5.81c0,2 -1.76,3.28 -4.32,3.28a6.82,6.82 0 0 1 -4.55,-1.8l0.62,-1.23a5.94,5.94 0 0 0 4,1.7c1.72,0 2.8,-0.7 2.8,-1.85c0,-3.14 -6.72,-1.47 -6.72,-5.76c0,-1.88 1.66,-3.09 4.14,-3.09a7,7 0 0 1 3.77,1.07z" class="cls-17"/> <path id="svg_31" fill="#ffffff" d="m13.65,303.38184l0,3.9l6,0l0,1.31l-6,0l0,4.1l7,0l0,1.3l-8.37,0l0,-12l8.12,0l0,1.32l-6.75,0.07z" class="cls-17"/> <path id="svg_32" fill="#ffffff" d="m33.39,308.18184l0,4.34a7.4,7.4 0 0 1 -4.44,1.57a6,6 0 1 1 0.07,-12.06a6.79,6.79 0 0 1 4.41,1.64l-0.79,1a5.51,5.51 0 0 0 -3.62,-1.39a4.74,4.74 0 1 0 0,9.48a5.69,5.69 0 0 0 3.15,-1l0,-3.6l1.22,0.02z" class="cls-17"/> <path id="svg_33" fill="#ffffff" d="m46.91,309.10184c0,3.11 -1.88,5 -5,5s-5,-1.88 -5,-5l0,-7l1.37,0l0,7a3.38,3.38 0 0 0 3.67,3.67a3.35,3.35 0 0 0 3.64,-3.67l0,-7l1.37,0l-0.05,7z" class="cls-17"/> <path id="svg_34" fill="#ffffff" d="m56.04,310.21184q-0.39,0 -0.81,0l-3.17,0l0,3.78l-1.37,0l0,-12l4.54,0c3,0 4.72,1.47 4.72,4a3.74,3.74 0 0 1 -2.68,3.88l2.8,4.07l-1.55,0l-2.48,-3.73zm-0.81,-1.28c2.17,0 3.4,-1 3.4,-2.82s-1.23,-2.73 -3.4,-2.73l-3.17,0l0,5.55l3.17,0z" class="cls-17"/> <path id="svg_35" fill="#ffffff" d="m74.87,308.04184a6.27,6.27 0 1 1 -6.25,-6a6.12,6.12 0 0 1 6.25,6zm-11.14,0a4.87,4.87 0 1 0 4.89,-4.76a4.82,4.82 0 0 0 -4.89,4.76z" class="cls-17"/> <path id="svg_36" fill="#ffffff" d="m85.15,303.12184l-0.58,1.28a6.14,6.14 0 0 0 -3.3,-1c-1.53,0 -2.54,0.58 -2.54,1.59c0,3.08 6.73,1.47 6.71,5.81c0,2 -1.76,3.28 -4.32,3.28a6.82,6.82 0 0 1 -4.59,-1.8l0.62,-1.23a5.94,5.94 0 0 0 4,1.7c1.72,0 2.8,-0.7 2.8,-1.85c0,-3.14 -6.72,-1.47 -6.72,-5.76c0,-1.88 1.66,-3.09 4.14,-3.09a7,7 0 0 1 3.78,1.07z" class="cls-17"/> <path id="svg_37" fill="#ffffff" d="m93.77,314.02184l0,-12l1.38,0l0,12l-1.38,0z" class="cls-17"/> <path id="svg_38" fill="#ffffff" d="m107.74,314.02184l-7.18,-9.6l0,9.6l-1.41,0l0,-12l1.42,0l7.18,9.62l0,-9.62l1.4,0l0,12l-1.41,0z" class="cls-17"/> <path id="svg_39" fill="#ffffff" d="m116.85,303.38184l0,10.64l-1.37,0l0,-10.64l-3.9,0l0,-1.32l9.18,0l0,1.32l-3.91,0z" class="cls-17"/> <path id="svg_40" fill="#ffffff" d="m124.54,303.38184l0,3.9l6,0l0,1.31l-6,0l0,4.1l7,0l0,1.3l-8.39,0l0,-12l8.12,0l0,1.32l-6.73,0.07z" class="cls-17"/> <path id="svg_41" fill="#ffffff" d="m141.34,312.72184l0,1.3l-6.62,0l0,-12l1.37,0l0,10.66l5.25,0.04z" class="cls-17"/> <path id="svg_42" fill="#ffffff" d="m143.99,314.02184l0,-12l1.36,0l0,12l-1.36,0z" class="cls-17"/> <path id="svg_43" fill="#ffffff" d="m158.96,308.18184l0,4.34a7.4,7.4 0 0 1 -4.44,1.57a6,6 0 1 1 0.06,-12.06a6.75,6.75 0 0 1 4.41,1.64l-0.78,1a5.52,5.52 0 0 0 -3.63,-1.38a4.74,4.74 0 1 0 0,9.48a5.63,5.63 0 0 0 3.14,-1l0,-3.6l1.24,0.01z" class="cls-17"/> <path id="svg_44" fill="#ffffff" d="m164.07,303.38184l0,3.9l6,0l0,1.31l-6,0l0,4.1l7,0l0,1.3l-8.34,0l0,-12l8.12,0l0,1.32l-6.78,0.07z" class="cls-17"/> <path id="svg_45" fill="#ffffff" d="m182.8,314.02184l-7.18,-9.6l0,9.6l-1.36,0l0,-12l1.41,0l7.18,9.62l0,-9.62l1.35,0l0,12l-1.4,0z" class="cls-17"/> <path id="svg_46" fill="#ffffff" d="m191.91,303.38184l0,10.64l-1.37,0l0,-10.64l-3.89,0l0,-1.32l9.17,0l0,1.32l-3.91,0z" class="cls-17"/> <path id="svg_47" fill="#ffffff" d="m199.6,303.38184l0,3.9l6,0l0,1.31l-6,0l0,4.1l7,0l0,1.3l-8.34,0l0,-12l8.12,0l0,1.32l-6.78,0.07z" class="cls-17"/> <path id="svg_48" fill="#ffffff" d="m217.15,303.12184l-0.58,1.28a6.19,6.19 0 0 0 -3.3,-1c-1.54,0 -2.55,0.58 -2.55,1.59c0,3.08 6.73,1.47 6.72,5.81c0,2 -1.76,3.28 -4.33,3.28a6.82,6.82 0 0 1 -4.58,-1.83l0.62,-1.23a5.94,5.94 0 0 0 4,1.7c1.73,0 2.8,-0.7 2.8,-1.85c0,-3.14 -6.71,-1.47 -6.71,-5.76c0,-1.88 1.65,-3.09 4.13,-3.09a7,7 0 0 1 3.78,1.1z" class="cls-17"/> </g> </g> </g> </svg>