<?xml version="1.0" encoding="UTF-8" standalone="no"?>
<svg
   xmlns:dc="http://purl.org/dc/elements/1.1/"
   xmlns:cc="http://creativecommons.org/ns#"
   xmlns:rdf="http://www.w3.org/1999/02/22-rdf-syntax-ns#"
   xmlns:svg="http://www.w3.org/2000/svg"
   xmlns="http://www.w3.org/2000/svg"
   xmlns:sodipodi="http://sodipodi.sourceforge.net/DTD/sodipodi-0.dtd"
   xmlns:inkscape="http://www.inkscape.org/namespaces/inkscape"
   version="1.1"
   id="Layer_1"
   x="0px"
   y="0px"
   viewBox="0 0 491.1 448.5"
   style="enable-background:new 0 0 491.1 448.5;"
   xml:space="preserve"
   sodipodi:docname="opcA.svg"
   inkscape:version="1.0.2-2 (e86c870879, 2021-01-15)"><metadata
   id="metadata29"><rdf:RDF><cc:Work
       rdf:about=""><dc:format>image/svg+xml</dc:format><dc:type
         rdf:resource="http://purl.org/dc/dcmitype/StillImage" /></cc:Work></rdf:RDF></metadata><defs
   id="defs27" /><sodipodi:namedview
   pagecolor="#ffffff"
   bordercolor="#666666"
   borderopacity="1"
   objecttolerance="10"
   gridtolerance="10"
   guidetolerance="10"
   inkscape:pageopacity="0"
   inkscape:pageshadow="2"
   inkscape:window-width="1632"
   inkscape:window-height="799"
   id="namedview25"
   showgrid="false"
   inkscape:zoom="0.49609811"
   inkscape:cx="160.12821"
   inkscape:cy="28.848395"
   inkscape:window-x="62"
   inkscape:window-y="0"
   inkscape:window-maximized="0"
   inkscape:current-layer="Layer_1" />
<style
   type="text/css"
   id="style2">
	.st0{fill:#474747;}
</style>


<circle
   style="opacity:0.2;fill:#800080;stroke:#fe791d;stroke-width:0.693647;stop-color:#000000"
   id="path879"
   cx="245.55"
   cy="224.25"
   r="219.71779" /><g
   id="g877"
   transform="matrix(0.73317372,0,0,0.73317372,59.54106,63.921974)"
   style="fill:#800080"><g
     id="g18"
     style="fill:#800080">
	<path
   class="st0"
   d="m 425.2,448.5 c -4.1,0 -7.5,-3.4 -7.5,-7.5 V 213 c 0,-1.7 0.6,-3.3 1.6,-4.6 L 475,137.7 431,28.7 368.2,17.2 392.8,85.3 c 0.8,2.3 0.5,4.9 -0.9,6.9 l -26.2,37.2 c -1.7,2.4 -4.7,3.6 -7.7,3 l -46.5,-9.7 c -2.5,-0.5 -4.5,-2.2 -5.4,-4.5 L 279.5,52 l -35.9,48.8 27.6,66.8 c 1.6,3.8 -0.2,8.2 -4.1,9.8 -3.8,1.6 -8.2,-0.2 -9.8,-4.1 l -29.2,-70.8 c -1,-2.4 -0.7,-5.2 0.9,-7.3 l 46.4,-63.1 c 1.6,-2.2 4.3,-3.3 7,-3 2.7,0.3 5,2.1 6,4.6 l 30.1,74.9 37.8,7.9 21.1,-30 -27.8,-76.7 c -0.9,-2.5 -0.4,-5.3 1.3,-7.4 1.7,-2.1 4.4,-3 7.1,-2.5 l 79.7,14.6 c 2.5,0.5 4.6,2.2 5.6,4.6 l 47.2,116.8 c 1,2.5 0.6,5.3 -1.1,7.5 l -56.8,72.1 V 441 c 0.1,4.1 -3.3,7.5 -7.4,7.5 z"
   id="path4"
   style="fill:#800080" />
	<path
   class="st0"
   d="m 285.9,448.5 c -4.1,0 -7.5,-3.4 -7.5,-7.5 V 327.6 c 0,-42 -15.5,-77.4 -43.7,-99.7 -0.2,-0.2 -0.4,-0.3 -0.6,-0.5 -7.5,-7.3 -11,-17.8 -9.3,-28.2 1.7,-10.3 8.4,-19.2 17.9,-23.6 l 42.1,-19.8 c 3.8,-1.8 8.2,-0.1 10,3.6 1.8,3.7 0.1,8.2 -3.6,10 l -42,19.6 c -5.1,2.4 -8.6,7 -9.5,12.5 -0.9,5.5 0.8,10.8 4.7,14.7 31.6,25.3 49,64.8 49,111.2 V 441 c 0,4.1 -3.4,7.5 -7.5,7.5 z"
   id="path6"
   style="fill:#800080" />
	<path
   class="st0"
   d="m 302.8,267.9 c -0.8,0 -1.7,-0.1 -2.5,-0.4 -1.9,-0.7 -3.4,-2.1 -4.3,-3.9 l -25.8,-54.9 c -1.7,-3.7 -0.2,-8.1 3.5,-9.9 l 82.8,-40.7 c 1.8,-0.9 3.9,-1 5.8,-0.3 1.9,0.7 3.4,2.1 4.3,3.9 l 25.8,54.9 c 1.7,3.7 0.2,8.1 -3.5,9.9 l -82.8,40.7 c -1,0.4 -2.2,0.7 -3.3,0.7 z m -15.9,-58.9 19.4,41.3 69.3,-34.1 -19.4,-41.3 z"
   id="path8"
   style="fill:#800080" />
	<path
   class="st0"
   d="m 329.7,250.8 c -2.8,0 -5.5,-1.6 -6.8,-4.2 l -14.6,-30.3 c -1.8,-3.7 -0.2,-8.2 3.5,-10 3.7,-1.8 8.2,-0.2 10,3.5 l 14.6,30.3 c 1.8,3.7 0.2,8.2 -3.5,10 -1,0.5 -2.1,0.7 -3.2,0.7 z"
   id="path10"
   style="fill:#800080" />
	<path
   class="st0"
   d="m 356.7,238.5 c -2.8,0 -5.5,-1.6 -6.8,-4.2 L 335.3,204 c -1.8,-3.7 -0.2,-8.2 3.5,-10 3.7,-1.8 8.2,-0.2 10,3.5 l 14.6,30.3 c 1.8,3.7 0.2,8.2 -3.5,10 -1,0.5 -2.1,0.7 -3.2,0.7 z"
   id="path12"
   style="fill:#800080" />
	<path
   class="st0"
   d="m 342.1,448.5 c -4.1,0 -7.5,-3.4 -7.5,-7.5 v -85.9 c 0,-21.1 -3.9,-41.7 -11.6,-61.3 l -0.2,-0.6 c -1.5,-3.9 0.4,-8.2 4.2,-9.7 3.9,-1.5 8.2,0.4 9.7,4.2 l 0.2,0.6 c 8.4,21.4 12.7,43.8 12.7,66.8 V 441 c 0,4.1 -3.4,7.5 -7.5,7.5 z"
   id="path14"
   style="fill:#800080" />
	<path
   class="st0"
   d="m 369,448.5 c -4.1,0 -7.5,-3.4 -7.5,-7.5 v -85.9 c 0,-23 4.3,-45.4 12.7,-66.8 l 0.2,-0.6 c 1.5,-3.9 5.9,-5.8 9.7,-4.2 3.9,1.5 5.8,5.9 4.2,9.7 l -0.2,0.6 c -7.7,19.6 -11.6,40.3 -11.6,61.3 V 441 c 0,4.1 -3.3,7.5 -7.5,7.5 z"
   id="path16"
   style="fill:#800080" />
</g><path
     class="st0"
     d="m 209.4,411 h -23.3 c -19.5,0 -35.3,-15.8 -35.3,-35.3 0,-10 -6.5,-16.3 -12.5,-18.8 -6.1,-2.5 -15.1,-2.7 -22.1,4.4 -6.7,6.7 -15.5,10.3 -25,10.3 -9.4,0 -18.3,-3.7 -25,-10.3 L 49.7,344.8 c -6.7,-6.7 -10.3,-15.5 -10.3,-25 0,-9.4 3.7,-18.3 10.3,-25 7.1,-7.1 6.9,-16.1 4.4,-22.1 C 51.6,266.6 45.3,260.2 35.3,260.2 15.8,260.2 0,244.4 0,224.9 v -23.3 c 0,-19.5 15.8,-35.3 35.3,-35.3 10,0 16.3,-6.5 18.8,-12.5 2.5,-6.1 2.7,-15.1 -4.4,-22.1 -6.7,-6.7 -10.3,-15.5 -10.3,-25 0,-9.4 3.7,-18.3 10.3,-25 L 66.2,65.2 c 6.7,-6.7 15.5,-10.3 25,-10.3 9.4,0 18.3,3.7 25,10.3 7.1,7.1 16.1,6.9 22.1,4.4 6.1,-2.5 12.5,-8.8 12.5,-18.8 0,-19.5 15.8,-35.3 35.3,-35.3 h 23.3 c 19.5,0 35.3,15.8 35.3,35.3 0,4.1 -3.4,7.5 -7.5,7.5 -4.1,0 -7.5,-3.4 -7.5,-7.5 0,-11.2 -9.1,-20.3 -20.3,-20.3 h -23.3 c -11.2,0 -20.3,9.1 -20.3,20.3 0,14.6 -8.4,27.1 -21.8,32.6 -13.4,5.6 -28.2,2.6 -38.5,-7.7 -3.8,-3.8 -8.9,-5.9 -14.4,-5.9 -5.4,0 -10.5,2.1 -14.4,5.9 L 60.3,92.3 c -3.8,3.8 -5.9,8.9 -5.9,14.4 0,5.4 2.1,10.5 5.9,14.4 10.3,10.3 13.2,25 7.7,38.5 -5.6,13.4 -18.1,21.8 -32.6,21.8 -11.2,0 -20.3,9.1 -20.3,20.3 V 225 c 0,11.2 9.1,20.3 20.3,20.3 14.6,0 27.1,8.4 32.6,21.8 5.6,13.4 2.6,28.2 -7.7,38.5 -3.8,3.8 -5.9,8.9 -5.9,14.4 0,5.5 2.1,10.5 5.9,14.4 l 16.5,16.5 c 3.8,3.8 8.9,5.9 14.4,5.9 5.4,0 10.5,-2.1 14.4,-5.9 10.3,-10.3 25,-13.2 38.5,-7.7 13.4,5.6 21.8,18.1 21.8,32.6 0,11.2 9.1,20.3 20.3,20.3 h 23.3 c 11.2,0 20.3,-9.1 20.3,-20.3 0,-13.9 7.8,-26.1 20.3,-32 3.8,-1.8 8.2,-0.1 10,3.6 1.8,3.8 0.1,8.2 -3.6,10 -7.3,3.4 -11.7,10.3 -11.7,18.4 -0.1,19.4 -15.9,35.2 -35.4,35.2 z"
     id="path20"
     style="fill:#800080" /><path
     class="st0"
     d="m 197.8,292.7 c -44.1,0 -79.9,-35.8 -79.9,-79.9 0,-44.1 35.8,-79.9 79.9,-79.9 9.4,0 18.6,1.6 27.3,4.8 3.9,1.4 5.9,5.7 4.5,9.6 -1.4,3.9 -5.7,5.9 -9.6,4.5 -7.1,-2.6 -14.6,-3.9 -22.2,-3.9 -35.8,0 -64.9,29.1 -64.9,64.9 0,35.8 29.1,64.9 64.9,64.9 13.6,0 26.6,-4.1 37.6,-12 3.4,-2.4 8.1,-1.6 10.5,1.8 2.4,3.4 1.6,8.1 -1.8,10.5 -13.7,9.6 -29.7,14.7 -46.3,14.7 z"
     id="path22"
     style="fill:#800080" /></g>
</svg>
