<svg xmlns="http://www.w3.org/2000/svg" fill="none" viewBox="-0.5 -0.5 24 24"><path fill="#66e1ff" d="M11.5 22.519c6.086 0 11.02-4.935 11.02-11.02S17.587.476 11.5.476.48 5.412.48 11.498s4.934 11.02 11.02 11.02z"/><path fill="#c2f3ff" d="M3.799 14.375a11.02 11.02 0 0116.43-9.603A11.02 11.02 0 106.09 21.102a10.97 10.97 0 01-2.29-6.727z"/><path stroke="#191919" stroke-linecap="round" stroke-linejoin="round" d="M1.82 16.781l7.763-.01M2.407 5.281H20.6M10.063 11.02l-9.573.011M10.904 22.52a11.02 11.02 0 1111.46-12.93M10.8.515c-5.75 6.229-5.646 14.334.104 22.001M12.2.515a15.571 15.571 0 014 7.63"/><path fill="#e3e3e3" stroke="#191919" stroke-linecap="round" stroke-linejoin="round" d="M21.24 16.947a.92.92 0 010-1.246l.947-1.02a1.23 1.23 0 00-1.17-2.038l-1.352.314a.91.91 0 01-1.078-.626l-.406-1.334a1.222 1.222 0 00-2.34 0l-.407 1.334a.91.91 0 01-1.077.626l-1.353-.314a1.23 1.23 0 00-1.17 2.038l.946 1.02a.92.92 0 010 1.246l-.946 1.02a1.23 1.23 0 001.17 2.038l1.353-.314a.912.912 0 011.077.626l.406 1.334a1.222 1.222 0 002.34 0l.412-1.334a.912.912 0 011.078-.626l1.352.314a1.23 1.23 0 001.17-2.037l-.952-1.02zm-4.23.752a1.378 1.378 0 110-2.756 1.378 1.378 0 010 2.756z"/><path fill="#e3e3e3" d="M21.239 16.947a.92.92 0 010-1.246l.945-1.02a1.23 1.23 0 00-1.17-2.038l-1.352.314a.911.911 0 01-1.078-.625l-.406-1.334a1.222 1.222 0 00-2.34 0l-.409 1.332a.91.91 0 01-1.077.625L13 12.64a1.23 1.23 0 00-1.166 2.045l.946 1.02a.92.92 0 010 1.246l-.946 1.02a1.23 1.23 0 001.17 2.038l1.353-.313a.91.91 0 011.077.624l.402 1.33a1.222 1.222 0 002.34 0l.406-1.334a.913.913 0 011.078-.625l1.352.313a1.23 1.23 0 001.17-2.037l-.943-1.02zm-4.231.754a1.377 1.377 0 110-2.755 1.377 1.377 0 010 2.755z"/><path fill="#fff" d="M15.63 16.324a1.373 1.373 0 012.312-1.006l2.555-2.555-.835.192a.91.91 0 01-1.078-.625l-.406-1.334a1.222 1.222 0 00-2.34 0l-.409 1.334a.91.91 0 01-1.077.625L13 12.64a1.23 1.23 0 00-1.166 2.044l.946 1.021a.92.92 0 010 1.246l-.946 1.02a1.23 1.23 0 001.17 2.038l.317-.077 2.683-2.674a1.368 1.368 0 01-.374-.935z"/><path stroke="#191919" stroke-linecap="round" stroke-linejoin="round" d="M21.239 16.947a.92.92 0 010-1.246l.945-1.02a1.23 1.23 0 00-1.17-2.038l-1.352.314a.911.911 0 01-1.078-.625l-.406-1.334a1.222 1.222 0 00-2.34 0l-.409 1.332a.91.91 0 01-1.077.625L13 12.64a1.23 1.23 0 00-1.166 2.045l.946 1.02a.92.92 0 010 1.246l-.946 1.02a1.23 1.23 0 001.17 2.038l1.353-.313a.91.91 0 011.077.624l.402 1.33a1.222 1.222 0 002.34 0l.406-1.334a.913.913 0 011.078-.625l1.352.313a1.23 1.23 0 001.17-2.037l-.943-1.02zm-4.231.754a1.377 1.377 0 110-2.755 1.377 1.377 0 010 2.755z"/></svg>