<svg xmlns="http://www.w3.org/2000/svg" fill="none" viewBox="-0.5 -0.5 24 24"><path fill="gray" d="M17.25 6.23v1.916a5.908 5.908 0 01-.182 1.437h-.01c-1.245.02-3.469.192-5.203-1.533a.508.508 0 00-.71 0C9.411 9.775 7.188 9.602 5.942 9.583h-.01a5.907 5.907 0 01-.182-1.437V6.229c0-.32.029-.642.086-.958h11.328a5.4 5.4 0 01.086.958z"/><path fill="#ffdda1" d="M17.058 9.583a5.737 5.737 0 01-11.116 0c1.245.02 3.469.192 5.203-1.533a.508.508 0 01.71 0c1.734 1.725 3.957 1.553 5.203 1.533zm.106-4.313H5.836a5.743 5.743 0 0111.328 0z"/><path fill="gray" d="M22.042 19.54v2.98H.958v-2.98a1.907 1.907 0 01.738-1.514 14.222 14.222 0 016.929-2.52v.306a6.087 6.087 0 002.875.959 6.073 6.073 0 002.875-.959v-.306a14.222 14.222 0 016.929 2.52 1.907 1.907 0 01.738 1.514z"/><path fill="#ff808c" d="M14.375 13.13v2.682a6.076 6.076 0 01-2.875.959 6.076 6.076 0 01-2.875-.959V13.13a5.775 5.775 0 005.75 0z"/><path fill="#ffdda1" d="M11.5 2.918a5.72 5.72 0 014.613 2.353h1.055a5.743 5.743 0 00-11.328 0h1.054A5.72 5.72 0 0111.5 2.918z"/><path fill="#b2b2b2" d="M21.304 18.026a14.222 14.222 0 00-6.929-2.52v.306a6.087 6.087 0 01-2.875.959 6.074 6.074 0 01-2.875-.959v-.306a14.222 14.222 0 00-6.929 2.52 1.908 1.908 0 00-.738 1.514v2.48a1.908 1.908 0 01.738-1.512 14.234 14.234 0 016.929-2.523h5.75a14.225 14.225 0 016.929 2.523 1.909 1.909 0 01.738 1.512v-2.48a1.907 1.907 0 00-.738-1.514z"/><path stroke="#191919" stroke-linecap="round" stroke-linejoin="round" d="M12.938 11.02a2.396 2.396 0 00-2.876 0m7.188-4.79a5.75 5.75 0 10-11.5 0v1.916a5.75 5.75 0 1011.5 0V6.229z"/><path stroke="#191919" stroke-linecap="round" stroke-linejoin="round" d="M17.067 9.583c-1.246.021-3.479.192-5.215-1.533a.492.492 0 00-.704 0C9.412 9.775 7.175 9.606 5.933 9.583M5.83 5.27h11.34m4.872 17.25v-2.976a1.897 1.897 0 00-.738-1.514 14.16 14.16 0 00-6.929-2.526m-5.75 0a14.16 14.16 0 00-6.929 2.526 1.897 1.897 0 00-.738 1.514v2.977m7.667-9.391v2.682a6.076 6.076 0 002.875.959 6.076 6.076 0 002.875-.959V13.13m-3.833 3.515v-2.829m1.916 2.829v-2.829M9.583 2.875V.807m3.834 2.068V.807M11.5 2.396V.479M8.146 7.188h.958m5.75 0h-.958"/></svg>