<svg xmlns="http://www.w3.org/2000/svg" fill="none" viewBox="-0.5 -0.5 25 25"><path fill="#66e1ff" d="M22.601 16.791a.96.96 0 01-.96.96h-10.56l-3.84 3.84v-3.84h-5.76a.96.96 0 01-.96-.96v-14.4a.96.96 0 01.96-.96h20.16a.96.96 0 01.96.96v14.4z"/><path fill="#c2f3ff" d="M21.129 1.431H1.48a.96.96 0 00-.96.96v14.4a.96.96 0 00.96.96h3.33l16.32-16.32z"/><path stroke="#191919" stroke-linecap="round" stroke-linejoin="round" d="M22.601 16.791a.96.96 0 01-.96.96h-10.56l-3.84 3.84v-3.84h-5.76a.96.96 0 01-.96-.96v-14.4a.96.96 0 01.96-.96h20.16a.96.96 0 01.96.96v14.4z"/><path fill="#ff808c" d="M11.561 13.431L7.584 9.286a2.351 2.351 0 01-.44-2.714 2.351 2.351 0 013.764-.61l.65.648.648-.648a2.352 2.352 0 013.766.61 2.352 2.352 0 01-.44 2.714l-3.97 4.145z"/><path fill="#ffbfc5" d="M15.976 6.572a2.352 2.352 0 00-3.766-.61l-.649.649-.649-.65A2.345 2.345 0 006.976 8.21a6.24 6.24 0 009.228-.374 2.35 2.35 0 00-.228-1.264z"/><path stroke="#191919" stroke-linecap="round" stroke-linejoin="round" d="M11.561 13.431L7.584 9.286a2.351 2.351 0 01-.44-2.714v0a2.351 2.351 0 013.764-.61l.65.648.648-.648a2.352 2.352 0 013.766.61v0a2.352 2.352 0 01-.44 2.714l-3.97 4.145z"/></svg>