<svg xmlns="http://www.w3.org/2000/svg" fill="none" viewBox="0 0 30 30"><path fill="#ffdda1" d="M8.92 22.52v-1.916H7.004c-.297 0-.59-.046-.873-.134-1.966-.182-1.819-2.257-2.003-5.137v-.479H1.917a.48.48 0 01-.455-.627C3.29 8.557 4.607 2.463 10.837 1.552l2.875-.038c4.662.585 8.625 4.512 8.625 9.27a9.322 9.322 0 01-3.834 7.533v4.204H8.92z"/><path fill="#ffdda1" d="M10.665 5.315l3.345-.044a11.825 11.825 0 018.32 5.165c-.192-4.6-4.07-8.352-8.618-8.922l-2.875.038c-6.23.91-7.547 7.006-9.377 12.673a.48.48 0 00.054.406c1.648-4.615 3.902-8.548 9.151-9.315z"/><path fill="#e3e3e3" d="M13.683 8.384a4.313 4.313 0 11-2.816 0"/><path stroke="#191919" stroke-linecap="round" stroke-linejoin="round" d="M13.683 8.384a4.313 4.313 0 11-2.816 0m2.845-6.87c4.662.585 8.625 4.512 8.625 9.27a9.32 9.32 0 01-3.834 7.533v4.204M4.128 15.333v-.479H1.917a.48.48 0 01-.455-.627C3.29 8.557 4.607 2.463 10.837 1.552M8.92 22.52v-1.916H7.004c-.297 0-.59-.045-.873-.134"/><path fill="#78eb7b" stroke="#191919" stroke-linecap="round" stroke-linejoin="round" d="M10.837 1.438a.958.958 0 01.958-.959h.959a.958.958 0 01.958.959v6.708a.958.958 0 01-.958.958h-.959a.958.958 0 01-.958-.958V1.437z"/><path fill="gray" stroke="#191919" stroke-linecap="round" stroke-linejoin="round" d="M12.274 13.896a1.438 1.438 0 100-2.875 1.438 1.438 0 000 2.875z"/><path fill="#6b6b6b" stroke="#191919" stroke-linecap="round" stroke-linejoin="round" d="M2.212 18.447A1.198 1.198 0 013.41 17.25h.479a1.198 1.198 0 011.198 1.198v0a1.198 1.198 0 01-1.198 1.198h-.48a1.198 1.198 0 01-1.197-1.198v-.001z"/><path stroke="#191919" stroke-linecap="round" stroke-linejoin="round" d="M11.838 13.828c-1.65 2.641-4.434 4.62-6.751 4.62"/></svg>