<svg xmlns="http://www.w3.org/2000/svg" fill="none" viewBox="0 0 30 30"><path fill="#c77f67" d="M20.604 5.27H2.396A1.917 1.917 0 00.479 7.189v11.5a1.917 1.917 0 001.917 1.916h18.208a1.917 1.917 0 001.917-1.916v-11.5a1.917 1.917 0 00-1.917-1.917z"/><path fill="#e3bfb3" d="M22.52 8.146v-.959a1.922 1.922 0 00-1.916-1.916H2.396A1.922 1.922 0 00.479 7.188v.958h22.042z"/><path stroke="#191919" stroke-linecap="round" stroke-linejoin="round" d="M20.604 5.27H2.396A1.917 1.917 0 00.479 7.189v11.5a1.917 1.917 0 001.917 1.916h18.208a1.917 1.917 0 001.917-1.916v-11.5a1.917 1.917 0 00-1.917-1.917z"/><path stroke="#191919" stroke-linecap="round" stroke-linejoin="round" d="M8.146 5.27V3.834a1.438 1.438 0 011.437-1.437h3.834a1.438 1.438 0 011.437 1.437v1.438"/><path fill="#ffef5e" stroke="#191919" stroke-linecap="round" stroke-linejoin="round" d="M14.375 10.542a2.875 2.875 0 00-2.492 1.437H6.23l-1.437 1.438 1.437 1.437h5.654a2.875 2.875 0 102.492-4.312v0z"/><path stroke="#191919" stroke-linecap="round" stroke-linejoin="round" d="M14.375 12.938a.48.48 0 110 .958.48.48 0 010-.959z"/></svg>