<svg xmlns="http://www.w3.org/2000/svg" fill="none" viewBox="0 0 30 30"><path fill="#ffbfc5" d="M15.224 8.673a10.753 10.753 0 00-7.053-.527 6.178 6.178 0 00-2.24-1.687.48.48 0 00-.66.441v2.77a6.433 6.433 0 00-2.086 2.31H1.917a.48.48 0 00-.48.478v2.875a.48.48 0 00.48.48h1.269a5.558 5.558 0 002.351 3.263l-.729 1.766a1.213 1.213 0 00.828 1.601 1.45 1.45 0 001.795-.739l.637-1.544a10.97 10.97 0 006.064-.116l.686 1.66a1.45 1.45 0 001.795.74 1.213 1.213 0 00.828-1.602l-.828-2.006a5.632 5.632 0 002.65-4.542 6.378 6.378 0 00-4.039-5.621z"/><path fill="#ff808c" d="M19.263 14.294a5.443 5.443 0 00-.557-2.34c-.817 3.501-4.6 6.15-9.15 6.15a10.565 10.565 0 01-6.238-1.957 5.385 5.385 0 002.218 2.929l-.729 1.766a1.213 1.213 0 00.828 1.601 1.45 1.45 0 001.795-.739l.637-1.544a10.97 10.97 0 006.064-.116l.686 1.66a1.45 1.45 0 001.795.74 1.213 1.213 0 00.828-1.602l-.828-2.006a5.631 5.631 0 002.65-4.542z"/><path stroke="#191919" stroke-linecap="round" stroke-linejoin="round" d="M10.624 7.792c-.828.029-1.65.148-2.453.354a6.178 6.178 0 00-2.24-1.687.48.48 0 00-.66.441v2.77a6.433 6.433 0 00-2.085 2.31h-1.27a.48.48 0 00-.478.478v2.875a.48.48 0 00.479.48h1.269a5.558 5.558 0 002.351 3.263l-.729 1.766a1.213 1.213 0 00.828 1.601 1.45 1.45 0 001.795-.739l.637-1.544a10.97 10.97 0 006.064-.116l.686 1.66a1.45 1.45 0 001.795.74 1.213 1.213 0 00.828-1.602l-.828-2.006a5.632 5.632 0 002.65-4.542 5.455 5.455 0 00-.592-2.436m.592 3.082c1.533 0 2.3-.767 2.3-1.917M7.427 11.5a.24.24 0 01.24.24m-.479 0a.24.24 0 01.24-.24m-.001.48a.24.24 0 01-.24-.24m.48 0a.24.24 0 01-.24.24"/><path fill="#ff808c" d="M16.158 10.18a.478.478 0 01-.691 0l-4.555-4.75a2.899 2.899 0 01-.544-3.347 2.9 2.9 0 014.644-.753l.8.8.8-.8a2.9 2.9 0 014.645.753 2.899 2.899 0 01-.544 3.347l-4.555 4.751z"/><path fill="#ffbfc5" d="M16.613 1.33l-.8.8-.8-.8a2.896 2.896 0 00-4.658 3.308 12.255 12.255 0 005.462 1.221c1.89.02 3.757-.398 5.458-1.22a2.896 2.896 0 00-4.658-3.31h-.004z"/><path stroke="#191919" stroke-linecap="round" stroke-linejoin="round" d="M16.158 10.18a.478.478 0 01-.691 0l-4.555-4.75a2.899 2.899 0 01-.544-3.347v0a2.9 2.9 0 014.644-.753l.8.8.8-.8a2.9 2.9 0 014.645.753v0a2.899 2.899 0 01-.544 3.347l-4.555 4.751z"/></svg>