<svg xmlns="http://www.w3.org/2000/svg" fill="none" viewBox="0 0 26 26"><path fill="#78eb7b" d="M21.563.478H1.438a.958.958 0 00-.959.959v20.125a.958.958 0 00.959.958h20.125a.958.958 0 00.958-.958V1.437a.958.958 0 00-.959-.959z"/><path fill="#c9f7ca" d="M22.52 4.313V1.438a.958.958 0 00-.957-.959H1.438a.958.958 0 00-.959.959v2.875h22.042z"/><path stroke="#191919" stroke-linecap="round" stroke-linejoin="round" d="M21.563.478H1.438a.958.958 0 00-.959.959v20.125a.958.958 0 00.959.958h20.125a.958.958 0 00.958-.958V1.437a.958.958 0 00-.959-.959z"/><path stroke="#191919" stroke-linecap="round" stroke-linejoin="round" d="M17.25 6.707l-6.708 9.105-4.792-3.834"/></svg>