<svg xmlns="http://www.w3.org/2000/svg" fill="none" viewBox="0 0 30 30"><path fill="#66e1ff" d="M19.646 11.02V1.439a.958.958 0 00-.958-.959H1.438a.958.958 0 00-.959.959v9.583h19.167z"/><path fill="#c2f3ff" d="M15.813.48H1.437a.958.958 0 00-.958.958v9.583h4.792L15.813.479z"/><path fill="#fff" d="M.48 11.02v1.918a.958.958 0 00.958.958h17.25a.958.958 0 00.958-.959v-1.916H.479z"/><path fill="#b2b2b2" d="M12.938 16.77a1.438 1.438 0 01-1.438-1.437v-1.437H8.146v1.437a1.438 1.438 0 01-1.438 1.438h6.23z"/><path stroke="#191919" stroke-linecap="round" stroke-linejoin="round" d="M5.27 16.77h4.793M.479 11.02h10.542m-2.875 2.876v1.437a1.438 1.438 0 01-1.438 1.438"/><path stroke="#191919" stroke-linecap="round" stroke-linejoin="round" d="M19.646 9.104V1.438a.958.958 0 00-.958-.959H1.438a.958.958 0 00-.959.959v11.5a.958.958 0 00.959.958h7.666"/><path fill="#e3e3e3" d="M21.242 16.945a.918.918 0 010-1.246l.945-1.02a1.23 1.23 0 00-1.17-2.038l-1.351.314a.912.912 0 01-1.078-.625l-.406-1.334a1.223 1.223 0 00-2.342 0l-.405 1.334a.912.912 0 01-1.077.625l-1.353-.314a1.23 1.23 0 00-1.165 2.044l.945 1.021a.918.918 0 010 1.246l-.945 1.02a1.23 1.23 0 001.17 2.038l1.352-.313a.91.91 0 011.077.624l.401 1.33a1.223 1.223 0 002.342 0l.41-1.334a.911.911 0 011.078-.625l1.351.313a1.23 1.23 0 001.17-2.037l-.949-1.023zm-4.232.754a1.377 1.377 0 110-2.754 1.377 1.377 0 010 2.754z"/><path fill="#fff" d="M15.633 16.322a1.373 1.373 0 012.312-1.006l2.555-2.555-.834.192a.912.912 0 01-1.078-.625l-.406-1.334a1.223 1.223 0 00-2.342 0l-.405 1.334a.912.912 0 01-1.077.625l-1.353-.314a1.23 1.23 0 00-1.165 2.045l.945 1.02a.918.918 0 010 1.246l-.945 1.02a1.23 1.23 0 001.17 2.038l.317-.074 2.677-2.677a1.37 1.37 0 01-.37-.935z"/><path stroke="#191919" stroke-linecap="round" stroke-linejoin="round" d="M21.242 16.945a.918.918 0 010-1.246l.945-1.02a1.23 1.23 0 00-1.17-2.038l-1.351.314a.912.912 0 01-1.078-.625l-.406-1.334a1.223 1.223 0 00-2.342 0l-.405 1.334a.912.912 0 01-1.077.625l-1.353-.314a1.23 1.23 0 00-1.165 2.044l.945 1.021a.918.918 0 010 1.246l-.945 1.02a1.23 1.23 0 001.17 2.038l1.352-.313a.91.91 0 011.077.624l.401 1.33a1.223 1.223 0 002.342 0l.41-1.334a.911.911 0 011.078-.625l1.351.313a1.23 1.23 0 001.17-2.037l-.949-1.023zm-4.232.754a1.377 1.377 0 110-2.754 1.377 1.377 0 010 2.754v0z"/></svg>