<svg xmlns="http://www.w3.org/2000/svg" fill="none" viewBox="0 0 30 30"><path fill="#ff808c" d="M11.5 22.52c6.086 0 11.02-4.934 11.02-11.02S17.587.48 11.5.48.48 5.413.48 11.5 5.413 22.52 11.5 22.52z"/><path fill="#ffbfc5" d="M3.707 19.293A11.02 11.02 0 0119.293 3.707L3.707 19.293z"/><path stroke="#191919" stroke-linecap="round" stroke-linejoin="round" d="M11.5 22.52c6.086 0 11.02-4.934 11.02-11.02S17.587.48 11.5.48.48 5.413.48 11.5 5.413 22.52 11.5 22.52z"/><path fill="#66e1ff" d="M11.5 19.646a8.146 8.146 0 100-16.292 8.146 8.146 0 000 16.292z"/><path fill="#c2f3ff" d="M5.74 17.26A8.146 8.146 0 0117.26 5.74L5.74 17.26z"/><path stroke="#191919" stroke-linecap="round" stroke-linejoin="round" d="M11.5 19.646a8.146 8.146 0 100-16.292 8.146 8.146 0 000 16.292z"/><path fill="#fff" stroke="#191919" stroke-linecap="round" stroke-linejoin="round" d="M12.064 6.573l1.229 2.531h2.391a.587.587 0 01.413 1.025l-2.076 2.168 1.15 2.646a.627.627 0 01-.892.785L11.5 14.162l-2.78 1.566a.627.627 0 01-.891-.785l1.15-2.646L6.9 10.13a.587.587 0 01.414-1.025H9.71l1.231-2.53a.634.634 0 011.123 0v0z"/></svg>