<svg xmlns="http://www.w3.org/2000/svg" fill="none" viewBox="-0.5 -0.5 24 24"><path fill="#ffdda1" d="M21.76 18.886a2.313 2.313 0 01-.677-1.636v-1.917a2.313 2.313 0 00-.677-1.636l-4.114-4.114-.012 5.271a.958.958 0 00.288.677l1.64 1.635v2c0 .614.245 1.203.678 1.638l1.718 1.717 1.438-3.354-.281-.281z"/><path stroke="#191919" stroke-linecap="round" stroke-linejoin="round" d="M22.042 19.167l-.281-.281a2.31 2.31 0 01-.678-1.636v-1.917a2.313 2.313 0 00-.677-1.636l-4.114-4.114"/><path fill="#c77f67" d="M14.375 3.354H3.833a1.917 1.917 0 00-1.916 1.917v13.417a1.917 1.917 0 001.916 1.916h10.542a1.917 1.917 0 001.917-1.916V5.27a1.917 1.917 0 00-1.917-1.917z"/><path fill="#e3bfb3" d="M15.788 3.985a1.904 1.904 0 00-1.413-.63H3.833A1.917 1.917 0 001.917 5.27v12.585l13.87-13.871z"/><path stroke="#191919" stroke-linecap="round" stroke-linejoin="round" d="M16.292 17.73v.958a1.917 1.917 0 01-1.917 1.916h-.958m-11.5-5.75V5.271a1.917 1.917 0 011.916-1.917H5.75m6.708 0h1.917a1.917 1.917 0 011.917 1.917v6.708"/><path fill="#e3e3e3" d="M10.764 1.438a1.917 1.917 0 00-3.32 0h-.736a.958.958 0 00-.958.958v1.917a.958.958 0 00.958.958H11.5a.958.958 0 00.958-.959V2.397a.958.958 0 00-.958-.959h-.736z"/><path fill="#b2b2b2" d="M11.5 3.354H6.708a.958.958 0 01-.958-.958v1.917a.958.958 0 00.958.958H11.5a.958.958 0 00.958-.959V2.397a.958.958 0 01-.958.958z"/><path stroke="#191919" stroke-linecap="round" stroke-linejoin="round" d="M10.764 1.438a1.917 1.917 0 00-3.32 0h-.736a.958.958 0 00-.958.958v1.917a.958.958 0 00.958.958H11.5a.958.958 0 00.958-.959V2.397a.958.958 0 00-.958-.959h-.736z"/><path fill="#ffdda1" d="M.958 22.52v-2.556a3.194 3.194 0 013.194-3.193H5.75v-4.313a1.438 1.438 0 012.875 0v6.709l1.235-1.034a1.198 1.198 0 011.842 1.533l-2.376 2.855"/><path stroke="#191919" stroke-linecap="round" stroke-linejoin="round" d="M.958 22.52v-2.556a3.194 3.194 0 013.194-3.193H5.75v-4.313a1.438 1.438 0 012.875 0v6.709l1.235-1.034a1.198 1.198 0 011.842 1.533l-2.376 2.855m10.039-6.908l-1.437-1.437a.958.958 0 10-1.356 1.355l1.636 1.635v2c0 .614.245 1.203.678 1.638l1.718 1.717"/></svg>