<svg xmlns="http://www.w3.org/2000/svg" fill="none" viewBox="0 0 30 30"><path fill="#ffbc44" d="M22.042 13.814a.958.958 0 000-1.356l-11.22-11.22a1.917 1.917 0 00-1.356-.56H3.354a.958.958 0 00-.958.958v4.792c.033.606.272 1.183.677 1.635l11.692 11.692a.958.958 0 001.356 0l5.92-5.94z"/><path stroke="#191919" stroke-linecap="round" stroke-linejoin="round" d="M3.553.678h5.913a1.917 1.917 0 011.356.56l11.22 11.22a.958.958 0 010 1.356l-.281.281"/><path fill="#ffbc44" d="M20.125 15.333L8.063 3.272a2.663 2.663 0 00-1.635-.678H1.636a.958.958 0 00-.958.959v4.791c.033.607.272 1.184.677 1.636l12.062 12.062a.958.958 0 001.356 0l5.352-5.353a.956.956 0 000-1.356zM4.99 8.344a1.438 1.438 0 110-2.875 1.438 1.438 0 010 2.875z"/><path fill="#ffdda1" d="M3.973 5.89a1.438 1.438 0 012.034 2.034l11.441 11.441 2.677-2.676a.958.958 0 000-1.356L8.063 3.272a2.658 2.658 0 00-1.635-.678H1.636a.958.958 0 00-.678.281L3.973 5.89z"/><path stroke="#191919" stroke-linecap="round" stroke-linejoin="round" d="M20.125 15.333L8.063 3.272a2.663 2.663 0 00-1.635-.678H1.636a.958.958 0 00-.958.959v4.791c.033.607.272 1.184.677 1.636l12.062 12.062a.958.958 0 001.356 0l5.352-5.353a.956.956 0 000-1.356zM4.99 8.344a1.438 1.438 0 110-2.875 1.438 1.438 0 010 2.875v0z"/></svg>