<svg xmlns="http://www.w3.org/2000/svg" fill="none" viewBox="0 0 30 30"><path fill="#ff808c" d="M11.5 13.896c0-1.06 1.287-1.917 2.875-1.917s2.875.858 2.875 1.917a2.196 2.196 0 012.396-1.917 2.196 2.196 0 012.396 1.917v-.48c0-6.086-4.456-11.02-10.542-11.02S.958 7.33.958 13.416v.48a2.196 2.196 0 012.396-1.917 2.196 2.196 0 012.396 1.917c0-1.06 1.287-1.917 2.875-1.917s2.875.863 2.875 1.917z"/><path fill="#ffbfc5" d="M11.5 6.579a12.905 12.905 0 0110.407 5.113 10.475 10.475 0 00-20.815 0A12.905 12.905 0 0111.5 6.579z"/><path stroke="#191919" stroke-linecap="round" stroke-linejoin="round" d="M11.5 13.896c0-1.06 1.287-1.917 2.875-1.917s2.875.858 2.875 1.917a2.196 2.196 0 012.396-1.917 2.196 2.196 0 012.396 1.917v-.48c0-6.086-4.456-11.02-10.542-11.02S.958 7.33.958 13.416v.48a2.196 2.196 0 012.396-1.917 2.196 2.196 0 012.396 1.917c0-1.06 1.287-1.917 2.875-1.917s2.875.863 2.875 1.917zm0-11.5V.479m0 13.417v7.187m0 0a1.438 1.438 0 102.875 0v-.479"/></svg>