<svg xmlns="http://www.w3.org/2000/svg" viewBox="0 0 113.4 56.7"><path d="M56.4 24.2c.7-6.5 4.2-10.4 4.2-14.2 0-2.7-1-5.1-4.2-8.6-3.2 3.5-4.2 5.9-4.2 8.6 0 3.8 3.5 7.7 4.2 14.2m-6.9-.8c-1.7 1.5-5 .5-5-3.1 0-2 2.1-3.8 4.2-3.8 4.1 0 5.9 4.3 6 6.3.1 1.6-.6 4.1-3.3 4.1 1.2-.6 1.6-2.1 1.5-3.1-.1-1.3-.9-2.9-2.7-2.9-1 0-1.7.6-1.7 1.3.1.6.4 1.2 1 1.2m13.8 0c1.7 1.5 5 .5 5-3.1 0-2-2.1-3.8-4.2-3.8-4.1 0-5.9 4.3-6 6.3-.1 1.6.6 4.1 3.3 4.1-1.2-.6-1.6-2.1-1.5-3.1.1-1.3.9-2.9 2.7-2.9 1 0 1.7.6 1.7 1.3 0 .6-.4 1.2-1 1.2" fill="#e41f13"/><path d="M24.6 33.8h3V55h-3zM19.9 55h-3.1v-9.2H4.2V55h-3V33.8h3v9.3h12.6v-9.3h3.1V55m83.2-10.9l9.1 10.9h-3.7l-7.2-8.7L94 55h-3.7l9.1-10.9-8.5-10.3h3.7l6.7 8.1 6.6-8.1h3.7l-8.5 10.3"/><path d="M79.9 33.6c7 0 11.4 5 11.4 10.9 0 5.7-4.3 10.9-11.5 10.9-6.9 0-11.3-5.1-11.3-10.9 0-5.9 4.5-10.9 11.4-10.9m0 18.9c4.8 0 8.3-3.4 8.3-8.1 0-4.7-3.5-8.1-8.3-8.1-4.7 0-8.2 3.4-8.2 8.1 0 4.7 3.5 8.1 8.2 8.1zm-14.2-2.8c-1.5 1.8-3.8 2.8-6.4 2.8-4.7 0-8.2-3.4-8.2-8.1 0-4.7 3.5-8.1 8.2-8.1 2.6 0 4.8 1 6.3 2.7l1.6-2.7c-2-1.7-4.6-2.8-7.9-2.8-6.9 0-11.4 5-11.4 10.9 0 5.8 4.4 10.9 11.3 10.9 3.4 0 6.1-1.2 8.1-3l-1.6-2.6M44.1 37.8c-1.7-1.4-3.8-1.7-5.2-1.7-2.2 0-4 1-4 2.8 0 4.1 10.8 4.1 10.8 10.8 0 4.4-4.5 5.9-7.9 5.7-2.3-.1-4.1-.6-6-1.8v-3c1.9 1.2 3.6 1.8 5.5 2 2.2.2 5.4-.3 5.4-3 0-4.4-10.9-4.5-10.9-10.3 0-3.5 3.1-5.7 6.8-5.7 2.4 0 4 .5 5.5 1.4v2.8"/></svg>