<?xml version="1.0" encoding="UTF-8" standalone="no"?>
<!-- Generator: Adobe Illustrator 18.0.0, SVG Export Plug-In . SVG Version: 6.00 Build 0)  -->

<svg
   xmlns:dc="http://purl.org/dc/elements/1.1/"
   xmlns:cc="http://creativecommons.org/ns#"
   xmlns:rdf="http://www.w3.org/1999/02/22-rdf-syntax-ns#"
   xmlns:svg="http://www.w3.org/2000/svg"
   xmlns="http://www.w3.org/2000/svg"
   xmlns:sodipodi="http://sodipodi.sourceforge.net/DTD/sodipodi-0.dtd"
   xmlns:inkscape="http://www.inkscape.org/namespaces/inkscape"
   version="1.1"
   id="Capa_1"
   x="0px"
   y="0px"
   viewBox="0 0 473.875 473.875"
   style="enable-background:new 0 0 473.875 473.875;"
   xml:space="preserve"
   sodipodi:docname="auto3.svg"
   inkscape:version="0.92.0 r15299"><metadata
     id="metadata39"><rdf:RDF><cc:Work
         rdf:about=""><dc:format>image/svg+xml</dc:format><dc:type
           rdf:resource="http://purl.org/dc/dcmitype/StillImage" /><dc:title></dc:title></cc:Work></rdf:RDF></metadata><defs
     id="defs37"><clipPath
       clipPathUnits="userSpaceOnUse"
       id="clipPath5186"><g
         style="fill:#8e0ccf;fill-opacity:0.6"
         id="use5188"
         inkscape:label="Clip"><g
           style="fill:#8e0ccf;fill-opacity:0.6"
           transform="matrix(0.57136807,0,0,0.57136807,220.23505,230.46059)"
           id="g4541"><path
             style="fill:#8e0ccf;fill-opacity:0.6"
             inkscape:connector-curvature="0"
             d="m 430.978,109.319 c 0.002,-1.432 -0.76,-2.755 -2,-3.471 L 287.903,24.391 c -1.235,-0.713 -2.755,-0.715 -3.988,-0.007 L 91.089,134.878 c -0.598,0.343 -1.082,0.828 -1.427,1.397 L 44.745,212.645 1.172,256.218 C 0.422,256.969 0,257.986 0,259.047 v 61.783 c 0,1.429 0.762,2.749 1.999,3.463 l 141.074,81.511 c 0.619,0.358 1.31,0.537 2.001,0.537 0.69,0 1.381,-0.179 1.999,-0.536 0.271,-0.156 31.862,-18.289 31.862,-18.289 1.734,7.275 5.599,13.168 11.554,16.606 3.47,2.003 7.361,3 11.508,3 4.979,0 10.327,-1.439 15.753,-4.303 9.341,-4.931 17.926,-13.607 24.174,-24.43 6.009,-10.407 9.208,-21.69 9.09,-31.926 l 89.754,-51.128 c 1.649,7.591 5.572,13.745 11.713,17.291 3.47,2.003 7.361,3 11.508,3 4.979,0 10.327,-1.439 15.753,-4.303 9.341,-4.931 17.926,-13.607 24.174,-24.43 6.164,-10.675 9.374,-22.271 9.077,-32.714 l 15.958,-9.085 c 1.25,-0.711 2.021,-2.039 2.021,-3.476 V 109.391 c 0.001,-0.024 0.006,-0.047 0.006,-0.072 z M 94.486,143.781 228.66,221.242 223.439,230.128 89.292,152.62 Z m 142.577,78.954 60.196,-34.49 v 41.713 l -97.582,56.404 z m 68.196,-39.073 71.496,-40.964 v 41.31 l -71.496,41.326 z m 79.496,-45.548 38.218,-21.897 v 41.076 l -38.218,22.091 z M 285.896,32.47 418.956,109.3 234.159,215.179 101.1,138.362 Z M 85.24,159.518 219.387,237.026 187.573,291.174 53.424,213.665 Z M 48.591,220.112 182.496,297.48 144.064,335.912 10.16,258.544 Z M 8,266.535 33.239,281.118 v 30.479 L 8,297.015 Z m 33.239,19.206 66.267,38.288 v 30.479 L 41.239,316.22 Z m 74.267,42.91 25.568,14.773 v 30.479 L 115.506,359.13 Z M 8,318.521 v -12.268 l 133.074,76.888 v 12.268 z m 226.996,55.869 c -5.505,9.535 -12.956,17.119 -20.98,21.355 -7.424,3.917 -14.358,4.432 -19.526,1.449 -11.115,-6.418 -11.347,-27.704 -0.506,-46.482 5.505,-9.534 12.956,-17.118 20.98,-21.354 7.422,-3.917 14.357,-4.434 19.526,-1.448 5.169,2.984 8.191,9.247 8.509,17.634 0.345,9.067 -2.498,19.312 -8.003,28.846 z m 161.992,-91.495 c -5.505,9.535 -12.956,17.119 -20.98,21.355 -7.423,3.917 -14.358,4.432 -19.526,1.448 -11.115,-6.417 -11.347,-27.703 -0.506,-46.481 8.668,-15.014 22.264,-24.699 33.048,-24.699 2.704,0 5.231,0.609 7.46,1.895 5.169,2.984 8.19,9.248 8.509,17.635 0.343,9.068 -2.5,19.313 -8.005,28.847 z m 14.88,-37.278 c -1.811,-7.262 -5.714,-12.858 -11.385,-16.132 -15.388,-8.881 -37.979,2.422 -51.436,25.732 -6.153,10.657 -9.167,21.708 -9.168,31.419 l -89.842,51.178 c -1.731,-7.602 -5.697,-13.456 -11.548,-16.834 -7.637,-4.409 -17.316,-3.946 -27.261,1.302 -9.341,4.931 -17.926,13.606 -24.174,24.429 -6.316,10.94 -9.335,22.301 -9.171,32.195 l -28.81,16.415 v -53.107 l 41.326,-41.326 232.572,-134.357 v 72.764 z"
             id="path4535" /><path
             style="fill:#8e0ccf;fill-opacity:0.6"
             inkscape:connector-curvature="0"
             d="m 388.448,250.33 c -5.552,-3.206 -15.284,0.67 -23.14,14.275 -7.855,13.607 -6.345,23.972 -0.793,27.178 1.208,0.697 2.613,1.06 4.154,1.06 5.543,0 12.839,-4.688 18.986,-15.334 7.857,-13.608 6.346,-23.973 0.793,-27.179 z m -7.719,23.177 c -5.139,8.901 -11.148,11.959 -12.213,11.347 -1.057,-0.61 -1.42,-7.345 3.721,-16.25 5.142,-8.905 11.155,-11.95 12.212,-11.347 1.056,0.611 1.42,7.346 -3.72,16.25 z"
             id="path4537" /><path
             style="fill:#8e0ccf;fill-opacity:0.6"
             inkscape:connector-curvature="0"
             d="m 226.456,341.825 c -2.031,-1.173 -6.385,-2.456 -12.718,2.133 -3.784,2.743 -7.485,7.054 -10.422,12.141 -2.938,5.087 -4.821,10.448 -5.304,15.096 -0.809,7.779 2.479,10.908 4.511,12.081 1.208,0.697 2.613,1.06 4.155,1.06 5.543,0 12.839,-4.688 18.984,-15.334 2.938,-5.087 4.821,-10.448 5.304,-15.097 0.809,-7.777 -2.478,-10.907 -4.51,-12.08 z m -3.446,11.254 c -0.363,3.503 -1.922,7.849 -4.274,11.923 -5.138,8.899 -11.153,11.963 -12.212,11.346 -0.147,-0.085 -0.874,-1.243 -0.554,-4.325 0.363,-3.503 1.922,-7.849 4.274,-11.923 2.352,-4.074 5.337,-7.597 8.188,-9.664 2.015,-1.46 3.293,-1.715 3.795,-1.715 0.123,0 0.199,0.016 0.229,0.032 0.148,0.085 0.874,1.244 0.554,4.326 z"
             id="path4539" /></g><path
           style="fill:#8e0ccf;fill-opacity:0.6;fill-rule:evenodd;stroke:#000000;stroke-width:1px;stroke-linecap:butt;stroke-linejoin:miter;stroke-opacity:1"
           d="M 278.00036,309.51622 354.02603,353.407 459.61313,292.91112 383.5869,249.01291 Z"
           id="path4543"
           inkscape:connector-curvature="0" /></g></clipPath></defs><sodipodi:namedview
     pagecolor="#ffffff"
     bordercolor="#666666"
     borderopacity="1"
     objecttolerance="10"
     gridtolerance="10"
     guidetolerance="10"
     inkscape:pageopacity="0"
     inkscape:pageshadow="2"
     inkscape:window-width="1534"
     inkscape:window-height="859"
     id="namedview35"
     showgrid="false"
     inkscape:zoom="1.4086179"
     inkscape:cx="184.71695"
     inkscape:cy="187.81395"
     inkscape:window-x="16"
     inkscape:window-y="105"
     inkscape:window-maximized="0"
     inkscape:current-layer="Capa_1" /><path
     style="fill:#8d0ece;fill-opacity:1;stroke-width:0.85311121"
     d="m 301.42622,3.7128906 c -0.58929,0 -1.18027,0.1528038 -1.70792,0.4577911 L 82.956177,129.32568 c -1.056151,0.60913 -1.705957,1.73502 -1.705957,2.95412 v 33.18985 l -63.362982,36.10877 c -0.900885,0.51356 -1.506342,1.40503 -1.672698,2.40829 0,0 -11.5719414,69.22949 -11.5719414,69.62533 v 57.71885 c 0,1.21908 0.6498047,2.34696 1.7059565,2.95607 L 110.4119,394.36324 c 0.53235,0.30712 1.12047,0.4578 1.704,0.4578 0.5878,0 1.16379,-0.16738 1.68248,-0.46171 l 0.006,0.0117 47.60636,-27.04098 c 0.33527,6.80613 3.09113,12.46304 8.17568,15.39861 2.32387,1.34108 4.89364,1.97789 7.58094,1.97789 8.78535,0 18.80094,-6.8197 25.34089,-18.14731 5.20398,-9.01311 6.82757,-18.49689 5.06505,-25.83194 l 86.44034,-49.90118 c 0.12265,1.55057 0.37743,3.03537 0.75712,4.43705 l 6.23301,-3.57234 c -0.82662,-5.48315 0.69432,-12.72716 4.58574,-19.46786 5.15706,-8.93122 13.16444,-14.72952 19.42286,-14.72952 1.51683,0 2.93131,0.34119 4.17685,1.06035 3.92259,2.265 5.418,7.85598 4.5114,14.40086 l 7.10946,-4.07317 c -1.8e-4,-0.009 1.8e-4,-0.0184 0,-0.0274 0.002,0.008 0.004,0.0155 0.006,0.0235 l 6.26822,-3.5919 c -0.0756,-0.58945 -0.13041,-1.1989 -0.15456,-1.83313 -0.20475,-5.39763 1.49559,-11.51265 4.79116,-17.21998 3.29557,-5.70731 7.74226,-10.24046 12.51882,-12.76142 2.46635,-1.30184 4.82314,-1.95832 6.92948,-1.95832 1.53474,0 2.93573,0.3493 4.15142,1.05056 2.88352,1.66442 4.57338,5.23323 4.75594,10.0499 0.0475,1.25328 -0.0181,2.54925 -0.17217,3.86578 l 6.24475,-3.5782 0.76494,0.44214 c -0.001,-0.33065 -0.005,-0.66079 -0.0176,-0.98797 -0.064,-1.69087 -0.27527,-3.28586 -0.61822,-4.78137 l 6.29757,-3.6369 c 1.05614,-0.60911 1.70596,-1.73502 1.70596,-2.95412 v -33.2192 l 12.92379,-7.4616 c 1.05614,-0.60997 1.70596,-1.73503 1.70596,-2.95412 V 67.212819 c -8.5e-4,-1.219096 -0.64981,-2.346103 -1.70596,-2.956079 L 303.13217,4.1706817 c -0.52765,-0.3049873 -1.11666,-0.4577911 -1.70595,-0.4577911 z m 0,7.3540034 97.24734,56.145925 L 188.72548,188.4179 91.487916,132.2798 Z M 402.08547,73.123018 V 185.3777 L 192.13935,306.58278 V 194.3281 Z M 88.076003,138.19 185.31356,194.3281 v 27.32465 L 88.076003,165.50682 Z m -3.443215,33.20941 97.216042,56.13224 -58.19815,33.1566 -97.216052,-56.12441 z m 302.822932,30.30617 v 27.30704 l -3.85014,2.22244 c -1.28222,-1.89987 -2.91263,-3.45146 -4.87137,-4.58183 -4.98815,-2.8801 -11.26884,-2.60173 -17.68169,0.78255 -5.89926,3.11386 -11.31267,8.57794 -15.24209,15.38492 -2.45526,4.25275 -4.16653,8.74511 -5.04353,13.1429 l -2.98542,1.72356 c -1.30953,-2.08498 -3.03831,-3.8065 -5.18048,-5.04352 -9.92253,-5.72523 -24.38134,1.37452 -32.92182,16.16746 -2.66598,4.61704 -4.39511,9.35883 -5.20983,13.87263 l -40.22692,23.2241 v -27.29726 z m -365.319241,8.25784 97.763831,56.44134 -2.40634,15.06211 -97.84991,-56.49024 z m -3.68385,22.20679 97.889041,56.51176 -6.36212,39.8337 -98.115982,-56.6448 z m 166.860931,1.24425 v 96.00309 c -0.97681,0.37366 -1.95924,0.8119 -2.94629,1.33229 -5.89926,3.11387 -11.31266,8.57794 -15.24209,15.38492 -2.48597,4.30565 -4.15148,8.71964 -5.02593,12.95705 L 115.53173,385.54 v -49.8464 l 32.51099,-18.76943 c 1.05616,-0.60998 1.70595,-1.73502 1.70595,-2.95413 v -60.29539 z m -42.39066,24.14946 v 54.43605 l -25.77129,14.87822 9.59991,-60.10172 z M 11.468381,279.52224 108.70791,335.6623 v 34.9858 L 89.435681,359.0566 v -12.45427 c 0,-1.21825 -0.650657,-2.3461 -1.705956,-2.95608 L 35.86043,313.70202 c -1.056153,-0.60912 -2.358571,-0.60912 -3.413871,0 -1.05615,0.60913 -1.705956,1.73698 -1.705955,2.95607 v 7.10359 L 11.468381,312.17214 Z m 235.948259,3.02846 v 27.29726 l -42.57653,24.5779 c -1.25749,-1.82309 -2.85482,-3.34124 -4.7931,-4.46052 -2.38273,-1.37607 -5.06167,-2.02283 -7.90766,-1.96225 v -13.54004 z m -235.948259,37.58387 19.272223,11.5915 v 8.7626 L 11.468381,329.36082 Z m 26.098005,2.43372 45.043513,26.00606 V 370.4329 L 37.566386,344.4288 Z m 154.915324,12.25668 c 1.53474,0 2.9377,0.34932 4.15339,1.05057 6.38553,3.68714 6.36781,16.17626 -0.0391,27.27183 -6.40686,11.0964 -17.21308,17.35572 -23.59777,13.67113 -6.38552,-3.68714 -6.36886,-16.17738 0.0372,-27.27379 3.29557,-5.70731 7.7403,-10.23963 12.51687,-12.76141 2.46634,-1.30186 4.82227,-1.95833 6.92946,-1.95833 z m -103.046029,32.19602 19.272229,11.59346 v 6.88447 L 89.435681,374.37303 Z"
     id="path2"
     inkscape:connector-curvature="0" /><g
     id="g4"
     transform="matrix(1.0016626,0,0,1.0016626,0.63594838,-0.00617287)" /><g
     id="g6"
     transform="matrix(1.0016626,0,0,1.0016626,0.63594838,-0.00617287)" /><g
     id="g8"
     transform="matrix(1.0016626,0,0,1.0016626,0.63594838,-0.00617287)" /><g
     id="g10"
     transform="matrix(1.0016626,0,0,1.0016626,0.63594838,-0.00617287)" /><g
     id="g12"
     transform="matrix(1.0016626,0,0,1.0016626,0.63594838,-0.00617287)" /><g
     id="g14"
     transform="matrix(1.0016626,0,0,1.0016626,0.63594838,-0.00617287)" /><g
     id="g16"
     transform="matrix(1.0016626,0,0,1.0016626,0.63594838,-0.00617287)" /><g
     id="g18"
     transform="matrix(1.0016626,0,0,1.0016626,0.63594838,-0.00617287)" /><g
     id="g20"
     transform="matrix(1.0016626,0,0,1.0016626,0.63594838,-0.00617287)" /><g
     id="g22"
     transform="matrix(1.0016626,0,0,1.0016626,0.63594838,-0.00617287)" /><g
     id="g24"
     transform="matrix(1.0016626,0,0,1.0016626,0.63594838,-0.00617287)" /><g
     id="g26"
     transform="matrix(1.0016626,0,0,1.0016626,0.63594838,-0.00617287)" /><g
     id="g28"
     transform="matrix(1.0016626,0,0,1.0016626,0.63594838,-0.00617287)" /><g
     id="g30"
     transform="matrix(1.0016626,0,0,1.0016626,0.63594838,-0.00617287)" /><g
     id="g32"
     transform="matrix(1.0016626,0,0,1.0016626,0.63594838,-0.00617287)" /><g
     transform="matrix(1.0016626,0,0,1.0016626,271.51923,413.67891)"
     id="g4524" /><g
     transform="matrix(1.0016626,0,0,1.0016626,271.51923,413.67891)"
     id="g4526" /><g
     transform="matrix(1.0016626,0,0,1.0016626,271.51923,413.67891)"
     id="g4528" /><g
     transform="matrix(1.0016626,0,0,1.0016626,271.51923,413.67891)"
     id="g4530" /><g
     transform="matrix(1.0016626,0,0,1.0016626,271.51923,413.67891)"
     id="g4532" /><g
     transform="matrix(1.0016626,0,0,1.0016626,271.51923,413.67891)"
     id="g4534" /><g
     transform="matrix(1.0016626,0,0,1.0016626,271.51923,413.67891)"
     id="g4536" /><g
     transform="matrix(1.0016626,0,0,1.0016626,271.51923,413.67891)"
     id="g4538" /><g
     transform="matrix(1.0016626,0,0,1.0016626,271.51923,413.67891)"
     id="g4540" /><g
     transform="matrix(1.0016626,0,0,1.0016626,271.51923,413.67891)"
     id="g4542" /><g
     transform="matrix(1.0016626,0,0,1.0016626,271.51923,413.67891)"
     id="g4544" /><g
     transform="matrix(1.0016626,0,0,1.0016626,271.51923,413.67891)"
     id="g4546" /><g
     transform="matrix(1.0016626,0,0,1.0016626,271.51923,413.67891)"
     id="g4548" /><g
     transform="matrix(1.0016626,0,0,1.0016626,271.51923,413.67891)"
     id="g4550" /><g
     transform="matrix(1.0016626,0,0,1.0016626,271.51923,413.67891)"
     id="g4552" /><rect
     ry="1.3936131"
     rx="1.0016625"
     y="116.64825"
     x="-382.51352"
     height="86.485176"
     width="117.66007"
     id="rect4556"
     style="color:#000000;display:inline;overflow:visible;visibility:visible;opacity:0.1;vector-effect:none;fill:#8c0fcd;fill-opacity:0.2;fill-rule:nonzero;stroke:none;stroke-width:12.01995087;stroke-miterlimit:4;stroke-dasharray:none;marker:none;marker-start:none;marker-mid:none;marker-end:none;paint-order:normal;enable-background:accumulate" /><path
     style="fill:#8c0fcd;fill-opacity:0.2;fill-rule:evenodd;stroke:none;stroke-width:1.00166249px;stroke-linecap:butt;stroke-linejoin:miter;stroke-opacity:1"
     d="M 192.13852,194.32786 V 306.58279 L 402.08578,185.37788 V 73.122943 Z"
     id="path4560"
     inkscape:connector-curvature="0" /><g
     id="g4522"
     transform="matrix(0.59068505,0,0,0.59068505,218.3416,231.41303)"
     style="fill:#8d0ece;fill-opacity:0.71193415"><path
       id="path4516"
       d="m 430.978,109.319 c 0.002,-1.432 -0.76,-2.755 -2,-3.471 L 287.903,24.391 c -1.235,-0.713 -2.755,-0.715 -3.988,-0.007 L 91.089,134.878 c -0.598,0.343 -1.082,0.828 -1.427,1.397 L 44.745,212.645 1.172,256.218 C 0.422,256.969 0,257.986 0,259.047 v 61.783 c 0,1.429 0.762,2.749 1.999,3.463 l 141.074,81.511 c 0.619,0.358 1.31,0.537 2.001,0.537 0.69,0 1.381,-0.179 1.999,-0.536 0.271,-0.156 31.862,-18.289 31.862,-18.289 1.734,7.275 5.599,13.168 11.554,16.606 3.47,2.003 7.361,3 11.508,3 4.979,0 10.327,-1.439 15.753,-4.303 9.341,-4.931 17.926,-13.607 24.174,-24.43 6.009,-10.407 9.208,-21.69 9.09,-31.926 l 89.754,-51.128 c 1.649,7.591 5.572,13.745 11.713,17.291 3.47,2.003 7.361,3 11.508,3 4.979,0 10.327,-1.439 15.753,-4.303 9.341,-4.931 17.926,-13.607 24.174,-24.43 6.164,-10.675 9.374,-22.271 9.077,-32.714 l 15.958,-9.085 c 1.25,-0.711 2.021,-2.039 2.021,-3.476 V 109.391 c 0.001,-0.024 0.006,-0.047 0.006,-0.072 z M 94.486,143.781 228.66,221.242 223.439,230.128 89.292,152.62 Z m 142.577,78.954 60.196,-34.49 v 41.713 l -97.582,56.404 z m 68.196,-39.073 71.496,-40.964 v 41.31 l -71.496,41.326 z m 79.496,-45.548 38.218,-21.897 v 41.076 l -38.218,22.091 z M 285.896,32.47 418.956,109.3 234.159,215.179 101.1,138.362 Z M 85.24,159.518 219.387,237.026 187.573,291.174 53.424,213.665 Z M 48.591,220.112 182.496,297.48 144.064,335.912 10.16,258.544 Z M 8,266.535 33.239,281.118 v 30.479 L 8,297.015 Z m 33.239,19.206 66.267,38.288 v 30.479 L 41.239,316.22 Z m 74.267,42.91 25.568,14.773 v 30.479 L 115.506,359.13 Z M 8,318.521 v -12.268 l 133.074,76.888 v 12.268 z m 226.996,55.869 c -5.505,9.535 -12.956,17.119 -20.98,21.355 -7.424,3.917 -14.358,4.432 -19.526,1.449 -11.115,-6.418 -11.347,-27.704 -0.506,-46.482 5.505,-9.534 12.956,-17.118 20.98,-21.354 7.422,-3.917 14.357,-4.434 19.526,-1.448 5.169,2.984 8.191,9.247 8.509,17.634 0.345,9.067 -2.498,19.312 -8.003,28.846 z m 161.992,-91.495 c -5.505,9.535 -12.956,17.119 -20.98,21.355 -7.423,3.917 -14.358,4.432 -19.526,1.448 -11.115,-6.417 -11.347,-27.703 -0.506,-46.481 8.668,-15.014 22.264,-24.699 33.048,-24.699 2.704,0 5.231,0.609 7.46,1.895 5.169,2.984 8.19,9.248 8.509,17.635 0.343,9.068 -2.5,19.313 -8.005,28.847 z m 14.88,-37.278 c -1.811,-7.262 -5.714,-12.858 -11.385,-16.132 -15.388,-8.881 -37.979,2.422 -51.436,25.732 -6.153,10.657 -9.167,21.708 -9.168,31.419 l -89.842,51.178 c -1.731,-7.602 -5.697,-13.456 -11.548,-16.834 -7.637,-4.409 -17.316,-3.946 -27.261,1.302 -9.341,4.931 -17.926,13.606 -24.174,24.429 -6.316,10.94 -9.335,22.301 -9.171,32.195 l -28.81,16.415 v -53.107 l 41.326,-41.326 232.572,-134.357 v 72.764 z"
       inkscape:connector-curvature="0"
       style="fill:#8d0ece;fill-opacity:0.71193415" /><path
       id="path4518"
       d="m 388.448,250.33 c -5.552,-3.206 -15.284,0.67 -23.14,14.275 -7.855,13.607 -6.345,23.972 -0.793,27.178 1.208,0.697 2.613,1.06 4.154,1.06 5.543,0 12.839,-4.688 18.986,-15.334 7.857,-13.608 6.346,-23.973 0.793,-27.179 z m -7.719,23.177 c -5.139,8.901 -11.148,11.959 -12.213,11.347 -1.057,-0.61 -1.42,-7.345 3.721,-16.25 5.142,-8.905 11.155,-11.95 12.212,-11.347 1.056,0.611 1.42,7.346 -3.72,16.25 z"
       inkscape:connector-curvature="0"
       style="fill:#8d0ece;fill-opacity:0.71193415" /><path
       id="path4520"
       d="m 226.456,341.825 c -2.031,-1.173 -6.385,-2.456 -12.718,2.133 -3.784,2.743 -7.485,7.054 -10.422,12.141 -2.938,5.087 -4.821,10.448 -5.304,15.096 -0.809,7.779 2.479,10.908 4.511,12.081 1.208,0.697 2.613,1.06 4.155,1.06 5.543,0 12.839,-4.688 18.984,-15.334 2.938,-5.087 4.821,-10.448 5.304,-15.097 0.809,-7.777 -2.478,-10.907 -4.51,-12.08 z m -3.446,11.254 c -0.363,3.503 -1.922,7.849 -4.274,11.923 -5.138,8.899 -11.153,11.963 -12.212,11.346 -0.147,-0.085 -0.874,-1.243 -0.554,-4.325 0.363,-3.503 1.922,-7.849 4.274,-11.923 2.352,-4.074 5.337,-7.597 8.188,-9.664 2.015,-1.46 3.293,-1.715 3.795,-1.715 0.123,0 0.199,0.016 0.229,0.032 0.148,0.085 0.874,1.244 0.554,4.326 z"
       inkscape:connector-curvature="0"
       style="fill:#8d0ece;fill-opacity:0.71193415" /></g><g
     transform="matrix(0.3716494,-0.21457188,0,0.3716494,245.94062,144.1162)"
     id="g48"
     style="fill:#8d0ece;fill-opacity:0.41563798"><g
       id="g46"
       style="fill:#8d0ece;fill-opacity:0.41563798"><path
         inkscape:connector-curvature="0"
         d="m 238.877,158.17 c -1.006,-3.097 -3.892,-5.193 -7.147,-5.193 h -49.482 l -15.291,-47.059 c -1.006,-3.097 -3.892,-5.193 -7.147,-5.193 -3.255,0 -6.141,2.096 -7.147,5.193 l -15.291,47.059 H 87.894 c -3.255,0 -6.141,2.096 -7.147,5.193 -1.006,3.095 0.096,6.488 2.729,8.4 l 40.031,29.084 -15.291,47.06 c -0.962,2.961 0.049,6.296 2.495,8.223 2.613,2.059 6.377,2.134 9.069,0.178 l 40.031,-29.083 40.031,29.083 c 2.823,2.052 6.794,1.855 9.404,-0.46 2.213,-1.963 3.073,-5.127 2.159,-7.941 l -15.291,-47.06 40.031,-29.084 c 2.635,-1.911 3.738,-5.304 2.732,-8.4 z m -56.01,28.536 c -2.634,1.913 -3.736,5.305 -2.73,8.401 l 9.831,30.256 -25.738,-18.699 c -2.604,-1.893 -6.229,-1.893 -8.833,0 l -25.738,18.699 9.831,-30.256 c 1.006,-3.096 -0.096,-6.489 -2.73,-8.401 l -25.737,-18.7 h 31.813 c 3.255,0 6.141,-2.096 7.147,-5.193 l 9.831,-30.255 9.831,30.255 c 1.006,3.097 3.892,5.193 7.147,5.193 h 31.813 z"
         id="path44"
         style="fill:#8d0ece;fill-opacity:0.41563798" /></g></g><g
     transform="matrix(0.3716494,-0.21457188,0,0.3716494,245.94062,144.1162)"
     id="g54"
     style="fill:#8d0ece;fill-opacity:0.41563798"><g
       id="g52"
       style="fill:#8d0ece;fill-opacity:0.41563798"><path
         inkscape:connector-curvature="0"
         d="M 152.297,264.517 H 71.64 c -4.151,0 -7.515,3.364 -7.515,7.515 0,4.151 3.364,7.515 7.515,7.515 h 80.658 c 4.151,0 7.515,-3.364 7.515,-7.515 0,-4.151 -3.364,-7.515 -7.516,-7.515 z"
         id="path50"
         style="fill:#8d0ece;fill-opacity:0.41563798" /></g></g><g
     transform="matrix(0.3716494,-0.21457188,0,0.3716494,245.94062,144.1162)"
     id="g60"
     style="fill:#8d0ece;fill-opacity:0.41563798"><g
       id="g58"
       style="fill:#8d0ece;fill-opacity:0.41563798"><path
         inkscape:connector-curvature="0"
         d="m 247.984,264.517 h -64.125 c -4.151,0 -7.515,3.364 -7.515,7.515 0,4.151 3.364,7.515 7.515,7.515 h 64.125 c 4.151,0 7.515,-3.364 7.515,-7.515 0,-4.151 -3.364,-7.515 -7.515,-7.515 z"
         id="path56"
         style="fill:#8d0ece;fill-opacity:0.41563798" /></g></g><g
     transform="matrix(0.3716494,-0.21457188,0,0.3716494,245.94062,144.1162)"
     id="g66"
     style="fill:#8d0ece;fill-opacity:0.41563798"><g
       id="g64"
       style="fill:#8d0ece;fill-opacity:0.41563798"><path
         inkscape:connector-curvature="0"
         d="M 112.219,296.579 H 71.64 c -4.151,0 -7.515,3.364 -7.515,7.515 0,4.151 3.364,7.515 7.515,7.515 h 40.579 c 4.151,0 7.515,-3.364 7.515,-7.515 0,-4.151 -3.364,-7.515 -7.515,-7.515 z"
         id="path62"
         style="fill:#8d0ece;fill-opacity:0.41563798" /></g></g><g
     transform="matrix(0.3716494,-0.21457188,0,0.3716494,245.94062,144.1162)"
     id="g72"
     style="fill:#8d0ece;fill-opacity:0.41563798"><g
       id="g70"
       style="fill:#8d0ece;fill-opacity:0.41563798"><path
         inkscape:connector-curvature="0"
         d="M 247.984,296.579 H 143.781 c -4.151,0 -7.515,3.364 -7.515,7.515 0,4.151 3.364,7.515 7.515,7.515 h 104.203 c 4.151,0 7.515,-3.364 7.515,-7.515 0,-4.151 -3.364,-7.515 -7.515,-7.515 z"
         id="path68"
         style="fill:#8d0ece;fill-opacity:0.41563798" /></g></g></svg>