<?xml version="1.0" encoding="UTF-8" standalone="no"?>
<!-- Generator: Adobe Illustrator 18.0.0, SVG Export Plug-In . SVG Version: 6.00 Build 0)  -->

<svg
   xmlns:dc="http://purl.org/dc/elements/1.1/"
   xmlns:cc="http://creativecommons.org/ns#"
   xmlns:rdf="http://www.w3.org/1999/02/22-rdf-syntax-ns#"
   xmlns:svg="http://www.w3.org/2000/svg"
   xmlns="http://www.w3.org/2000/svg"
   xmlns:sodipodi="http://sodipodi.sourceforge.net/DTD/sodipodi-0.dtd"
   xmlns:inkscape="http://www.inkscape.org/namespaces/inkscape"
   version="1.1"
   id="Capa_1"
   x="0px"
   y="0px"
   viewBox="0 0 473.875 473.875"
   style="enable-background:new 0 0 473.875 473.875;"
   xml:space="preserve"
   sodipodi:docname="auto2.svg"
   inkscape:version="0.92.0 r15299"><metadata
     id="metadata39"><rdf:RDF><cc:Work
         rdf:about=""><dc:format>image/svg+xml</dc:format><dc:type
           rdf:resource="http://purl.org/dc/dcmitype/StillImage" /><dc:title></dc:title></cc:Work></rdf:RDF></metadata><defs
     id="defs37"><clipPath
       clipPathUnits="userSpaceOnUse"
       id="clipPath5186"><g
         style="fill:#8e0ccf;fill-opacity:0.6"
         id="use5188"
         inkscape:label="Clip"><g
           style="fill:#8e0ccf;fill-opacity:0.6"
           transform="matrix(0.57136807,0,0,0.57136807,220.23505,230.46059)"
           id="g4541"><path
             style="fill:#8e0ccf;fill-opacity:0.6"
             inkscape:connector-curvature="0"
             d="m 430.978,109.319 c 0.002,-1.432 -0.76,-2.755 -2,-3.471 L 287.903,24.391 c -1.235,-0.713 -2.755,-0.715 -3.988,-0.007 L 91.089,134.878 c -0.598,0.343 -1.082,0.828 -1.427,1.397 L 44.745,212.645 1.172,256.218 C 0.422,256.969 0,257.986 0,259.047 v 61.783 c 0,1.429 0.762,2.749 1.999,3.463 l 141.074,81.511 c 0.619,0.358 1.31,0.537 2.001,0.537 0.69,0 1.381,-0.179 1.999,-0.536 0.271,-0.156 31.862,-18.289 31.862,-18.289 1.734,7.275 5.599,13.168 11.554,16.606 3.47,2.003 7.361,3 11.508,3 4.979,0 10.327,-1.439 15.753,-4.303 9.341,-4.931 17.926,-13.607 24.174,-24.43 6.009,-10.407 9.208,-21.69 9.09,-31.926 l 89.754,-51.128 c 1.649,7.591 5.572,13.745 11.713,17.291 3.47,2.003 7.361,3 11.508,3 4.979,0 10.327,-1.439 15.753,-4.303 9.341,-4.931 17.926,-13.607 24.174,-24.43 6.164,-10.675 9.374,-22.271 9.077,-32.714 l 15.958,-9.085 c 1.25,-0.711 2.021,-2.039 2.021,-3.476 V 109.391 c 0.001,-0.024 0.006,-0.047 0.006,-0.072 z M 94.486,143.781 228.66,221.242 223.439,230.128 89.292,152.62 Z m 142.577,78.954 60.196,-34.49 v 41.713 l -97.582,56.404 z m 68.196,-39.073 71.496,-40.964 v 41.31 l -71.496,41.326 z m 79.496,-45.548 38.218,-21.897 v 41.076 l -38.218,22.091 z M 285.896,32.47 418.956,109.3 234.159,215.179 101.1,138.362 Z M 85.24,159.518 219.387,237.026 187.573,291.174 53.424,213.665 Z M 48.591,220.112 182.496,297.48 144.064,335.912 10.16,258.544 Z M 8,266.535 33.239,281.118 v 30.479 L 8,297.015 Z m 33.239,19.206 66.267,38.288 v 30.479 L 41.239,316.22 Z m 74.267,42.91 25.568,14.773 v 30.479 L 115.506,359.13 Z M 8,318.521 v -12.268 l 133.074,76.888 v 12.268 z m 226.996,55.869 c -5.505,9.535 -12.956,17.119 -20.98,21.355 -7.424,3.917 -14.358,4.432 -19.526,1.449 -11.115,-6.418 -11.347,-27.704 -0.506,-46.482 5.505,-9.534 12.956,-17.118 20.98,-21.354 7.422,-3.917 14.357,-4.434 19.526,-1.448 5.169,2.984 8.191,9.247 8.509,17.634 0.345,9.067 -2.498,19.312 -8.003,28.846 z m 161.992,-91.495 c -5.505,9.535 -12.956,17.119 -20.98,21.355 -7.423,3.917 -14.358,4.432 -19.526,1.448 -11.115,-6.417 -11.347,-27.703 -0.506,-46.481 8.668,-15.014 22.264,-24.699 33.048,-24.699 2.704,0 5.231,0.609 7.46,1.895 5.169,2.984 8.19,9.248 8.509,17.635 0.343,9.068 -2.5,19.313 -8.005,28.847 z m 14.88,-37.278 c -1.811,-7.262 -5.714,-12.858 -11.385,-16.132 -15.388,-8.881 -37.979,2.422 -51.436,25.732 -6.153,10.657 -9.167,21.708 -9.168,31.419 l -89.842,51.178 c -1.731,-7.602 -5.697,-13.456 -11.548,-16.834 -7.637,-4.409 -17.316,-3.946 -27.261,1.302 -9.341,4.931 -17.926,13.606 -24.174,24.429 -6.316,10.94 -9.335,22.301 -9.171,32.195 l -28.81,16.415 v -53.107 l 41.326,-41.326 232.572,-134.357 v 72.764 z"
             id="path4535" /><path
             style="fill:#8e0ccf;fill-opacity:0.6"
             inkscape:connector-curvature="0"
             d="m 388.448,250.33 c -5.552,-3.206 -15.284,0.67 -23.14,14.275 -7.855,13.607 -6.345,23.972 -0.793,27.178 1.208,0.697 2.613,1.06 4.154,1.06 5.543,0 12.839,-4.688 18.986,-15.334 7.857,-13.608 6.346,-23.973 0.793,-27.179 z m -7.719,23.177 c -5.139,8.901 -11.148,11.959 -12.213,11.347 -1.057,-0.61 -1.42,-7.345 3.721,-16.25 5.142,-8.905 11.155,-11.95 12.212,-11.347 1.056,0.611 1.42,7.346 -3.72,16.25 z"
             id="path4537" /><path
             style="fill:#8e0ccf;fill-opacity:0.6"
             inkscape:connector-curvature="0"
             d="m 226.456,341.825 c -2.031,-1.173 -6.385,-2.456 -12.718,2.133 -3.784,2.743 -7.485,7.054 -10.422,12.141 -2.938,5.087 -4.821,10.448 -5.304,15.096 -0.809,7.779 2.479,10.908 4.511,12.081 1.208,0.697 2.613,1.06 4.155,1.06 5.543,0 12.839,-4.688 18.984,-15.334 2.938,-5.087 4.821,-10.448 5.304,-15.097 0.809,-7.777 -2.478,-10.907 -4.51,-12.08 z m -3.446,11.254 c -0.363,3.503 -1.922,7.849 -4.274,11.923 -5.138,8.899 -11.153,11.963 -12.212,11.346 -0.147,-0.085 -0.874,-1.243 -0.554,-4.325 0.363,-3.503 1.922,-7.849 4.274,-11.923 2.352,-4.074 5.337,-7.597 8.188,-9.664 2.015,-1.46 3.293,-1.715 3.795,-1.715 0.123,0 0.199,0.016 0.229,0.032 0.148,0.085 0.874,1.244 0.554,4.326 z"
             id="path4539" /></g><path
           style="fill:#8e0ccf;fill-opacity:0.6;fill-rule:evenodd;stroke:#000000;stroke-width:1px;stroke-linecap:butt;stroke-linejoin:miter;stroke-opacity:1"
           d="M 278.00036,309.51622 354.02603,353.407 459.61313,292.91112 383.5869,249.01291 Z"
           id="path4543"
           inkscape:connector-curvature="0" /></g></clipPath></defs><sodipodi:namedview
     pagecolor="#ffffff"
     bordercolor="#666666"
     borderopacity="1"
     objecttolerance="10"
     gridtolerance="10"
     guidetolerance="10"
     inkscape:pageopacity="0"
     inkscape:pageshadow="2"
     inkscape:window-width="1534"
     inkscape:window-height="901"
     id="namedview35"
     showgrid="false"
     inkscape:zoom="1.4086179"
     inkscape:cx="139.2597"
     inkscape:cy="215.50845"
     inkscape:window-x="0"
     inkscape:window-y="0"
     inkscape:window-maximized="0"
     inkscape:current-layer="Capa_1" /><path
     d="M 469.5163,73.72566 349.16819,4.2417739 c -1.22033,-0.7053653 -2.72577,-0.7053653 -3.94611,0 L 94.560985,148.96887 c -1.221317,0.70439 -1.973049,2.00758 -1.973049,3.41733 v 38.38075 l -73.273128,41.75564 c -1.041769,0.59387 -1.741217,1.62282 -1.933588,2.78298 0,0 -13.38122,80.05745 -13.38122,80.51519 v 66.74531 c 0,1.40973 0.7517317,2.71294 1.9730493,3.41731 L 126.3103,455.45543 c 0.6156,0.35515 1.29531,0.5278 1.9701,0.5278 0.67971,0 1.3466,-0.19138 1.9464,-0.53174 l 0.007,0.0121 55.05005,-31.26888 c 0.3877,7.8705 3.57418,14.41114 9.45387,17.80578 2.68729,1.55081 5.66067,2.28774 8.76823,2.28774 10.15923,0 21.73905,-7.88529 29.30175,-20.98437 6.0178,-10.42262 7.89713,-21.3908 5.85898,-29.87293 l 99.95763,-57.7038 c 0.58895,7.44628 3.75273,13.6012 9.39467,16.85872 2.68728,1.55081 5.66067,2.28773 8.76823,2.28773 10.16022,0 21.74004,-7.88528 29.30274,-20.98435 4.61397,-7.99085 6.79814,-16.30428 6.64818,-23.57103 1.35254,5.4831 4.31408,9.72023 8.62914,12.2112 2.63993,1.52418 5.59261,2.2838 8.73074,2.2838 3.71722,0 7.69292,-1.06643 11.71499,-3.18942 6.82181,-3.60083 13.08032,-9.91853 17.62524,-17.79001 4.54491,-7.87149 6.88693,-16.45129 6.59491,-24.159 -0.074,-1.95529 -0.31963,-3.80009 -0.71621,-5.52948 l 7.28351,-4.20456 c 1.22131,-0.70437 1.97305,-2.00757 1.97305,-3.41732 v -38.41428 l 14.94388,-8.62715 c 1.2213,-0.70537 1.97305,-2.00759 1.97305,-3.41733 V 77.142981 c -9.9e-4,-1.409743 -0.75273,-2.711955 -1.97405,-3.417321 z M 347.19513,12.215853 459.65104,77.142981 216.8713,217.30248 104.42623,152.3862 Z m -246.715,147.004997 112.44506,64.91627 v 31.5974 L 100.48013,190.80837 Z M 96.498519,197.6223 208.91792,262.53365 141.62018,300.87493 29.199784,235.97344 Z M 94.160456,427.78244 42.071958,397.71119 v -25.27772 l 52.088498,30.07125 z M 100.0796,396.80753 40.098909,362.18052 c -1.221319,-0.70438 -2.725769,-0.70438 -3.9461,0 -1.221316,0.70439 -1.973048,2.00758 -1.973048,3.41732 v 8.21381 L 11.892197,360.40971 v -37.7543 l 112.447033,64.91924 v 40.45737 l -22.28658,-13.40588 v -14.40129 c 0,-1.40876 -0.75272,-2.71195 -1.97305,-3.41732 z m 34.41985,-71.90382 -113.151414,-65.32373 2.880652,-17.36282 113.052762,65.26748 z m -1.33279,8.34402 -7.35751,46.06281 -113.458219,-65.50327 7.617942,-45.91088 z m 12.03756,-25.33198 18.70154,-10.65448 v 62.94916 l -29.8029,17.20598 z m -133.312023,61.70317 22.286577,13.40291 v 10.1326 L 11.892197,380.2872 Z m 90.160453,62.71927 v -8.50186 l 22.28658,13.40589 v 7.96223 z m 84.02822,-17.6716 -53.84944,30.58621 v -57.64165 l 37.59448,-21.70453 c 1.22131,-0.70536 1.97304,-2.00757 1.97304,-3.41732 v -69.72361 l 41.12624,-23.42996 v 111.01658 c -1.12957,0.43209 -2.26604,0.93916 -3.40745,1.54094 -6.82181,3.60083 -13.08132,9.91951 -17.62525,17.79099 -2.87473,4.97899 -4.80043,10.08228 -5.81162,14.98235 z m 39.8921,4.69192 c -7.4088,12.83171 -19.90709,20.06787 -27.29024,15.80706 -7.38413,-4.26375 -7.3644,-18.70549 0.0434,-31.5372 3.81094,-6.59985 8.95172,-11.84127 14.47527,-14.75742 2.85204,-1.50545 5.57683,-2.26408 8.01355,-2.26408 1.77474,0 3.39659,0.40349 4.8024,1.21441 7.38413,4.26375 7.3644,18.70648 -0.0445,31.53723 z m 3.99048,-38.37187 c -2.75535,-1.59127 -5.85501,-2.33906 -9.14606,-2.26901 V 363.0605 l 63.92285,-36.90292 v 31.56483 l -49.23546,28.42276 c -1.45415,-2.1082 -3.29994,-3.86421 -5.54133,-5.15853 z m 149.29177,-51.0418 c -7.40782,12.83073 -19.90314,20.07085 -27.29024,15.80708 -7.38413,-4.26376 -7.36342,-18.70549 0.0444,-31.53721 5.96355,-10.32793 15.22307,-17.03334 22.4602,-17.03334 1.75405,0 3.38972,0.39363 4.83004,1.22526 7.38413,4.26378 7.36342,18.70649 -0.0444,31.53821 z m 53.34828,-30.05546 c -3.81094,6.59985 -8.95173,11.84127 -14.47528,14.75644 -4.92966,2.60245 -9.48049,2.97537 -12.81495,1.04967 -3.33444,-1.92471 -5.28678,-6.05234 -5.49888,-11.62324 -0.23677,-6.24174 1.73135,-13.31413 5.54229,-19.91399 3.81095,-6.59985 8.95172,-11.84124 14.47527,-14.75644 2.85204,-1.50543 5.57682,-2.26407 8.01256,-2.26407 1.77476,0 3.39659,0.40348 4.8024,1.21442 3.33446,1.9247 5.28679,6.05232 5.4979,11.62224 0.23677,6.24273 -1.73134,13.31512 -5.54131,19.91497 z m 14.07673,-35.64312 -4.45319,2.57087 c -1.48273,-2.19698 -3.36897,-3.99148 -5.63402,-5.29862 -5.76822,-3.3305 -13.03002,-3.0089 -20.44573,0.90464 -6.82182,3.60082 -13.08132,9.91853 -17.62525,17.79001 -2.83921,4.91781 -4.81918,10.11286 -5.83332,15.19839 l -3.45283,1.99278 c -1.51433,-2.41106 -3.51302,-4.40187 -5.99019,-5.83234 -11.47426,-6.62057 -28.19487,1.59029 -38.07097,18.69661 -3.08288,5.33908 -5.08159,10.82317 -6.02372,16.04287 l -46.51857,26.85419 V 321.60082 L 446.68023,232.6676 Z M 220.81739,353.94698 V 224.13712 L 463.59715,83.977624 V 213.78749 Z"
     id="path2"
     inkscape:connector-curvature="0"
     style="fill:#8d0ece;fill-opacity:1;stroke-width:0.98652464" /><g
     id="g4" /><g
     id="g6" /><g
     id="g8" /><g
     id="g10" /><g
     id="g12" /><g
     id="g14" /><g
     id="g16" /><g
     id="g18" /><g
     id="g20" /><g
     id="g22" /><g
     id="g24" /><g
     id="g26" /><g
     id="g28" /><g
     id="g30" /><g
     id="g32" /><g
     transform="translate(270.43367,412.99845)"
     id="g4524" /><g
     transform="translate(270.43367,412.99845)"
     id="g4526" /><g
     transform="translate(270.43367,412.99845)"
     id="g4528" /><g
     transform="translate(270.43367,412.99845)"
     id="g4530" /><g
     transform="translate(270.43367,412.99845)"
     id="g4532" /><g
     transform="translate(270.43367,412.99845)"
     id="g4534" /><g
     transform="translate(270.43367,412.99845)"
     id="g4536" /><g
     transform="translate(270.43367,412.99845)"
     id="g4538" /><g
     transform="translate(270.43367,412.99845)"
     id="g4540" /><g
     transform="translate(270.43367,412.99845)"
     id="g4542" /><g
     transform="translate(270.43367,412.99845)"
     id="g4544" /><g
     transform="translate(270.43367,412.99845)"
     id="g4546" /><g
     transform="translate(270.43367,412.99845)"
     id="g4548" /><g
     transform="translate(270.43367,412.99845)"
     id="g4550" /><g
     transform="translate(270.43367,412.99845)"
     id="g4552" /><rect
     ry="1.3913"
     rx="1"
     y="116.46081"
     x="-382.51352"
     height="86.341629"
     width="117.46478"
     id="rect4556"
     style="color:#000000;display:inline;overflow:visible;visibility:visible;opacity:0.1;vector-effect:none;fill:#8c0fcd;fill-opacity:0.2;fill-rule:nonzero;stroke:none;stroke-width:12;stroke-miterlimit:4;stroke-dasharray:none;marker:none;marker-start:none;marker-mid:none;marker-end:none;paint-order:normal;enable-background:accumulate" /><path
     inkscape:connector-curvature="0"
     id="path6-4"
     d="m -467.66607,175.85984 h -48 a 8.0000001,8.0000001 0 0 0 -8,8 v 144 a 8.0000001,8.0000001 0 0 0 8,8 h 48 a 8.0000001,8.0000001 0 0 0 8,-8 v -144 a 8.0000001,8.0000001 0 0 0 -8,-8 z m -40,72.94399 32.00001,-15.99999 v 30.11199 l -32.00001,16 z m 32.00001,-56.944 v 23.056 l -32.00001,16.00001 v -39.05601 z m -32.00001,128 v -23.05599 l 32.00001,-16 v 39.05599 z"
     style="fill:#8e0dcf;fill-opacity:0.6;stroke-width:8" /><path
     style="fill:#8c0fcd;fill-opacity:0.2;fill-rule:evenodd;stroke:none;stroke-width:1.15830708px;stroke-linecap:butt;stroke-linejoin:miter;stroke-opacity:1"
     d="M 220.81739,224.13712 V 353.94698 L 463.59715,213.78749 V 83.977624 Z"
     id="path4560"
     inkscape:connector-curvature="0" /><g
     transform="matrix(0.47854834,-0.27629002,0,0.47854834,277.26231,157.19458)"
     id="g48"
     style="fill:#8d0ece;fill-opacity:0.41563785"><g
       id="g46"
       style="fill:#8d0ece;fill-opacity:0.41563785"><path
         inkscape:connector-curvature="0"
         d="m 238.877,158.17 c -1.006,-3.097 -3.892,-5.193 -7.147,-5.193 h -49.482 l -15.291,-47.059 c -1.006,-3.097 -3.892,-5.193 -7.147,-5.193 -3.255,0 -6.141,2.096 -7.147,5.193 l -15.291,47.059 H 87.894 c -3.255,0 -6.141,2.096 -7.147,5.193 -1.006,3.095 0.096,6.488 2.729,8.4 l 40.031,29.084 -15.291,47.06 c -0.962,2.961 0.049,6.296 2.495,8.223 2.613,2.059 6.377,2.134 9.069,0.178 l 40.031,-29.083 40.031,29.083 c 2.823,2.052 6.794,1.855 9.404,-0.46 2.213,-1.963 3.073,-5.127 2.159,-7.941 l -15.291,-47.06 40.031,-29.084 c 2.635,-1.911 3.738,-5.304 2.732,-8.4 z m -56.01,28.536 c -2.634,1.913 -3.736,5.305 -2.73,8.401 l 9.831,30.256 -25.738,-18.699 c -2.604,-1.893 -6.229,-1.893 -8.833,0 l -25.738,18.699 9.831,-30.256 c 1.006,-3.096 -0.096,-6.489 -2.73,-8.401 l -25.737,-18.7 h 31.813 c 3.255,0 6.141,-2.096 7.147,-5.193 l 9.831,-30.255 9.831,30.255 c 1.006,3.097 3.892,5.193 7.147,5.193 h 31.813 z"
         id="path44"
         style="fill:#8d0ece;fill-opacity:0.41563785" /></g></g><g
     transform="matrix(0.47854834,-0.27629002,0,0.47854834,277.26231,157.19458)"
     id="g54"
     style="fill:#8d0ece;fill-opacity:0.41563785"><g
       id="g52"
       style="fill:#8d0ece;fill-opacity:0.41563785"><path
         inkscape:connector-curvature="0"
         d="M 152.297,264.517 H 71.64 c -4.151,0 -7.515,3.364 -7.515,7.515 0,4.151 3.364,7.515 7.515,7.515 h 80.658 c 4.151,0 7.515,-3.364 7.515,-7.515 0,-4.151 -3.364,-7.515 -7.516,-7.515 z"
         id="path50"
         style="fill:#8d0ece;fill-opacity:0.41563785" /></g></g><g
     transform="matrix(0.47854834,-0.27629002,0,0.47854834,277.26231,157.19458)"
     id="g60"
     style="fill:#8d0ece;fill-opacity:0.41563785"><g
       id="g58"
       style="fill:#8d0ece;fill-opacity:0.41563785"><path
         inkscape:connector-curvature="0"
         d="m 247.984,264.517 h -64.125 c -4.151,0 -7.515,3.364 -7.515,7.515 0,4.151 3.364,7.515 7.515,7.515 h 64.125 c 4.151,0 7.515,-3.364 7.515,-7.515 0,-4.151 -3.364,-7.515 -7.515,-7.515 z"
         id="path56"
         style="fill:#8d0ece;fill-opacity:0.41563785" /></g></g><g
     transform="matrix(0.47854834,-0.27629002,0,0.47854834,277.26231,157.19458)"
     id="g66"
     style="fill:#8d0ece;fill-opacity:0.41563785"><g
       id="g64"
       style="fill:#8d0ece;fill-opacity:0.41563785"><path
         inkscape:connector-curvature="0"
         d="M 112.219,296.579 H 71.64 c -4.151,0 -7.515,3.364 -7.515,7.515 0,4.151 3.364,7.515 7.515,7.515 h 40.579 c 4.151,0 7.515,-3.364 7.515,-7.515 0,-4.151 -3.364,-7.515 -7.515,-7.515 z"
         id="path62"
         style="fill:#8d0ece;fill-opacity:0.41563785" /></g></g><g
     transform="matrix(0.47854834,-0.27629002,0,0.47854834,277.26231,157.19458)"
     id="g72"
     style="fill:#8d0ece;fill-opacity:0.41563785"><g
       id="g70"
       style="fill:#8d0ece;fill-opacity:0.41563785"><path
         inkscape:connector-curvature="0"
         d="M 247.984,296.579 H 143.781 c -4.151,0 -7.515,3.364 -7.515,7.515 0,4.151 3.364,7.515 7.515,7.515 h 104.203 c 4.151,0 7.515,-3.364 7.515,-7.515 0,-4.151 -3.364,-7.515 -7.515,-7.515 z"
         id="path68"
         style="fill:#8d0ece;fill-opacity:0.41563785" /></g></g></svg>