<?xml version="1.0" encoding="UTF-8" standalone="no"?>
<!-- Generator: Adobe Illustrator 18.0.0, SVG Export Plug-In . SVG Version: 6.00 Build 0)  -->

<svg
   xmlns:dc="http://purl.org/dc/elements/1.1/"
   xmlns:cc="http://creativecommons.org/ns#"
   xmlns:rdf="http://www.w3.org/1999/02/22-rdf-syntax-ns#"
   xmlns:svg="http://www.w3.org/2000/svg"
   xmlns="http://www.w3.org/2000/svg"
   xmlns:sodipodi="http://sodipodi.sourceforge.net/DTD/sodipodi-0.dtd"
   xmlns:inkscape="http://www.inkscape.org/namespaces/inkscape"
   version="1.1"
   id="Capa_1"
   x="0px"
   y="0px"
   viewBox="0 0 473.875 473.875"
   style="enable-background:new 0 0 473.875 473.875;"
   xml:space="preserve"
   sodipodi:docname="auto.svg"
   inkscape:version="0.92.0 r15299"><metadata
     id="metadata39"><rdf:RDF><cc:Work
         rdf:about=""><dc:format>image/svg+xml</dc:format><dc:type
           rdf:resource="http://purl.org/dc/dcmitype/StillImage" /><dc:title></dc:title></cc:Work></rdf:RDF></metadata><defs
     id="defs37"><clipPath
       clipPathUnits="userSpaceOnUse"
       id="clipPath5186"><g
         style="fill:#8e0ccf;fill-opacity:0.6"
         id="use5188"
         inkscape:label="Clip"><g
           style="fill:#8e0ccf;fill-opacity:0.6"
           transform="matrix(0.57136807,0,0,0.57136807,220.23505,230.46059)"
           id="g4541"><path
             style="fill:#8e0ccf;fill-opacity:0.6"
             inkscape:connector-curvature="0"
             d="m 430.978,109.319 c 0.002,-1.432 -0.76,-2.755 -2,-3.471 L 287.903,24.391 c -1.235,-0.713 -2.755,-0.715 -3.988,-0.007 L 91.089,134.878 c -0.598,0.343 -1.082,0.828 -1.427,1.397 L 44.745,212.645 1.172,256.218 C 0.422,256.969 0,257.986 0,259.047 v 61.783 c 0,1.429 0.762,2.749 1.999,3.463 l 141.074,81.511 c 0.619,0.358 1.31,0.537 2.001,0.537 0.69,0 1.381,-0.179 1.999,-0.536 0.271,-0.156 31.862,-18.289 31.862,-18.289 1.734,7.275 5.599,13.168 11.554,16.606 3.47,2.003 7.361,3 11.508,3 4.979,0 10.327,-1.439 15.753,-4.303 9.341,-4.931 17.926,-13.607 24.174,-24.43 6.009,-10.407 9.208,-21.69 9.09,-31.926 l 89.754,-51.128 c 1.649,7.591 5.572,13.745 11.713,17.291 3.47,2.003 7.361,3 11.508,3 4.979,0 10.327,-1.439 15.753,-4.303 9.341,-4.931 17.926,-13.607 24.174,-24.43 6.164,-10.675 9.374,-22.271 9.077,-32.714 l 15.958,-9.085 c 1.25,-0.711 2.021,-2.039 2.021,-3.476 V 109.391 c 0.001,-0.024 0.006,-0.047 0.006,-0.072 z M 94.486,143.781 228.66,221.242 223.439,230.128 89.292,152.62 Z m 142.577,78.954 60.196,-34.49 v 41.713 l -97.582,56.404 z m 68.196,-39.073 71.496,-40.964 v 41.31 l -71.496,41.326 z m 79.496,-45.548 38.218,-21.897 v 41.076 l -38.218,22.091 z M 285.896,32.47 418.956,109.3 234.159,215.179 101.1,138.362 Z M 85.24,159.518 219.387,237.026 187.573,291.174 53.424,213.665 Z M 48.591,220.112 182.496,297.48 144.064,335.912 10.16,258.544 Z M 8,266.535 33.239,281.118 v 30.479 L 8,297.015 Z m 33.239,19.206 66.267,38.288 v 30.479 L 41.239,316.22 Z m 74.267,42.91 25.568,14.773 v 30.479 L 115.506,359.13 Z M 8,318.521 v -12.268 l 133.074,76.888 v 12.268 z m 226.996,55.869 c -5.505,9.535 -12.956,17.119 -20.98,21.355 -7.424,3.917 -14.358,4.432 -19.526,1.449 -11.115,-6.418 -11.347,-27.704 -0.506,-46.482 5.505,-9.534 12.956,-17.118 20.98,-21.354 7.422,-3.917 14.357,-4.434 19.526,-1.448 5.169,2.984 8.191,9.247 8.509,17.634 0.345,9.067 -2.498,19.312 -8.003,28.846 z m 161.992,-91.495 c -5.505,9.535 -12.956,17.119 -20.98,21.355 -7.423,3.917 -14.358,4.432 -19.526,1.448 -11.115,-6.417 -11.347,-27.703 -0.506,-46.481 8.668,-15.014 22.264,-24.699 33.048,-24.699 2.704,0 5.231,0.609 7.46,1.895 5.169,2.984 8.19,9.248 8.509,17.635 0.343,9.068 -2.5,19.313 -8.005,28.847 z m 14.88,-37.278 c -1.811,-7.262 -5.714,-12.858 -11.385,-16.132 -15.388,-8.881 -37.979,2.422 -51.436,25.732 -6.153,10.657 -9.167,21.708 -9.168,31.419 l -89.842,51.178 c -1.731,-7.602 -5.697,-13.456 -11.548,-16.834 -7.637,-4.409 -17.316,-3.946 -27.261,1.302 -9.341,4.931 -17.926,13.606 -24.174,24.429 -6.316,10.94 -9.335,22.301 -9.171,32.195 l -28.81,16.415 v -53.107 l 41.326,-41.326 232.572,-134.357 v 72.764 z"
             id="path4535" /><path
             style="fill:#8e0ccf;fill-opacity:0.6"
             inkscape:connector-curvature="0"
             d="m 388.448,250.33 c -5.552,-3.206 -15.284,0.67 -23.14,14.275 -7.855,13.607 -6.345,23.972 -0.793,27.178 1.208,0.697 2.613,1.06 4.154,1.06 5.543,0 12.839,-4.688 18.986,-15.334 7.857,-13.608 6.346,-23.973 0.793,-27.179 z m -7.719,23.177 c -5.139,8.901 -11.148,11.959 -12.213,11.347 -1.057,-0.61 -1.42,-7.345 3.721,-16.25 5.142,-8.905 11.155,-11.95 12.212,-11.347 1.056,0.611 1.42,7.346 -3.72,16.25 z"
             id="path4537" /><path
             style="fill:#8e0ccf;fill-opacity:0.6"
             inkscape:connector-curvature="0"
             d="m 226.456,341.825 c -2.031,-1.173 -6.385,-2.456 -12.718,2.133 -3.784,2.743 -7.485,7.054 -10.422,12.141 -2.938,5.087 -4.821,10.448 -5.304,15.096 -0.809,7.779 2.479,10.908 4.511,12.081 1.208,0.697 2.613,1.06 4.155,1.06 5.543,0 12.839,-4.688 18.984,-15.334 2.938,-5.087 4.821,-10.448 5.304,-15.097 0.809,-7.777 -2.478,-10.907 -4.51,-12.08 z m -3.446,11.254 c -0.363,3.503 -1.922,7.849 -4.274,11.923 -5.138,8.899 -11.153,11.963 -12.212,11.346 -0.147,-0.085 -0.874,-1.243 -0.554,-4.325 0.363,-3.503 1.922,-7.849 4.274,-11.923 2.352,-4.074 5.337,-7.597 8.188,-9.664 2.015,-1.46 3.293,-1.715 3.795,-1.715 0.123,0 0.199,0.016 0.229,0.032 0.148,0.085 0.874,1.244 0.554,4.326 z"
             id="path4539" /></g><path
           style="fill:#8e0ccf;fill-opacity:0.6;fill-rule:evenodd;stroke:#000000;stroke-width:1px;stroke-linecap:butt;stroke-linejoin:miter;stroke-opacity:1"
           d="M 278.00036,309.51622 354.02603,353.407 459.61313,292.91112 383.5869,249.01291 Z"
           id="path4543"
           inkscape:connector-curvature="0" /></g></clipPath></defs><sodipodi:namedview
     pagecolor="#ffffff"
     bordercolor="#666666"
     borderopacity="1"
     objecttolerance="10"
     gridtolerance="10"
     guidetolerance="10"
     inkscape:pageopacity="0"
     inkscape:pageshadow="2"
     inkscape:window-width="1534"
     inkscape:window-height="901"
     id="namedview35"
     showgrid="false"
     inkscape:zoom="1.4086179"
     inkscape:cx="279.1131"
     inkscape:cy="215.50845"
     inkscape:window-x="0"
     inkscape:window-y="0"
     inkscape:window-maximized="0"
     inkscape:current-layer="Capa_1" /><path
     d="m 405.89368,64.15692 -103.9,-59.9874484 c -1.05355,-0.6089622 -2.35324,-0.6089622 -3.40679,0 L 82.183917,129.11656 c -1.054398,0.60812 -1.70339,1.7332 -1.70339,2.95028 v 33.13521 l -63.25881,36.04885 c -0.89939,0.51271 -1.503243,1.40103 -1.669323,2.40263 0,0 -11.552394,69.11591 -11.552394,69.51109 v 57.62316 c 0,1.21706 0.6489917,2.34216 1.7033905,2.95026 L 109.59402,393.71527 c 0.53146,0.30661 1.11828,0.45566 1.70084,0.45566 0.58682,0 1.16256,-0.16522 1.68039,-0.45906 l 0.006,0.0104 47.5263,-26.99533 c 0.33471,6.79483 3.08569,12.44156 8.1618,15.37225 2.32001,1.33886 4.88702,1.97507 7.56986,1.97507 8.77076,0 18.76795,-6.8076 25.29705,-18.11641 5.19534,-8.99815 6.81782,-18.4673 5.05823,-25.79017 l 86.29631,-49.81736 c 0.50846,6.42859 3.23984,11.74231 8.11069,14.55462 2.32001,1.33886 4.88702,1.97507 7.56987,1.97507 8.77161,0 18.7688,-6.80759 25.2979,-18.1164 3.98337,-6.89873 5.86903,-14.07596 5.73957,-20.34955 1.16768,4.73372 3.72447,8.39175 7.44978,10.54228 2.27913,1.31587 4.82826,1.97167 7.5375,1.97167 3.20919,0 6.64152,-0.92068 10.11389,-2.75352 5.88947,-3.1087 11.29262,-8.56295 15.21638,-15.35863 3.92375,-6.79568 5.94569,-14.20287 5.69358,-20.85716 -0.0639,-1.68806 -0.27595,-3.28073 -0.61833,-4.77376 l 6.28807,-3.62992 c 1.05439,-0.6081 1.70339,-1.73319 1.70339,-2.95027 v -33.16416 l 12.90148,-7.44807 c 1.05439,-0.60896 1.70339,-1.73321 1.70339,-2.95028 V 67.107192 c -8.5e-4,-1.217072 -0.64985,-2.341309 -1.70425,-2.950272 z M 300.29028,11.053725 397.37672,67.107192 187.77795,188.11094 90.700869,132.06684 Z M 87.294088,137.96739 184.37116,194.01148 v 27.27895 L 87.294088,165.23781 Z m -3.437442,33.15308 97.054924,56.03985 -58.10009,33.10113 -97.055778,-56.03133 z M 81.838129,369.82438 36.868622,343.863 v -21.82299 l 44.969507,25.96138 z M 86.9483,343.08284 35.165232,313.18834 c -1.0544,-0.60811 -2.353235,-0.60811 -3.406782,0 -1.054398,0.60812 -1.70339,1.7332 -1.70339,2.95027 v 7.09122 L 10.813562,311.65955 v -32.59438 l 97.078778,56.04666 v 34.92802 L 88.65169,358.46616 v -12.43305 c 0,-1.21622 -0.649843,-2.3413 -1.70339,-2.95027 z m 29.71565,-62.07665 -97.686889,-56.39586 2.48695,-14.98983 97.601719,56.34731 z m -1.15064,7.20364 -6.35195,39.76735 -97.95176,-56.55086 6.57679,-39.63619 z m 10.39238,-21.86983 16.14558,-9.19832 v 54.34583 l -25.72971,14.85442 z m -115.092128,53.27013 19.240646,11.57112 v 8.74776 L 10.813562,328.82036 Z m 77.838128,54.14736 v -7.3399 l 19.24065,11.57369 v 6.87402 z m 72.54399,-15.25641 -46.48978,26.40596 v -49.7637 l 32.4564,-18.73815 c 1.0544,-0.60896 1.70339,-1.73319 1.70339,-2.95027 v -60.19441 l 35.50547,-20.22776 v 95.84382 c -0.97519,0.37304 -1.95634,0.81081 -2.94175,1.33034 -5.88947,3.1087 -11.29348,8.5638 -15.21639,15.35948 -2.48184,4.2985 -4.14435,8.70432 -5.01734,12.93469 z m 34.44,4.05067 c -6.39623,11.07799 -17.18636,17.32518 -23.56045,13.6467 -6.37493,-3.68102 -6.3579,-16.14899 0.0375,-27.22698 3.2901,-5.69784 7.72828,-10.22291 12.49692,-12.74051 2.46225,-1.2997 4.81464,-1.95464 6.91833,-1.95464 1.53219,0 2.93238,0.34834 4.14605,1.04843 6.37494,3.68102 6.3579,16.14985 -0.0384,27.227 z m 3.4451,-33.12754 c -2.37877,-1.37379 -5.0548,-2.01938 -7.89606,-1.9589 v -13.51726 l 55.18645,-31.85935 v 27.25083 l -42.5064,24.53819 c -1.25541,-1.82007 -2.84893,-3.33609 -4.78399,-4.45351 z m 128.8879,-44.06586 c -6.39538,11.07714 -17.18295,17.32774 -23.56045,13.64671 -6.37493,-3.68103 -6.35705,-16.14899 0.0383,-27.22699 5.1485,-8.9164 13.14251,-14.70537 19.39054,-14.70537 1.51432,0 2.92644,0.33983 4.16991,1.0578 6.37493,3.68104 6.35705,16.14985 -0.0383,27.22785 z M 374.0258,259.4106 c -3.2901,5.69784 -7.72829,10.22291 -12.49693,12.73966 -4.25592,2.24677 -8.18478,2.56872 -11.06352,0.90621 -2.87872,-1.66166 -4.56423,-5.22516 -4.74734,-10.03468 -0.20441,-5.38867 1.49472,-11.49447 4.78482,-17.19232 3.2901,-5.69784 7.72828,-10.22289 12.49692,-12.73966 2.46225,-1.29968 4.81463,-1.95464 6.91747,-1.95464 1.5322,0 2.93238,0.34834 4.14605,1.04844 2.87874,1.66165 4.56424,5.22515 4.7465,10.03382 0.20441,5.38953 -1.49472,11.49533 -4.78397,17.19317 z m 12.15284,-30.77174 -3.84456,2.21951 c -1.28009,-1.89672 -2.90853,-3.44596 -4.86402,-4.57445 -4.97987,-2.87532 -11.24919,-2.59767 -17.65139,0.781 -5.88947,3.10869 -11.29348,8.56295 -15.21638,15.35863 -2.45118,4.24569 -4.16054,8.73072 -5.03608,13.12121 l -2.98093,1.72042 c -1.30736,-2.08153 -3.03289,-3.80026 -5.1715,-5.03522 -9.90606,-5.71573 -24.34145,1.37294 -32.86777,16.14132 -2.66154,4.60938 -4.38708,9.34396 -5.20045,13.85027 l -40.16083,23.184 V 278.15471 L 386.17864,201.37609 Z M 191.18472,306.08009 V 194.01148 L 400.78351,73.007737 V 185.07635 Z"
     id="path2"
     inkscape:connector-curvature="0"
     style="stroke-width:0.85169524;fill:#8d0ece;fill-opacity:1" /><g
     id="g4" /><g
     id="g6" /><g
     id="g8" /><g
     id="g10" /><g
     id="g12" /><g
     id="g14" /><g
     id="g16" /><g
     id="g18" /><g
     id="g20" /><g
     id="g22" /><g
     id="g24" /><g
     id="g26" /><g
     id="g28" /><g
     id="g30" /><g
     id="g32" /><g
     transform="translate(270.43367,412.99845)"
     id="g4524" /><g
     transform="translate(270.43367,412.99845)"
     id="g4526" /><g
     transform="translate(270.43367,412.99845)"
     id="g4528" /><g
     transform="translate(270.43367,412.99845)"
     id="g4530" /><g
     transform="translate(270.43367,412.99845)"
     id="g4532" /><g
     transform="translate(270.43367,412.99845)"
     id="g4534" /><g
     transform="translate(270.43367,412.99845)"
     id="g4536" /><g
     transform="translate(270.43367,412.99845)"
     id="g4538" /><g
     transform="translate(270.43367,412.99845)"
     id="g4540" /><g
     transform="translate(270.43367,412.99845)"
     id="g4542" /><g
     transform="translate(270.43367,412.99845)"
     id="g4544" /><g
     transform="translate(270.43367,412.99845)"
     id="g4546" /><g
     transform="translate(270.43367,412.99845)"
     id="g4548" /><g
     transform="translate(270.43367,412.99845)"
     id="g4550" /><g
     transform="translate(270.43367,412.99845)"
     id="g4552" /><path
     inkscape:connector-curvature="0"
     id="path5175"
     d="m 275.89858,304.94848 78.46552,45.29934 108.97564,-62.43733 -78.46609,-45.30701 z"
     style="fill:#ffffff;fill-opacity:1;fill-rule:evenodd;stroke:none;stroke-width:1.03209245px;stroke-linecap:butt;stroke-linejoin:miter;stroke-opacity:1" /><rect
     ry="1.3913"
     rx="1"
     y="116.46081"
     x="-382.51352"
     height="86.341629"
     width="117.46478"
     id="rect4556"
     style="color:#000000;display:inline;overflow:visible;visibility:visible;opacity:0.1;vector-effect:none;fill:#8c0fcd;fill-opacity:0.2;fill-rule:nonzero;stroke:none;stroke-width:12;stroke-miterlimit:4;stroke-dasharray:none;marker:none;marker-start:none;marker-mid:none;marker-end:none;paint-order:normal;enable-background:accumulate" /><path
     inkscape:connector-curvature="0"
     id="path6-4"
     d="m -467.66607,175.85984 h -48 a 8.0000001,8.0000001 0 0 0 -8,8 v 144 a 8.0000001,8.0000001 0 0 0 8,8 h 48 a 8.0000001,8.0000001 0 0 0 8,-8 v -144 a 8.0000001,8.0000001 0 0 0 -8,-8 z m -40,72.94399 32.00001,-15.99999 v 30.11199 l -32.00001,16 z m 32.00001,-56.944 v 23.056 l -32.00001,16.00001 v -39.05601 z m -32.00001,128 v -23.05599 l 32.00001,-16 v 39.05599 z"
     style="fill:#8e0dcf;fill-opacity:0.6;stroke-width:8" /><path
     style="fill:#8c0fcd;fill-rule:evenodd;stroke:none;stroke-width:1px;stroke-linecap:butt;stroke-linejoin:miter;stroke-opacity:1;fill-opacity:0.2"
     d="M 191.18472,194.01148 V 306.08009 L 400.78351,185.07635 V 73.007737 Z"
     id="path4560"
     inkscape:connector-curvature="0" /><g
     id="g4522"
     transform="matrix(0.58970464,0,0,0.58970464,217.34431,231.0351)"
     style="fill:#8d0ece;fill-opacity:0.54724407"><path
       id="path4516"
       d="m 430.978,109.319 c 0.002,-1.432 -0.76,-2.755 -2,-3.471 L 287.903,24.391 c -1.235,-0.713 -2.755,-0.715 -3.988,-0.007 L 91.089,134.878 c -0.598,0.343 -1.082,0.828 -1.427,1.397 L 44.745,212.645 1.172,256.218 C 0.422,256.969 0,257.986 0,259.047 v 61.783 c 0,1.429 0.762,2.749 1.999,3.463 l 141.074,81.511 c 0.619,0.358 1.31,0.537 2.001,0.537 0.69,0 1.381,-0.179 1.999,-0.536 0.271,-0.156 31.862,-18.289 31.862,-18.289 1.734,7.275 5.599,13.168 11.554,16.606 3.47,2.003 7.361,3 11.508,3 4.979,0 10.327,-1.439 15.753,-4.303 9.341,-4.931 17.926,-13.607 24.174,-24.43 6.009,-10.407 9.208,-21.69 9.09,-31.926 l 89.754,-51.128 c 1.649,7.591 5.572,13.745 11.713,17.291 3.47,2.003 7.361,3 11.508,3 4.979,0 10.327,-1.439 15.753,-4.303 9.341,-4.931 17.926,-13.607 24.174,-24.43 6.164,-10.675 9.374,-22.271 9.077,-32.714 l 15.958,-9.085 c 1.25,-0.711 2.021,-2.039 2.021,-3.476 V 109.391 c 0.001,-0.024 0.006,-0.047 0.006,-0.072 z M 94.486,143.781 228.66,221.242 223.439,230.128 89.292,152.62 Z m 142.577,78.954 60.196,-34.49 v 41.713 l -97.582,56.404 z m 68.196,-39.073 71.496,-40.964 v 41.31 l -71.496,41.326 z m 79.496,-45.548 38.218,-21.897 v 41.076 l -38.218,22.091 z M 285.896,32.47 418.956,109.3 234.159,215.179 101.1,138.362 Z M 85.24,159.518 219.387,237.026 187.573,291.174 53.424,213.665 Z M 48.591,220.112 182.496,297.48 144.064,335.912 10.16,258.544 Z M 8,266.535 33.239,281.118 v 30.479 L 8,297.015 Z m 33.239,19.206 66.267,38.288 v 30.479 L 41.239,316.22 Z m 74.267,42.91 25.568,14.773 v 30.479 L 115.506,359.13 Z M 8,318.521 v -12.268 l 133.074,76.888 v 12.268 z m 226.996,55.869 c -5.505,9.535 -12.956,17.119 -20.98,21.355 -7.424,3.917 -14.358,4.432 -19.526,1.449 -11.115,-6.418 -11.347,-27.704 -0.506,-46.482 5.505,-9.534 12.956,-17.118 20.98,-21.354 7.422,-3.917 14.357,-4.434 19.526,-1.448 5.169,2.984 8.191,9.247 8.509,17.634 0.345,9.067 -2.498,19.312 -8.003,28.846 z m 161.992,-91.495 c -5.505,9.535 -12.956,17.119 -20.98,21.355 -7.423,3.917 -14.358,4.432 -19.526,1.448 -11.115,-6.417 -11.347,-27.703 -0.506,-46.481 8.668,-15.014 22.264,-24.699 33.048,-24.699 2.704,0 5.231,0.609 7.46,1.895 5.169,2.984 8.19,9.248 8.509,17.635 0.343,9.068 -2.5,19.313 -8.005,28.847 z m 14.88,-37.278 c -1.811,-7.262 -5.714,-12.858 -11.385,-16.132 -15.388,-8.881 -37.979,2.422 -51.436,25.732 -6.153,10.657 -9.167,21.708 -9.168,31.419 l -89.842,51.178 c -1.731,-7.602 -5.697,-13.456 -11.548,-16.834 -7.637,-4.409 -17.316,-3.946 -27.261,1.302 -9.341,4.931 -17.926,13.606 -24.174,24.429 -6.316,10.94 -9.335,22.301 -9.171,32.195 l -28.81,16.415 v -53.107 l 41.326,-41.326 232.572,-134.357 v 72.764 z"
       inkscape:connector-curvature="0"
       style="fill:#8d0ece;fill-opacity:0.54724407" /><path
       id="path4518"
       d="m 388.448,250.33 c -5.552,-3.206 -15.284,0.67 -23.14,14.275 -7.855,13.607 -6.345,23.972 -0.793,27.178 1.208,0.697 2.613,1.06 4.154,1.06 5.543,0 12.839,-4.688 18.986,-15.334 7.857,-13.608 6.346,-23.973 0.793,-27.179 z m -7.719,23.177 c -5.139,8.901 -11.148,11.959 -12.213,11.347 -1.057,-0.61 -1.42,-7.345 3.721,-16.25 5.142,-8.905 11.155,-11.95 12.212,-11.347 1.056,0.611 1.42,7.346 -3.72,16.25 z"
       inkscape:connector-curvature="0"
       style="fill:#8d0ece;fill-opacity:0.54724407" /><path
       id="path4520"
       d="m 226.456,341.825 c -2.031,-1.173 -6.385,-2.456 -12.718,2.133 -3.784,2.743 -7.485,7.054 -10.422,12.141 -2.938,5.087 -4.821,10.448 -5.304,15.096 -0.809,7.779 2.479,10.908 4.511,12.081 1.208,0.697 2.613,1.06 4.155,1.06 5.543,0 12.839,-4.688 18.984,-15.334 2.938,-5.087 4.821,-10.448 5.304,-15.097 0.809,-7.777 -2.478,-10.907 -4.51,-12.08 z m -3.446,11.254 c -0.363,3.503 -1.922,7.849 -4.274,11.923 -5.138,8.899 -11.153,11.963 -12.212,11.346 -0.147,-0.085 -0.874,-1.243 -0.554,-4.325 0.363,-3.503 1.922,-7.849 4.274,-11.923 2.352,-4.074 5.337,-7.597 8.188,-9.664 2.015,-1.46 3.293,-1.715 3.795,-1.715 0.123,0 0.199,0.016 0.229,0.032 0.148,0.085 0.874,1.244 0.554,4.326 z"
       inkscape:connector-curvature="0"
       style="fill:#8d0ece;fill-opacity:0.54724407" /></g></svg>