<?xml version="1.0" encoding="utf-8"?>
<!-- Generator: Adobe Illustrator 19.2.1, SVG Export Plug-In . SVG Version: 6.00 Build 0)  -->
<svg version="1.1" id="Capa_1" xmlns="http://www.w3.org/2000/svg" xmlns:xlink="http://www.w3.org/1999/xlink" x="0px" y="0px"
	 viewBox="0 0 113.4 56.7" style="enable-background:new 0 0 113.4 56.7;" xml:space="preserve">
<style type="text/css">
	.st0{fill:#E41F13;}
</style>
<g>
	<path class="st0" d="M56.4,24.2c0.7-6.5,4.2-10.4,4.2-14.2c0-2.7-1-5.1-4.2-8.6c-3.2,3.5-4.2,5.9-4.2,8.6
		C52.2,13.8,55.7,17.7,56.4,24.2"/>
	<path class="st0" d="M49.5,23.4c-1.7,1.5-5,0.5-5-3.1c0-2,2.1-3.8,4.2-3.8c4.1,0,5.9,4.3,6,6.3c0.1,1.6-0.6,4.1-3.3,4.1
		c1.2-0.6,1.6-2.1,1.5-3.1c-0.1-1.3-0.9-2.9-2.7-2.9c-1,0-1.7,0.6-1.7,1.3C48.6,22.8,48.9,23.4,49.5,23.4"/>
	<path class="st0" d="M63.3,23.4c1.7,1.5,5,0.5,5-3.1c0-2-2.1-3.8-4.2-3.8c-4.1,0-5.9,4.3-6,6.3c-0.1,1.6,0.6,4.1,3.3,4.1
		c-1.2-0.6-1.6-2.1-1.5-3.1c0.1-1.3,0.9-2.9,2.7-2.9c1,0,1.7,0.6,1.7,1.3C64.3,22.8,63.9,23.4,63.3,23.4"/>
	<rect x="24.6" y="33.8" width="3" height="21.2"/>
	<polyline points="19.9,55 16.8,55 16.8,45.8 4.2,45.8 4.2,55 1.2,55 1.2,33.8 4.2,33.8 4.2,43.1 16.8,43.1 16.8,33.8 19.9,33.8 
		19.9,55 	"/>
	<polyline points="103.1,44.1 112.2,55 108.5,55 101.3,46.3 94,55 90.3,55 99.4,44.1 90.9,33.8 94.6,33.8 101.3,41.9 107.9,33.8 
		111.6,33.8 103.1,44.1 	"/>
	<path d="M79.9,33.6c7,0,11.4,5,11.4,10.9c0,5.7-4.3,10.9-11.5,10.9c-6.9,0-11.3-5.1-11.3-10.9C68.5,38.6,73,33.6,79.9,33.6
		 M79.9,52.5c4.8,0,8.3-3.4,8.3-8.1c0-4.7-3.5-8.1-8.3-8.1c-4.7,0-8.2,3.4-8.2,8.1C71.7,49.1,75.2,52.5,79.9,52.5z"/>
	<path d="M65.7,49.7c-1.5,1.8-3.8,2.8-6.4,2.8c-4.7,0-8.2-3.4-8.2-8.1c0-4.7,3.5-8.1,8.2-8.1c2.6,0,4.8,1,6.3,2.7l1.6-2.7
		c-2-1.7-4.6-2.8-7.9-2.8c-6.9,0-11.4,5-11.4,10.9c0,5.8,4.4,10.9,11.3,10.9c3.4,0,6.1-1.2,8.1-3L65.7,49.7"/>
	<path d="M44.1,37.8c-1.7-1.4-3.8-1.7-5.2-1.7c-2.2,0-4,1-4,2.8c0,4.1,10.8,4.1,10.8,10.8c0,4.4-4.5,5.9-7.9,5.7
		c-2.3-0.1-4.1-0.6-6-1.8v-3c1.9,1.2,3.6,1.8,5.5,2c2.2,0.2,5.4-0.3,5.4-3c0-4.4-10.9-4.5-10.9-10.3c0-3.5,3.1-5.7,6.8-5.7
		c2.4,0,4,0.5,5.5,1.4L44.1,37.8"/>
</g>
</svg>
