<?xml version="1.0" encoding="UTF-8" standalone="no"?>
<svg
   xmlns:dc="http://purl.org/dc/elements/1.1/"
   xmlns:cc="http://creativecommons.org/ns#"
   xmlns:rdf="http://www.w3.org/1999/02/22-rdf-syntax-ns#"
   xmlns:svg="http://www.w3.org/2000/svg"
   xmlns="http://www.w3.org/2000/svg"
   xmlns:sodipodi="http://sodipodi.sourceforge.net/DTD/sodipodi-0.dtd"
   xmlns:inkscape="http://www.inkscape.org/namespaces/inkscape"
   id="Layer_1"
   enable-background="new 0 0 256 256"
   height="512"
   viewBox="0 0 256 256"
   width="512"
   version="1.1"
   sodipodi:docname="oksent.svg"
   inkscape:version="0.92.0 r15299">
  <metadata
     id="metadata89">
    <rdf:RDF>
      <cc:Work
         rdf:about="">
        <dc:format>image/svg+xml</dc:format>
        <dc:type
           rdf:resource="http://purl.org/dc/dcmitype/StillImage" />
        <dc:title></dc:title>
      </cc:Work>
    </rdf:RDF>
  </metadata>
  <defs
     id="defs87" />
  <sodipodi:namedview
     pagecolor="#ffffff"
     bordercolor="#666666"
     borderopacity="1"
     objecttolerance="10"
     gridtolerance="10"
     guidetolerance="10"
     inkscape:pageopacity="0"
     inkscape:pageshadow="2"
     inkscape:window-width="1920"
     inkscape:window-height="1057"
     id="namedview85"
     showgrid="false"
     fit-margin-top="0"
     fit-margin-left="0"
     fit-margin-right="0"
     fit-margin-bottom="0"
     inkscape:zoom="0.4609375"
     inkscape:cx="236.47458"
     inkscape:cy="253.83052"
     inkscape:window-x="-8"
     inkscape:window-y="-8"
     inkscape:window-maximized="1"
     inkscape:current-layer="Layer_1" />
  <circle
     style="fill:#e8c0e8;fill-opacity:1;fill-rule:evenodd;stroke:none;stroke-width:0.5px;stroke-linecap:butt;stroke-linejoin:miter;stroke-opacity:1"
     id="path4626"
     cx="128"
     cy="128"
     r="128" />
  <path
     style="fill:#edf4fc"
     inkscape:connector-curvature="0"
     id="path2"
     d="m 214.63729,61.78474 c -16.1,0 -29.1,-13 -29.1,-29.1 0,-2.6 0.4,-5.3 1.1,-7.8 h -71.9 c -2.8,0 -5.1,2.3 -5.1,5.1 v 161.8 c 0,2.8 2.3,5.1 5.1,5.1 h 110.5 c 2.8,0 5.1,-2.3 5.1,-5.1 v -134.6 c -4.7,3 -10.1,4.6 -15.7,4.6 z" />
  <path
     style="fill:#70d6f9"
     inkscape:connector-curvature="0"
     id="path8"
     d="m 196.23729,213.38474 h -2.2 v -2.3 c 0,-1.7 -1.4,-3 -3,-3 -1.7,0 -3,1.4 -3,3 v 2.2 h -2.2 c -1.7,0 -3,1.4 -3,3 0,1.7 1.4,3 3,3 h 2.2 v 2.2 c 0,1.7 1.4,3 3,3 1.7,0 3,-1.4 3,-3 v -2.2 h 2.2 c 1.7,0 3,-1.4 3,-3 0.1,-1.6 -1.3,-2.9 -3,-2.9 z" />
  <circle
     style="fill:#70d6f9"
     id="circle10"
     r="3.2"
     cy="8.4847393"
     cx="46.43729" />
  <circle
     style="fill:#f5c84c"
     id="circle12"
     r="3.2"
     cy="215.48474"
     cx="231.43729" />
  <circle
     style="fill:#87d147"
     id="circle14"
     r="3.2"
     cy="237.48474"
     cx="180.43729" />
  <path
     style="fill:#f5c84c"
     inkscape:connector-curvature="0"
     id="path16"
     d="m 34.537289,27.98474 c -4,-0.7 -7.1,-3.8 -7.9,-7.7 0,-0.1 -0.1,-0.2 -0.2,-0.1 -0.1,0 -0.1,0.1 -0.1,0.1 -0.8,4 -3.9,7 -7.9,7.7 -0.1,0 -0.2,0.1 -0.2,0.2 0,0.1 0.1,0.1 0.2,0.2 4,0.7 7.1,3.8 7.9,7.7 0,0.1 0.1,0.2 0.2,0.1 0.1,0 0.1,-0.1 0.1,-0.1 0.8,-4 3.9,-7 7.9,-7.7 0.1,0 0.2,-0.1 0.2,-0.2 0,-0.1 -0.1,-0.2 -0.2,-0.2 z" />
  <path
     style="fill:#fc657e"
     inkscape:connector-curvature="0"
     id="path18"
     d="m 34.867797,104.85762 c -2.7,-0.5 -4.9,-2.6 -5.5,-5.299999 0,-0.1 -0.1,-0.1 -0.1,-0.1 -0.1,0 -0.1,0 -0.1,0.1 -0.6,2.699999 -2.7,4.799999 -5.5,5.299999 -0.1,0 -0.1,0.1 -0.1,0.1 0,0.1 0,0.1 0.1,0.1 2.7,0.5 4.9,2.6 5.5,5.3 0,0.1 0.1,0.1 0.1,0.1 0.1,0 0.1,0 0.1,-0.1 0.6,-2.7 2.7,-4.8 5.5,-5.3 0.1,0 0,-0.1 0,-0.2 0,0.1 0,0.1 0,0 z" />
  <circle
     style="fill:#87d147"
     id="circle38"
     r="29.1"
     cy="32.684738"
     cx="214.63728" />
  <path
     style="fill:#edf4fc"
     inkscape:connector-curvature="0"
     id="path40"
     d="m 208.23729,44.58474 -8.9,-8.9 c -2,-1.9 -2,-5.1 -0.1,-7.1 1.9,-2 5.1,-2 7.1,-0.1 0,0 0.1,0.1 0.1,0.1 l 5.4,5.4 11.3,-11.3 c 1.9,-2 5.1,-2 7.1,-0.1 2,1.9 2,5.1 0.1,7.1 0,0 -0.1,0.1 -0.1,0.1 l -14.8,14.8 c -2.1,2 -5.2,2 -7.2,0 z" />
  <path
     inkscape:connector-curvature="0"
     id="path42"
     d="m 214.63729,64.28474 c -17.4,0 -31.6,-14.1 -31.6,-31.6 0,-17.5 14.2,-31.6000003 31.6,-31.6000003 17.4,0 31.6,14.1000003 31.6,31.6000003 0,17.4 -14.2,31.6 -31.6,31.6 z m 0,-58.2000003 c -14.7,0 -26.6,11.9000003 -26.6,26.6000003 0,14.7 11.9,26.6 26.6,26.6 14.7,0 26.6,-11.9 26.6,-26.6 0,-14.7 -11.9,-26.6000003 -26.6,-26.6000003 z" />
  <path
     inkscape:connector-curvature="0"
     id="path44"
     d="m 211.83729,48.58474 c -2,0 -3.9,-0.8 -5.3,-2.2 l -8.9,-8.9 c -3,-2.9 -3.1,-7.6 -0.2,-10.6 2.9,-3 7.6,-3.1 10.6,-0.2 0.1,0.1 0.2,0.2 0.2,0.2 l 3.6,3.6 9.5,-9.5 c 2.9,-3 7.6,-3.1 10.6,-0.2 3,2.9 3.1,7.6 0.2,10.6 -0.1,0.1 -0.1,0.1 -0.2,0.2 l -14.8,14.8 c -1.4,1.4 -3.3,2.2 -5.3,2.2 z m -1.8,-5.7 c 0.5,0.5 1.1,0.7 1.8,0.7 0.7,0 1.3,-0.3 1.8,-0.7 l 14.8,-14.8 c 1,-1 1,-2.6 0,-3.5 -1,-0.9 -2.5,-0.9 -3.5,0 l -11.3,11.3 c -1,1 -2.6,1 -3.5,0 l -5.4,-5.4 c -1,-0.9 -2.5,-0.9 -3.5,0 -1,1 -1,2.6 0,3.5 z" />
  <path
     inkscape:connector-curvature="0"
     id="path46"
     d="m 225.23729,199.28474 h -110.5 c -4.2,0 -7.6,-3.4 -7.6,-7.6 v -161.7 c 0,-4.2 3.4,-7.6 7.6,-7.6 h 71.9 c 1.4,0 2.5,1.1 2.5,2.5 0,0.2 0,0.5 -0.1,0.7 -3.9,14.1 4.3,28.8 18.5,32.7 7.3,2 15.1,0.9 21.5,-3.2 1.2,-0.7 2.7,-0.4 3.5,0.8 0.3,0.4 0.4,0.9 0.4,1.3 v 134.6 c -0.1,4.1 -3.5,7.5 -7.7,7.5 z m -110.5,-171.9 c -1.4,0 -2.6,1.1 -2.6,2.6 v 161.8 c 0,1.4 1.1,2.6 2.6,2.6 h 110.5 c 1.4,0 2.6,-1.1 2.6,-2.6 v -130.4 c -15.8,7.3 -34.6,0.4 -41.9,-15.5 -2.7,-5.8 -3.5,-12.2 -2.4,-18.5 z" />
  <path
     inkscape:connector-curvature="0"
     id="path52"
     d="m 187.73729,74.38474 h -35 c -1.4,0 -2.5,-1.1 -2.5,-2.5 0,-1.4 1.1,-2.5 2.5,-2.5 h 35 c 1.4,0 2.5,1.1 2.5,2.5 0,1.4 -1.1,2.5 -2.5,2.5 z" />
  <path
     inkscape:connector-curvature="0"
     id="path54"
     d="m 208.13729,94.38474 h -64.8 c -1.4,0 -2.5,-1.1 -2.5,-2.5 0,-1.4 1.1,-2.5 2.5,-2.5 h 64.8 c 1.4,0 2.5,1.1 2.5,2.5 0,1.4 -1.1,2.5 -2.5,2.5 z" />
  <path
     inkscape:connector-curvature="0"
     id="path56"
     d="m 208.13729,107.08474 h -64.8 c -1.4,0 -2.5,-1.1 -2.5,-2.5 0,-1.4 1.1,-2.5 2.5,-2.5 h 64.8 c 1.4,0 2.5,1.1 2.5,2.5 0,1.4 -1.1,2.5 -2.5,2.5 z" />
  <path
     inkscape:connector-curvature="0"
     id="path58"
     d="m 208.13729,119.78474 h -64.8 c -1.4,0 -2.5,-1.1 -2.5,-2.5 0,-1.4 1.1,-2.5 2.5,-2.5 h 64.8 c 1.4,0 2.5,1.1 2.5,2.5 0,1.4 -1.1,2.5 -2.5,2.5 z" />
  <path
     inkscape:connector-curvature="0"
     id="path60"
     d="m 208.13729,132.48474 h -64.8 c -1.4,0 -2.5,-1.1 -2.5,-2.5 0,-1.4 1.1,-2.5 2.5,-2.5 h 64.8 c 1.4,0 2.5,1.1 2.5,2.5 0,1.3 -1.1,2.5 -2.5,2.5 z" />
  <path
     inkscape:connector-curvature="0"
     id="path62"
     d="m 208.13729,145.08474 h -64.8 c -1.4,0 -2.5,-1.1 -2.5,-2.5 0,-1.4 1.1,-2.5 2.5,-2.5 h 64.8 c 1.4,0 2.5,1.1 2.5,2.5 0,1.4 -1.1,2.5 -2.5,2.5 z" />
  <path
     inkscape:connector-curvature="0"
     id="path64"
     d="m 208.13729,157.78474 h -64.8 c -1.4,0 -2.5,-1.1 -2.5,-2.5 0,-1.4 1.1,-2.5 2.5,-2.5 h 64.8 c 1.4,0 2.5,1.1 2.5,2.5 0,1.4 -1.1,2.5 -2.5,2.5 z" />
  <path
     inkscape:connector-curvature="0"
     id="path66"
     d="m 132.13729,94.38474 h -1.9 c -1.4,0 -2.5,-1.1 -2.5,-2.5 0,-1.4 1.1,-2.5 2.5,-2.5 h 1.9 c 1.4,0 2.5,1.1 2.5,2.5 0,1.4 -1.1,2.5 -2.5,2.5 z" />
  <path
     inkscape:connector-curvature="0"
     id="path68"
     d="m 132.13729,107.08474 h -1.9 c -1.4,0 -2.5,-1.1 -2.5,-2.5 0,-1.4 1.1,-2.5 2.5,-2.5 h 1.9 c 1.4,0 2.5,1.1 2.5,2.5 0,1.4 -1.1,2.5 -2.5,2.5 z" />
  <path
     inkscape:connector-curvature="0"
     id="path70"
     d="m 132.13729,119.78474 h -1.9 c -1.4,0 -2.5,-1.1 -2.5,-2.5 0,-1.4 1.1,-2.5 2.5,-2.5 h 1.9 c 1.4,0 2.5,1.1 2.5,2.5 0,1.4 -1.1,2.5 -2.5,2.5 z" />
  <path
     inkscape:connector-curvature="0"
     id="path72"
     d="m 132.13729,132.48474 h -1.9 c -1.4,0 -2.5,-1.1 -2.5,-2.5 0,-1.4 1.1,-2.5 2.5,-2.5 h 1.9 c 1.4,0 2.5,1.1 2.5,2.5 0,1.3 -1.1,2.5 -2.5,2.5 z" />
  <path
     inkscape:connector-curvature="0"
     id="path74"
     d="m 132.13729,145.08474 h -1.9 c -1.4,0 -2.5,-1.1 -2.5,-2.5 0,-1.4 1.1,-2.5 2.5,-2.5 h 1.9 c 1.4,0 2.5,1.1 2.5,2.5 0,1.4 -1.1,2.5 -2.5,2.5 z" />
  <path
     inkscape:connector-curvature="0"
     id="path76"
     d="m 132.13729,157.78474 h -1.9 c -1.4,0 -2.5,-1.1 -2.5,-2.5 0,-1.4 1.1,-2.5 2.5,-2.5 h 1.9 c 1.4,0 2.5,1.1 2.5,2.5 0,1.4 -1.1,2.5 -2.5,2.5 z" />
  <g
     transform="matrix(0.31190482,0,0,0.31190482,1.7680534,89.600059)"
     id="g16">
    <g
       id="g12">
      <path
         style="fill:#f1d0a5"
         inkscape:connector-curvature="0"
         d="m 452.342,324.493 h -5.159 c 11.558,0 22.016,4.689 29.595,12.268 7.578,7.569 12.258,18.037 12.258,29.595 0,23.116 -18.737,41.852 -41.853,41.852 h -5.159 c 11.558,0 22.026,4.679 29.595,12.258 7.579,7.579 12.268,18.037 12.268,29.595 0,23.116 -18.747,41.852 -41.862,41.852 H 116.073 V 187.267 c 39.243,0 74.136,-24.945 86.844,-62.069 l 28.795,-84.175 c 3.43,-10.028 9.868,-18.407 18.087,-24.276 8.218,-5.879 18.227,-9.248 28.825,-9.248 11.358,0 21.716,3.609 30.135,9.668 h 0.01 c 16.077,11.568 25.056,32.054 20.366,53.26 l -19.186,86.654 h 147.553 c 23.116,0 41.852,18.737 41.852,41.852 0,23.115 -18.737,41.852 -41.852,41.852 h -5.159 c 11.558,0 22.016,4.689 29.595,12.258 7.579,7.569 12.258,18.037 12.258,29.595 -0.001,23.118 -18.738,41.855 -41.854,41.855 z"
         id="path2-8" />
      <path
         style="fill:#f1b986"
         inkscape:connector-curvature="0"
         d="m 308.759,17.168 c -30.144,-9.658 -53.81,36.243 -72.427,102.731 -18.617,66.488 -68.958,90.434 -120.258,90.434 v -23.066 c 39.243,0 74.136,-24.945 86.844,-62.069 l 28.795,-84.175 c 3.43,-10.028 9.868,-18.407 18.087,-24.276 8.218,-5.879 18.227,-9.248 28.825,-9.248 11.357,0.001 21.715,3.61 30.134,9.669 z"
         id="path4-3" />
      <path
         style="fill:#f1b986"
         inkscape:connector-curvature="0"
         d="m 483.887,450.06 c 0,23.116 -18.747,41.852 -41.862,41.852 H 116.073 V 369.924 c 0,34.574 16.527,91.763 134.885,91.763 118.369,0 244.486,17.297 220.66,-41.223 7.58,7.58 12.269,18.038 12.269,29.596 z"
         id="path6-0" />
      <path
         style="fill:#6bbef6"
         inkscape:connector-curvature="0"
         d="m 33.978,504.496 h 60.755 c 11.785,0 21.339,-9.554 21.339,-21.339 v -287.13 c 0,-11.785 -9.554,-21.339 -21.339,-21.339 H 33.978 c -11.785,0 -21.339,9.554 -21.339,21.339 v 287.131 c 0,11.785 9.554,21.338 21.339,21.338 z"
         id="path8-3" />
      <path
         style="fill:#528ecb"
         inkscape:connector-curvature="0"
         d="m 116.07,412.667 v 70.487 c 0,11.788 -9.558,21.346 -21.336,21.346 h -60.76 c -11.788,0 -21.336,-9.558 -21.336,-21.346 v -70.487 c 0,11.788 9.548,21.346 21.336,21.346 h 60.759 c 11.778,0 21.337,-9.559 21.337,-21.346 z"
         id="path10" />
    </g>
    <path
       inkscape:connector-curvature="0"
       d="m 501.699,282.642 c 0,-16.592 -8.229,-31.297 -20.82,-40.25 15.455,-8.346 25.979,-24.697 25.979,-43.46 0,-27.214 -22.141,-49.354 -49.354,-49.354 H 319.292 L 336.459,72.046 C 340.362,54.418 336.118,36.233 324.815,22.154 313.512,8.075 296.674,0 278.62,0 254.22,0 232.518,15.511 224.621,38.597 L 195.82,122.77 c -11.403,33.324 -42.281,55.947 -77.318,56.951 -5.204,-7.562 -13.916,-12.533 -23.769,-12.533 H 33.978 c -15.901,0 -28.839,12.937 -28.839,28.839 v 52.806 c 0,4.142 3.357,7.5 7.5,7.5 4.143,0 7.5,-3.358 7.5,-7.5 v -52.806 c 0,-7.631 6.208,-13.839 13.839,-13.839 h 60.755 c 7.631,0 13.839,6.208 13.839,13.839 v 287.131 c 0,7.631 -6.208,13.839 -13.839,13.839 H 33.978 c -7.631,0 -13.839,-6.208 -13.839,-13.839 v -204.33 c 0,-4.142 -3.357,-7.5 -7.5,-7.5 -4.143,0 -7.5,3.358 -7.5,7.5 v 204.33 c 0,15.902 12.938,28.839 28.839,28.839 h 60.755 c 9.875,0 18.604,-4.991 23.804,-12.581 h 251.407 c 4.143,0 7.5,-3.358 7.5,-7.5 0,-4.142 -3.357,-7.5 -7.5,-7.5 H 123.572 l 10e-4,-289.928 c 39.34,-2.966 73.512,-29.083 86.438,-66.861 L 238.813,43.454 C 244.635,26.434 260.632,15 278.62,15 c 13.483,0 26.058,6.03 34.499,16.545 8.44,10.514 11.609,24.094 8.695,37.259 l -19.188,86.654 c -0.492,2.22 0.05,4.543 1.474,6.316 1.424,1.773 3.575,2.805 5.849,2.805 h 147.554 c 18.943,0 34.354,15.411 34.354,34.355 0,18.943 -15.411,34.354 -34.354,34.354 h -5.158 c -4.143,0 -7.5,3.358 -7.5,7.5 0,4.142 3.357,7.5 7.5,7.5 18.943,0 34.354,15.411 34.354,34.354 0,18.943 -15.411,34.355 -34.354,34.355 h -5.158 c -4.143,0 -7.5,3.358 -7.5,7.5 0,4.142 3.357,7.5 7.5,7.5 18.943,0 34.354,15.411 34.354,34.354 0,18.943 -15.411,34.354 -34.354,34.354 h -5.158 c -4.143,0 -7.5,3.358 -7.5,7.5 0,4.142 3.357,7.5 7.5,7.5 18.943,0 34.354,15.411 34.354,34.355 0,18.943 -15.411,34.354 -34.354,34.354 h -42.09 c -4.143,0 -7.5,3.358 -7.5,7.5 0,4.142 3.357,7.5 7.5,7.5 h 42.09 c 27.214,0 49.354,-22.14 49.354,-49.355 0,-16.592 -8.229,-31.297 -20.82,-40.25 15.455,-8.346 25.979,-24.697 25.979,-43.459 0,-16.592 -8.229,-31.297 -20.82,-40.25 15.453,-8.344 25.977,-24.695 25.977,-43.458 z"
       id="path14" />
  </g>
</svg>
