<svg xmlns="http://www.w3.org/2000/svg" viewBox="0 0 355.9 42.8"><style/><path fill-rule="evenodd" clip-rule="evenodd" fill="none" stroke="#1a1a1a" d="M0 24.2h2.4v.7h1.1v1h.6v.7h.7v3.5h.7v1.7h.7V19.4h1.7v-4.1h1.4v-1.1l6.6-3.1 6.5 3.1v1.1h1.1v4.1l1 .3V28h1l1.1 3.1v-7.6h1.7v-2.4h.7v-1.9l13.8-.1v1.6h1v2.8h1.1v6.9h1V3.2L51.1.5l8.1 2v19.7l.4.6 1.3-4.1 1.4 4.1.4-1 .3 2.1V29l.3.4v7.2h.7v-8.9h.7V10.2l7.1-2.4 7.6 2v11l1.3 1.3v2.5h.7v1.7h.4v8.6h.6v-2.7h5.2v-8H90v-3.8h.4v-1.3h.4V18l10.6-.3v21.7h2.1v1h2.8v-1h1.3v-.7h2.5V29h1v-5.8h11v3.4h.4v1.8h1v1h.7v-9.7h13.5v12.8h2V22.1h4.5v3.8h.7v-1.7h.4V21h.3l1.7-4.7.7-4.9.8 4.9 1.8 4.8h.5v1.7h.4v2.8h.3v5.9h1.4v-6.9h.3v-2.8h.4l1.1-7.3 1.3 7 .7.3v1h1.7v1.4h4.2v1l5.8 1.8v4.5h1.7v2.7h1.9v-2.9h4v-7.9h8.8v4.9h3.4v11.6h4v-8.6h7.6v2.8h4v-31h12.2v34.7h1.5V9.1h11.3v25.6h1.5v-7.3h6.8v6.7h4v2.1h3v6.1h3.7v-4.5h2.1v-2.2h6.4v2.2h2.5V42h2.4V26.8h7V42h2.8V18.5l10.7 3.7v16.2h3.3v-9.2h4.6v-4h6.7v13.2h4.9v-6.8h4.9V17l1.8-1.2v-4.3L311 10l.2-6.8.3 6.8 2.9 1.4v4.4l1.8.9v18.9h4.3v-9.4h3v-4h2.8v-8.3h6.7v13.2h3.4v-7.7h7.6v-2.7h7.6v12.8h4.3" id="Layer_1_1_"/></svg>