<svg viewBox="0 0 217.93 317.18" xmlns="http://www.w3.org/2000/svg"><defs><linearGradient y2=".503" x2=".793" y1=".503" x1=".402" id="b"><stop stop-color="#b4ff59" offset="0"/><stop stop-color="#89b900" offset="1"/></linearGradient><linearGradient y2=".5" x2=".787" y1=".5" x1="-.061" id="d"><stop stop-color="#b92dfd" offset="0"/><stop stop-color="#fa4ab8" offset="1"/></linearGradient><linearGradient y2=".498" x2=".995" y1=".498" x1="-.113" id="f"><stop stop-color="#ffab90" offset="0"/><stop stop-color="#ffb3ff" offset="1"/></linearGradient><linearGradient y2=".502" x2=".998" y1=".502" x1="-.025" id="h"><stop stop-color="#c90dcf" offset="0"/><stop stop-color="#8e0dcf" offset="1"/></linearGradient><linearGradient y2=".846" x2=".878" y1=".154" x1=".122" id="j"><stop stop-opacity="0" stop-color="#fefeff" offset=".7"/><stop stop-opacity=".01" stop-color="#fdfcff" offset=".79"/><stop stop-opacity=".05" stop-color="#f9f3fd" offset=".83"/><stop stop-opacity=".11" stop-color="#f2e4fa" offset=".86"/><stop stop-opacity=".2" stop-color="#e8cff6" offset=".89"/><stop stop-opacity=".31" stop-color="#dbb3f0" offset=".91"/><stop stop-opacity=".45" stop-color="#cc92e9" offset=".93"/><stop stop-opacity=".62" stop-color="#b969e1" offset=".95"/><stop stop-opacity=".81" stop-color="#a43cd8" offset=".97"/><stop stop-color="#8e0dcf" offset=".98"/></linearGradient><linearGradient y2=".154" x2=".122" y1=".846" x1=".878" id="k"><stop stop-opacity="0" stop-color="#fefeff" offset=".7"/><stop stop-opacity=".01" stop-color="#fefeff" offset=".78"/><stop stop-opacity=".04" stop-color="#fefeff" offset=".82"/><stop stop-opacity=".09" stop-color="#fefeff" offset=".85"/><stop stop-opacity=".16" stop-color="#fefeff" offset=".87"/><stop stop-opacity=".25" stop-color="#fefeff" offset=".9"/><stop stop-opacity=".37" stop-color="#fefeff" offset=".91"/><stop stop-opacity=".5" stop-color="#fff" offset=".93"/><stop stop-opacity=".66" stop-color="#fff" offset=".95"/><stop stop-opacity=".83" stop-color="#fff" offset=".96"/><stop stop-color="#fff" offset=".98"/></linearGradient><clipPath transform="translate(.15 52.37)" id="a"><path fill="none" d="M95.51-47.578l-.25.13 75.27 79.9v-36.74A25 25 0 00158-25.948l-37.51-21.63a25 25 0 00-25 0" class="cls-1"/></clipPath><clipPath transform="translate(.15 52.37)" id="c"><path fill="none" d="M95.51-47.578L58-25.948a25 25 0 00-12.52 21.66v43.2a25 25 0 006.79 17.14l115.43-5.58a25 25 0 002.83-11.56v-12.22c-3.56-6.32-9-15.72-14.66-24.69-9.77-15.46-21.32-25.25-30.66-33.17-6.95-5.92-19.9-14.25-26.07-18.14a24.58 24.58 0 00-3.63 1.73" class="cls-1"/></clipPath><clipPath transform="translate(.15 52.37)" id="e"><path fill="none" d="M45.48-4.288v43.2a25.06 25.06 0 002.36 10.62l.18-.32c5.55-9.88 13.76-29.1 15.62-39s0-13.79-4.14-20.39a56.18 56.18 0 00-8.4-10 25 25 0 00-5.62 15.8" class="cls-1"/></clipPath><clipPath transform="translate(.15 52.37)" id="g"><path fill="none" d="M83.93 15.612c-23 7.69-36.1 33.66-36.1 33.66v.17A25.1 25.1 0 0058 60.602l37.52 21.63a25 25 0 0025 0L158 60.602a25 25 0 0012.27-18.09c-2.55-2.9-14.78-16.29-30.31-24a69.11 69.11 0 00-30.82-7.16 79.27 79.27 0 00-25.21 4.26" class="cls-1"/></clipPath><radialGradient id="i"><stop stop-opacity=".3" stop-color="#8e8f92" offset="0%"/><stop stop-opacity="0" stop-color="#fff" offset="100%"/></radialGradient></defs><g data-name="Layer 2"><g data-name="Capa 2"><g clip-path="url(#a)" class="cls-2"><path transform="rotate(-40 4.34 96.492)" fill="url(#b)" class="cls-3" d="M81.61 82.212h111.25v112.25H81.61z"/></g><g clip-path="url(#c)" class="cls-4"><path transform="rotate(-30 -12.61 62.582)" fill="url(#d)" class="cls-5" d="M14.9 40.162h160.99v153.79H14.9z"/></g><g clip-path="url(#e)" class="cls-6"><path transform="rotate(-10 -10.43 11.912)" fill="url(#f)" class="cls-7" d="M29.15 41.702h31.8v72.06h-31.8z"/></g><g clip-path="url(#g)" class="cls-8"><path fill="url(#h)" class="cls-9" d="M47.94 63.722h122.48v75.34H47.94z"/></g><path fill="#7c0dbc" d="M102.09 59.552a28.86 28.86 0 008.45 2.47 94.85 94.85 0 0111 2.48 78.54 78.54 0 0111 4 19.83 19.83 0 018.45 7.42 22.19 22.19 0 013.35 12.43q0 10.86-8.85 17.78t-24.48 6.94a57.92 57.92 0 01-19.21-3.19 42.84 42.84 0 01-15.23-8.77l8.78-14.21a40.46 40.46 0 0012.12 7.38 37.69 37.69 0 0014.51 3.19q6.38 0 9.64-2.23a7 7 0 003.27-6.06q0-2.86-3.42-4.7a26.93 26.93 0 00-8.46-2.63 108.41 108.41 0 01-11-2.4 73.8 73.8 0 01-11-3.82 20.32 20.32 0 01-8.45-7.1" class="cls-10"/><path fill="#fff" d="M108.47 110.552a58.17 58.17 0 01-19.21-3.19 43 43 0 01-15.23-8.77l8.77-14.19a40.46 40.46 0 0012.12 7.33 37.65 37.65 0 0014.51 3.19q6.38 0 9.64-2.23a7 7 0 003.27-6.06q0-2.86-3.43-4.7a26.78 26.78 0 00-8.45-2.65 107.61 107.61 0 01-11-2.39 73.4 73.4 0 01-11-3.82 20.11 20.11 0 01-11.88-19.13q0-10.2 8.45-17.22t23.12-7q17.86 0 31.09 10.53l-8.09 13.85a28.47 28.47 0 00-9.8-6.38 33.59 33.59 0 00-13-2.55 16 16 0 00-8.81 2.11q-3.39 2.2-3.39 5.54c0 1.71 1.12 3.11 3.35 4.23a28.86 28.86 0 008.45 2.47 94.1 94.1 0 0111 2.47 79.51 79.51 0 0111 4 19.86 19.86 0 018.45 7.41 22.22 22.22 0 013.35 12.44q0 10.85-8.85 17.78t-24.43 6.93z" class="cls-11"/><path fill="url(#i)" d="M165.4 156.672c0 3.4-25.63 6.16-57.25 6.16s-57.25-2.76-57.25-6.16 25.63-6.16 57.25-6.16 57.25 2.77 57.25 6.16z" class="cls-12"/><g opacity=".7" class="cls-13"><path fill="url(#j)" opacity=".7" d="M158.29 26.282l-37.56-21.65a25 25 0 00-21.36-1.72l-.27.12c-.39.15-.78.32-1.16.49l-.55.25q-.84.4-1.65.87l-.25.14-37.34 21.5a24.9 24.9 0 00-6.89 5.87l-.18.24c-.31.39-.6.78-.88 1.18l-.27.38c-.36.53-.7 1.07-1 1.62-.07.13-.13.26-.2.38q-.36.66-.69 1.35c-.09.18-.17.37-.25.55q-.29.66-.54 1.32c-.06.17-.13.33-.19.5-.21.6-.41 1.22-.57 1.84 0 .09 0 .19-.07.28a27.3 27.3 0 00-.35 1.62c0 .2-.07.4-.1.6-.08.47-.14.94-.19 1.41l-.06.59c-.05.65-.08 1.31-.08 2v43.27a25 25 0 00.14 2.6c0 .29.08.56.12.84.08.58.17 1.15.29 1.72.07.32.15.64.23 1 .13.51.27 1 .43 1.52.11.33.22.65.34 1s.37 1 .58 1.43c.07.15.12.31.19.46v.05c.07.15.15.29.22.44s.23.45.35.68c.23.43.48.86.73 1.28.12.2.24.4.37.6.36.56.74 1.11 1.15 1.64l.09.12c.44.56.91 1.1 1.39 1.63l.13.15a25.06 25.06 0 005.76 4.5l37.56 21.66a25 25 0 0025 0l37.56-21.66a25.12 25.12 0 009.7-10.13 24.13 24.13 0 001.07-2.37c0-.07.07-.14.1-.22.3-.78.55-1.59.78-2.41l.09-.32a24.49 24.49 0 00.49-2.44v-.22a24.9 24.9 0 00.26-3.57v-43.28a25 25 0 00-12.47-21.7z" class="cls-14"/><path fill="url(#j)" opacity=".7" d="M158.29 26.282l-37.56-21.65a25 25 0 00-21.36-1.72l-.27.12c-.39.15-.78.32-1.16.49l-.55.25q-.84.4-1.65.87l-.25.14-37.34 21.5a24.9 24.9 0 00-6.89 5.87l-.18.24c-.31.39-.6.78-.88 1.18l-.27.38c-.36.53-.7 1.07-1 1.62-.07.13-.13.26-.2.38q-.36.66-.69 1.35c-.09.18-.17.37-.25.55q-.29.66-.54 1.32c-.06.17-.13.33-.19.5-.21.6-.41 1.22-.57 1.84 0 .09 0 .19-.07.28a27.3 27.3 0 00-.35 1.62c0 .2-.07.4-.1.6-.08.47-.14.94-.19 1.41l-.06.59c-.05.65-.08 1.31-.08 2v43.27a25 25 0 00.14 2.6c0 .29.08.56.12.84.08.58.17 1.15.29 1.72.07.32.15.64.23 1 .13.51.27 1 .43 1.52.11.33.22.65.34 1s.37 1 .58 1.43c.07.15.12.31.19.46v.05c.07.15.15.29.22.44s.23.45.35.68c.23.43.48.86.73 1.28.12.2.24.4.37.6.36.56.74 1.11 1.15 1.64l.09.12c.44.56.91 1.1 1.39 1.63l.13.15a25.06 25.06 0 005.76 4.5l37.56 21.66a25 25 0 0025 0l37.56-21.66a25.12 25.12 0 009.7-10.13 24.13 24.13 0 001.07-2.37c0-.07.07-.14.1-.22.3-.78.55-1.59.78-2.41l.09-.32a24.49 24.49 0 00.49-2.44v-.22a24.9 24.9 0 00.26-3.57v-43.28a25 25 0 00-12.47-21.7z" class="cls-14"/><path fill="url(#k)" opacity=".35" d="M58.15 112.942l37.56 21.65a25 25 0 0021.37 1.69l.27-.12c.39-.15.78-.32 1.16-.49l.55-.25c.56-.27 1.11-.55 1.65-.87l.25-.14 37.31-21.51a24.93 24.93 0 006.89-5.88l.18-.24c.31-.38.6-.78.88-1.18l.27-.38c.36-.53.7-1.07 1-1.62.07-.12.13-.25.2-.38.25-.44.47-.89.69-1.34.09-.19.17-.37.25-.56.2-.43.37-.87.54-1.32.06-.17.13-.33.19-.5.21-.6.41-1.21.57-1.84a2.29 2.29 0 00.07-.28c.14-.53.25-1.07.35-1.61 0-.2.07-.4.11-.61.07-.46.13-.93.18-1.4l.06-.59c0-.66.08-1.31.08-2v-43.19a25.06 25.06 0 00-.14-2.61c0-.28-.08-.56-.12-.83-.08-.58-.17-1.16-.29-1.72-.07-.33-.15-.65-.23-1-.13-.51-.27-1-.43-1.52-.11-.33-.22-.65-.34-1-.18-.49-.37-1-.58-1.43-.07-.16-.12-.31-.18-.46v-.06l-.23-.43c-.11-.23-.23-.46-.35-.69-.23-.43-.47-.86-.73-1.28-.12-.2-.24-.4-.37-.6-.36-.56-.74-1.1-1.15-1.63l-.09-.13c-.44-.56-.91-1.1-1.39-1.62-.05-.05-.08-.11-.13-.15a24.53 24.53 0 00-5.74-4.54l-37.56-21.65a25 25 0 00-25 0l-37.58 21.65a25 25 0 00-9.7 10.12 25.24 25.24 0 00-1.07 2.37 2 2 0 00-.09.22 25.13 25.13 0 00-.79 2.41c0 .11-.06.21-.09.32-.2.8-.36 1.62-.49 2.44 0 .08 0 .15-.05.22a25 25 0 00-.26 3.58v43.32a25 25 0 0012.54 21.66z" class="cls-15"/><path fill="url(#j)" opacity=".7" d="M158.29 26.282l-37.56-21.65a25 25 0 00-21.36-1.72l-.27.12c-.39.15-.78.32-1.16.49l-.55.25q-.84.4-1.65.87l-.25.14-37.34 21.5a24.9 24.9 0 00-6.89 5.87l-.18.24c-.31.39-.6.78-.88 1.18l-.27.38c-.36.53-.7 1.07-1 1.62-.07.13-.13.26-.2.38q-.36.66-.69 1.35c-.09.18-.17.37-.25.55q-.29.66-.54 1.32c-.06.17-.13.33-.19.5-.21.6-.41 1.22-.57 1.84 0 .09 0 .19-.07.28a27.3 27.3 0 00-.35 1.62c0 .2-.07.4-.1.6-.08.47-.14.94-.19 1.41l-.06.59c-.05.65-.08 1.31-.08 2v43.27a25 25 0 00.14 2.6c0 .29.08.56.12.84.08.58.17 1.15.29 1.72.07.32.15.64.23 1 .13.51.27 1 .43 1.52.11.33.22.65.34 1s.37 1 .58 1.43c.07.15.12.31.19.46v.05c.07.15.15.29.22.44s.23.45.35.68c.23.43.48.86.73 1.28.12.2.24.4.37.6.36.56.74 1.11 1.15 1.64l.09.12c.44.56.91 1.1 1.39 1.63l.13.15a25.06 25.06 0 005.76 4.5l37.56 21.66a25 25 0 0025 0l37.56-21.66a25.12 25.12 0 009.7-10.13 24.13 24.13 0 001.07-2.37c0-.07.07-.14.1-.22.3-.78.55-1.59.78-2.41l.09-.32a24.49 24.49 0 00.49-2.44v-.22a24.9 24.9 0 00.26-3.57v-43.28a25 25 0 00-12.47-21.7z" class="cls-14"/><path fill="url(#j)" opacity=".7" d="M158.29 26.282l-37.56-21.65a25 25 0 00-21.36-1.72l-.27.12c-.39.15-.78.32-1.16.49l-.55.25q-.84.4-1.65.87l-.25.14-37.34 21.5a24.9 24.9 0 00-6.89 5.87l-.18.24c-.31.39-.6.78-.88 1.18l-.27.38c-.36.53-.7 1.07-1 1.62-.07.13-.13.26-.2.38q-.36.66-.69 1.35c-.09.18-.17.37-.25.55q-.29.66-.54 1.32c-.06.17-.13.33-.19.5-.21.6-.41 1.22-.57 1.84 0 .09 0 .19-.07.28a27.3 27.3 0 00-.35 1.62c0 .2-.07.4-.1.6-.08.47-.14.94-.19 1.41l-.06.59c-.05.65-.08 1.31-.08 2v43.27a25 25 0 00.14 2.6c0 .29.08.56.12.84.08.58.17 1.15.29 1.72.07.32.15.64.23 1 .13.51.27 1 .43 1.52.11.33.22.65.34 1s.37 1 .58 1.43c.07.15.12.31.19.46v.05c.07.15.15.29.22.44s.23.45.35.68c.23.43.48.86.73 1.28.12.2.24.4.37.6.36.56.74 1.11 1.15 1.64l.09.12c.44.56.91 1.1 1.39 1.63l.13.15a25.06 25.06 0 005.76 4.5l37.56 21.66a25 25 0 0025 0l37.56-21.66a25.12 25.12 0 009.7-10.13 24.13 24.13 0 001.07-2.37c0-.07.07-.14.1-.22.3-.78.55-1.59.78-2.41l.09-.32a24.49 24.49 0 00.49-2.44v-.22a24.9 24.9 0 00.26-3.57v-43.28a25 25 0 00-12.47-21.7z" class="cls-14"/><path fill="url(#k)" opacity=".35" d="M58.15 112.942l37.56 21.65a25 25 0 0021.37 1.69l.27-.12c.39-.15.78-.32 1.16-.49l.55-.25c.56-.27 1.11-.55 1.65-.87l.25-.14 37.31-21.51a24.93 24.93 0 006.89-5.88l.18-.24c.31-.38.6-.78.88-1.18l.27-.38c.36-.53.7-1.07 1-1.62.07-.12.13-.25.2-.38.25-.44.47-.89.69-1.34.09-.19.17-.37.25-.56.2-.43.37-.87.54-1.32.06-.17.13-.33.19-.5.21-.6.41-1.21.57-1.84a2.29 2.29 0 00.07-.28c.14-.53.25-1.07.35-1.61 0-.2.07-.4.11-.61.07-.46.13-.93.18-1.4l.06-.59c0-.66.08-1.31.08-2v-43.19a25.06 25.06 0 00-.14-2.61c0-.28-.08-.56-.12-.83-.08-.58-.17-1.16-.29-1.72-.07-.33-.15-.65-.23-1-.13-.51-.27-1-.43-1.52-.11-.33-.22-.65-.34-1-.18-.49-.37-1-.58-1.43-.07-.16-.12-.31-.18-.46v-.06l-.23-.43c-.11-.23-.23-.46-.35-.69-.23-.43-.47-.86-.73-1.28-.12-.2-.24-.4-.37-.6-.36-.56-.74-1.1-1.15-1.63l-.09-.13c-.44-.56-.91-1.1-1.39-1.62-.05-.05-.08-.11-.13-.15a24.53 24.53 0 00-5.74-4.54l-37.56-21.65a25 25 0 00-25 0l-37.58 21.65a25 25 0 00-9.7 10.12 25.24 25.24 0 00-1.07 2.37 2 2 0 00-.09.22 25.13 25.13 0 00-.79 2.41c0 .11-.06.21-.09.32-.2.8-.36 1.62-.49 2.44 0 .08 0 .15-.05.22a25 25 0 00-.26 3.58v43.32a25 25 0 0012.54 21.66z" class="cls-15"/><path fill="url(#j)" opacity=".7" d="M158.29 26.282l-37.56-21.65a25 25 0 00-21.36-1.72l-.27.12c-.39.15-.78.32-1.16.49l-.55.25q-.84.4-1.65.87l-.25.14-37.34 21.5a24.9 24.9 0 00-6.89 5.87l-.18.24c-.31.39-.6.78-.88 1.18l-.27.38c-.36.53-.7 1.07-1 1.62-.07.13-.13.26-.2.38q-.36.66-.69 1.35c-.09.18-.17.37-.25.55q-.29.66-.54 1.32c-.06.17-.13.33-.19.5-.21.6-.41 1.22-.57 1.84 0 .09 0 .19-.07.28a27.3 27.3 0 00-.35 1.62c0 .2-.07.4-.1.6-.08.47-.14.94-.19 1.41l-.06.59c-.05.65-.08 1.31-.08 2v43.27a25 25 0 00.14 2.6c0 .29.08.56.12.84.08.58.17 1.15.29 1.72.07.32.15.64.23 1 .13.51.27 1 .43 1.52.11.33.22.65.34 1s.37 1 .58 1.43c.07.15.12.31.19.46v.05c.07.15.15.29.22.44s.23.45.35.68c.23.43.48.86.73 1.28.12.2.24.4.37.6.36.56.74 1.11 1.15 1.64l.09.12c.44.56.91 1.1 1.39 1.63l.13.15a25.06 25.06 0 005.76 4.5l37.56 21.66a25 25 0 0025 0l37.56-21.66a25.12 25.12 0 009.7-10.13 24.13 24.13 0 001.07-2.37c0-.07.07-.14.1-.22.3-.78.55-1.59.78-2.41l.09-.32a24.49 24.49 0 00.49-2.44v-.22a24.9 24.9 0 00.26-3.57v-43.28a25 25 0 00-12.47-21.7z" class="cls-14"/><path fill="url(#j)" opacity=".7" d="M158.29 26.282l-37.56-21.65a25 25 0 00-21.36-1.72l-.27.12c-.39.15-.78.32-1.16.49l-.55.25q-.84.4-1.65.87l-.25.14-37.34 21.5a24.9 24.9 0 00-6.89 5.87l-.18.24c-.31.39-.6.78-.88 1.18l-.27.38c-.36.53-.7 1.07-1 1.62-.07.13-.13.26-.2.38q-.36.66-.69 1.35c-.09.18-.17.37-.25.55q-.29.66-.54 1.32c-.06.17-.13.33-.19.5-.21.6-.41 1.22-.57 1.84 0 .09 0 .19-.07.28a27.3 27.3 0 00-.35 1.62c0 .2-.07.4-.1.6-.08.47-.14.94-.19 1.41l-.06.59c-.05.65-.08 1.31-.08 2v43.27a25 25 0 00.14 2.6c0 .29.08.56.12.84.08.58.17 1.15.29 1.72.07.32.15.64.23 1 .13.51.27 1 .43 1.52.11.33.22.65.34 1s.37 1 .58 1.43c.07.15.12.31.19.46v.05c.07.15.15.29.22.44s.23.45.35.68c.23.43.48.86.73 1.28.12.2.24.4.37.6.36.56.74 1.11 1.15 1.64l.09.12c.44.56.91 1.1 1.39 1.63l.13.15a25.06 25.06 0 005.76 4.5l37.56 21.66a25 25 0 0025 0l37.56-21.66a25.12 25.12 0 009.7-10.13 24.13 24.13 0 001.07-2.37c0-.07.07-.14.1-.22.3-.78.55-1.59.78-2.41l.09-.32a24.49 24.49 0 00.49-2.44v-.22a24.9 24.9 0 00.26-3.57v-43.28a25 25 0 00-12.47-21.7z" class="cls-14"/><path opacity=".5" fill="url(#k)" d="M58.15 112.942l37.56 21.65a25 25 0 0021.37 1.69l.27-.12c.39-.15.78-.32 1.16-.49l.55-.25c.56-.27 1.11-.55 1.65-.87l.25-.14 37.31-21.51a24.93 24.93 0 006.89-5.88l.18-.24c.31-.38.6-.78.88-1.18l.27-.38c.36-.53.7-1.07 1-1.62.07-.12.13-.25.2-.38.25-.44.47-.89.69-1.34.09-.19.17-.37.25-.56.2-.43.37-.87.54-1.32.06-.17.13-.33.19-.5.21-.6.41-1.21.57-1.84a2.29 2.29 0 00.07-.28c.14-.53.25-1.07.35-1.61 0-.2.07-.4.11-.61.07-.46.13-.93.18-1.4l.06-.59c0-.66.08-1.31.08-2v-43.19a25.06 25.06 0 00-.14-2.61c0-.28-.08-.56-.12-.83-.08-.58-.17-1.16-.29-1.72-.07-.33-.15-.65-.23-1-.13-.51-.27-1-.43-1.52-.11-.33-.22-.65-.34-1-.18-.49-.37-1-.58-1.43-.07-.16-.12-.31-.18-.46v-.06l-.23-.43c-.11-.23-.23-.46-.35-.69-.23-.43-.47-.86-.73-1.28-.12-.2-.24-.4-.37-.6-.36-.56-.74-1.1-1.15-1.63l-.09-.13c-.44-.56-.91-1.1-1.39-1.62-.05-.05-.08-.11-.13-.15a24.53 24.53 0 00-5.74-4.54l-37.56-21.65a25 25 0 00-25 0l-37.58 21.65a25 25 0 00-9.7 10.12 25.24 25.24 0 00-1.07 2.37 2 2 0 00-.09.22 25.13 25.13 0 00-.79 2.41c0 .11-.06.21-.09.32-.2.8-.36 1.62-.49 2.44 0 .08 0 .15-.05.22a25 25 0 00-.26 3.58v43.32a25 25 0 0012.54 21.66z" class="cls-16"/></g><path fill="#353535" d="M40.55 287.382H1.65v-57.5h6.74v50.33l-.71.78h32.87v6.39zm28.75 0h-6.75v-57.5h6.75v57.5zm49.18.71c-9.22 0-18.88-3-24.7-9.37l5.33-5c6.1 5.61 11.78 7.95 19.09 7.95 10.65 0 16.26-4.05 16.26-9.51 0-3.91-3.34-7.53-11.15-9.59-1.28-.35-9.3-2.48-10.58-2.84-10.5-2.91-17.46-6.67-17.46-15 0-7.95 6.89-15.55 22.5-15.55 9.23 0 17 3.27 22 8.8l-5.11 4.9c-3.62-4.33-9.3-7.31-16.82-7.31-10.79 0-15.62 4.19-15.62 8.87 0 4.4 4.4 6.67 13.91 9.3 1.28.36 8 2.2 9.3 2.56 11.36 3 16 8.8 16 15.47-.02 8.01-6.12 16.32-22.95 16.32zm99.45-.71h-7.38l-6.11-13.85.36-.71h-31.45l.36.71-6.11 13.85h-7.38l25.27-57.5h7.17l25.27 57.5zm-16.18-20.94l-.71-.71-10.15-23.07-1.74-5.75h-.14l-1.77 5.75-10.09 23.07-.71.71h25.31zM8.76 303.122l-.61 1.28a6.14 6.14 0 00-3.3-1c-1.53 0-2.54.58-2.54 1.59 0 3.08 6.73 1.47 6.71 5.81 0 2-1.76 3.28-4.32 3.28a6.82 6.82 0 01-4.55-1.8l.62-1.23a5.94 5.94 0 004 1.7c1.72 0 2.8-.7 2.8-1.85 0-3.14-6.72-1.47-6.72-5.76 0-1.88 1.66-3.09 4.14-3.09a7 7 0 013.77 1.07zm4.89.26v3.9h6v1.31h-6v4.1h7v1.3h-8.37v-12h8.12v1.32l-6.75.07zm19.74 4.8v4.34a7.4 7.4 0 01-4.44 1.57 6 6 0 11.07-12.06 6.79 6.79 0 014.41 1.64l-.79 1a5.51 5.51 0 00-3.62-1.39 4.74 4.74 0 100 9.48 5.69 5.69 0 003.15-1v-3.6l1.22.02zm13.52.92c0 3.11-1.88 5-5 5s-5-1.88-5-5v-7h1.37v7a3.38 3.38 0 003.67 3.67 3.35 3.35 0 003.64-3.67v-7h1.37l-.05 7zm9.13 1.11h-3.98v3.78h-1.37v-12h4.54c3 0 4.72 1.47 4.72 4a3.74 3.74 0 01-2.68 3.88l2.8 4.07h-1.55l-2.48-3.73zm-.81-1.28c2.17 0 3.4-1 3.4-2.82s-1.23-2.73-3.4-2.73h-3.17v5.55h3.17zm19.64-.89a6.27 6.27 0 11-6.25-6 6.12 6.12 0 016.25 6zm-11.14 0a4.87 4.87 0 104.89-4.76 4.82 4.82 0 00-4.89 4.76zm21.42-4.92l-.58 1.28a6.14 6.14 0 00-3.3-1c-1.53 0-2.54.58-2.54 1.59 0 3.08 6.73 1.47 6.71 5.81 0 2-1.76 3.28-4.32 3.28a6.82 6.82 0 01-4.59-1.8l.62-1.23a5.94 5.94 0 004 1.7c1.72 0 2.8-.7 2.8-1.85 0-3.14-6.72-1.47-6.72-5.76 0-1.88 1.66-3.09 4.14-3.09a7 7 0 013.78 1.07zm8.62 10.9v-12h1.38v12h-1.38zm13.97 0l-7.18-9.6v9.6h-1.41v-12h1.42l7.18 9.62v-9.62h1.4v12h-1.41zm9.11-10.64v10.64h-1.37v-10.64h-3.9v-1.32h9.18v1.32h-3.91zm7.69 0v3.9h6v1.31h-6v4.1h7v1.3h-8.39v-12h8.12v1.32l-6.73.07zm16.8 9.34v1.3h-6.62v-12h1.37v10.66l5.25.04zm2.65 1.3v-12h1.36v12h-1.36zm14.97-5.84v4.34a7.4 7.4 0 01-4.44 1.57 6 6 0 11.06-12.06 6.75 6.75 0 014.41 1.64l-.78 1a5.52 5.52 0 00-3.63-1.38 4.74 4.74 0 100 9.48 5.63 5.63 0 003.14-1v-3.6l1.24.01zm5.11-4.8v3.9h6v1.31h-6v4.1h7v1.3h-8.34v-12h8.12v1.32l-6.78.07zm18.73 10.64l-7.18-9.6v9.6h-1.36v-12h1.41l7.18 9.62v-9.62h1.35v12h-1.4zm9.11-10.64v10.64h-1.37v-10.64h-3.89v-1.32h9.17v1.32h-3.91zm7.69 0v3.9h6v1.31h-6v4.1h7v1.3h-8.34v-12h8.12v1.32l-6.78.07zm17.55-.26l-.58 1.28a6.19 6.19 0 00-3.3-1c-1.54 0-2.55.58-2.55 1.59 0 3.08 6.73 1.47 6.72 5.81 0 2-1.76 3.28-4.33 3.28a6.82 6.82 0 01-4.58-1.83l.62-1.23a5.94 5.94 0 004 1.7c1.73 0 2.8-.7 2.8-1.85 0-3.14-6.71-1.47-6.71-5.76 0-1.88 1.65-3.09 4.13-3.09a7 7 0 013.78 1.1z" class="cls-17"/></g></g></svg>