<svg data-name="Capa 1" xmlns="http://www.w3.org/2000/svg" viewBox="0 0 353.83 71.51"><g data-name="Capa 2"><g data-name="Capa 1-2"><path d="M126.74 13.78h7v45h-7zm14.38 3.32a4.47 4.47 0 114.47 4.47 4.47 4.47 0 01-4.47-4.47zm.94 9.82h7V58.8h-7zm87.69 18.63h-26.38a9.52 9.52 0 009.57 7.69c4.06 0 7.37-1.88 8.75-4.56h7.63c-2.32 6.44-8.57 10.88-16.45 10.88-9.69 0-17-7.2-17-16.7s7.31-16.7 17-16.7 17.07 7.2 17.07 16.76a17.8 17.8 0 01-.19 2.63zm-26.32-5.75h18.95a9.79 9.79 0 00-18.95 0zm32.66-26.02h7v45h-7zm14.39 3.32a4.5 4.5 0 114.5 4.5 4.49 4.49 0 01-4.5-4.5zm.94 9.82h7V58.8h-7zm-76.78-.76a16.58 16.58 0 00-9.09 2.71V13.78H158v29.08a16.7 16.7 0 1016.7-16.7h-.06zm0 26.26a9.9 9.9 0 01-9.54-9.56 9.54 9.54 0 0119.08 0 9.89 9.89 0 01-9.54 9.56zm121.06-25.5h-7v18.14a7.72 7.72 0 01-15.43.56 5.23 5.23 0 010-.56V26.92h-7V45.4a14.7 14.7 0 0029.39-.34zm58.11 13.45a14.69 14.69 0 00-25.9-9.18A14.69 14.69 0 00302 40.7v18.15h7V40.7a7.71 7.71 0 0115.42 0v18.15h7V40.54a7.71 7.71 0 0115.41.16v18.15h7V40.36z" fill="#7c1226"/><path d="M53.83 13.17c11 17.44 30.88 22.56 41.41 22.59 7 0 14.22-3.41 8.29-8.72a34.86 34.86 0 00-6.16-4.43c-7.92 2.06-31.06 4.3-43.54-9.44z" fill="#ec1c24"/><path d="M104.61 11.27c-11.91-5.87-26-7.66-50.78 1.9C68.52 12.31 86 16 97.37 22.61c.56-.15 1-.29 1.44-.43 6.53-2.26 12.75-7.62 5.8-10.91z" fill="#7c1226"/><path d="M10.29 22.61A35.16 35.16 0 004.13 27c-5.93 5.31 1.33 8.73 8.29 8.72 10.53 0 30.46-5.15 41.41-22.59-12.48 13.78-35.62 11.54-43.54 9.48z" fill="#ec1c24"/><path d="M53.83 10.35c2.67 0 4.84-.32 4.84-3.28 0-2.56-3.45-7.07-4.84-7.07S49 4.51 49 7.07c0 2.93 2.16 3.28 4.83 3.28zm0 2.82c-9.16 15-2 53.22-.92 57.41.22.81.62.93.92.93s.7-.12.92-.93c1.12-4.19 8.25-42.38-.92-57.41z" fill="#7c1226"/><path fill="#551015" d="M53.83 13.17zm0 0z"/><path d="M53.83 13.17c12.48 13.74 35.62 11.5 43.54 9.44C86 16 68.52 12.31 53.83 13.17zm0 0c-14.69-.86-32.21 2.83-43.54 9.44 7.92 2.06 31.06 4.3 43.54-9.44z" fill="#65081c"/><path d="M53.83 13.17C29 3.61 15 5.4 3.05 11.27c-6.95 3.29-.73 8.65 5.8 10.91.39.14.88.28 1.44.43 11.33-6.61 28.85-10.3 43.54-9.44z" fill="#7c1226"/></g></g></svg>