<?xml version="1.0" encoding="UTF-8" standalone="no"?>
<svg
   xmlns:dc="http://purl.org/dc/elements/1.1/"
   xmlns:cc="http://creativecommons.org/ns#"
   xmlns:rdf="http://www.w3.org/1999/02/22-rdf-syntax-ns#"
   xmlns:svg="http://www.w3.org/2000/svg"
   xmlns="http://www.w3.org/2000/svg"
   xmlns:xlink="http://www.w3.org/1999/xlink"
   xmlns:sodipodi="http://sodipodi.sourceforge.net/DTD/sodipodi-0.dtd"
   xmlns:inkscape="http://www.inkscape.org/namespaces/inkscape"
   version="1.1"
   id="Layer_1"
   x="0px"
   y="0px"
   viewBox="0 0 363.9 363.6"
   style="enable-background:new 0 0 363.9 363.6;"
   xml:space="preserve"
   sodipodi:docname="bggreen4.svg"
   inkscape:version="1.0.2-2 (e86c870879, 2021-01-15)"><metadata
   id="metadata43"><rdf:RDF><cc:Work
       rdf:about=""><dc:format>image/svg+xml</dc:format><dc:type
         rdf:resource="http://purl.org/dc/dcmitype/StillImage" /></cc:Work></rdf:RDF></metadata><defs
   id="defs41" /><sodipodi:namedview
   pagecolor="#ffffff"
   bordercolor="#666666"
   borderopacity="1"
   objecttolerance="10"
   gridtolerance="10"
   guidetolerance="10"
   inkscape:pageopacity="0"
   inkscape:pageshadow="2"
   inkscape:window-width="1597"
   inkscape:window-height="830"
   id="namedview39"
   showgrid="false"
   inkscape:zoom="2.4477447"
   inkscape:cx="181.95"
   inkscape:cy="181.8"
   inkscape:window-x="62"
   inkscape:window-y="0"
   inkscape:window-maximized="0"
   inkscape:current-layer="Layer_1"
   inkscape:document-rotation="0" />
<style
   type="text/css"
   id="style2">
	.st0{fill:#5EE239;}
	.st1{fill:#4DBA2A;}
	.st2{fill:#FFFFFF;}
	.st3{fill:none;}
	.st4{font-family:'Arial';}
	.st5{font-size:18px;}
</style>
<path
   class="st0"
   d="M181.9,363.6c-1.9,0-3.7-1-4.6-2.7l-8.3-14.4c-0.2-0.4-0.7-0.7-1.2-0.7c-0.2,0-0.7,0.1-1,0.5l-10.6,12.8  c-1,1.2-2.5,1.9-4.1,1.9c-2.3,0-4.3-1.4-5-3.5l-5.7-15.6c-0.2-0.7-0.8-0.9-1.3-0.9c-0.2,0-0.6,0.1-0.9,0.3l-12.6,10.8  c-1,0.8-2.2,1.3-3.5,1.3c-2.6,0-4.8-1.8-5.3-4.4l-3-16.3c-0.1-0.7-0.8-1.1-1.3-1.1c-0.2,0-0.5,0.1-0.7,0.2l-14.3,8.5  c-0.8,0.5-1.8,0.8-2.7,0.8c-2.9,0-5.3-2.4-5.4-5.3l-0.2-16.6c0-0.8-0.7-1.3-1.3-1.3c-0.2,0-0.3,0-0.5,0.1l-15.5,6  c-0.6,0.2-1.3,0.4-1.9,0.4c-1.6,0-3-0.7-4.1-1.9c-1-1.2-1.5-2.8-1.2-4.3l2.6-16.4c0.1-0.5-0.2-0.9-0.3-1.1c-0.3-0.3-0.6-0.5-1-0.5  c-0.1,0-0.2,0-0.3,0l-16.3,3.3c-0.4,0.1-0.7,0.1-1.1,0.1c-1.7,0-3.3-0.8-4.3-2.2c-1-1.4-1.3-3.2-0.7-4.8l5.3-15.7  c0.2-0.6,0-1-0.2-1.2c-0.3-0.4-0.7-0.6-1.1-0.6l-16.8,0.5c-1.9,0-3.6-1-4.6-2.6c-1-1.6-1-3.6-0.1-5.3l7.9-14.6  c0.3-0.6,0.1-1.1,0-1.2c-0.1-0.2-0.4-0.6-1-0.7l-16.4-2.3c-1.9-0.3-3.5-1.5-4.2-3.3c-0.7-1.8-0.4-3.8,0.8-5.3L24,231  c0.4-0.5,0.3-1,0.2-1.2c-0.1-0.2-0.3-0.7-0.9-0.9l-15.8-5.1c-1.8-0.6-3.2-2.1-3.6-4c-0.4-1.9,0.2-3.8,1.6-5.1l12.3-11.1  c0.5-0.4,0.5-1,0.4-1.2c0-0.2-0.1-0.7-0.7-1l-14.7-7.7c-1.7-0.9-2.8-2.6-2.9-4.5c-0.1-1.9,0.8-3.7,2.5-4.8l14-8.9  c0.5-0.3,0.6-0.9,0.6-1.1c0-0.2,0-0.7-0.5-1.1L3.4,163.3c-1.5-1.2-2.3-3-2.1-4.9c0.2-1.9,1.5-3.5,3.2-4.3l15.3-6.4  c0.6-0.2,0.8-0.8,0.8-1c0-0.2,0.1-0.7-0.3-1.2L9,133.4c-1.3-1.4-1.8-3.4-1.2-5.2c0.6-1.9,2-3.2,3.9-3.7l16.2-3.7  c0.6-0.1,0.9-0.6,0.9-0.8c0.1-0.2,0.2-0.7-0.1-1.2l-9.1-13.9c-1.1-1.6-1.2-3.6-0.3-5.4c0.9-1.7,2.5-2.8,4.5-2.9l16.6-0.9  c0.6,0,1-0.5,1.1-0.6c0.1-0.2,0.3-0.7,0.1-1.2l-6.6-15.2c-0.7-1.7-0.6-3.6,0.4-5.1c1-1.5,2.7-2.4,4.5-2.4c0.2,0,0.4,0,0.6,0  l16.5,1.9c0.1,0,0.1,0,0.2,0c0.4,0,0.8-0.2,1.1-0.5c0.2-0.2,0.4-0.6,0.2-1.2l-4-16.1c-0.4-1.6,0-3.3,1-4.6c1-1.3,2.6-2.1,4.2-2.1  c0.5,0,1,0.1,1.5,0.2l15.9,4.6c0.1,0,0.3,0.1,0.4,0.1c0.4,0,0.7-0.2,1-0.4c0.2-0.2,0.4-0.5,0.4-1l-1.2-16.6c-0.1-1.5,0.4-2.9,1.4-4  c1-1.1,2.5-1.7,3.9-1.7c0.8,0,1.6,0.2,2.3,0.5l14.9,7.3c0.2,0.1,0.4,0.1,0.6,0.1c0.6,0,1.3-0.4,1.3-1.2l1.6-16.5  c0.3-2.8,2.6-4.8,5.3-4.8c1.1,0,2.2,0.3,3.1,1l13.5,9.7c0.2,0.2,0.5,0.3,0.8,0.3c0.5,0,1.1-0.3,1.3-1l4.4-16  c0.6-2.4,2.7-3.9,5.2-3.9c1.4,0,2.8,0.6,3.8,1.6l11.6,11.8c0.3,0.3,0.7,0.4,1,0.4c0.4,0,1-0.2,1.2-0.8l7-15C163,1.2,164.9,0,167,0  c1.8,0,3.4,0.8,4.4,2.3l9.5,13.6c0.4,0.5,0.9,0.6,1.1,0.6c0.2,0,0.7-0.1,1.1-0.6l9.5-13.6c1-1.5,2.6-2.3,4.4-2.3  c2.1,0,4,1.2,4.9,3.1l7,15c0.3,0.6,0.8,0.8,1.2,0.8c0.3,0,0.6-0.1,1-0.4l11.7-11.8c1-1,2.4-1.6,3.8-1.6c2.4,0,4.5,1.6,5.2,3.9  l4.4,16c0.2,0.7,0.8,1,1.3,1c0.3,0,0.5-0.1,0.8-0.3l13.5-9.7c0.9-0.7,2-1,3.1-1c2.8,0,5.1,2.1,5.3,4.8l1.6,16.5  c0.1,0.8,0.8,1.2,1.3,1.2c0.2,0,0.4,0,0.6-0.1l14.9-7.3c0.7-0.4,1.5-0.5,2.3-0.5c1.5,0,2.9,0.6,3.9,1.7c1,1.1,1.5,2.5,1.4,4  L285.1,52c0,0.5,0.2,0.8,0.4,1c0.3,0.3,0.6,0.4,1,0.4c0.1,0,0.3,0,0.4-0.1l15.9-4.6c0.5-0.1,1-0.2,1.5-0.2c1.6,0,3.2,0.8,4.2,2.1  c1,1.3,1.4,3,1,4.6l-4,16.1c-0.1,0.6,0.1,1,0.2,1.2c0.3,0.3,0.6,0.5,1.1,0.5c0.1,0,0.1,0,0.2,0l16.5-1.9c0.2,0,0.4,0,0.6,0  c1.8,0,3.5,0.9,4.5,2.4c1,1.5,1.2,3.4,0.4,5.1l-6.6,15.2c-0.3,0.6,0,1.1,0.1,1.2c0.1,0.2,0.4,0.6,1.1,0.6l16.6,0.9  c1.9,0.1,3.6,1.2,4.5,2.9c0.9,1.7,0.8,3.7-0.3,5.4l-9.1,13.9c-0.3,0.5-0.2,1-0.1,1.2c0.1,0.2,0.3,0.7,0.9,0.8l16.2,3.7  c1.9,0.4,3.4,1.8,3.9,3.7c0.6,1.9,0.1,3.8-1.2,5.2l-11.3,12.1c-0.4,0.5-0.4,1-0.3,1.2c0,0.2,0.2,0.7,0.8,1l15.3,6.4  c1.8,0.7,3,2.3,3.2,4.3c0.2,1.9-0.5,3.8-2.1,4.9l-13.2,10.1c-0.5,0.4-0.5,0.9-0.5,1.1c0,0.2,0.1,0.7,0.6,1.1l14,8.9  c1.6,1,2.6,2.8,2.5,4.8c-0.1,1.9-1.2,3.6-2.9,4.5l-14.7,7.7c-0.6,0.3-0.7,0.8-0.7,1c0,0.2,0,0.7,0.4,1.2l12.3,11.1  c1.4,1.3,2,3.2,1.6,5.1c-0.4,1.9-1.8,3.4-3.6,4l-15.8,5.1c-0.6,0.2-0.8,0.7-0.9,0.9c-0.1,0.2-0.2,0.7,0.2,1.2l10.2,13.1  c1.2,1.5,1.5,3.5,0.8,5.3c-0.7,1.8-2.3,3-4.2,3.3l-16.4,2.3c-0.6,0.1-0.9,0.5-1,0.7c-0.1,0.2-0.3,0.7,0,1.2l7.9,14.6  c0.9,1.7,0.9,3.7-0.1,5.3c-1,1.6-2.7,2.6-4.6,2.6c0,0-16.7-0.5-16.7-0.5c-0.5,0-0.9,0.2-1.1,0.6c-0.1,0.2-0.4,0.6-0.2,1.2l5.3,15.7  c0.6,1.7,0.3,3.4-0.7,4.8c-1,1.4-2.6,2.2-4.3,2.2c-0.4,0-0.7,0-1.1-0.1l-16.3-3.3c-0.1,0-0.2,0-0.3,0c-0.4,0-0.8,0.2-1,0.5  c-0.1,0.2-0.4,0.5-0.3,1.1l2.6,16.4c0.2,1.6-0.2,3.1-1.2,4.3c-1,1.2-2.5,1.9-4.1,1.9c-0.7,0-1.3-0.1-1.9-0.4l-15.5-6  c-0.2-0.1-0.3-0.1-0.5-0.1c-0.6,0-1.3,0.5-1.3,1.3l-0.2,16.6c0,2.9-2.4,5.3-5.4,5.3c-1,0-1.9-0.3-2.7-0.8l-14.3-8.5  c-0.2-0.1-0.4-0.2-0.7-0.2c-0.6,0-1.2,0.4-1.3,1.1l-3,16.3c-0.5,2.5-2.7,4.4-5.3,4.4c-1.3,0-2.5-0.5-3.5-1.3l-12.6-10.8  c-0.3-0.3-0.6-0.3-0.9-0.3c-0.4,0-1,0.2-1.3,0.9l-5.7,15.6c-0.8,2.1-2.8,3.5-5,3.5c-1.6,0-3.1-0.7-4.1-1.9l-10.6-12.8  c-0.4-0.4-0.8-0.5-1-0.5c-0.5,0-0.9,0.3-1.2,0.7l-8.3,14.4C185.6,362.6,183.9,363.6,181.9,363.6z"
   id="path4" />
<circle
   class="st1"
   cx="181.9"
   cy="181.8"
   r="152"
   id="circle6" />
<circle
   class="st0"
   cx="181.9"
   cy="181.8"
   r="112.8"
   id="circle8" />
<path
   id="path17_1_"
   class="st2"
   d="M255.5,128.1l-12.2-12.2c-1.7-1.7-3.7-2.5-6.1-2.5c-2.4,0-4.4,0.8-6.1,2.5l-58.6,58.7  l-26.3-26.4c-1.7-1.7-3.7-2.5-6.1-2.5c-2.4,0-4.4,0.8-6.1,2.5l-12.2,12.2c-1.7,1.7-2.5,3.7-2.5,6.1c0,2.4,0.8,4.4,2.5,6.1l32.4,32.4  l12.2,12.2c1.7,1.7,3.7,2.5,6.1,2.5c2.4,0,4.4-0.8,6.1-2.5l12.2-12.2l64.7-64.7c1.7-1.7,2.5-3.7,2.5-6.1  C258,131.8,257.1,129.7,255.5,128.1" />
<path
   id="SVGID_x5F_1_x5F_"
   class="st3"
   d="M84,265.5c-18.2-22-29.1-50.2-29.1-81c0-70.2,56.9-127.1,127.1-127.1  c70.2,0,127.1,56.9,127.1,127.1c0,30.7-10.9,58.9-29,80.8" />
<text
   id="text16"><textPath
   xlink:href="#SVGID_x5F_1_x5F_"
   startOffset="11.4068%"
   id="textPath14">
<tspan
   class="st2 st4 st5"
   id="tspan12">LISA SEGUROS INTELIGENTES · DGSFP Nº AS0099</tspan></textPath>
</text>
<ellipse
   class="st1"
   cx="181.3"
   cy="291.4"
   rx="71.7"
   ry="33.8"
   id="ellipse18" />
<polygon
   id="Right_Star_3_"
   class="st2"
   points="309,218.8 310.7,224 316.1,224 311.7,227.1 313.4,232.2 309,229.1 304.7,232.2   306.4,227.1 302,224 307.4,224 " />
<polygon
   id="Right_Star_1_"
   class="st2"
   points="58.5,218.8 60.2,224 65.6,224 61.2,227.1 62.9,232.2 58.5,229.1 54.2,232.2   55.8,227.1 51.5,224 56.9,224 " />
<rect
   x="81.5"
   y="244.1"
   class="st1"
   width="204.3"
   height="31.2"
   id="rect22" />
<text
   class="st2 st4 st5"
   id="text24"
   x="92.28231"
   y="267.49411">Maquinaria Asegurada</text>
<g
   id="g36">
	<g
   id="g34">
		<path
   class="st2"
   d="M151.3,308.2H134v-27.4h3v24l-0.3,0.4h14.5V308.2z"
   id="path26" />
		<path
   class="st2"
   d="M164.1,308.2h-3v-27.4h3V308.2z"
   id="path28" />
		<path
   class="st2"
   d="M185.9,308.5c-4,0-8.3-1.4-10.9-4.5l2.3-2.3c2.7,2.7,5.2,3.7,8.5,3.7c4.7,0,7.2-1.9,7.2-4.6    c0-1.9-1.4-3.6-4.9-4.6c-0.6-0.1-4.2-1.1-4.7-1.3c-4.6-1.4-7.8-3.2-7.8-7.2c0-3.7,3-7.5,9.9-7.5c4,0,7.6,1.6,9.8,4.2l-2.3,2.3    c-1.6-2-4.2-3.4-7.5-3.4c-4.7,0-6.9,2-6.9,4.2c0,2.2,2,3.2,6.2,4.5c0.6,0.1,3.6,1,4.2,1.1c5,1.4,7,4.2,7,7.3    C196,304.6,193.2,308.5,185.9,308.5z"
   id="path30" />
		<path
   class="st2"
   d="M229.8,308.2h-3.3l-2.7-6.6l0.1-0.3h-13.8l0.1,0.3l-2.7,6.6h-3.3l11.2-27.4h3.2L229.8,308.2z M222.7,298.3    l-0.3-0.3l-4.5-11.1l-0.7-2.7l0,0l-0.7,2.7L212,298l-0.3,0.3H222.7z"
   id="path32" />
	</g>
</g>
</svg>
