<?xml version="1.0" encoding="utf-8"?>
<!-- Generator: Adobe Illustrator 19.2.1, SVG Export Plug-In . SVG Version: 6.00 Build 0)  -->
<svg version="1.1" id="Layer_1" xmlns="http://www.w3.org/2000/svg" xmlns:xlink="http://www.w3.org/1999/xlink" x="0px" y="0px"
	 viewBox="0 0 363.9 363.6" style="enable-background:new 0 0 363.9 363.6;" xml:space="preserve">
<style type="text/css">
	.st0{fill:#5EE239;}
	.st1{fill:#4DBA2A;}
	.st2{fill:#FFFFFF;}
	.st3{fill:none;}
</style>
<path class="st0" d="M181.9,363.6c-1.9,0-3.7-1-4.6-2.7l-8.3-14.4c-0.2-0.4-0.7-0.7-1.2-0.7c-0.2,0-0.7,0.1-1,0.5l-10.6,12.8
	c-1,1.2-2.5,1.9-4.1,1.9c-2.3,0-4.3-1.4-5-3.5l-5.7-15.6c-0.2-0.7-0.8-0.9-1.3-0.9c-0.2,0-0.6,0.1-0.9,0.3l-12.6,10.8
	c-1,0.8-2.2,1.3-3.5,1.3c-2.6,0-4.8-1.8-5.3-4.4l-3-16.3c-0.1-0.7-0.8-1.1-1.3-1.1c-0.2,0-0.5,0.1-0.7,0.2l-14.3,8.5
	c-0.8,0.5-1.8,0.8-2.7,0.8c-2.9,0-5.3-2.4-5.4-5.3l-0.2-16.6c0-0.8-0.7-1.3-1.3-1.3c-0.2,0-0.3,0-0.5,0.1l-15.5,6
	c-0.6,0.2-1.3,0.4-1.9,0.4c-1.6,0-3-0.7-4.1-1.9c-1-1.2-1.5-2.8-1.2-4.3l2.6-16.4c0.1-0.5-0.2-0.9-0.3-1.1c-0.3-0.3-0.6-0.5-1-0.5
	c-0.1,0-0.2,0-0.3,0l-16.3,3.3c-0.4,0.1-0.7,0.1-1.1,0.1c-1.7,0-3.3-0.8-4.3-2.2c-1-1.4-1.3-3.2-0.7-4.8l5.3-15.7
	c0.2-0.6,0-1-0.2-1.2c-0.3-0.4-0.7-0.6-1.1-0.6l-16.8,0.5c-1.9,0-3.6-1-4.6-2.6c-1-1.6-1-3.6-0.1-5.3l7.9-14.6
	c0.3-0.6,0.1-1.1,0-1.2c-0.1-0.2-0.4-0.6-1-0.7l-16.4-2.3c-1.9-0.3-3.5-1.5-4.2-3.3c-0.7-1.8-0.4-3.8,0.8-5.3L24,231
	c0.4-0.5,0.3-1,0.2-1.2c-0.1-0.2-0.3-0.7-0.9-0.9l-15.8-5.1c-1.8-0.6-3.2-2.1-3.6-4c-0.4-1.9,0.2-3.8,1.6-5.1l12.3-11.1
	c0.5-0.4,0.5-1,0.4-1.2c0-0.2-0.1-0.7-0.7-1l-14.7-7.7c-1.7-0.9-2.8-2.6-2.9-4.5c-0.1-1.9,0.8-3.7,2.5-4.8l14-8.9
	c0.5-0.3,0.6-0.9,0.6-1.1c0-0.2,0-0.7-0.5-1.1L3.4,163.3c-1.5-1.2-2.3-3-2.1-4.9c0.2-1.9,1.5-3.5,3.2-4.3l15.3-6.4
	c0.6-0.2,0.8-0.8,0.8-1c0-0.2,0.1-0.7-0.3-1.2L9,133.4c-1.3-1.4-1.8-3.4-1.2-5.2c0.6-1.9,2-3.2,3.9-3.7l16.2-3.7
	c0.6-0.1,0.9-0.6,0.9-0.8c0.1-0.2,0.2-0.7-0.1-1.2l-9.1-13.9c-1.1-1.6-1.2-3.6-0.3-5.4c0.9-1.7,2.5-2.8,4.5-2.9l16.6-0.9
	c0.6,0,1-0.5,1.1-0.6c0.1-0.2,0.3-0.7,0.1-1.2l-6.6-15.2c-0.7-1.7-0.6-3.6,0.4-5.1c1-1.5,2.7-2.4,4.5-2.4c0.2,0,0.4,0,0.6,0
	l16.5,1.9c0.1,0,0.1,0,0.2,0c0.4,0,0.8-0.2,1.1-0.5c0.2-0.2,0.4-0.6,0.2-1.2l-4-16.1c-0.4-1.6,0-3.3,1-4.6c1-1.3,2.6-2.1,4.2-2.1
	c0.5,0,1,0.1,1.5,0.2l15.9,4.6c0.1,0,0.3,0.1,0.4,0.1c0.4,0,0.7-0.2,1-0.4c0.2-0.2,0.4-0.5,0.4-1l-1.2-16.6c-0.1-1.5,0.4-2.9,1.4-4
	c1-1.1,2.5-1.7,3.9-1.7c0.8,0,1.6,0.2,2.3,0.5l14.9,7.3c0.2,0.1,0.4,0.1,0.6,0.1c0.6,0,1.3-0.4,1.3-1.2l1.6-16.5
	c0.3-2.8,2.6-4.8,5.3-4.8c1.1,0,2.2,0.3,3.1,1l13.5,9.7c0.2,0.2,0.5,0.3,0.8,0.3c0.5,0,1.1-0.3,1.3-1l4.4-16
	c0.6-2.4,2.7-3.9,5.2-3.9c1.4,0,2.8,0.6,3.8,1.6l11.6,11.8c0.3,0.3,0.7,0.4,1,0.4c0.4,0,1-0.2,1.2-0.8l7-15C163,1.2,164.9,0,167,0
	c1.8,0,3.4,0.8,4.4,2.3l9.5,13.6c0.4,0.5,0.9,0.6,1.1,0.6c0.2,0,0.7-0.1,1.1-0.6l9.5-13.6c1-1.5,2.6-2.3,4.4-2.3
	c2.1,0,4,1.2,4.9,3.1l7,15c0.3,0.6,0.8,0.8,1.2,0.8c0.3,0,0.6-0.1,1-0.4l11.7-11.8c1-1,2.4-1.6,3.8-1.6c2.4,0,4.5,1.6,5.2,3.9
	l4.4,16c0.2,0.7,0.8,1,1.3,1c0.3,0,0.5-0.1,0.8-0.3l13.5-9.7c0.9-0.7,2-1,3.1-1c2.8,0,5.1,2.1,5.3,4.8l1.6,16.5
	c0.1,0.8,0.8,1.2,1.3,1.2c0.2,0,0.4,0,0.6-0.1l14.9-7.3c0.7-0.4,1.5-0.5,2.3-0.5c1.5,0,2.9,0.6,3.9,1.7c1,1.1,1.5,2.5,1.4,4
	L285.1,52c0,0.5,0.2,0.8,0.4,1c0.3,0.3,0.6,0.4,1,0.4c0.1,0,0.3,0,0.4-0.1l15.9-4.6c0.5-0.1,1-0.2,1.5-0.2c1.6,0,3.2,0.8,4.2,2.1
	c1,1.3,1.4,3,1,4.6l-4,16.1c-0.1,0.6,0.1,1,0.2,1.2c0.3,0.3,0.6,0.5,1.1,0.5c0.1,0,0.1,0,0.2,0l16.5-1.9c0.2,0,0.4,0,0.6,0
	c1.8,0,3.5,0.9,4.5,2.4c1,1.5,1.2,3.4,0.4,5.1l-6.6,15.2c-0.3,0.6,0,1.1,0.1,1.2c0.1,0.2,0.4,0.6,1.1,0.6l16.6,0.9
	c1.9,0.1,3.6,1.2,4.5,2.9c0.9,1.7,0.8,3.7-0.3,5.4l-9.1,13.9c-0.3,0.5-0.2,1-0.1,1.2c0.1,0.2,0.3,0.7,0.9,0.8l16.2,3.7
	c1.9,0.4,3.4,1.8,3.9,3.7c0.6,1.9,0.1,3.8-1.2,5.2l-11.3,12.1c-0.4,0.5-0.4,1-0.3,1.2c0,0.2,0.2,0.7,0.8,1l15.3,6.4
	c1.8,0.7,3,2.3,3.2,4.3c0.2,1.9-0.5,3.8-2.1,4.9l-13.2,10.1c-0.5,0.4-0.5,0.9-0.5,1.1c0,0.2,0.1,0.7,0.6,1.1l14,8.9
	c1.6,1,2.6,2.8,2.5,4.8c-0.1,1.9-1.2,3.6-2.9,4.5l-14.7,7.7c-0.6,0.3-0.7,0.8-0.7,1c0,0.2,0,0.7,0.4,1.2l12.3,11.1
	c1.4,1.3,2,3.2,1.6,5.1c-0.4,1.9-1.8,3.4-3.6,4l-15.8,5.1c-0.6,0.2-0.8,0.7-0.9,0.9c-0.1,0.2-0.2,0.7,0.2,1.2l10.2,13.1
	c1.2,1.5,1.5,3.5,0.8,5.3c-0.7,1.8-2.3,3-4.2,3.3l-16.4,2.3c-0.6,0.1-0.9,0.5-1,0.7c-0.1,0.2-0.3,0.7,0,1.2l7.9,14.6
	c0.9,1.7,0.9,3.7-0.1,5.3c-1,1.6-2.7,2.6-4.6,2.6c0,0-16.7-0.5-16.7-0.5c-0.5,0-0.9,0.2-1.1,0.6c-0.1,0.2-0.4,0.6-0.2,1.2l5.3,15.7
	c0.6,1.7,0.3,3.4-0.7,4.8c-1,1.4-2.6,2.2-4.3,2.2c-0.4,0-0.7,0-1.1-0.1l-16.3-3.3c-0.1,0-0.2,0-0.3,0c-0.4,0-0.8,0.2-1,0.5
	c-0.1,0.2-0.4,0.5-0.3,1.1l2.6,16.4c0.2,1.6-0.2,3.1-1.2,4.3c-1,1.2-2.5,1.9-4.1,1.9c-0.7,0-1.3-0.1-1.9-0.4l-15.5-6
	c-0.2-0.1-0.3-0.1-0.5-0.1c-0.6,0-1.3,0.5-1.3,1.3l-0.2,16.6c0,2.9-2.4,5.3-5.4,5.3c-1,0-1.9-0.3-2.7-0.8l-14.3-8.5
	c-0.2-0.1-0.4-0.2-0.7-0.2c-0.6,0-1.2,0.4-1.3,1.1l-3,16.3c-0.5,2.5-2.7,4.4-5.3,4.4c-1.3,0-2.5-0.5-3.5-1.3l-12.6-10.8
	c-0.3-0.3-0.6-0.3-0.9-0.3c-0.4,0-1,0.2-1.3,0.9l-5.7,15.6c-0.8,2.1-2.8,3.5-5,3.5c-1.6,0-3.1-0.7-4.1-1.9l-10.6-12.8
	c-0.4-0.4-0.8-0.5-1-0.5c-0.5,0-0.9,0.3-1.2,0.7l-8.3,14.4C185.6,362.6,183.9,363.6,181.9,363.6z"/>
<circle class="st1" cx="181.9" cy="181.8" r="152"/>
<circle class="st0" cx="181.9" cy="181.8" r="112.8"/>
<path id="path17_1_" class="st2" d="M258.5,143l-12.2-12.2c-1.7-1.7-3.7-2.5-6.1-2.5c-2.4,0-4.4,0.8-6.1,2.5l-58.6,58.7l-26.3-26.4
	c-1.7-1.7-3.7-2.5-6.1-2.5c-2.4,0-4.4,0.8-6.1,2.5l-12.2,12.2c-1.7,1.7-2.5,3.7-2.5,6.1c0,2.4,0.8,4.4,2.5,6.1l32.4,32.4l12.2,12.2
	c1.7,1.7,3.7,2.5,6.1,2.5c2.4,0,4.4-0.8,6.1-2.5l12.2-12.2l64.7-64.7c1.7-1.7,2.5-3.7,2.5-6.1C261,146.7,260.1,144.6,258.5,143"/>
<path id="SVGID_x5F_1_x5F_" class="st3" d="M84,265.5c-18.2-22-29.1-50.2-29.1-81c0-70.2,56.9-127.1,127.1-127.1
	c70.2,0,127.1,56.9,127.1,127.1c0,30.7-10.9,58.9-29,80.8"/>
<text><textPath  xlink:href="#SVGID_x5F_1_x5F_" startOffset="7.0068%">
<tspan  class="st2" style="font-family:'Arial,Helvetica'; font-size:18px;">LISA SEGUROS INTELIGENTES · FACTURA ASEGURADA · DGSFP Nº AS0099</tspan></textPath>
</text>
<ellipse class="st1" cx="181.3" cy="291.4" rx="71.7" ry="33.8"/>
<g>
	<g>
		<path class="st2" d="M151.3,306.9H134v-27.4h3v24l-0.3,0.4h14.5V306.9z"/>
		<path class="st2" d="M164.1,306.9h-3v-27.4h3V306.9z"/>
		<path class="st2" d="M185.9,307.2c-4,0-8.3-1.4-10.9-4.5l2.3-2.3c2.7,2.7,5.2,3.7,8.5,3.7c4.7,0,7.2-1.9,7.2-4.6
			c0-1.9-1.4-3.6-4.9-4.6c-0.6-0.1-4.2-1.1-4.7-1.3c-4.6-1.4-7.8-3.2-7.8-7.2c0-3.7,3-7.5,9.9-7.5c4,0,7.6,1.6,9.8,4.2l-2.3,2.3
			c-1.6-2-4.2-3.4-7.5-3.4c-4.7,0-6.9,2-6.9,4.2c0,2.2,2,3.2,6.2,4.5c0.6,0.1,3.6,1,4.2,1.1c5,1.4,7,4.2,7,7.3
			C196,303.3,193.2,307.2,185.9,307.2z"/>
		<path class="st2" d="M229.8,306.9h-3.3l-2.7-6.6l0.1-0.3h-13.8l0.1,0.3l-2.7,6.6h-3.3l11.2-27.4h3.2L229.8,306.9z M222.7,297
			l-0.3-0.3l-4.5-11.1l-0.7-2.7l0,0l-0.7,2.7l-4.5,11.1l-0.3,0.3H222.7z"/>
	</g>
</g>
<polygon id="Right_Star_2_" class="st2" points="285.5,258.8 287.2,264 292.6,264 288.2,267.1 289.9,272.2 285.5,269.1 281.2,272.2 
	282.8,267.1 278.5,264 283.9,264 "/>
<polygon id="Right_Star_1_" class="st2" points="78.5,258.8 80.2,264 85.6,264 81.2,267.1 82.9,272.2 78.5,269.1 74.2,272.2 
	75.8,267.1 71.5,264 76.9,264 "/>
</svg>
