<?xml version="1.0" encoding="utf-8"?>
<!-- Generator: Adobe Illustrator 19.2.1, SVG Export Plug-In . SVG Version: 6.00 Build 0)  -->
<svg version="1.1" id="Layer_1" xmlns="http://www.w3.org/2000/svg" xmlns:xlink="http://www.w3.org/1999/xlink" x="0px" y="0px"
	 viewBox="0 0 370.5 370.1" style="enable-background:new 0 0 370.5 370.1;" xml:space="preserve">
<style type="text/css">
	.st0{fill:#CC3232;}
	.st1{fill:#FFFFFF;}
	.st2{fill:#FFD9D9;}
</style>
<path class="st0" d="M185.2,370.1c-2,0-3.7-1-4.7-2.7l-8.4-14.6c-0.2-0.4-0.7-0.7-1.2-0.7c-0.2,0-0.7,0.1-1.1,0.5l-10.8,13
	c-1,1.3-2.6,2-4.2,2c-2.3,0-4.3-1.4-5.1-3.6l-5.9-15.8c-0.2-0.7-0.9-0.9-1.3-0.9c-0.2,0-0.6,0.1-0.9,0.3l-12.8,11
	c-1,0.8-2.2,1.3-3.5,1.3c-2.6,0-4.9-1.9-5.4-4.5l-3.1-16.6c-0.1-0.7-0.8-1.1-1.4-1.1c-0.2,0-0.5,0.1-0.7,0.2l-14.5,8.7
	c-0.9,0.5-1.8,0.8-2.8,0.8c-3,0-5.4-2.4-5.5-5.4L91.8,325c0-0.8-0.7-1.4-1.4-1.4c-0.2,0-0.3,0-0.5,0.1l-15.8,6.1
	c-0.6,0.2-1.3,0.4-2,0.4c-1.6,0-3.1-0.7-4.1-1.9c-1-1.2-1.5-2.8-1.2-4.4l2.6-16.7c0.1-0.5-0.2-0.9-0.3-1.1c-0.3-0.3-0.6-0.5-1-0.5
	c-0.1,0-0.2,0-0.3,0L51.2,309c-0.4,0.1-0.7,0.1-1.1,0.1c-1.7,0-3.4-0.9-4.4-2.3c-1-1.4-1.3-3.2-0.7-4.9l5.4-16c0.2-0.6,0-1-0.2-1.2
	c-0.3-0.4-0.7-0.6-1.1-0.6L32,284.5c-1.9,0-3.7-1-4.7-2.7c-1-1.7-1-3.7-0.1-5.4l8-14.9c0.3-0.6,0.1-1.1,0-1.3
	c-0.1-0.2-0.4-0.6-1-0.7l-16.7-2.4c-2-0.3-3.6-1.5-4.3-3.4c-0.7-1.8-0.4-3.8,0.8-5.4l10.4-13.3c0.4-0.5,0.3-1,0.2-1.2
	c-0.1-0.2-0.3-0.7-0.9-0.9l-16.1-5.2c-1.9-0.6-3.2-2.1-3.7-4c-0.4-1.9,0.2-3.9,1.7-5.2l12.5-11.3c0.5-0.4,0.5-1,0.4-1.2
	c0-0.2-0.2-0.7-0.7-1l-15-7.8c-1.7-0.9-2.8-2.6-2.9-4.6c-0.1-2,0.9-3.8,2.5-4.8l14.3-9.1c0.5-0.3,0.6-0.9,0.6-1.1
	c0-0.2,0-0.8-0.5-1.2L3.4,166.2c-1.6-1.2-2.4-3.1-2.1-5s1.5-3.6,3.3-4.3l15.6-6.5c0.6-0.2,0.8-0.8,0.8-1c0-0.2,0.1-0.8-0.3-1.2
	L9.2,135.8c-1.3-1.4-1.8-3.4-1.2-5.3c0.6-1.9,2.1-3.3,4-3.7l16.5-3.8c0.6-0.1,0.9-0.6,1-0.8c0.1-0.2,0.2-0.7-0.1-1.3L20,106.7
	c-1.1-1.7-1.2-3.7-0.3-5.4s2.6-2.9,4.6-3l16.9-1c0.6,0,1-0.5,1.1-0.7c0.1-0.2,0.3-0.7,0.1-1.3l-6.7-15.5c-0.7-1.7-0.6-3.6,0.4-5.2
	c1-1.5,2.7-2.5,4.5-2.5c0.2,0,0.4,0,0.6,0L58,74.2c0.1,0,0.1,0,0.2,0c0.4,0,0.8-0.2,1.1-0.5c0.2-0.2,0.4-0.6,0.3-1.2l-4-16.4
	c-0.4-1.6,0-3.3,1-4.7c1-1.3,2.6-2.1,4.3-2.1c0.5,0,1,0.1,1.5,0.2l16.2,4.7c0.1,0,0.3,0.1,0.4,0.1c0.4,0,0.7-0.2,1-0.4
	c0.2-0.2,0.4-0.5,0.4-1L79,36.1c-0.1-1.5,0.4-3,1.4-4.1c1-1.1,2.5-1.8,4-1.8c0.8,0,1.6,0.2,2.4,0.6l15.2,7.4
	c0.2,0.1,0.4,0.1,0.6,0.1c0.6,0,1.3-0.4,1.4-1.2l1.7-16.8c0.3-2.8,2.6-4.9,5.4-4.9c1.1,0,2.2,0.4,3.2,1l13.7,9.9
	c0.2,0.2,0.5,0.3,0.8,0.3c0.5,0,1.1-0.3,1.3-1l4.5-16.3c0.7-2.4,2.8-4,5.3-4c1.5,0,2.8,0.6,3.9,1.6l11.9,12c0.3,0.3,0.7,0.4,1,0.4
	c0.4,0,1-0.2,1.3-0.8L165,3.1c0.9-1.9,2.8-3.1,4.9-3.1c1.8,0,3.4,0.9,4.5,2.3l9.7,13.9c0.4,0.5,0.9,0.6,1.1,0.6
	c0.2,0,0.8-0.1,1.1-0.6L196,2.3c1-1.5,2.7-2.3,4.5-2.3c2.1,0,4,1.2,4.9,3.1l7.2,15.3c0.3,0.6,0.8,0.8,1.2,0.8c0.3,0,0.6-0.1,1-0.4
	l11.9-12c1-1,2.4-1.6,3.9-1.6c2.5,0,4.6,1.6,5.3,4l4.5,16.3c0.2,0.7,0.8,1,1.3,1c0.3,0,0.6-0.1,0.8-0.3l13.7-9.9c0.9-0.7,2-1,3.2-1
	c2.8,0,5.2,2.1,5.4,4.9l1.7,16.8c0.1,0.8,0.8,1.2,1.4,1.2c0.2,0,0.4,0,0.6-0.1l15.2-7.4c0.8-0.4,1.6-0.6,2.4-0.6c1.5,0,3,0.6,4,1.8
	c1,1.1,1.5,2.6,1.4,4.1l-1.2,16.9c0,0.5,0.2,0.8,0.4,1c0.3,0.3,0.6,0.4,1,0.4c0.1,0,0.3,0,0.4-0.1l16.2-4.7c0.5-0.1,1-0.2,1.5-0.2
	c1.7,0,3.2,0.8,4.3,2.1c1,1.3,1.4,3,1,4.7l-4,16.4c-0.1,0.6,0.1,1,0.3,1.2c0.3,0.3,0.7,0.5,1.1,0.5c0.1,0,0.1,0,0.2,0l16.8-1.9
	c0.2,0,0.4,0,0.6,0c1.8,0,3.5,0.9,4.6,2.5c1,1.5,1.2,3.5,0.4,5.2l-6.7,15.5c-0.3,0.6,0,1.1,0.1,1.3c0.1,0.2,0.4,0.6,1.1,0.7l16.9,1
	c2,0.1,3.7,1.2,4.6,3c0.9,1.8,0.8,3.8-0.3,5.4l-9.3,14.1c-0.4,0.5-0.2,1.1-0.1,1.3c0.1,0.2,0.3,0.7,1,0.8l16.5,3.8
	c1.9,0.4,3.4,1.8,4,3.7c0.6,1.9,0.1,3.9-1.2,5.3l-11.5,12.4c-0.4,0.5-0.4,1-0.3,1.2c0,0.2,0.2,0.7,0.8,1l15.6,6.5
	c1.8,0.8,3.1,2.4,3.3,4.3c0.3,2-0.5,3.8-2.1,5l-13.4,10.2c-0.5,0.4-0.5,0.9-0.5,1.2c0,0.2,0.1,0.8,0.6,1.1l14.3,9.1
	c1.7,1.1,2.6,2.9,2.5,4.8c-0.1,2-1.2,3.7-2.9,4.6l-15,7.8c-0.6,0.3-0.7,0.8-0.7,1c0,0.2,0,0.8,0.4,1.2l12.5,11.3
	c1.5,1.3,2.1,3.3,1.7,5.2c-0.4,1.9-1.8,3.4-3.7,4l-16.1,5.2c-0.6,0.2-0.8,0.7-0.9,0.9c-0.1,0.2-0.2,0.7,0.2,1.2l10.4,13.3
	c1.2,1.6,1.5,3.6,0.8,5.4c-0.7,1.8-2.3,3.1-4.3,3.4l-16.7,2.4c-0.6,0.1-0.9,0.5-1,0.7c-0.1,0.2-0.3,0.7,0,1.3l8,14.9
	c0.9,1.7,0.9,3.7-0.1,5.4c-1,1.7-2.7,2.7-4.7,2.7c0,0-17-0.5-17-0.5c-0.5,0-0.9,0.2-1.2,0.6c-0.1,0.2-0.4,0.6-0.2,1.2l5.4,16
	c0.6,1.7,0.3,3.5-0.7,4.9c-1,1.4-2.7,2.3-4.4,2.3c-0.4,0-0.7,0-1.1-0.1l-16.6-3.3c-0.1,0-0.2,0-0.3,0c-0.4,0-0.8,0.2-1,0.5
	c-0.2,0.2-0.4,0.6-0.3,1.1l2.6,16.7c0.2,1.6-0.2,3.2-1.2,4.4c-1,1.2-2.6,1.9-4.1,1.9c-0.7,0-1.3-0.1-2-0.4l-15.8-6.1
	c-0.2-0.1-0.3-0.1-0.5-0.1c-0.6,0-1.4,0.5-1.4,1.4l-0.2,16.9c0,3-2.5,5.4-5.5,5.4c-1,0-1.9-0.3-2.8-0.8l-14.5-8.7
	c-0.2-0.1-0.5-0.2-0.7-0.2c-0.6,0-1.2,0.4-1.4,1.1l-3.1,16.6c-0.5,2.6-2.7,4.5-5.4,4.5c-1.3,0-2.5-0.5-3.5-1.3l-12.8-11
	c-0.3-0.3-0.7-0.3-0.9-0.3c-0.4,0-1.1,0.2-1.3,0.9l-5.9,15.8c-0.8,2.2-2.8,3.6-5.1,3.6c-1.6,0-3.1-0.7-4.2-2l-10.8-13
	c-0.4-0.4-0.8-0.5-1.1-0.5c-0.5,0-0.9,0.3-1.2,0.7l-8.4,14.6C189,369.1,187.2,370.1,185.2,370.1z"/>
<circle class="st1" cx="185.2" cy="185.1" r="174.7"/>
<circle class="st2" cx="185.2" cy="185.1" r="166.7"/>
</svg>
