<?xml version="1.0" encoding="UTF-8" standalone="no"?>
<svg
   xmlns:dc="http://purl.org/dc/elements/1.1/"
   xmlns:cc="http://creativecommons.org/ns#"
   xmlns:rdf="http://www.w3.org/1999/02/22-rdf-syntax-ns#"
   xmlns:svg="http://www.w3.org/2000/svg"
   xmlns="http://www.w3.org/2000/svg"
   xmlns:sodipodi="http://sodipodi.sourceforge.net/DTD/sodipodi-0.dtd"
   xmlns:inkscape="http://www.inkscape.org/namespaces/inkscape"
   version="1.1"
   id="Layer_1"
   x="0px"
   y="0px"
   viewBox="0 0 491.1 448.5"
   style="enable-background:new 0 0 491.1 448.5;"
   xml:space="preserve"
   sodipodi:docname="opcB.svg"
   inkscape:version="1.0.2-2 (e86c870879, 2021-01-15)"><metadata
   id="metadata29"><rdf:RDF><cc:Work
       rdf:about=""><dc:format>image/svg+xml</dc:format><dc:type
         rdf:resource="http://purl.org/dc/dcmitype/StillImage" /><dc:title></dc:title></cc:Work></rdf:RDF></metadata><defs
   id="defs27" /><sodipodi:namedview
   pagecolor="#ffffff"
   bordercolor="#666666"
   borderopacity="1"
   objecttolerance="10"
   gridtolerance="10"
   guidetolerance="10"
   inkscape:pageopacity="0"
   inkscape:pageshadow="2"
   inkscape:window-width="1632"
   inkscape:window-height="799"
   id="namedview25"
   showgrid="false"
   inkscape:zoom="0.49609811"
   inkscape:cx="160.12821"
   inkscape:cy="28.848395"
   inkscape:window-x="62"
   inkscape:window-y="0"
   inkscape:window-maximized="0"
   inkscape:current-layer="Layer_1" />
<style
   type="text/css"
   id="style2">
	.st0{fill:#474747;}
</style>



<circle
   style="opacity:0.2;fill:#800080;stroke:#fe791d;stroke-width:0.687941;stop-color:#000000"
   id="path879"
   cx="245.79327"
   cy="222.18161"
   r="217.91037" /><g
   id="g912"
   transform="matrix(0.80856771,0,0,0.80856771,82.461328,40.354881)"><g
     id="g14"
     style="fill:#800080"><path
       class="st0"
       d="m 145.4,373.8 c -9.3,0 -18,-3.6 -24.6,-10.1 -6.6,-6.6 -10.3,-15.3 -10.3,-24.7 L 109.2,35.7 c 0,-9.3 3.6,-18.1 10.1,-24.8 C 125.9,4.3 134.6,0.6 144,0.6 L 279.2,0 c 0.1,0 0.1,0 0.2,0 19.2,0 34.9,15.6 34.9,34.8 l 1.3,303.3 c 0,9.3 -3.6,18.1 -10.1,24.8 -6.6,6.6 -15.3,10.3 -24.7,10.3 l -59,0.3 c 0,0 0,0 0,0 -4.1,0 -7.5,-3.3 -7.5,-7.5 0,-4.1 3.3,-7.5 7.5,-7.5 l 59,-0.3 c 5.3,0 10.3,-2.1 14.1,-5.9 3.8,-3.8 5.8,-8.8 5.8,-14.1 L 299.4,34.9 c 0,-11 -9,-19.9 -19.9,-19.9 0,0 -0.1,0 -0.1,0 L 144,15.6 c -5.3,0 -10.3,2.1 -14.1,5.9 -3.8,3.8 -5.8,8.8 -5.8,14.1 l 1.3,303.3 c 0,5.3 2.1,10.3 5.9,14.1 3.8,3.7 8.7,5.8 14,5.8 0,0 0.1,0 0.1,0 4.1,0 7.5,3.3 7.5,7.5 0,4.1 -3.3,7.5 -7.5,7.5 0.1,0 0,0 0,0 z"
       id="path4"
       style="fill:#800080" /><path
       class="st0"
       d="m 221.6,316.7 c -4.1,0 -7.5,-3.3 -7.5,-7.5 0,-4.1 3.3,-7.5 7.5,-7.5 l 85.4,-0.4 c 0,0 0,0 0,0 4.1,0 7.5,3.3 7.5,7.5 0,4.1 -3.3,7.5 -7.5,7.5 l -85.4,0.4 c 0,0 0,0 0,0 z"
       id="path6"
       style="fill:#800080" /><path
       class="st0"
       d="m 117.1,49.7 c -4.1,0 -7.5,-3.3 -7.5,-7.5 0,-4.1 3.3,-7.5 7.5,-7.5 l 189.8,-0.4 c 0,0 0,0 0,0 4.1,0 7.5,3.3 7.5,7.5 0,4.1 -3.3,7.5 -7.5,7.5 l -189.8,0.4 c 0,0 0,0 0,0 z"
       id="path8"
       style="fill:#800080" /><path
       class="st0"
       d="m 118,317.2 c -4.1,0 -7.5,-3.3 -7.5,-7.5 0,-4.1 3.3,-7.5 7.5,-7.5 l 28.4,-0.1 c 0,0 0,0 0,0 4.1,0 7.5,3.3 7.5,7.5 0,4.1 -3.3,7.5 -7.5,7.5 l -28.4,0.1 c 0,0 0,0 0,0 z"
       id="path10"
       style="fill:#800080" /><path
       class="st0"
       d="m 221.7,342.5 c -4.1,0 -7.5,-3.3 -7.5,-7.5 0,-4.1 3.3,-7.5 7.5,-7.5 l 12.3,-0.1 c 0,0 0,0 0,0 4.1,0 7.5,3.3 7.5,7.5 0,4.1 -3.3,7.5 -7.5,7.5 l -12.3,0.1 c 0,0 0,0 0,0 z"
       id="path12"
       style="fill:#800080" /></g><path
     class="st0"
     d="m 240.5,442.7 c -3.3,0 -6.4,-2.3 -7.3,-5.7 -3.7,-14.7 -15.2,-26.3 -29.8,-30.3 l -9.3,-2.5 c -3.3,-0.9 -5.5,-3.8 -5.5,-7.2 l -0.4,-90.1 c 0,-4.2 -1.7,-8.2 -4.7,-11.2 -3,-3 -6.9,-4.6 -11.1,-4.6 0,0 0,0 -0.1,0 -4.2,0 -8.2,1.7 -11.2,4.7 -3,3 -4.6,7 -4.6,11.2 l 0.4,90.1 c 0,4.1 -3.3,7.5 -7.5,7.5 0,0 0,0 0,0 -4.1,0 -7.5,-3.3 -7.5,-7.5 L 141.5,307 c 0,-8.2 3.1,-16 8.9,-21.8 5.8,-5.8 13.5,-9.1 21.8,-9.1 0,0 0.1,0 0.1,0 16.9,0 30.7,13.7 30.8,30.7 l 0.4,84.3 3.8,1 c 19.8,5.4 35.3,21.1 40.4,41.1 1,4 -1.4,8.1 -5.4,9.1 -0.6,0.3 -1.2,0.4 -1.8,0.4 z"
     id="path16"
     style="fill:#800080" /><path
     class="st0"
     d="m 131.8,498.8 c -3.9,0 -7.2,-3 -7.5,-6.9 l -1,-13.4 c 0,-0.2 0,-0.4 0,-0.5 0,-8.4 -3.1,-16.6 -8.5,-22.9 l -30.9,-36 C 74.4,408.1 69.2,394 69.1,379.4 L 68.5,241.5 c -0.1,-13.2 4.5,-26.2 12.7,-36.6 0,0 0.1,-0.1 0.1,-0.1 l 29.5,-35.2 c 2.7,-3.2 7.4,-3.6 10.6,-0.9 3.2,2.7 3.6,7.4 0.9,10.6 l -29.4,35.1 c -6.1,7.7 -9.4,17.3 -9.4,27.1 l 0.6,137.9 c 0,11 4,21.6 11.2,30 l 30.9,36 c 7.7,9 12,20.5 12.2,32.4 l 1,13.1 c 0.3,4.1 -2.8,7.7 -6.9,8 -0.3,-0.1 -0.5,-0.1 -0.7,-0.1 z"
     id="path18"
     style="fill:#800080" /><path
     class="st0"
     d="m 265.7,498.8 c -0.1,0 -0.2,0 -0.3,0 -4.1,-0.2 -7.4,-3.6 -7.2,-7.8 l 0.8,-21.8 c 0,-6.3 1.1,-12.6 3.2,-18.5 l 7,-19.7 c 2.5,-6.9 3,-14.3 1.5,-21.5 l -7.6,-18.6 c -1.6,-3.8 0.3,-8.2 4.1,-9.8 3.8,-1.6 8.2,0.3 9.8,4.1 l 7.9,19.2 c 0.2,0.4 0.3,0.8 0.4,1.2 2.3,10.1 1.6,20.6 -1.9,30.4 l -7,19.7 c -1.6,4.4 -2.3,8.9 -2.3,13.6 0,0.1 0,0.2 0,0.3 l -0.8,21.9 c -0.2,4.1 -3.5,7.3 -7.6,7.3 z"
     id="path20"
     style="fill:#800080" /><g
     id="g30"
     style="fill:#800080"><path
       class="st0"
       d="m 391.2,212.4 c -3.9,0 -7,-3.1 -7,-7 v -6.5 c 0,-3.9 3.1,-7 7,-7 3.9,0 7,3.1 7,7 v 6.5 c 0,3.8 -3.1,7 -7,7 z"
       id="path22"
       style="fill:#800080" /><path
       class="st0"
       d="m 391.2,257.2 c -3.9,0 -7,-3.1 -7,-7 v -6.5 c 0,-3.9 3.1,-7 7,-7 3.9,0 7,3.1 7,7 v 6.5 c 0,3.9 -3.1,7 -7,7 z"
       id="path24"
       style="fill:#800080" /><path
       class="st0"
       d="m 372,231.5 h -6.5 c -3.9,0 -7,-3.1 -7,-7 0,-3.9 3.1,-7 7,-7 h 6.5 c 3.9,0 7,3.1 7,7 0,3.9 -3.1,7 -7,7 z"
       id="path26"
       style="fill:#800080" /><path
       class="st0"
       d="m 416.9,231.5 h -6.5 c -3.9,0 -7,-3.1 -7,-7 0,-3.9 3.1,-7 7,-7 h 6.5 c 3.9,0 7,3.1 7,7 0,3.9 -3.1,7 -7,7 z"
       id="path28"
       style="fill:#800080" /></g><g
     id="g40"
     style="fill:#800080"><path
       class="st0"
       d="m 35.2,122.4 c -3.9,0 -7,-3.1 -7,-7 v -6.5 c 0,-3.9 3.1,-7 7,-7 3.9,0 7,3.1 7,7 v 6.5 c 0,3.8 -3.1,7 -7,7 z"
       id="path32"
       style="fill:#800080" /><path
       class="st0"
       d="m 35.2,167.2 c -3.9,0 -7,-3.1 -7,-7 v -6.5 c 0,-3.9 3.1,-7 7,-7 3.9,0 7,3.1 7,7 v 6.5 c 0,3.9 -3.1,7 -7,7 z"
       id="path34"
       style="fill:#800080" /><path
       class="st0"
       d="M 16,141.5 H 9.5 c -3.9,0 -7,-3.1 -7,-7 0,-3.9 3.1,-7 7,-7 H 16 c 3.9,0 7,3.1 7,7 0,3.9 -3.1,7 -7,7 z"
       id="path36"
       style="fill:#800080" /><path
       class="st0"
       d="m 60.9,141.5 h -6.5 c -3.9,0 -7,-3.1 -7,-7 0,-3.9 3.1,-7 7,-7 h 6.5 c 3.9,0 7,3.1 7,7 0,3.9 -3.1,7 -7,7 z"
       id="path38"
       style="fill:#800080" /></g><circle
     class="st0"
     cx="359.39999"
     cy="139.10001"
     r="9.3999996"
     id="circle42"
     style="fill:#800080" /><circle
     class="st0"
     cx="9.3999996"
     cy="234.10001"
     r="9.3999996"
     id="circle44"
     style="fill:#800080" /><path
     class="st0"
     d="m 213.8,246.4 c -1.4,0 -2.8,-0.4 -4,-1.1 l -21.6,-13.4 c 0,0 -0.1,0 -0.1,-0.1 -21.7,-14 -34.6,-37.1 -34.6,-61.8 v -52.4 c 0,-2.5 1.3,-4.9 3.4,-6.3 2.1,-1.4 4.8,-1.6 7.1,-0.6 l 10.3,4.5 c 8.6,3.3 18.3,3.3 26.8,-0.2 l 9.5,-4.3 c 1.9,-0.9 4.2,-0.9 6.1,-0.1 l 10.4,4.6 c 8.6,3.3 18.3,3.2 26.8,-0.2 l 9.4,-4.3 c 2.3,-1.1 5,-0.9 7.2,0.5 2.2,1.4 3.5,3.8 3.5,6.3 V 170 c 0,24.7 -12.9,47.8 -34.6,61.8 0,0 -0.1,0 -0.1,0.1 l -21.6,13.4 c -1.1,0.7 -2.5,1.1 -3.9,1.1 z m -17.5,-27.2 17.6,10.9 17.6,-10.9 C 248.9,208 259.2,189.6 259.2,170 v -40.7 c -11.9,4.6 -25.5,4.6 -37.5,0 -0.1,0 -0.2,-0.1 -0.3,-0.1 l -7.5,-3.3 -6.6,3 c -0.1,0 -0.2,0.1 -0.3,0.1 -12.1,4.9 -26.1,5 -38.2,0.2 -0.1,0 -0.2,-0.1 -0.2,-0.1 V 170 c 0,19.5 10.3,37.9 27.7,49.2 z m 39.1,6.3 z"
     id="path46"
     style="fill:#800080" /><path
     class="st0"
     d="m 203.4,195.8 c -1.9,0 -3.8,-0.7 -5.3,-2.2 l -12,-12 c -2.9,-2.9 -2.9,-7.7 0,-10.6 2.9,-2.9 7.7,-2.9 10.6,0 l 6.7,6.7 29.8,-29.8 c 2.9,-2.9 7.7,-2.9 10.6,0 2.9,2.9 2.9,7.7 0,10.6 l -35.1,35.1 c -1.4,1.5 -3.4,2.2 -5.3,2.2 z"
     id="path48"
     style="fill:#800080" /></g></svg>
