<svg xmlns="http://www.w3.org/2000/svg" fill="none" viewBox="0 0 30 30"><path fill="#e3e3e3" d="M.5 14.5a9 9 0 0018 0v-5a9 9 0 10-18 0v5z"/><path fill="#fff" d="M9.5.5a9 9 0 00-9 9v5a9 9 0 009 9V.5z"/><path stroke="#191919" stroke-linecap="round" stroke-linejoin="round" d="M18.487 9.007a8.96 8.96 0 00-2.28-5.507M.5 11.5v3A9 9 0 006 22.794m8-21.088A9 9 0 00.514 9M7 4.044a6 6 0 018.5 5.428"/><path stroke="#191919" stroke-linecap="round" stroke-linejoin="round" d="M10 20.48a6 6 0 01-6.5-5.98v-5a5.977 5.977 0 011.528-4"/><path stroke="#191919" stroke-linecap="round" stroke-linejoin="round" d="M12.5 11.051V9.5a3 3 0 00-6 0v3m0 2a3 3 0 003 3m0-8v3m0 2v1m0 8c.66 0 1.32-.072 1.964-.215"/><path fill="#78eb7b" d="M17.5 23.5a6 6 0 100-12 6 6 0 000 12z"/><path fill="#c9f7ca" d="M13.257 21.743a6 6 0 118.486-8.485l-8.486 8.485z"/><path stroke="#191919" stroke-linecap="round" stroke-linejoin="round" d="M17.5 23.5a6 6 0 100-12 6 6 0 000 12z"/><path stroke="#191919" stroke-linecap="round" stroke-linejoin="round" d="M20.174 15.756l-2.905 3.873a.75.75 0 01-1.13.081l-1.5-1.5"/></svg>