<svg xmlns="http://www.w3.org/2000/svg" fill="none" viewBox="0 0 30 30"><path fill="#ffdda1" d="M11.5 23.5s-2.02-.892-3.432-1.415c-.926-.344-.794-1.906-.258-2.494a4.282 4.282 0 001.259-3.531A3 3 0 006 12.781a3.001 3.001 0 00-3.069 3.279 4.282 4.282 0 001.259 3.531c.536.588.668 2.15-.258 2.494C2.52 22.608.5 23.5.5 23.5"/><path stroke="#191919" stroke-linecap="round" stroke-linejoin="round" d="M11.5 23.5s-2.02-.892-3.432-1.415c-.926-.344-.794-1.906-.258-2.494a4.282 4.282 0 001.259-3.531A3 3 0 006 12.781a3.001 3.001 0 00-3.069 3.279 4.282 4.282 0 001.259 3.531c.536.588.668 2.15-.258 2.494C2.52 22.608.5 23.5.5 23.5"/><path fill="#ffdda1" d="M23.5 23.5s-2.02-.892-3.432-1.415c-.926-.344-.794-1.906-.258-2.494a4.282 4.282 0 001.259-3.531 3.077 3.077 0 00-5.316-2.308 3.076 3.076 0 00-.822 2.308 4.28 4.28 0 001.259 3.531c.536.588.668 2.15-.258 2.494C14.52 22.608 12.5 23.5 12.5 23.5"/><path stroke="#191919" stroke-linecap="round" stroke-linejoin="round" d="M23.5 23.5s-2.02-.892-3.432-1.415c-.926-.344-.794-1.906-.258-2.494a4.282 4.282 0 001.259-3.531 3.077 3.077 0 00-5.316-2.308 3.076 3.076 0 00-.822 2.308 4.28 4.28 0 001.259 3.531c.536.588.668 2.15-.258 2.494C14.52 22.608 12.5 23.5 12.5 23.5"/><path fill="#78eb7b" d="M14.5.5h4a1 1 0 011 1v7a1 1 0 01-1 1h-4l-3 3v-3h-7a1 1 0 01-1-1v-7a1 1 0 011-1h4"/><path fill="#c9f7ca" d="M8.5.5h-4a1 1 0 00-1 1v7a.988.988 0 00.344.741L12.585.5H8.5z"/><path stroke="#191919" stroke-linecap="round" stroke-linejoin="round" d="M14.5.5h4a1 1 0 011 1v7a1 1 0 01-1 1h-4l-3 3v-3h-7a1 1 0 01-1-1v-7a1 1 0 011-1h4m3 6v1m0-6v1"/><path stroke="#191919" stroke-linecap="round" stroke-linejoin="round" d="M9.5 6.5h3a1 1 0 100-2h-2a1 1 0 010-2h3"/></svg>