<svg xmlns="http://www.w3.org/2000/svg" fill="none" viewBox="0 0 24 24"><path fill="#ffbfc5" d="M10.5 21.5a9 9 0 100-17.999 9 9 0 000 17.999z"/><path fill="#ff808c" d="M10.5 16.5A9 9 0 011.859 10a9 9 0 1017.282 0 9 9 0 01-8.641 6.5z"/><path fill="#fff" stroke="#191919" stroke-linecap="round" stroke-linejoin="round" d="M10.5 17.5a5 5 0 100-10 5 5 0 000 10z"/><path stroke="#191919" stroke-linecap="round" stroke-linejoin="round" d="M19.285 10.5a9 9 0 11-6.577-6.738M4.894 19.541L1.5 23.5m14.606-3.959L19.5 23.5m-9-11L16 7"/><path fill="#66e1ff" stroke="#191919" stroke-linecap="round" stroke-linejoin="round" d="M16.586 2.914A2 2 0 0016 4.328V7h2.672a2 2 0 001.414-.586L22.5 4H19V.5l-2.414 2.414z"/></svg>