<?xml version="1.0" encoding="utf-8"?>
<!-- Generator: Adobe Illustrator 25.2.0, SVG Export Plug-In . SVG Version: 6.00 Build 0)  -->
<svg version="1.1" id="Capa_1" xmlns="http://www.w3.org/2000/svg" xmlns:xlink="http://www.w3.org/1999/xlink" x="0px" y="0px"
	 viewBox="0 0 229 229" style="enable-background:new 0 0 229 229;" xml:space="preserve">
<style type="text/css">
	.st0{fill:#FFFFFF;}
	.st1{fill:none;stroke:#FFFFFF;stroke-width:3;stroke-miterlimit:10;}
</style>
<path class="st0" d="M161.2,120.3l-43.6-43.8c-0.8-0.8-1.9-1.3-3.1-1.3c-1.2,0-2.3,0.5-3.1,1.3l-43.6,43.8c-1.7,1.7-1.7,4.5,0,6.2
	c0.8,0.8,1.9,1.3,3.1,1.3s2.3-0.5,3.1-1.3l36.1-36.3v67.3c0,2.4,2,4.4,4.4,4.4s4.4-2,4.4-4.4V90.2l36.1,36.3
	c0.8,0.8,1.9,1.3,3.1,1.3s2.3-0.5,3.1-1.3C162.9,124.8,162.9,122,161.2,120.3z"/>
<path class="st1" d="M206.5,114.5L206.5,114.5c0,50.8-41.2,92-92,92h0c-50.8,0-92-41.2-92-92v0c0-50.8,41.2-92,92-92h0
	C165.3,22.5,206.5,63.7,206.5,114.5z"/>
</svg>
