<?xml version="1.0" encoding="UTF-8" standalone="no"?>
<svg
   xmlns:dc="http://purl.org/dc/elements/1.1/"
   xmlns:cc="http://creativecommons.org/ns#"
   xmlns:rdf="http://www.w3.org/1999/02/22-rdf-syntax-ns#"
   xmlns:svg="http://www.w3.org/2000/svg"
   xmlns="http://www.w3.org/2000/svg"
   xmlns:sodipodi="http://sodipodi.sourceforge.net/DTD/sodipodi-0.dtd"
   xmlns:inkscape="http://www.inkscape.org/namespaces/inkscape"
   version="1.1"
   id="layer"
   x="0px"
   y="0px"
   viewBox="0 0 244.6 389.20001"
   xml:space="preserve"
   sodipodi:docname="bcorp.svg"
   width="244.60001"
   height="389.20001"
   inkscape:version="1.0.2-2 (e86c870879, 2021-01-15)"><metadata
   id="metadata61"><rdf:RDF><cc:Work
       rdf:about=""><dc:format>image/svg+xml</dc:format><dc:type
         rdf:resource="http://purl.org/dc/dcmitype/StillImage" /><dc:title></dc:title></cc:Work></rdf:RDF></metadata><defs
   id="defs59">
	
	
	
	
	
	
	
	
	
	
	
	
	
	
	
	
	
	
	
	
	
	
	
	
</defs><sodipodi:namedview
   pagecolor="#ffffff"
   bordercolor="#666666"
   borderopacity="1"
   objecttolerance="10"
   gridtolerance="10"
   guidetolerance="10"
   inkscape:pageopacity="0"
   inkscape:pageshadow="2"
   inkscape:window-width="1537"
   inkscape:window-height="852"
   id="namedview57"
   showgrid="false"
   fit-margin-top="0"
   fit-margin-left="0"
   fit-margin-right="0"
   fit-margin-bottom="0"
   inkscape:zoom="0.96522245"
   inkscape:cx="139.1963"
   inkscape:cy="242.63352"
   inkscape:window-x="62"
   inkscape:window-y="0"
   inkscape:window-maximized="0"
   inkscape:current-layer="layer" />
<style
   type="text/css"
   id="style2">
	.st0{fill:transparent;}
	.st1{fill:#FFFFFF;}
</style>

<path
   class="st1"
   d="M 32,12.6 C 31.4,11.7 30.7,10.9 29.9,10.2 29,9.5 28.1,9 27,8.6 25.9,8.2 24.8,8 23.6,8 c -2.2,0 -4,0.4 -5.5,1.3 -1.5,0.8 -2.7,2 -3.7,3.4 -0.9,1.4 -1.6,3 -2,4.8 -0.4,1.8 -0.6,3.6 -0.6,5.6 0,1.8 0.2,3.6 0.6,5.4 0.4,1.7 1.1,3.3 2,4.7 0.9,1.4 2.2,2.5 3.7,3.3 1.5,0.8 3.3,1.3 5.5,1.3 2.9,0 5.2,-0.9 6.9,-2.7 1.7,-1.8 2.7,-4.2 3,-7.1 h 9.3 c -0.2,2.7 -0.9,5.2 -1.9,7.4 -1,2.2 -2.4,4.1 -4,5.6 -1.7,1.5 -3.6,2.7 -5.9,3.5 -2.2,0.8 -4.7,1.2 -7.4,1.2 -3.3,0 -6.4,-0.6 -9,-1.7 C 11.9,42.8 9.7,41.2 7.8,39.2 6,37.2 4.6,34.8 3.6,32 2.6,29.3 2.1,26.3 2.1,23.1 2.1,19.8 2.6,16.8 3.6,14 4.6,11.2 6,8.8 7.8,6.7 9.6,4.6 11.9,3 14.6,1.8 17.3,0.6 20.3,0 23.6,0 c 2.4,0 4.7,0.3 6.8,1 2.1,0.7 4.1,1.7 5.7,3 1.7,1.3 3.1,3 4.2,4.9 1.1,2 1.8,4.2 2.1,6.7 h -9.3 c -0.2,-1.1 -0.5,-2.1 -1.1,-3"
   id="path6"
   style="fill:#ffffff" /><path
   class="st1"
   d="m 56.4,37 c 1.3,1.3 3.2,1.9 5.6,1.9 1.8,0 3.3,-0.4 4.5,-1.3 1.3,-0.9 2,-1.8 2.3,-2.8 h 7.6 c -1.2,3.8 -3.1,6.5 -5.6,8.1 -2.5,1.6 -5.6,2.4 -9.2,2.4 -2.5,0 -4.7,-0.4 -6.7,-1.2 -2,-0.8 -3.7,-1.9 -5.1,-3.4 -1.4,-1.5 -2.5,-3.2 -3.2,-5.3 -0.8,-2 -1.1,-4.3 -1.1,-6.7 0,-2.4 0.4,-4.6 1.2,-6.6 0.8,-2 1.9,-3.8 3.3,-5.3 1.4,-1.5 3.1,-2.7 5.1,-3.5 2,-0.9 4.2,-1.3 6.6,-1.3 2.7,0 5,0.5 7,1.6 2,1 3.6,2.4 4.9,4.2 1.3,1.8 2.2,3.8 2.8,6 0.6,2.2 0.8,4.6 0.6,7 H 54.2 c 0.2,2.9 0.9,4.9 2.2,6.2 m 9.9,-16.6 c -1,-1.1 -2.6,-1.7 -4.7,-1.7 -1.4,0 -2.5,0.2 -3.5,0.7 -0.9,0.5 -1.6,1.1 -2.2,1.7 -0.5,0.7 -0.9,1.4 -1.2,2.2 -0.2,0.8 -0.4,1.5 -0.4,2.1 h 14.1 c -0.4,-2.2 -1.1,-3.9 -2.1,-5"
   id="path8"
   style="fill:#ffffff" /><path
   class="st1"
   d="m 89.3,13 v 5.9 h 0.1 c 0.4,-1 1,-1.9 1.6,-2.7 0.7,-0.8 1.5,-1.5 2.4,-2.1 0.9,-0.6 1.9,-1 2.9,-1.4 1,-0.3 2.1,-0.5 3.2,-0.5 0.6,0 1.2,0.1 1.9,0.3 v 8.1 c -0.4,-0.1 -0.9,-0.2 -1.5,-0.2 -0.6,-0.1 -1.1,-0.1 -1.6,-0.1 -1.6,0 -2.9,0.3 -4,0.8 -1.1,0.5 -2,1.3 -2.7,2.2 -0.7,0.9 -1.2,2 -1.4,3.2 -0.3,1.2 -0.4,2.5 -0.4,4 V 44.6 H 81.1 V 13 Z"
   id="path10"
   style="fill:#ffffff" /><path
   class="st1"
   d="m 124.6,13 v 5.8 h -6.4 v 15.7 c 0,1.5 0.2,2.4 0.7,2.9 0.5,0.5 1.5,0.7 2.9,0.7 0.5,0 1,0 1.4,-0.1 0.4,0 0.9,-0.1 1.3,-0.2 v 6.7 c -0.7,0.1 -1.6,0.2 -2.4,0.2 -0.9,0 -1.8,0.1 -2.6,0.1 -1.3,0 -2.6,-0.1 -3.8,-0.3 -1.2,-0.2 -2.3,-0.5 -3.2,-1.1 -0.9,-0.5 -1.6,-1.3 -2.2,-2.3 -0.5,-1 -0.8,-2.3 -0.8,-3.8 V 18.6 h -5.3 v -5.8 h 5.3 V 3.3 h 8.7 v 9.5 h 6.4 z"
   id="path12"
   style="fill:#ffffff" /><path
   class="st1"
   d="m 129,0.9 h 8.7 V 8.1 H 129 Z m 8.7,43.7 H 129 V 13 h 8.7 z"
   id="path14"
   style="fill:#ffffff" /><path
   class="st1"
   d="M 141.3,18.8 V 13 h 5.2 v -2.4 c 0,-2.8 0.9,-5.1 2.6,-6.9 1.8,-1.8 4.4,-2.7 8,-2.7 0.8,0 1.5,0 2.3,0.1 0.8,0.1 1.5,0.1 2.3,0.2 v 6.5 c -1,-0.1 -2.1,-0.2 -3.2,-0.2 -1.2,0 -2,0.3 -2.5,0.8 -0.5,0.5 -0.8,1.5 -0.8,2.8 v 1.9 h 6 v 5.8 h -6 v 25.7 h -8.7 V 18.8 Z"
   id="path16"
   style="fill:#ffffff" /><path
   class="st1"
   d="m 166.4,0.9 h 8.7 v 7.2 h -8.7 z m 8.7,43.7 h -8.7 V 13 h 8.7 z"
   id="path18"
   style="fill:#ffffff" /><path
   class="st1"
   d="m 188.8,37 c 1.3,1.3 3.2,1.9 5.6,1.9 1.8,0 3.3,-0.4 4.5,-1.3 1.3,-0.9 2,-1.8 2.3,-2.8 h 7.6 c -1.2,3.8 -3.1,6.5 -5.6,8.1 -2.5,1.6 -5.6,2.4 -9.2,2.4 -2.5,0 -4.7,-0.4 -6.7,-1.2 -2,-0.8 -3.7,-1.9 -5.1,-3.4 -1.4,-1.5 -2.5,-3.2 -3.2,-5.3 -0.8,-2 -1.1,-4.3 -1.1,-6.7 0,-2.4 0.4,-4.6 1.2,-6.6 0.8,-2 1.9,-3.8 3.3,-5.3 1.4,-1.5 3.1,-2.7 5.1,-3.5 2,-0.9 4.2,-1.3 6.6,-1.3 2.7,0 5,0.5 7,1.6 2,1 3.6,2.4 4.9,4.2 1.3,1.8 2.2,3.8 2.8,6 0.6,2.2 0.8,4.6 0.6,7 h -22.8 c 0.2,2.9 0.9,4.9 2.2,6.2 m 9.8,-16.6 c -1,-1.1 -2.6,-1.7 -4.7,-1.7 -1.4,0 -2.5,0.2 -3.5,0.7 -0.9,0.5 -1.7,1.1 -2.2,1.7 -0.6,0.7 -0.9,1.4 -1.2,2.2 -0.2,0.8 -0.4,1.5 -0.4,2.1 h 14.1 c -0.3,-2.2 -1.1,-3.9 -2.1,-5"
   id="path20"
   style="fill:#ffffff" /><path
   class="st1"
   d="m 235.8,40.5 c -1,1.7 -2.4,2.9 -4,3.7 -1.7,0.8 -3.5,1.1 -5.6,1.1 -2.4,0 -4.4,-0.5 -6.2,-1.4 -1.8,-0.9 -3.3,-2.2 -4.4,-3.7 -1.2,-1.6 -2,-3.4 -2.6,-5.4 -0.6,-2 -0.9,-4.2 -0.9,-6.4 0,-2.1 0.3,-4.2 0.9,-6.1 0.6,-2 1.5,-3.7 2.6,-5.2 1.2,-1.5 2.6,-2.7 4.4,-3.6 1.8,-0.9 3.8,-1.4 6.1,-1.4 1.9,0 3.7,0.4 5.3,1.2 1.7,0.8 3,2 4,3.5 h 0.1 V 0.9 h 8.7 v 43.7 h -8.3 v -4 h -0.1 z m -0.4,-15.6 c -0.2,-1.2 -0.7,-2.3 -1.3,-3.2 -0.6,-0.9 -1.4,-1.7 -2.3,-2.2 -0.9,-0.6 -2.1,-0.9 -3.5,-0.9 -1.4,0 -2.6,0.3 -3.6,0.9 -1,0.6 -1.8,1.3 -2.4,2.3 -0.6,0.9 -1,2 -1.3,3.2 -0.3,1.2 -0.4,2.5 -0.4,3.8 0,1.2 0.1,2.4 0.4,3.7 0.3,1.2 0.8,2.3 1.4,3.3 0.6,1 1.4,1.7 2.4,2.3 1,0.6 2.1,0.9 3.5,0.9 1.4,0 2.6,-0.3 3.6,-0.9 1,-0.6 1.7,-1.3 2.3,-2.3 0.6,-1 1,-2 1.2,-3.3 0.2,-1.2 0.4,-2.5 0.4,-3.8 0,-1.3 -0.1,-2.6 -0.4,-3.8"
   id="path22"
   style="fill:#ffffff" /><path
   class="st1"
   d="m 71.1,115.6 h 50.6 c 12.3,0 28.5,0 36.9,5.1 9.2,5.5 16.4,15.4 16.4,29.1 0,14.8 -7.8,26 -20.7,31.3 v 0.4 c 17.2,3.5 26.6,16.4 26.6,33.6 0,20.5 -14.7,40.1 -42.4,40.1 H 71.1 Z m 18.6,60 h 37.2 c 21.1,0 29.7,-7.6 29.7,-22.3 0,-19.4 -13.7,-22.1 -29.7,-22.1 H 89.7 Z m 0,63.9 h 46.5 c 16,0 26.2,-9.8 26.2,-25 0,-18.2 -14.7,-23.3 -30.3,-23.3 H 89.7 Z"
   id="path24"
   style="fill:#ffffff" /><path
   class="st1"
   d="M 228.4,185.4 C 228.4,244 180.9,291.5 122.2,291.5 63.6,291.5 16.1,244 16.1,185.4 16.1,126.8 63.6,79.3 122.2,79.3 c 58.7,0 106.2,47.5 106.2,106.1 M 122.3,63.1 C 54.8,63.1 0,117.8 0,185.4 c 0,67.5 54.7,122.3 122.3,122.3 67.5,0 122.3,-54.7 122.3,-122.3 0,-67.6 -54.8,-122.3 -122.3,-122.3"
   id="path26"
   style="fill:#ffffff" /><path
   class="st1"
   d="m 22.6,334 c -0.4,-3.1 -3.4,-5.4 -6.8,-5.4 -6.1,0 -8.4,5.2 -8.4,10.6 0,5.1 2.3,10.3 8.4,10.3 4.2,0 6.5,-2.9 7,-6.9 h 6.6 c -0.7,7.7 -6,12.6 -13.6,12.6 -9.6,0 -15.2,-7.1 -15.2,-16.1 0,-9.2 5.6,-16.3 15.2,-16.3 6.8,0 12.5,4 13.3,11.1 h -6.5 z"
   id="path28"
   style="fill:#ffffff" /><path
   class="st1"
   d="m 43.6,331.6 c 7.1,0 11.6,4.7 11.6,11.8 0,7.1 -4.5,11.8 -11.6,11.8 -7,0 -11.6,-4.7 -11.6,-11.8 0.1,-7.2 4.6,-11.8 11.6,-11.8 m 0,18.9 c 4.2,0 5.5,-3.6 5.5,-7.1 0,-3.6 -1.3,-7.2 -5.5,-7.2 -4.2,0 -5.4,3.6 -5.4,7.2 0,3.5 1.3,7.1 5.4,7.1"
   id="path30"
   style="fill:#ffffff" /><path
   class="st1"
   d="m 58.8,332.2 h 5.8 v 4.2 h 0.1 c 1.1,-2.8 4.2,-4.8 7.1,-4.8 0.4,0 0.9,0.1 1.3,0.2 v 5.7 c -0.6,-0.1 -1.5,-0.2 -2.2,-0.2 -4.5,0 -6.1,3.2 -6.1,7.2 v 10.1 h -6.1 v -22.4 z"
   id="path32"
   style="fill:#ffffff" /><path
   class="st1"
   d="m 76.5,332.2 h 5.8 v 2.9 h 0.1 c 1.5,-2.4 3.9,-3.5 6.7,-3.5 7,0 10.2,5.7 10.2,12 0,6 -3.3,11.6 -9.8,11.6 -2.7,0 -5.2,-1.2 -6.7,-3.4 h -0.2 v 10.7 h -6.1 z m 16.6,11.2 c 0,-3.6 -1.4,-7.2 -5.4,-7.2 -4,0 -5.3,3.6 -5.3,7.2 0,3.6 1.4,7.1 5.4,7.1 4,0 5.3,-3.4 5.3,-7.1"
   id="path34"
   style="fill:#ffffff" /><path
   class="st1"
   d="m 113.8,331.6 c 7.1,0 11.6,4.7 11.6,11.8 0,7.1 -4.6,11.8 -11.6,11.8 -7,0 -11.6,-4.7 -11.6,-11.8 0,-7.2 4.6,-11.8 11.6,-11.8 m 0,18.9 c 4.2,0 5.5,-3.6 5.5,-7.1 0,-3.6 -1.3,-7.2 -5.5,-7.2 -4.2,0 -5.4,3.6 -5.4,7.2 0,3.5 1.2,7.1 5.4,7.1"
   id="path36"
   style="fill:#ffffff" /><path
   class="st1"
   d="m 129.5,332.2 h 5.8 v 4.2 h 0.1 c 1.1,-2.8 4.2,-4.8 7.1,-4.8 0.4,0 1,0.1 1.3,0.2 v 5.7 c -0.6,-0.1 -1.5,-0.2 -2.2,-0.2 -4.5,0 -6.1,3.2 -6.1,7.2 v 10.1 h -6.1 v -22.4 z"
   id="path38"
   style="fill:#ffffff" /><path
   class="st1"
   d="m 146.1,339.1 c 0.4,-5.8 5.5,-7.5 10.5,-7.5 4.5,0 9.8,1 9.8,6.4 v 11.6 c 0,2 0.2,4.1 0.8,5 H 161 c -0.2,-0.7 -0.4,-1.4 -0.4,-2.2 -1.9,2 -4.8,2.8 -7.5,2.8 -4.2,0 -7.6,-2.1 -7.6,-6.7 0,-5.1 3.8,-6.3 7.6,-6.8 3.8,-0.6 7.3,-0.4 7.3,-2.9 0,-2.6 -1.8,-3 -4,-3 -2.3,0 -3.9,0.9 -4.1,3.4 h -6.2 z m 14.2,4.5 c -1,0.9 -3.2,1 -5.1,1.3 -1.9,0.4 -3.6,1 -3.6,3.3 0,2.3 1.8,2.9 3.8,2.9 4.8,0 5,-3.8 5,-5.1 v -2.4 z"
   id="path40"
   style="fill:#ffffff" /><path
   class="st1"
   d="m 179,332.2 h 4.5 v 4.1 H 179 v 11.1 c 0,2.1 0.5,2.6 2.6,2.6 0.7,0 1.3,0 1.9,-0.2 v 4.8 c -1,0.2 -2.4,0.2 -3.6,0.2 -3.8,0 -7,-0.9 -7,-5.3 v -13.2 h -3.7 v -4.1 h 3.7 v -6.7 h 6.1 z"
   id="path42"
   style="fill:#ffffff" /><path
   class="st1"
   d="m 192.7,328.7 h -6.1 v -5.1 h 6.1 z m -6.1,3.5 h 6.1 v 22.4 h -6.1 z"
   id="path44"
   style="fill:#ffffff" /><path
   class="st1"
   d="m 207.6,331.6 c 7.1,0 11.6,4.7 11.6,11.8 0,7.1 -4.6,11.8 -11.6,11.8 -7,0 -11.5,-4.7 -11.5,-11.8 -0.1,-7.2 4.5,-11.8 11.5,-11.8 m 0,18.9 c 4.2,0 5.5,-3.6 5.5,-7.1 0,-3.6 -1.2,-7.2 -5.5,-7.2 -4.2,0 -5.4,3.6 -5.4,7.2 0,3.5 1.2,7.1 5.4,7.1"
   id="path46"
   style="fill:#ffffff" /><path
   class="st1"
   d="m 223.1,332.2 h 5.8 v 3.1 h 0.1 c 1.6,-2.5 4.2,-3.7 6.8,-3.7 6.5,0 8.2,3.7 8.2,9.2 v 13.8 h -6.1 V 342 c 0,-3.7 -1.1,-5.5 -3.9,-5.5 -3.3,0 -4.8,1.9 -4.8,6.4 v 11.7 h -6.1 z"
   id="path48"
   style="fill:#ffffff" /><rect
   x="0.49999389"
   y="373.60001"
   class="st1"
   width="243.7"
   height="15.6"
   id="rect50"
   style="fill:#ffffff" />
</svg>
