<?xml version="1.0" encoding="utf-8"?>
<svg version="1.1" xmlns="http://www.w3.org/2000/svg" xmlns:xlink="http://www.w3.org/1999/xlink" x="0px" y="0px"
	 viewBox="0 0 355.9 42.8" style="enable-background:new 0 0 355.9 42.8;" xml:space="preserve">
<style type="text/css">
	.st0{display:none;}
	.st1{fill-rule:evenodd;clip-rule:evenodd;fill:none;stroke:#1A1A1A;}
</style>
<g id="Layer_1_1_">
	<polyline class="st1" points="0,24.2 2.4,24.2 2.4,24.9 3.5,24.9 3.5,25.9 4.1,25.9 4.1,26.6 4.8,26.6 4.8,30.1 5.5,30.1 5.5,31.8 
		6.2,31.8 6.2,19.4 7.9,19.4 7.9,15.3 9.3,15.3 9.3,14.2 15.9,11.1 22.4,14.2 22.4,15.3 23.5,15.3 23.5,19.4 24.5,19.7 24.5,28 
		25.5,28 26.6,31.1 26.6,23.5 28.3,23.5 28.3,21.1 29,21.1 29,19.2 42.8,19.1 42.8,20.7 43.8,20.7 43.8,23.5 44.9,23.5 44.9,30.4 
		45.9,30.4 45.9,3.2 51.1,0.5 59.2,2.5 59.2,22.2 59.6,22.8 60.9,18.7 62.3,22.8 62.7,21.8 63,23.9 63,29 63.3,29.4 63.3,36.6 
		64,36.6 64,27.7 64.7,27.7 64.7,10.2 71.8,7.8 79.4,9.8 79.4,20.8 80.7,22.1 80.7,24.6 81.4,24.6 81.4,26.3 81.8,26.3 81.8,34.9 
		82.4,34.9 82.4,32.2 87.6,32.2 87.6,24.2 90,24.2 90,20.4 90.4,20.4 90.4,19.1 90.8,19.1 90.8,18 101.4,17.7 101.4,39.4 
		103.5,39.4 103.5,40.4 106.3,40.4 106.3,39.4 107.6,39.4 107.6,38.7 110.1,38.7 110.1,29 111.1,29 111.1,23.2 122.1,23.2 
		122.1,26.6 122.5,26.6 122.5,28.4 123.5,28.4 123.5,29.4 124.2,29.4 124.2,19.7 137.7,19.7 137.7,32.5 139.7,32.5 139.7,22.1 
		144.2,22.1 144.2,25.9 144.9,25.9 144.9,24.2 145.3,24.2 145.3,21 145.6,21 147.3,16.3 148,11.4 148.8,16.3 150.6,21.1 151.1,21.1 
		151.1,22.8 151.5,22.8 151.5,25.6 151.8,25.6 151.8,31.5 153.2,31.5 153.2,24.6 153.5,24.6 153.5,21.8 153.9,21.8 155,14.5 
		156.3,21.5 157,21.8 157,22.8 158.7,22.8 158.7,24.2 162.9,24.2 162.9,25.2 168.7,27 168.7,31.5 170.4,31.5 170.4,34.2 172.3,34.2 
		172.3,31.3 176.3,31.3 176.3,23.4 185.1,23.4 185.1,28.3 188.5,28.3 188.5,39.9 192.5,39.9 192.5,31.3 200.1,31.3 200.1,34.1 
		204.1,34.1 204.1,3.1 216.3,3.1 216.3,37.8 217.8,37.8 217.8,9.1 229.1,9.1 229.1,34.7 230.6,34.7 230.6,27.4 237.4,27.4 
		237.4,34.1 241.4,34.1 241.4,36.2 244.4,36.2 244.4,42.3 248.1,42.3 248.1,37.8 250.2,37.8 250.2,35.6 256.6,35.6 256.6,37.8 
		259.1,37.8 259.1,42 261.5,42 261.5,26.8 268.5,26.8 268.5,42 271.3,42 271.3,18.5 282,22.2 282,38.4 285.3,38.4 285.3,29.2 
		289.9,29.2 289.9,25.2 296.6,25.2 296.6,38.4 301.5,38.4 301.5,31.6 306.4,31.6 306.4,17 308.2,15.8 308.2,11.5 311,10 311.2,3.2 
		311.5,10 314.4,11.4 314.4,15.8 316.2,16.7 316.2,35.6 320.5,35.6 320.5,26.2 323.5,26.2 323.5,22.2 326.3,22.2 326.3,13.9 
		333,13.9 333,27.1 336.4,27.1 336.4,19.4 344,19.4 344,16.7 351.6,16.7 351.6,29.5 355.9,29.5 	"/>
</g>
</svg>
