<svg viewBox="0 0 504 162" xmlns="http://www.w3.org/2000/svg"><defs><linearGradient y2=".505" x2=".83" y1=".505" x1=".436" id="b"><stop stop-color="#b4ff59" offset="0"/><stop stop-color="#89b900" offset="1"/></linearGradient><linearGradient y2=".498" x2=".774" y1=".498" x1="-.074" id="d"><stop stop-color="#b92dfd" offset="0"/><stop stop-color="#fa4ab8" offset="1"/></linearGradient><linearGradient y2=".495" x2=".903" y1=".495" x1="-.204" id="f"><stop stop-color="#ffab90" offset="0"/><stop stop-color="#ffb3ff" offset="1"/></linearGradient><linearGradient y2=".501" x2="1.002" y1=".501" x1="-.015" id="h"><stop stop-color="#c90dcf" offset="0"/><stop stop-color="#8e0dcf" offset="1"/></linearGradient><linearGradient y2=".846" x2=".878" y1=".154" x1=".122" id="j"><stop stop-opacity="0" stop-color="#fefeff" offset=".7"/><stop stop-opacity=".01" stop-color="#fdfcff" offset=".79"/><stop stop-opacity=".05" stop-color="#f9f3fd" offset=".83"/><stop stop-opacity=".11" stop-color="#f2e4fa" offset=".86"/><stop stop-opacity=".2" stop-color="#e8cff6" offset=".89"/><stop stop-opacity=".31" stop-color="#dbb3f0" offset=".91"/><stop stop-opacity=".45" stop-color="#cc92e9" offset=".93"/><stop stop-opacity=".62" stop-color="#b969e1" offset=".95"/><stop stop-opacity=".81" stop-color="#a43cd8" offset=".97"/><stop stop-color="#8e0dcf" offset=".98"/></linearGradient><linearGradient y2=".154" x2=".122" y1=".846" x1=".878" id="k"><stop stop-opacity="0" stop-color="#fefeff" offset=".7"/><stop stop-opacity=".01" stop-color="#fefeff" offset=".78"/><stop stop-opacity=".04" stop-color="#fefeff" offset=".82"/><stop stop-opacity=".09" stop-color="#fefeff" offset=".85"/><stop stop-opacity=".16" stop-color="#fefeff" offset=".87"/><stop stop-opacity=".25" stop-color="#fefeff" offset=".9"/><stop stop-opacity=".37" stop-color="#fefeff" offset=".91"/><stop stop-opacity=".5" stop-color="#fff" offset=".93"/><stop stop-opacity=".66" stop-color="#fff" offset=".95"/><stop stop-opacity=".83" stop-color="#fff" offset=".96"/><stop stop-color="#fff" offset=".98"/></linearGradient><clipPath transform="translate(45.63 52.37)" id="a"><path fill="none" d="M6-48.49l-.24.13 75.26 79.9V-5.2a25 25 0 00-12.51-21.66L31-48.49a25 25 0 00-25 0" class="cls-1"/></clipPath><clipPath transform="translate(45.63 52.37)" id="c"><path fill="none" d="M6-48.49l-37.49 21.63A25 25 0 00-44-5.2V38a25 25 0 006.8 17.14l115.42-5.58A25 25 0 0081.05 38V25.78c-3.56-6.32-9-15.72-14.65-24.69-9.77-15.46-21.33-25.25-30.67-33.17C28.79-38 15.84-46.33 9.67-50.22A24.21 24.21 0 006-48.49" class="cls-1"/></clipPath><clipPath transform="translate(45.63 52.37)" id="e"><path fill="none" d="M-44-5.2V38a25.06 25.06 0 002.36 10.62l.18-.32c5.56-9.88 13.77-29.1 15.62-39S-25.86-4.44-30-11a57 57 0 00-8.4-10A25 25 0 00-44-5.2" class="cls-1"/></clipPath><clipPath transform="translate(45.63 52.37)" id="g"><path fill="none" d="M-5.55 14.7c-23 7.69-36.09 33.66-36.09 33.66v.17a25.12 25.12 0 0010.21 11.16L6 81.32a25 25 0 0025 0l37.52-21.63A25 25 0 0080.79 41.6c-2.54-2.9-14.78-16.29-30.3-24a69.14 69.14 0 00-30.82-7.16A79.33 79.33 0 00-5.55 14.7" class="cls-1"/></clipPath><radialGradient id="i"><stop stop-opacity=".3" stop-color="#8e8f92" offset="0%"/><stop stop-opacity="0" stop-color="#fff" offset="100%"/></radialGradient></defs><g data-name="Layer 2"><g data-name="Capa 2"><g clip-path="url(#a)" class="cls-2"><path transform="rotate(-40 -4.82 66.35)" fill="url(#b)" class="cls-3" d="M26.97 52.07h111.25v112.25H26.97z"/></g><g clip-path="url(#c)" class="cls-4"><path transform="rotate(-30 -17.23 38.93)" fill="url(#d)" class="cls-5" d="M-35.2 16.51h160.99V170.3H-35.2z"/></g><g clip-path="url(#e)" class="cls-6"><path transform="rotate(-10 -9.65 3.1)" fill="url(#f)" class="cls-7" d="M-15.54 32.89h31.8v72.06h-31.8z"/></g><g clip-path="url(#g)" class="cls-8"><path fill="url(#h)" class="cls-9" d="M3.94 62.81h122.48v75.34H3.94z"/></g><path fill="#7c0dbc" d="M58.1 58.64a28.76 28.76 0 008.45 2.47 94.71 94.71 0 0111 2.48 78.09 78.09 0 0111 4A19.83 19.83 0 0197 75.01a22.19 22.19 0 013.35 12.43q0 10.86-8.85 17.78t-24.47 6.92a58 58 0 01-19.22-3.19 42.93 42.93 0 01-15.18-8.77l8.77-14.19a40.72 40.72 0 0012.07 7.38 37.69 37.69 0 0014.51 3.19q6.38 0 9.65-2.23a7 7 0 003.27-6.06c0-1.91-1.15-3.48-3.43-4.7a26.87 26.87 0 00-8.45-2.63 107.25 107.25 0 01-11-2.4 73.54 73.54 0 01-11-3.82 20.44 20.44 0 01-8.45-7.1" class="cls-10"/><path fill="#fff" d="M64.47 109.64a58.22 58.22 0 01-19.21-3.19 43.08 43.08 0 01-15.23-8.77l8.77-14.19a40.72 40.72 0 0012.12 7.33 37.69 37.69 0 0014.51 3.19q6.38 0 9.65-2.23a7 7 0 003.27-6.06c0-1.91-1.15-3.48-3.43-4.7a26.86 26.86 0 00-8.45-2.65 107.76 107.76 0 01-11-2.39 73.8 73.8 0 01-11-3.82 20.11 20.11 0 01-11.84-19.13q0-10.2 8.45-17.22t23.13-7q17.85 0 31.09 10.53l-8.18 13.85a28.62 28.62 0 00-9.81-6.38 33.56 33.56 0 00-13-2.55 16.07 16.07 0 00-8.77 2.11 6.38 6.38 0 00-3.34 5.5c0 1.71 1.11 3.11 3.34 4.23A28.93 28.93 0 0064 58.57a94.56 94.56 0 0111 2.47 79.36 79.36 0 0111 4 19.8 19.8 0 018.45 7.41 22.22 22.22 0 013.35 12.44q0 10.85-8.85 17.78t-24.48 6.97z" class="cls-11"/><path fill="url(#i)" d="M121.41 155.76c0 3.4-25.63 6.16-57.25 6.16S6.9 159.16 6.9 155.76s25.64-6.16 57.26-6.16 57.25 2.77 57.25 6.16z" class="cls-12"/><g opacity=".7" class="cls-13"><path fill="url(#j)" opacity=".7" d="M114.3 25.37L76.74 3.72A25 25 0 0055.37 2l-.28.12c-.39.15-.77.32-1.16.49l-.55.25q-.84.4-1.65.87l-.24.14-37.33 21.5a24.85 24.85 0 00-6.88 5.87l-.19.24c-.3.39-.59.78-.88 1.18l-.27.38c-.35.53-.69 1.07-1 1.62-.07.13-.13.26-.2.38q-.36.66-.69 1.35l-.25.55q-.28.66-.54 1.32c-.06.17-.13.33-.19.5-.21.6-.4 1.22-.57 1.84l-.06.28q-.21.8-.36 1.62c0 .2-.07.4-.1.6-.08.47-.14.94-.19 1.41 0 .19 0 .39-.05.59-.11.65-.11 1.27-.11 1.97v43.3a25 25 0 00.14 2.6c0 .29.09.56.13.84.08.58.16 1.15.28 1.72.07.32.16.64.24 1 .13.51.27 1 .43 1.52.1.33.22.65.34 1s.37 1 .57 1.43c.07.15.12.31.19.46v.05c.07.15.15.29.22.44l.35.68c.23.43.48.86.74 1.28.12.2.23.4.36.6.36.56.75 1.11 1.16 1.64a.94.94 0 00.09.12c.43.56.9 1.1 1.39 1.63l.12.15a25.06 25.06 0 005.71 4.53l37.56 21.66a25.07 25.07 0 0025 0l37.56-21.66a25.1 25.1 0 009.69-10.13 24.19 24.19 0 001.08-2.37l.09-.22a24.2 24.2 0 00.78-2.41l.09-.32a24.52 24.52 0 00.5-2.44v-.22a24.9 24.9 0 00.39-3.58v-43.3a25 25 0 00-12.53-21.7z" class="cls-14"/><path fill="url(#j)" opacity=".7" d="M114.3 25.37L76.74 3.72A25 25 0 0055.37 2l-.28.12c-.39.15-.77.32-1.16.49l-.55.25q-.84.4-1.65.87l-.24.14-37.33 21.5a24.85 24.85 0 00-6.88 5.87l-.19.24c-.3.39-.59.78-.88 1.18l-.27.38c-.35.53-.69 1.07-1 1.62-.07.13-.13.26-.2.38q-.36.66-.69 1.35l-.25.55q-.28.66-.54 1.32c-.06.17-.13.33-.19.5-.21.6-.4 1.22-.57 1.84l-.06.28q-.21.8-.36 1.62c0 .2-.07.4-.1.6-.08.47-.14.94-.19 1.41 0 .19 0 .39-.05.59-.11.65-.11 1.27-.11 1.97v43.3a25 25 0 00.14 2.6c0 .29.09.56.13.84.08.58.16 1.15.28 1.72.07.32.16.64.24 1 .13.51.27 1 .43 1.52.1.33.22.65.34 1s.37 1 .57 1.43c.07.15.12.31.19.46v.05c.07.15.15.29.22.44l.35.68c.23.43.48.86.74 1.28.12.2.23.4.36.6.36.56.75 1.11 1.16 1.64a.94.94 0 00.09.12c.43.56.9 1.1 1.39 1.63l.12.15a25.06 25.06 0 005.71 4.53l37.56 21.66a25.07 25.07 0 0025 0l37.56-21.66a25.1 25.1 0 009.69-10.13 24.19 24.19 0 001.08-2.37l.09-.22a24.2 24.2 0 00.78-2.41l.09-.32a24.52 24.52 0 00.5-2.44v-.22a24.9 24.9 0 00.39-3.58v-43.3a25 25 0 00-12.53-21.7z" class="cls-14"/><path fill="url(#k)" opacity=".35" d="M14.16 112.03l37.56 21.65a25 25 0 0021.37 1.69l.28-.12c.39-.15.77-.32 1.15-.49l.56-.25c.56-.27 1.11-.55 1.65-.87l.24-.14 37.32-21.51a24.89 24.89 0 006.88-5.88c.07-.08.12-.16.18-.24.31-.38.6-.78.88-1.18l.28-.38c.35-.53.69-1.07 1-1.62.07-.12.13-.25.2-.38.24-.44.47-.89.68-1.34l.26-.56q.28-.65.54-1.32l.18-.5c.22-.6.41-1.21.58-1.84l.06-.28c.14-.53.26-1.07.36-1.61 0-.2.07-.4.1-.61.07-.46.14-.93.18-1.4 0-.2 0-.4.06-.59 0-.66.09-1.31.09-2V47.07a25.05 25.05 0 00-.15-2.61c0-.28-.08-.56-.12-.83-.08-.58-.17-1.16-.28-1.72-.07-.33-.16-.65-.24-1-.13-.51-.27-1-.43-1.52-.1-.33-.22-.65-.34-1-.17-.49-.37-1-.58-1.43-.06-.16-.11-.31-.18-.46v-.06l-.22-.43-.35-.69c-.23-.43-.48-.86-.74-1.28l-.36-.6c-.37-.56-.75-1.1-1.16-1.63l-.09-.13a21.23 21.23 0 00-1.39-1.62.93.93 0 00-.13-.15 25 25 0 00-5.74-4.54L76.74 3.72a25 25 0 00-25 0L14.16 25.37A25 25 0 004.47 35.5a25.24 25.24 0 00-1.08 2.37l-.09.22a25.08 25.08 0 00-.78 2.41l-.09.32c-.21.8-.37 1.62-.5 2.44v.22a25 25 0 00-.3 3.59v43.3a25.06 25.06 0 0012.53 21.66z" class="cls-15"/><path fill="url(#j)" opacity=".7" d="M114.3 25.37L76.74 3.72A25 25 0 0055.37 2l-.28.12c-.39.15-.77.32-1.16.49l-.55.25q-.84.4-1.65.87l-.24.14-37.33 21.5a24.85 24.85 0 00-6.88 5.87l-.19.24c-.3.39-.59.78-.88 1.18l-.27.38c-.35.53-.69 1.07-1 1.62-.07.13-.13.26-.2.38q-.36.66-.69 1.35l-.25.55q-.28.66-.54 1.32c-.06.17-.13.33-.19.5-.21.6-.4 1.22-.57 1.84l-.06.28q-.21.8-.36 1.62c0 .2-.07.4-.1.6-.08.47-.14.94-.19 1.41 0 .19 0 .39-.05.59-.11.65-.11 1.27-.11 1.97v43.3a25 25 0 00.14 2.6c0 .29.09.56.13.84.08.58.16 1.15.28 1.72.07.32.16.64.24 1 .13.51.27 1 .43 1.52.1.33.22.65.34 1s.37 1 .57 1.43c.07.15.12.31.19.46v.05c.07.15.15.29.22.44l.35.68c.23.43.48.86.74 1.28.12.2.23.4.36.6.36.56.75 1.11 1.16 1.64a.94.94 0 00.09.12c.43.56.9 1.1 1.39 1.63l.12.15a25.06 25.06 0 005.71 4.53l37.56 21.66a25.07 25.07 0 0025 0l37.56-21.66a25.1 25.1 0 009.69-10.13 24.19 24.19 0 001.08-2.37l.09-.22a24.2 24.2 0 00.78-2.41l.09-.32a24.52 24.52 0 00.5-2.44v-.22a24.9 24.9 0 00.39-3.58v-43.3a25 25 0 00-12.53-21.7z" class="cls-14"/><path fill="url(#j)" opacity=".7" d="M114.3 25.37L76.74 3.72A25 25 0 0055.37 2l-.28.12c-.39.15-.77.32-1.16.49l-.55.25q-.84.4-1.65.87l-.24.14-37.33 21.5a24.85 24.85 0 00-6.88 5.87l-.19.24c-.3.39-.59.78-.88 1.18l-.27.38c-.35.53-.69 1.07-1 1.62-.07.13-.13.26-.2.38q-.36.66-.69 1.35l-.25.55q-.28.66-.54 1.32c-.06.17-.13.33-.19.5-.21.6-.4 1.22-.57 1.84l-.06.28q-.21.8-.36 1.62c0 .2-.07.4-.1.6-.08.47-.14.94-.19 1.41 0 .19 0 .39-.05.59-.11.65-.11 1.27-.11 1.97v43.3a25 25 0 00.14 2.6c0 .29.09.56.13.84.08.58.16 1.15.28 1.72.07.32.16.64.24 1 .13.51.27 1 .43 1.52.1.33.22.65.34 1s.37 1 .57 1.43c.07.15.12.31.19.46v.05c.07.15.15.29.22.44l.35.68c.23.43.48.86.74 1.28.12.2.23.4.36.6.36.56.75 1.11 1.16 1.64a.94.94 0 00.09.12c.43.56.9 1.1 1.39 1.63l.12.15a25.06 25.06 0 005.71 4.53l37.56 21.66a25.07 25.07 0 0025 0l37.56-21.66a25.1 25.1 0 009.69-10.13 24.19 24.19 0 001.08-2.37l.09-.22a24.2 24.2 0 00.78-2.41l.09-.32a24.52 24.52 0 00.5-2.44v-.22a24.9 24.9 0 00.39-3.58v-43.3a25 25 0 00-12.53-21.7z" class="cls-14"/><path fill="url(#k)" opacity=".35" d="M14.16 112.03l37.56 21.65a25 25 0 0021.37 1.69l.28-.12c.39-.15.77-.32 1.15-.49l.56-.25c.56-.27 1.11-.55 1.65-.87l.24-.14 37.32-21.51a24.89 24.89 0 006.88-5.88c.07-.08.12-.16.18-.24.31-.38.6-.78.88-1.18l.28-.38c.35-.53.69-1.07 1-1.62.07-.12.13-.25.2-.38.24-.44.47-.89.68-1.34l.26-.56q.28-.65.54-1.32l.18-.5c.22-.6.41-1.21.58-1.84l.06-.28c.14-.53.26-1.07.36-1.61 0-.2.07-.4.1-.61.07-.46.14-.93.18-1.4 0-.2 0-.4.06-.59 0-.66.09-1.31.09-2V47.07a25.05 25.05 0 00-.15-2.61c0-.28-.08-.56-.12-.83-.08-.58-.17-1.16-.28-1.72-.07-.33-.16-.65-.24-1-.13-.51-.27-1-.43-1.52-.1-.33-.22-.65-.34-1-.17-.49-.37-1-.58-1.43-.06-.16-.11-.31-.18-.46v-.06l-.22-.43-.35-.69c-.23-.43-.48-.86-.74-1.28l-.36-.6c-.37-.56-.75-1.1-1.16-1.63l-.09-.13a21.23 21.23 0 00-1.39-1.62.93.93 0 00-.13-.15 25 25 0 00-5.74-4.54L76.74 3.72a25 25 0 00-25 0L14.16 25.37A25 25 0 004.47 35.5a25.24 25.24 0 00-1.08 2.37l-.09.22a25.08 25.08 0 00-.78 2.41l-.09.32c-.21.8-.37 1.62-.5 2.44v.22a25 25 0 00-.3 3.59v43.3a25.06 25.06 0 0012.53 21.66z" class="cls-15"/><path fill="url(#j)" opacity=".7" d="M114.3 25.37L76.74 3.72A25 25 0 0055.37 2l-.28.12c-.39.15-.77.32-1.16.49l-.55.25q-.84.4-1.65.87l-.24.14-37.33 21.5a24.85 24.85 0 00-6.88 5.87l-.19.24c-.3.39-.59.78-.88 1.18l-.27.38c-.35.53-.69 1.07-1 1.62-.07.13-.13.26-.2.38q-.36.66-.69 1.35l-.25.55q-.28.66-.54 1.32c-.06.17-.13.33-.19.5-.21.6-.4 1.22-.57 1.84l-.06.28q-.21.8-.36 1.62c0 .2-.07.4-.1.6-.08.47-.14.94-.19 1.41 0 .19 0 .39-.05.59-.11.65-.11 1.27-.11 1.97v43.3a25 25 0 00.14 2.6c0 .29.09.56.13.84.08.58.16 1.15.28 1.72.07.32.16.64.24 1 .13.51.27 1 .43 1.52.1.33.22.65.34 1s.37 1 .57 1.43c.07.15.12.31.19.46v.05c.07.15.15.29.22.44l.35.68c.23.43.48.86.74 1.28.12.2.23.4.36.6.36.56.75 1.11 1.16 1.64a.94.94 0 00.09.12c.43.56.9 1.1 1.39 1.63l.12.15a25.06 25.06 0 005.71 4.53l37.56 21.66a25.07 25.07 0 0025 0l37.56-21.66a25.1 25.1 0 009.69-10.13 24.19 24.19 0 001.08-2.37l.09-.22a24.2 24.2 0 00.78-2.41l.09-.32a24.52 24.52 0 00.5-2.44v-.22a24.9 24.9 0 00.39-3.58v-43.3a25 25 0 00-12.53-21.7z" class="cls-14"/><path fill="url(#j)" opacity=".7" d="M114.3 25.37L76.74 3.72A25 25 0 0055.37 2l-.28.12c-.39.15-.77.32-1.16.49l-.55.25q-.84.4-1.65.87l-.24.14-37.33 21.5a24.85 24.85 0 00-6.88 5.87l-.19.24c-.3.39-.59.78-.88 1.18l-.27.38c-.35.53-.69 1.07-1 1.62-.07.13-.13.26-.2.38q-.36.66-.69 1.35l-.25.55q-.28.66-.54 1.32c-.06.17-.13.33-.19.5-.21.6-.4 1.22-.57 1.84l-.06.28q-.21.8-.36 1.62c0 .2-.07.4-.1.6-.08.47-.14.94-.19 1.41 0 .19 0 .39-.05.59-.11.65-.11 1.27-.11 1.97v43.3a25 25 0 00.14 2.6c0 .29.09.56.13.84.08.58.16 1.15.28 1.72.07.32.16.64.24 1 .13.51.27 1 .43 1.52.1.33.22.65.34 1s.37 1 .57 1.43c.07.15.12.31.19.46v.05c.07.15.15.29.22.44l.35.68c.23.43.48.86.74 1.28.12.2.23.4.36.6.36.56.75 1.11 1.16 1.64a.94.94 0 00.09.12c.43.56.9 1.1 1.39 1.63l.12.15a25.06 25.06 0 005.71 4.53l37.56 21.66a25.07 25.07 0 0025 0l37.56-21.66a25.1 25.1 0 009.69-10.13 24.19 24.19 0 001.08-2.37l.09-.22a24.2 24.2 0 00.78-2.41l.09-.32a24.52 24.52 0 00.5-2.44v-.22a24.9 24.9 0 00.39-3.58v-43.3a25 25 0 00-12.53-21.7z" class="cls-14"/><path opacity=".5" fill="url(#k)" d="M14.16 112.03l37.56 21.65a25 25 0 0021.37 1.69l.28-.12c.39-.15.77-.32 1.15-.49l.56-.25c.56-.27 1.11-.55 1.65-.87l.24-.14 37.32-21.51a24.89 24.89 0 006.88-5.88c.07-.08.12-.16.18-.24.31-.38.6-.78.88-1.18l.28-.38c.35-.53.69-1.07 1-1.62.07-.12.13-.25.2-.38.24-.44.47-.89.68-1.34l.26-.56q.28-.65.54-1.32l.18-.5c.22-.6.41-1.21.58-1.84l.06-.28c.14-.53.26-1.07.36-1.61 0-.2.07-.4.1-.61.07-.46.14-.93.18-1.4 0-.2 0-.4.06-.59 0-.66.09-1.31.09-2V47.07a25.05 25.05 0 00-.15-2.61c0-.28-.08-.56-.12-.83-.08-.58-.17-1.16-.28-1.72-.07-.33-.16-.65-.24-1-.13-.51-.27-1-.43-1.52-.1-.33-.22-.65-.34-1-.17-.49-.37-1-.58-1.43-.06-.16-.11-.31-.18-.46v-.06l-.22-.43-.35-.69c-.23-.43-.48-.86-.74-1.28l-.36-.6c-.37-.56-.75-1.1-1.16-1.63l-.09-.13a21.23 21.23 0 00-1.39-1.62.93.93 0 00-.13-.15 25 25 0 00-5.74-4.54L76.74 3.72a25 25 0 00-25 0L14.16 25.37A25 25 0 004.47 35.5a25.24 25.24 0 00-1.08 2.37l-.09.22a25.08 25.08 0 00-.78 2.41l-.09.32c-.21.8-.37 1.62-.5 2.44v.22a25 25 0 00-.3 3.59v43.3a25.06 25.06 0 0012.53 21.66z" class="cls-16"/></g><path fill="#353535" d="M258.23 101.96h-53.7V22.58h9.31v69.48l-1 1.08h45.39v8.82zm39.69 0h-9.29V22.58h9.31l-.02 79.38zm67.91.98c-12.74 0-26.07-4.12-34.1-12.94l7.35-6.86c8.43 7.74 16.27 11 26.36 11 14.7 0 22.44-5.59 22.44-13.13 0-5.39-4.61-10.39-15.39-13.23-1.76-.51-12.86-3.41-14.6-3.94-14.5-4-24.1-9.21-24.1-20.78 0-11 9.5-21.46 31.06-21.46 12.74 0 23.52 4.51 30.38 12.15l-7.06 6.76c-5-6-12.83-10.09-23.22-10.09-14.9 0-21.56 5.78-21.56 12.25 0 6.08 6.08 9.21 19.21 12.84 1.76.49 11 3 12.83 3.53 15.68 4.11 22.05 12.15 22.05 21.36 0 11.07-8.43 22.54-31.65 22.54zm137.29-.98h-10.19l-8.43-19.11.49-1h-43.36l.49 1-8.49 19.11h-10.2l34.89-79.38h9.9l34.9 79.38zm-22.34-28.91l-1-1-14-31.85-2.36-7.94h-.19l-2.45 7.94-14 31.85-1 1h35zm-265.47 50.64l-.81 1.77a8.51 8.51 0 00-4.55-1.39c-2.12 0-3.51.8-3.51 2.19 0 4.25 9.29 2 9.27 8 0 2.76-2.43 4.53-6 4.53a9.38 9.38 0 01-6.32-2.52l.85-1.7a8.19 8.19 0 005.49 2.34c2.39 0 3.87-1 3.87-2.55 0-4.34-9.27-2-9.27-7.95 0-2.6 2.29-4.27 5.71-4.27a9.78 9.78 0 015.27 1.55zm6.75.36v5.42h8.32v1.82h-8.32v5.66h9.62v1.79h-11.51v-16.51h11.21v1.82h-9.32zm27.25 6.62v6a10.27 10.27 0 01-6.14 2.17 8.34 8.34 0 11.1-16.66 9.29 9.29 0 016.08 2.27l-1.08 1.41a7.61 7.61 0 00-5-1.91 6.55 6.55 0 100 13.09 7.9 7.9 0 004.34-1.39v-5l1.7.02zm18.66 1.28c0 4.29-2.59 6.89-6.91 6.89s-7-2.6-7-6.89v-9.72h1.89v9.72c0 3.21 1.93 5.07 5.07 5.07s5-1.86 5-5.07v-9.72h1.89l.06 9.72zm12.6 1.53h-5.49v5.21h-1.89v-16.46h6.27c4.13 0 6.52 2 6.52 5.54a5.18 5.18 0 01-3.71 5.36l3.87 5.61h-2.15l-3.42-5.26zm-1.11-1.77c3 0 4.7-1.32 4.7-3.89s-1.7-3.77-4.7-3.77h-4.38v7.66h4.38zm27.11-1.22a8.65 8.65 0 11-8.63-8.31 8.45 8.45 0 018.63 8.31zm-15.38 0a6.73 6.73 0 106.75-6.52 6.66 6.66 0 00-6.75 6.52zm29.57-6.8l-.81 1.77a8.51 8.51 0 00-4.55-1.39c-2.12 0-3.51.8-3.51 2.19 0 4.25 9.29 2 9.27 8 0 2.76-2.43 4.53-6 4.53a9.38 9.38 0 01-6.32-2.52l.85-1.7a8.19 8.19 0 005.49 2.34c2.38 0 3.87-1 3.87-2.55 0-4.34-9.27-2-9.27-7.95 0-2.6 2.29-4.27 5.71-4.27a9.78 9.78 0 015.27 1.55zm11.87 15.05v-16.51h1.89v16.51h-1.89zm19.32 0l-9.91-13.26v13.26h-1.89v-16.51h2l9.91 13.28v-13.28h1.86v16.51h-1.97zm12.58-14.69v14.69h-1.9v-14.69h-5.38v-1.82h12.68v1.82h-5.4zm10.62 0v5.42h8.32v1.82h-8.32v5.66h9.62v1.79h-11.51v-16.51h11.2v1.82h-9.31zm23.19 12.9v1.79h-9.13v-16.51h1.89v14.72h7.24zm3.66 1.79v-16.51h1.88v16.51H402zm20.63-8.07v6a10.22 10.22 0 01-6.13 2.17 8.34 8.34 0 11.09-16.66 9.32 9.32 0 016.09 2.27l-1.05 1.41a7.64 7.64 0 00-5-1.91 6.55 6.55 0 100 13.09 8 8 0 004.34-1.39v-5l1.66.02zm7.09-6.62v5.42h8.33v1.82h-8.33v5.66h9.63v1.79h-11.52v-16.51h11.21v1.82h-9.32zm25.91 14.69l-10-13.26v13.26h-1.88v-16.51h1.95l9.93 13.28v-13.28h1.86v16.51h-1.86zm12.53-14.69v14.69h-1.89v-14.69h-5.38v-1.82h12.67v1.82h-5.4zm10.62 0v5.42h8.32v1.82h-8.32v5.66h9.62v1.79h-11.51v-16.51h11.21v1.82h-9.32zm24.2-.36l-.8 1.77a8.51 8.51 0 00-4.55-1.39c-2.12 0-3.52.8-3.52 2.19 0 4.25 9.3 2 9.27 8 0 2.76-2.43 4.53-6 4.53a9.42 9.42 0 01-6.33-2.52l.85-1.7a8.23 8.23 0 005.5 2.34c2.38 0 3.87-1 3.87-2.55 0-4.34-9.27-2-9.27-7.95 0-2.6 2.29-4.27 5.71-4.27a9.72 9.72 0 015.27 1.55z" class="cls-17"/></g></g></svg>