<svg viewBox="0 0 130 163" xmlns="http://www.w3.org/2000/svg"><defs><linearGradient id="b" x1=".436" y1=".505" x2=".83" y2=".505"><stop offset="0" stop-color="#b4ff59"/><stop offset="1" stop-color="#89b900"/></linearGradient><linearGradient id="f" x1="-.204" y1=".495" x2=".903" y2=".495"><stop offset="0" stop-color="#ffab90"/><stop offset="1" stop-color="#ffb3ff"/></linearGradient><linearGradient id="h" x1="-.015" y1=".501" x2="1.002" y2=".501"><stop offset="0" stop-color="#c90dcf"/><stop offset="1" stop-color="#8e0dcf"/></linearGradient><linearGradient id="j" x1=".122" y1=".154" x2=".878" y2=".846"><stop offset=".7" stop-color="#fefeff" stop-opacity="0"/><stop offset=".79" stop-color="#fdfcff" stop-opacity=".01"/><stop offset=".83" stop-color="#f9f3fd" stop-opacity=".05"/><stop offset=".86" stop-color="#f2e4fa" stop-opacity=".11"/><stop offset=".89" stop-color="#e8cff6" stop-opacity=".2"/><stop offset=".91" stop-color="#dbb3f0" stop-opacity=".31"/><stop offset=".93" stop-color="#cc92e9" stop-opacity=".45"/><stop offset=".95" stop-color="#b969e1" stop-opacity=".62"/><stop offset=".97" stop-color="#a43cd8" stop-opacity=".81"/><stop offset=".98" stop-color="#8e0dcf"/></linearGradient><linearGradient id="k" x1=".878" y1=".846" x2=".122" y2=".154"><stop offset=".7" stop-color="#fefeff" stop-opacity="0"/><stop offset=".78" stop-color="#fefeff" stop-opacity=".01"/><stop offset=".82" stop-color="#fefeff" stop-opacity=".04"/><stop offset=".85" stop-color="#fefeff" stop-opacity=".09"/><stop offset=".87" stop-color="#fefeff" stop-opacity=".16"/><stop offset=".9" stop-color="#fefeff" stop-opacity=".25"/><stop offset=".91" stop-color="#fefeff" stop-opacity=".37"/><stop offset=".93" stop-color="#fff" stop-opacity=".5"/><stop offset=".95" stop-color="#fff" stop-opacity=".66"/><stop offset=".96" stop-color="#fff" stop-opacity=".83"/><stop offset=".98" stop-color="#fff"/></linearGradient><linearGradient id="d" x1="-.074" y1=".498" x2=".774" y2=".498"><stop offset="0" stop-color="#b92dfd"/><stop offset="1" stop-color="#fa4ab8"/></linearGradient><clipPath id="a" transform="translate(45.63 52.37)"><path class="cls-1" d="M7-46.49l-.24.13 75.26 79.9V-3.2a25 25 0 00-12.51-21.66L32-46.49a25 25 0 00-25 0" fill="none"/></clipPath><clipPath id="c" transform="translate(45.63 52.37)"><path class="cls-1" d="M7-46.49l-37.49 21.63A25 25 0 00-43-3.2V40a25 25 0 006.8 17.14l115.42-5.58A25 25 0 0082.05 40V27.78c-3.56-6.32-9-15.72-14.65-24.69-9.77-15.46-21.33-25.25-30.67-33.17C29.79-36 16.84-44.33 10.67-48.22A24.21 24.21 0 007-46.49" fill="none"/></clipPath><clipPath id="e" transform="translate(45.63 52.37)"><path class="cls-1" d="M-43-3.2V40a25.06 25.06 0 002.36 10.62l.18-.32c5.56-9.88 13.77-29.1 15.62-39S-24.86-2.44-29-9a57 57 0 00-8.4-10A25 25 0 00-43-3.2" fill="none"/></clipPath><clipPath id="g" transform="translate(45.63 52.37)"><path class="cls-1" d="M-4.55 16.7c-23 7.69-36.09 33.66-36.09 33.66v.17a25.12 25.12 0 0010.21 11.16L7 83.32a25 25 0 0025 0l37.52-21.63A25 25 0 0081.79 43.6c-2.54-2.9-14.78-16.29-30.3-24a69.14 69.14 0 00-30.82-7.16A79.33 79.33 0 00-4.55 16.7" fill="none"/></clipPath><radialGradient id="i"><stop offset="0%" stop-color="#8e8f92" stop-opacity=".3"/><stop offset="100%" stop-color="#fff" stop-opacity="0"/></radialGradient></defs><g class="cls-2" clip-path="url(#a)"><path transform="rotate(-40 -3.817 68.346)" class="cls-3" fill="url(#b)" d="M27.972 54.066h111.25v112.25H27.972z"/></g><g class="cls-4" clip-path="url(#c)"><path transform="rotate(-30 -16.227 40.926)" class="cls-5" fill="url(#d)" d="M-34.198 18.506h160.99v153.79h-160.99z"/></g><g class="cls-6" clip-path="url(#e)"><path transform="rotate(-10 -8.648 5.096)" class="cls-7" fill="url(#f)" d="M-14.538 34.886h31.8v72.06h-31.8z"/></g><g class="cls-8" clip-path="url(#g)"><path class="cls-9" fill="url(#h)" d="M4.942 64.806h122.48v75.34H4.942z"/></g><path class="cls-10" d="M59.102 60.636a28.76 28.76 0 008.45 2.47 94.71 94.71 0 0111 2.48 78.09 78.09 0 0111 4 19.83 19.83 0 018.45 7.42 22.19 22.19 0 013.35 12.43q0 10.86-8.85 17.78t-24.47 6.92a58 58 0 01-19.22-3.19 42.93 42.93 0 01-15.18-8.77l8.77-14.19a40.72 40.72 0 0012.07 7.38 37.69 37.69 0 0014.51 3.19q6.38 0 9.65-2.23a7 7 0 003.27-6.06c0-1.91-1.15-3.48-3.43-4.7a26.87 26.87 0 00-8.45-2.63 107.25 107.25 0 01-11-2.4 73.54 73.54 0 01-11-3.82 20.44 20.44 0 01-8.45-7.1" fill="#7c0dbc"/><path class="cls-11" d="M65.472 111.636a58.22 58.22 0 01-19.21-3.19 43.08 43.08 0 01-15.23-8.77l8.77-14.19a40.72 40.72 0 0012.12 7.33 37.69 37.69 0 0014.51 3.19q6.38 0 9.65-2.23a7 7 0 003.27-6.06c0-1.91-1.15-3.48-3.43-4.7a26.86 26.86 0 00-8.45-2.65 107.76 107.76 0 01-11-2.39 73.8 73.8 0 01-11-3.82 20.11 20.11 0 01-11.84-19.13q0-10.2 8.45-17.22t23.13-7q17.85 0 31.09 10.53l-8.18 13.85a28.62 28.62 0 00-9.81-6.38 33.56 33.56 0 00-13-2.55 16.07 16.07 0 00-8.77 2.11 6.38 6.38 0 00-3.34 5.5c0 1.71 1.11 3.11 3.34 4.23a28.93 28.93 0 008.46 2.47 94.56 94.56 0 0111 2.47 79.36 79.36 0 0111 4 19.8 19.8 0 018.45 7.41 22.22 22.22 0 013.35 12.44q0 10.85-8.85 17.78t-24.48 6.97z" fill="#fff"/><path class="cls-12" d="M122.412 157.756c0 3.4-25.63 6.16-57.25 6.16s-57.26-2.76-57.26-6.16 25.64-6.16 57.26-6.16 57.25 2.77 57.25 6.16z" fill="url(#i)"/><g class="cls-13" opacity=".7"><path class="cls-14" d="M115.302 27.366l-37.56-21.65a25 25 0 00-21.37-1.72l-.28.12c-.39.15-.77.32-1.16.49l-.55.25q-.84.4-1.65.87l-.24.14-37.33 21.5a24.85 24.85 0 00-6.88 5.87l-.19.24c-.3.39-.59.78-.88 1.18l-.27.38c-.35.53-.69 1.07-1 1.62-.07.13-.13.26-.2.38q-.36.66-.69 1.35l-.25.55q-.28.66-.54 1.32c-.06.17-.13.33-.19.5-.21.6-.4 1.22-.57 1.84l-.06.28q-.21.8-.36 1.62c0 .2-.07.4-.1.6-.08.47-.14.94-.19 1.41 0 .19 0 .39-.05.59-.11.65-.11 1.27-.11 1.97v43.3a25 25 0 00.14 2.6c0 .29.09.56.13.84.08.58.16 1.15.28 1.72.07.32.16.64.24 1 .13.51.27 1 .43 1.52.1.33.22.65.34 1s.37 1 .57 1.43c.07.15.12.31.19.46v.05c.07.15.15.29.22.44l.35.68c.23.43.48.86.74 1.28.12.2.23.4.36.6.36.56.75 1.11 1.16 1.64a.94.94 0 00.09.12c.43.56.9 1.1 1.39 1.63l.12.15a25.06 25.06 0 005.71 4.53l37.56 21.66a25.07 25.07 0 0025 0l37.56-21.66a25.1 25.1 0 009.69-10.13 24.19 24.19 0 001.08-2.37l.09-.22a24.2 24.2 0 00.78-2.41l.09-.32a24.52 24.52 0 00.5-2.44v-.22a24.9 24.9 0 00.39-3.58v-43.3a25 25 0 00-12.53-21.7z" opacity=".7" fill="url(#j)"/><path class="cls-14" d="M115.302 27.366l-37.56-21.65a25 25 0 00-21.37-1.72l-.28.12c-.39.15-.77.32-1.16.49l-.55.25q-.84.4-1.65.87l-.24.14-37.33 21.5a24.85 24.85 0 00-6.88 5.87l-.19.24c-.3.39-.59.78-.88 1.18l-.27.38c-.35.53-.69 1.07-1 1.62-.07.13-.13.26-.2.38q-.36.66-.69 1.35l-.25.55q-.28.66-.54 1.32c-.06.17-.13.33-.19.5-.21.6-.4 1.22-.57 1.84l-.06.28q-.21.8-.36 1.62c0 .2-.07.4-.1.6-.08.47-.14.94-.19 1.41 0 .19 0 .39-.05.59-.11.65-.11 1.27-.11 1.97v43.3a25 25 0 00.14 2.6c0 .29.09.56.13.84.08.58.16 1.15.28 1.72.07.32.16.64.24 1 .13.51.27 1 .43 1.52.1.33.22.65.34 1s.37 1 .57 1.43c.07.15.12.31.19.46v.05c.07.15.15.29.22.44l.35.68c.23.43.48.86.74 1.28.12.2.23.4.36.6.36.56.75 1.11 1.16 1.64a.94.94 0 00.09.12c.43.56.9 1.1 1.39 1.63l.12.15a25.06 25.06 0 005.71 4.53l37.56 21.66a25.07 25.07 0 0025 0l37.56-21.66a25.1 25.1 0 009.69-10.13 24.19 24.19 0 001.08-2.37l.09-.22a24.2 24.2 0 00.78-2.41l.09-.32a24.52 24.52 0 00.5-2.44v-.22a24.9 24.9 0 00.39-3.58v-43.3a25 25 0 00-12.53-21.7z" opacity=".7" fill="url(#j)"/><path class="cls-15" d="M15.162 114.026l37.56 21.65a25 25 0 0021.37 1.69l.28-.12c.39-.15.77-.32 1.15-.49l.56-.25c.56-.27 1.11-.55 1.65-.87l.24-.14 37.32-21.51a24.89 24.89 0 006.88-5.88c.07-.08.12-.16.18-.24.31-.38.6-.78.88-1.18l.28-.38c.35-.53.69-1.07 1-1.62.07-.12.13-.25.2-.38.24-.44.47-.89.68-1.34l.26-.56q.28-.65.54-1.32l.18-.5c.22-.6.41-1.21.58-1.84l.06-.28c.14-.53.26-1.07.36-1.61 0-.2.07-.4.1-.61.07-.46.14-.93.18-1.4 0-.2 0-.4.06-.59 0-.66.09-1.31.09-2v-43.19a25.05 25.05 0 00-.15-2.61c0-.28-.08-.56-.12-.83-.08-.58-.17-1.16-.28-1.72-.07-.33-.16-.65-.24-1-.13-.51-.27-1-.43-1.52-.1-.33-.22-.65-.34-1-.17-.49-.37-1-.58-1.43-.06-.16-.11-.31-.18-.46v-.06l-.22-.43-.35-.69c-.23-.43-.48-.86-.74-1.28l-.36-.6c-.37-.56-.75-1.1-1.16-1.63l-.09-.13a21.23 21.23 0 00-1.39-1.62.93.93 0 00-.13-.15 25 25 0 00-5.74-4.54l-37.56-21.65a25 25 0 00-25 0l-37.58 21.65a25 25 0 00-9.69 10.13 25.24 25.24 0 00-1.08 2.37l-.09.22a25.08 25.08 0 00-.78 2.41l-.09.32c-.21.8-.37 1.62-.5 2.44v.22a25 25 0 00-.3 3.59v43.3a25.06 25.06 0 0012.53 21.66z" opacity=".35" fill="url(#k)"/><path class="cls-14" d="M115.302 27.366l-37.56-21.65a25 25 0 00-21.37-1.72l-.28.12c-.39.15-.77.32-1.16.49l-.55.25q-.84.4-1.65.87l-.24.14-37.33 21.5a24.85 24.85 0 00-6.88 5.87l-.19.24c-.3.39-.59.78-.88 1.18l-.27.38c-.35.53-.69 1.07-1 1.62-.07.13-.13.26-.2.38q-.36.66-.69 1.35l-.25.55q-.28.66-.54 1.32c-.06.17-.13.33-.19.5-.21.6-.4 1.22-.57 1.84l-.06.28q-.21.8-.36 1.62c0 .2-.07.4-.1.6-.08.47-.14.94-.19 1.41 0 .19 0 .39-.05.59-.11.65-.11 1.27-.11 1.97v43.3a25 25 0 00.14 2.6c0 .29.09.56.13.84.08.58.16 1.15.28 1.72.07.32.16.64.24 1 .13.51.27 1 .43 1.52.1.33.22.65.34 1s.37 1 .57 1.43c.07.15.12.31.19.46v.05c.07.15.15.29.22.44l.35.68c.23.43.48.86.74 1.28.12.2.23.4.36.6.36.56.75 1.11 1.16 1.64a.94.94 0 00.09.12c.43.56.9 1.1 1.39 1.63l.12.15a25.06 25.06 0 005.71 4.53l37.56 21.66a25.07 25.07 0 0025 0l37.56-21.66a25.1 25.1 0 009.69-10.13 24.19 24.19 0 001.08-2.37l.09-.22a24.2 24.2 0 00.78-2.41l.09-.32a24.52 24.52 0 00.5-2.44v-.22a24.9 24.9 0 00.39-3.58v-43.3a25 25 0 00-12.53-21.7z" opacity=".7" fill="url(#j)"/><path class="cls-14" d="M115.302 27.366l-37.56-21.65a25 25 0 00-21.37-1.72l-.28.12c-.39.15-.77.32-1.16.49l-.55.25q-.84.4-1.65.87l-.24.14-37.33 21.5a24.85 24.85 0 00-6.88 5.87l-.19.24c-.3.39-.59.78-.88 1.18l-.27.38c-.35.53-.69 1.07-1 1.62-.07.13-.13.26-.2.38q-.36.66-.69 1.35l-.25.55q-.28.66-.54 1.32c-.06.17-.13.33-.19.5-.21.6-.4 1.22-.57 1.84l-.06.28q-.21.8-.36 1.62c0 .2-.07.4-.1.6-.08.47-.14.94-.19 1.41 0 .19 0 .39-.05.59-.11.65-.11 1.27-.11 1.97v43.3a25 25 0 00.14 2.6c0 .29.09.56.13.84.08.58.16 1.15.28 1.72.07.32.16.64.24 1 .13.51.27 1 .43 1.52.1.33.22.65.34 1s.37 1 .57 1.43c.07.15.12.31.19.46v.05c.07.15.15.29.22.44l.35.68c.23.43.48.86.74 1.28.12.2.23.4.36.6.36.56.75 1.11 1.16 1.64a.94.94 0 00.09.12c.43.56.9 1.1 1.39 1.63l.12.15a25.06 25.06 0 005.71 4.53l37.56 21.66a25.07 25.07 0 0025 0l37.56-21.66a25.1 25.1 0 009.69-10.13 24.19 24.19 0 001.08-2.37l.09-.22a24.2 24.2 0 00.78-2.41l.09-.32a24.52 24.52 0 00.5-2.44v-.22a24.9 24.9 0 00.39-3.58v-43.3a25 25 0 00-12.53-21.7z" opacity=".7" fill="url(#j)"/><path class="cls-15" d="M15.162 114.026l37.56 21.65a25 25 0 0021.37 1.69l.28-.12c.39-.15.77-.32 1.15-.49l.56-.25c.56-.27 1.11-.55 1.65-.87l.24-.14 37.32-21.51a24.89 24.89 0 006.88-5.88c.07-.08.12-.16.18-.24.31-.38.6-.78.88-1.18l.28-.38c.35-.53.69-1.07 1-1.62.07-.12.13-.25.2-.38.24-.44.47-.89.68-1.34l.26-.56q.28-.65.54-1.32l.18-.5c.22-.6.41-1.21.58-1.84l.06-.28c.14-.53.26-1.07.36-1.61 0-.2.07-.4.1-.61.07-.46.14-.93.18-1.4 0-.2 0-.4.06-.59 0-.66.09-1.31.09-2v-43.19a25.05 25.05 0 00-.15-2.61c0-.28-.08-.56-.12-.83-.08-.58-.17-1.16-.28-1.72-.07-.33-.16-.65-.24-1-.13-.51-.27-1-.43-1.52-.1-.33-.22-.65-.34-1-.17-.49-.37-1-.58-1.43-.06-.16-.11-.31-.18-.46v-.06l-.22-.43-.35-.69c-.23-.43-.48-.86-.74-1.28l-.36-.6c-.37-.56-.75-1.1-1.16-1.63l-.09-.13a21.23 21.23 0 00-1.39-1.62.93.93 0 00-.13-.15 25 25 0 00-5.74-4.54l-37.56-21.65a25 25 0 00-25 0l-37.58 21.65a25 25 0 00-9.69 10.13 25.24 25.24 0 00-1.08 2.37l-.09.22a25.08 25.08 0 00-.78 2.41l-.09.32c-.21.8-.37 1.62-.5 2.44v.22a25 25 0 00-.3 3.59v43.3a25.06 25.06 0 0012.53 21.66z" opacity=".35" fill="url(#k)"/><path class="cls-14" d="M115.302 27.366l-37.56-21.65a25 25 0 00-21.37-1.72l-.28.12c-.39.15-.77.32-1.16.49l-.55.25q-.84.4-1.65.87l-.24.14-37.33 21.5a24.85 24.85 0 00-6.88 5.87l-.19.24c-.3.39-.59.78-.88 1.18l-.27.38c-.35.53-.69 1.07-1 1.62-.07.13-.13.26-.2.38q-.36.66-.69 1.35l-.25.55q-.28.66-.54 1.32c-.06.17-.13.33-.19.5-.21.6-.4 1.22-.57 1.84l-.06.28q-.21.8-.36 1.62c0 .2-.07.4-.1.6-.08.47-.14.94-.19 1.41 0 .19 0 .39-.05.59-.11.65-.11 1.27-.11 1.97v43.3a25 25 0 00.14 2.6c0 .29.09.56.13.84.08.58.16 1.15.28 1.72.07.32.16.64.24 1 .13.51.27 1 .43 1.52.1.33.22.65.34 1s.37 1 .57 1.43c.07.15.12.31.19.46v.05c.07.15.15.29.22.44l.35.68c.23.43.48.86.74 1.28.12.2.23.4.36.6.36.56.75 1.11 1.16 1.64a.94.94 0 00.09.12c.43.56.9 1.1 1.39 1.63l.12.15a25.06 25.06 0 005.71 4.53l37.56 21.66a25.07 25.07 0 0025 0l37.56-21.66a25.1 25.1 0 009.69-10.13 24.19 24.19 0 001.08-2.37l.09-.22a24.2 24.2 0 00.78-2.41l.09-.32a24.52 24.52 0 00.5-2.44v-.22a24.9 24.9 0 00.39-3.58v-43.3a25 25 0 00-12.53-21.7z" opacity=".7" fill="url(#j)"/><path class="cls-14" d="M115.302 27.366l-37.56-21.65a25 25 0 00-21.37-1.72l-.28.12c-.39.15-.77.32-1.16.49l-.55.25q-.84.4-1.65.87l-.24.14-37.33 21.5a24.85 24.85 0 00-6.88 5.87l-.19.24c-.3.39-.59.78-.88 1.18l-.27.38c-.35.53-.69 1.07-1 1.62-.07.13-.13.26-.2.38q-.36.66-.69 1.35l-.25.55q-.28.66-.54 1.32c-.06.17-.13.33-.19.5-.21.6-.4 1.22-.57 1.84l-.06.28q-.21.8-.36 1.62c0 .2-.07.4-.1.6-.08.47-.14.94-.19 1.41 0 .19 0 .39-.05.59-.11.65-.11 1.27-.11 1.97v43.3a25 25 0 00.14 2.6c0 .29.09.56.13.84.08.58.16 1.15.28 1.72.07.32.16.64.24 1 .13.51.27 1 .43 1.52.1.33.22.65.34 1s.37 1 .57 1.43c.07.15.12.31.19.46v.05c.07.15.15.29.22.44l.35.68c.23.43.48.86.74 1.28.12.2.23.4.36.6.36.56.75 1.11 1.16 1.64a.94.94 0 00.09.12c.43.56.9 1.1 1.39 1.63l.12.15a25.06 25.06 0 005.71 4.53l37.56 21.66a25.07 25.07 0 0025 0l37.56-21.66a25.1 25.1 0 009.69-10.13 24.19 24.19 0 001.08-2.37l.09-.22a24.2 24.2 0 00.78-2.41l.09-.32a24.52 24.52 0 00.5-2.44v-.22a24.9 24.9 0 00.39-3.58v-43.3a25 25 0 00-12.53-21.7z" opacity=".7" fill="url(#j)"/><path class="cls-16" d="M15.162 114.026l37.56 21.65a25 25 0 0021.37 1.69l.28-.12c.39-.15.77-.32 1.15-.49l.56-.25c.56-.27 1.11-.55 1.65-.87l.24-.14 37.32-21.51a24.89 24.89 0 006.88-5.88c.07-.08.12-.16.18-.24.31-.38.6-.78.88-1.18l.28-.38c.35-.53.69-1.07 1-1.62.07-.12.13-.25.2-.38.24-.44.47-.89.68-1.34l.26-.56q.28-.65.54-1.32l.18-.5c.22-.6.41-1.21.58-1.84l.06-.28c.14-.53.26-1.07.36-1.61 0-.2.07-.4.1-.61.07-.46.14-.93.18-1.4 0-.2 0-.4.06-.59 0-.66.09-1.31.09-2v-43.19a25.05 25.05 0 00-.15-2.61c0-.28-.08-.56-.12-.83-.08-.58-.17-1.16-.28-1.72-.07-.33-.16-.65-.24-1-.13-.51-.27-1-.43-1.52-.1-.33-.22-.65-.34-1-.17-.49-.37-1-.58-1.43-.06-.16-.11-.31-.18-.46v-.06l-.22-.43-.35-.69c-.23-.43-.48-.86-.74-1.28l-.36-.6c-.37-.56-.75-1.1-1.16-1.63l-.09-.13a21.23 21.23 0 00-1.39-1.62.93.93 0 00-.13-.15 25 25 0 00-5.74-4.54l-37.56-21.65a25 25 0 00-25 0l-37.58 21.65a25 25 0 00-9.69 10.13 25.24 25.24 0 00-1.08 2.37l-.09.22a25.08 25.08 0 00-.78 2.41l-.09.32c-.21.8-.37 1.62-.5 2.44v.22a25 25 0 00-.3 3.59v43.3a25.06 25.06 0 0012.53 21.66z" fill="url(#k)" opacity=".5"/></g></svg>