<svg xmlns="http://www.w3.org/2000/svg" fill="none" viewBox="0 0 30 30" stroke-width="1"><path stroke="#191919" stroke-linecap="round" stroke-linejoin="round" d="M0.5 6.5V3.5C0.5 2.70435 0.81607 1.94129 1.37868 1.37868C1.94129 0.81607 2.70435 0.5 3.5 0.5H6.5"></path><path stroke="#191919" stroke-linecap="round" stroke-linejoin="round" d="M23.5 6.5V3.5C23.5 2.70435 23.1839 1.94129 22.6213 1.37868C22.0587 0.81607 21.2956 0.5 20.5 0.5H17.5"></path><path stroke="#191919" stroke-linecap="round" stroke-linejoin="round" d="M0.5 17.5V20.5C0.5 21.2956 0.81607 22.0587 1.37868 22.6213C1.94129 23.1839 2.70435 23.5 3.5 23.5H6.5"></path><path stroke="#191919" stroke-linecap="round" stroke-linejoin="round" d="M23.5 17.5V20.5C23.5 21.2956 23.1839 22.0587 22.6213 22.6213C22.0587 23.1839 21.2956 23.5 20.5 23.5H17.5"></path><path fill="#ffdda1" d="M14.511 20.75V18.25H15.262C15.5434 18.2773 15.8274 18.2462 16.0963 18.1587C16.3651 18.0712 16.613 17.9291 16.8244 17.7413C17.0358 17.5536 17.2062 17.3242 17.3248 17.0676C17.4435 16.811 17.5079 16.5326 17.514 16.25V14.25H19.626C19.685 14.2503 19.7433 14.2365 19.796 14.2098C19.8487 14.1831 19.8942 14.1443 19.9289 14.0965C19.9636 14.0487 19.9864 13.9934 19.9955 13.935C20.0045 13.8767 19.9996 13.817 19.981 13.761C18.574 9.39995 17.556 4.22495 12.909 3.37495C11.8948 3.17829 10.851 3.19326 9.84289 3.41892C8.83479 3.64458 7.88418 4.07607 7.05065 4.68633C6.21712 5.2966 5.51865 6.07248 4.99903 6.96533C4.47941 7.85819 4.14985 8.84876 4.031 9.87495C3.91136 11.1778 4.12046 12.4898 4.63916 13.6909C5.15786 14.892 5.96958 15.9438 7 16.75V20.75H14.511Z"></path><path fill="#ffe4b4" d="M13.012 6.63995C16.812 7.33395 18.435 10.627 19.649 14.249C19.7059 14.2455 19.7612 14.2291 19.8108 14.2009C19.8603 14.1727 19.9027 14.1336 19.9348 14.0865C19.9669 14.0393 19.9877 13.9855 19.9957 13.9291C20.0037 13.8726 19.9987 13.8151 19.981 13.761C18.574 9.39995 17.556 4.22495 12.909 3.37495C11.8949 3.17829 10.851 3.19326 9.8429 3.41892C8.8348 3.64458 7.88419 4.07607 7.05066 4.68633C6.21713 5.2966 5.51866 6.07248 4.99904 6.96533C4.47942 7.85819 4.14986 8.84876 4.03101 9.87495C4.00039 10.2191 3.9927 10.5648 4.00801 10.91C4.87014 9.34268 6.20393 8.08671 7.82014 7.32024C9.43635 6.55378 11.2529 6.31576 13.012 6.63995V6.63995Z"></path><path stroke="#191919" stroke-linecap="round" stroke-linejoin="round" d="M14.511 20.75V18.25H15.262C15.5434 18.2773 15.8274 18.2462 16.0963 18.1587C16.3651 18.0712 16.613 17.9291 16.8244 17.7413C17.0358 17.5536 17.2062 17.3242 17.3248 17.0676C17.4435 16.811 17.5079 16.5326 17.514 16.25V14.25H19.626C19.685 14.2503 19.7433 14.2365 19.796 14.2098C19.8487 14.1831 19.8942 14.1443 19.9289 14.0965C19.9636 14.0487 19.9864 13.9934 19.9955 13.935C20.0045 13.8767 19.9996 13.817 19.981 13.761C18.574 9.39995 17.556 4.22495 12.909 3.37495C11.8948 3.17829 10.851 3.19326 9.84289 3.41892C8.83479 3.64458 7.88418 4.07607 7.05065 4.68633C6.21712 5.2966 5.51865 6.07248 4.99903 6.96533C4.47941 7.85819 4.14985 8.84876 4.031 9.87495C3.91136 11.1778 4.12046 12.4898 4.63916 13.6909C5.15786 14.892 5.96958 15.9438 7 16.75V20.75"></path></svg>