<svg xmlns="http://www.w3.org/2000/svg" fill="none" viewBox="0 0 30 30"><path fill="#e3e3e3" d="M0.5 14.5C0.5 16.8869 1.44821 19.1761 3.13604 20.864C4.82387 22.5518 7.11305 23.5 9.5 23.5C11.8869 23.5 14.1761 22.5518 15.864 20.864C17.5518 19.1761 18.5 16.8869 18.5 14.5V9.5C18.5 7.11305 17.5518 4.82387 15.864 3.13604C14.1761 1.44821 11.8869 0.5 9.5 0.5C7.11305 0.5 4.82387 1.44821 3.13604 3.13604C1.44821 4.82387 0.5 7.11305 0.5 9.5V14.5Z"></path><path fill="#ffffff" d="M9.5 0.5C7.11305 0.5 4.82387 1.44821 3.13604 3.13604C1.44821 4.82387 0.5 7.11305 0.5 9.5V14.5C0.5 16.8869 1.44821 19.1761 3.13604 20.864C4.82387 22.5518 7.11305 23.5 9.5 23.5V0.5Z"></path><path stroke="#191919" stroke-linecap="round" stroke-linejoin="round" d="M18.487 9.007C18.3777 6.96493 17.5732 5.02169 16.207 3.5"></path><path stroke="#191919" stroke-linecap="round" stroke-linejoin="round" d="M0.5 11.5V14.5C0.499521 16.2701 1.02105 18.0011 1.99933 19.4764C2.97761 20.9516 4.3692 22.1056 6 22.794"></path><path stroke="#191919" stroke-linecap="round" stroke-linejoin="round" d="M14 1.70603C12.6685 0.937339 11.1624 0.522537 9.62512 0.501174C8.08786 0.479812 6.57076 0.852601 5.21847 1.584C3.86618 2.31539 2.7238 3.381 1.90025 4.67923C1.0767 5.97745 0.599436 7.465 0.513977 9.00003"></path><path stroke="#191919" stroke-linecap="round" stroke-linejoin="round" d="M7 4.04402C7.91206 3.62597 8.9144 3.4433 9.9153 3.51274C10.9162 3.58218 11.8837 3.9015 12.7293 4.44149C13.5749 4.98148 14.2716 5.72489 14.7556 6.60372C15.2397 7.48255 15.4956 8.46873 15.5 9.47202"></path><path stroke="#191919" stroke-linecap="round" stroke-linejoin="round" d="M10 20.48C9.83601 20.493 9.67001 20.5 9.50001 20.5C7.90871 20.5 6.38258 19.8679 5.25737 18.7426C4.13215 17.6174 3.50001 16.0913 3.50001 14.5V9.5C3.49787 8.02372 4.04216 6.59888 5.02801 5.5"></path><path stroke="#191919" stroke-linecap="round" stroke-linejoin="round" d="M12.5 11.051V9.5C12.5 8.70435 12.1839 7.94129 11.6213 7.37868C11.0587 6.81607 10.2956 6.5 9.5 6.5C8.70435 6.5 7.94129 6.81607 7.37868 7.37868C6.81607 7.94129 6.5 8.70435 6.5 9.5V12.5"></path><path stroke="#191919" stroke-linecap="round" stroke-linejoin="round" d="M6.5 14.5C6.5 15.2956 6.81607 16.0587 7.37868 16.6213C7.94129 17.1839 8.70435 17.5 9.5 17.5"></path><path stroke="#191919" stroke-linecap="round" stroke-linejoin="round" d="M9.5 9.5V12.5"></path><path stroke="#191919" stroke-linecap="round" stroke-linejoin="round" d="M9.5 14.5V15.5"></path><path stroke="#191919" stroke-linecap="round" stroke-linejoin="round" d="M9.5 23.5C10.1606 23.5005 10.8192 23.4284 11.464 23.285"></path><path fill="#78eb7b" d="M17.5 23.5C20.8137 23.5 23.5 20.8137 23.5 17.5C23.5 14.1863 20.8137 11.5 17.5 11.5C14.1863 11.5 11.5 14.1863 11.5 17.5C11.5 20.8137 14.1863 23.5 17.5 23.5Z"></path><path fill="#c9f7ca" d="M13.257 21.743C12.1318 20.6177 11.4997 19.0915 11.4998 17.5002C11.4999 15.9088 12.1322 14.3827 13.2575 13.2575C14.3828 12.1323 15.909 11.5003 17.5003 11.5004C19.0917 11.5005 20.6178 12.1327 21.743 13.258L13.257 21.743Z"></path><path stroke="#191919" stroke-linecap="round" stroke-linejoin="round" d="M17.5 23.5C20.8137 23.5 23.5 20.8137 23.5 17.5C23.5 14.1863 20.8137 11.5 17.5 11.5C14.1863 11.5 11.5 14.1863 11.5 17.5C11.5 20.8137 14.1863 23.5 17.5 23.5Z"></path><path stroke="#191919" stroke-linecap="round" stroke-linejoin="round" d="M20.174 15.756L17.269 19.629C17.2045 19.7148 17.1223 19.7858 17.028 19.8371C16.9337 19.8885 16.8295 19.9191 16.7224 19.9267C16.6153 19.9344 16.5078 19.919 16.4072 19.8816C16.3065 19.8443 16.2151 19.7857 16.139 19.71L14.639 18.21"></path></svg>