<svg xmlns="http://www.w3.org/2000/svg" fill="none" viewBox="0 0 30 30"><path fill="#ffdda1" d="M11.5 23.5C11.5 23.5 9.48 22.608 8.068 22.085C7.142 21.741 7.274 20.179 7.81 19.591C8.2739 19.1365 8.62832 18.5823 8.84644 17.9706C9.06456 17.3589 9.14067 16.7055 9.069 16.06C9.10864 15.6374 9.05813 15.2111 8.92081 14.8094C8.78349 14.4077 8.56248 14.0398 8.2724 13.7299C7.98232 13.4199 7.62977 13.1751 7.23805 13.0115C6.84632 12.848 6.42434 12.7694 6 12.781C5.57566 12.7694 5.15368 12.848 4.76195 13.0115C4.37023 13.1751 4.01768 13.4199 3.72759 13.7299C3.43751 14.0398 3.21651 14.4077 3.07919 14.8094C2.94187 15.2111 2.89136 15.6374 2.931 16.06C2.85933 16.7055 2.93544 17.3589 3.15356 17.9706C3.37168 18.5823 3.7261 19.1365 4.19 19.591C4.726 20.179 4.858 21.741 3.932 22.085C2.52 22.608 0.5 23.5 0.5 23.5"></path><path stroke="#191919" stroke-linecap="round" stroke-linejoin="round" d="M11.5 23.5C11.5 23.5 9.48 22.608 8.068 22.085C7.142 21.741 7.274 20.179 7.81 19.591C8.2739 19.1365 8.62832 18.5823 8.84644 17.9706C9.06456 17.3589 9.14067 16.7055 9.069 16.06C9.10864 15.6374 9.05813 15.2111 8.92081 14.8094C8.78349 14.4077 8.56248 14.0398 8.2724 13.7299C7.98232 13.4199 7.62977 13.1751 7.23805 13.0115C6.84632 12.848 6.42434 12.7694 6 12.781C5.57566 12.7694 5.15368 12.848 4.76195 13.0115C4.37023 13.1751 4.01768 13.4199 3.72759 13.7299C3.43751 14.0398 3.21651 14.4077 3.07919 14.8094C2.94187 15.2111 2.89136 15.6374 2.931 16.06C2.85933 16.7055 2.93544 17.3589 3.15356 17.9706C3.37168 18.5823 3.7261 19.1365 4.19 19.591C4.726 20.179 4.858 21.741 3.932 22.085C2.52 22.608 0.5 23.5 0.5 23.5"></path><path fill="#ffdda1" d="M23.5 23.5C23.5 23.5 21.48 22.608 20.068 22.085C19.142 21.741 19.274 20.179 19.81 19.591C20.2739 19.1365 20.6283 18.5823 20.8464 17.9706C21.0646 17.3588 21.1407 16.7055 21.069 16.06C21.0974 15.6395 21.0391 15.2177 20.8978 14.8207C20.7564 14.4237 20.535 14.06 20.2472 13.7521C19.9594 13.4443 19.6115 13.1988 19.2249 13.031C18.8383 12.8632 18.4214 12.7766 18 12.7766C17.5786 12.7766 17.1617 12.8632 16.7751 13.031C16.3885 13.1988 16.0406 13.4443 15.7528 13.7521C15.465 14.06 15.2436 14.4237 15.1022 14.8207C14.9609 15.2177 14.9026 15.6395 14.931 16.06C14.8593 16.7055 14.9354 17.3588 15.1536 17.9706C15.3717 18.5823 15.7261 19.1365 16.19 19.591C16.726 20.179 16.858 21.741 15.932 22.085C14.52 22.608 12.5 23.5 12.5 23.5"></path><path stroke="#191919" stroke-linecap="round" stroke-linejoin="round" d="M23.5 23.5C23.5 23.5 21.48 22.608 20.068 22.085C19.142 21.741 19.274 20.179 19.81 19.591C20.2739 19.1365 20.6283 18.5823 20.8464 17.9706C21.0646 17.3588 21.1407 16.7055 21.069 16.06C21.0974 15.6395 21.0391 15.2177 20.8978 14.8207C20.7564 14.4237 20.535 14.06 20.2472 13.7521C19.9594 13.4443 19.6115 13.1988 19.2249 13.031C18.8383 12.8632 18.4214 12.7766 18 12.7766C17.5786 12.7766 17.1617 12.8632 16.7751 13.031C16.3885 13.1988 16.0406 13.4443 15.7528 13.7521C15.465 14.06 15.2436 14.4237 15.1022 14.8207C14.9609 15.2177 14.9026 15.6395 14.931 16.06C14.8593 16.7055 14.9354 17.3588 15.1536 17.9706C15.3717 18.5823 15.7261 19.1365 16.19 19.591C16.726 20.179 16.858 21.741 15.932 22.085C14.52 22.608 12.5 23.5 12.5 23.5"></path><path fill="#78eb7b" d="M14.5 0.5H18.5C18.7652 0.5 19.0196 0.605357 19.2071 0.792893C19.3946 0.98043 19.5 1.23478 19.5 1.5V8.5C19.5 8.76522 19.3946 9.01957 19.2071 9.20711C19.0196 9.39464 18.7652 9.5 18.5 9.5H14.5L11.5 12.5V9.5H4.5C4.23478 9.5 3.98043 9.39464 3.79289 9.20711C3.60536 9.01957 3.5 8.76522 3.5 8.5V1.5C3.5 1.23478 3.60536 0.98043 3.79289 0.792893C3.98043 0.605357 4.23478 0.5 4.5 0.5H8.5"></path><path fill="#c9f7ca" d="M8.5 0.5H4.5C4.23478 0.5 3.98043 0.605357 3.79289 0.792893C3.60536 0.98043 3.5 1.23478 3.5 1.5V8.5C3.50118 8.6409 3.53249 8.77992 3.59182 8.90772C3.65116 9.03552 3.73714 9.14916 3.844 9.241L12.585 0.5H8.5Z"></path><path stroke="#191919" stroke-linecap="round" stroke-linejoin="round" d="M14.5 0.5H18.5C18.7652 0.5 19.0196 0.605357 19.2071 0.792893C19.3946 0.98043 19.5 1.23478 19.5 1.5V8.5C19.5 8.76522 19.3946 9.01957 19.2071 9.20711C19.0196 9.39464 18.7652 9.5 18.5 9.5H14.5L11.5 12.5V9.5H4.5C4.23478 9.5 3.98043 9.39464 3.79289 9.20711C3.60536 9.01957 3.5 8.76522 3.5 8.5V1.5C3.5 1.23478 3.60536 0.98043 3.79289 0.792893C3.98043 0.605357 4.23478 0.5 4.5 0.5H8.5"></path><path stroke="#191919" stroke-linecap="round" stroke-linejoin="round" d="M11.5 6.5V7.5"></path><path stroke="#191919" stroke-linecap="round" stroke-linejoin="round" d="M11.5 1.5V2.5"></path><path stroke="#191919" stroke-linecap="round" stroke-linejoin="round" d="M9.5 6.5H12.5C12.7652 6.5 13.0196 6.39464 13.2071 6.20711C13.3946 6.01957 13.5 5.76522 13.5 5.5C13.5 5.23478 13.3946 4.98043 13.2071 4.79289C13.0196 4.60536 12.7652 4.5 12.5 4.5H10.5C10.2348 4.5 9.98043 4.39464 9.79289 4.20711C9.60536 4.01957 9.5 3.76522 9.5 3.5C9.5 3.23478 9.60536 2.98043 9.79289 2.79289C9.98043 2.60536 10.2348 2.5 10.5 2.5H13.5"></path></svg>