<svg xmlns="http://www.w3.org/2000/svg" fill="none" viewBox="0 0 30 30"><path fill="#ff808c" d="M2.5 1.5C2.5 1.23478 2.60536 0.98043 2.79289 0.792893C2.98043 0.605357 3.23478 0.5 3.5 0.5H20.5C20.7652 0.5 21.0196 0.605357 21.2071 0.792893C21.3946 0.98043 21.5 1.23478 21.5 1.5V7.764C21.5 11.0035 20.6151 14.1814 18.9408 16.9546C17.2666 19.7279 14.8666 21.9911 12 23.5C9.13312 21.9915 6.7329 19.7283 5.05861 16.955C3.38432 14.1816 2.49959 11.0035 2.5 7.764V1.5Z"></path><path fill="#ffbfc5" d="M12 0.5H3.5C3.23478 0.5 2.98043 0.605357 2.79289 0.792893C2.60536 0.98043 2.5 1.23478 2.5 1.5V7.764C2.49959 11.0035 3.38432 14.1816 5.05861 16.955C6.7329 19.7283 9.13312 21.9915 12 23.5V0.5Z"></path><path stroke="#191919" stroke-linecap="round" stroke-linejoin="round" d="M2.5 1.5C2.5 1.23478 2.60536 0.98043 2.79289 0.792893C2.98043 0.605357 3.23478 0.5 3.5 0.5H20.5C20.7652 0.5 21.0196 0.605357 21.2071 0.792893C21.3946 0.98043 21.5 1.23478 21.5 1.5V7.764C21.5 11.0035 20.6151 14.1814 18.9408 16.9546C17.2666 19.7279 14.8666 21.9911 12 23.5C9.13312 21.9915 6.7329 19.7283 5.05861 16.955C3.38432 14.1816 2.49959 11.0035 2.5 7.764V1.5Z"></path><path stroke="#191919" stroke-linecap="round" stroke-linejoin="round" d="M8 5.99805L16 13.998"></path><path stroke="#191919" stroke-linecap="round" stroke-linejoin="round" d="M16 5.99805L8 13.998"></path></svg>