<svg xmlns="http://www.w3.org/2000/svg" fill="none" viewBox="0 0 24 24"><path fill="#ffbfc5" d="M10.5 21.5C12.28 21.5 14.0201 20.9722 15.5001 19.9832C16.9802 18.9943 18.1337 17.5887 18.8149 15.9442C19.4961 14.2996 19.6743 12.49 19.3271 10.7442C18.9798 8.99836 18.1226 7.39472 16.864 6.13604C15.6053 4.87737 14.0016 4.0202 12.2558 3.67294C10.51 3.32567 8.70038 3.5039 7.05585 4.18509C5.41131 4.86628 4.00571 6.01983 3.01677 7.49987C2.02784 8.97991 1.5 10.72 1.5 12.5C1.5 14.887 2.44821 17.1761 4.13604 18.864C5.82387 20.5518 8.11305 21.5 10.5 21.5V21.5Z"></path><path fill="#ff808c" d="M10.5 16.5C8.54993 16.499 6.65295 15.8646 5.09456 14.6923C3.53617 13.52 2.40069 11.8733 1.859 10C1.4684 11.3412 1.39536 12.7549 1.64565 14.1292C1.89595 15.5035 2.46271 16.8006 3.30107 17.918C4.13944 19.0354 5.22639 19.9422 6.47588 20.5668C7.72537 21.1914 9.1031 21.5166 10.5 21.5166C11.8969 21.5166 13.2746 21.1914 14.5241 20.5668C15.7736 19.9422 16.8606 19.0354 17.6989 17.918C18.5373 16.8006 19.1041 15.5035 19.3543 14.1292C19.6046 12.7549 19.5316 11.3412 19.141 10C18.5993 11.8733 17.4638 13.52 15.9054 14.6923C14.3471 15.8646 12.4501 16.499 10.5 16.5V16.5Z"></path><path fill="#ffffff" stroke="#191919" stroke-linecap="round" stroke-linejoin="round" d="M10.5 17.5C11.4889 17.5 12.4556 17.2068 13.2779 16.6574C14.1001 16.1079 14.741 15.327 15.1194 14.4134C15.4978 13.4998 15.5969 12.4945 15.4039 11.5246C15.211 10.5546 14.7348 9.66373 14.0355 8.96447C13.3363 8.26521 12.4454 7.789 11.4755 7.59608C10.5055 7.40315 9.50021 7.50217 8.58658 7.8806C7.67295 8.25904 6.89206 8.89991 6.34265 9.72215C5.79324 10.5444 5.5 11.5111 5.5 12.5C5.5 13.8261 6.02678 15.0979 6.96447 16.0355C7.90215 16.9732 9.17392 17.5 10.5 17.5Z"></path><path stroke="#191919" stroke-linecap="round" stroke-linejoin="round" d="M19.285 10.5C19.7182 12.412 19.5153 14.4132 18.707 16.1994C17.8987 17.9855 16.5294 19.4588 14.807 20.3954C13.0847 21.332 11.1037 21.6806 9.16512 21.3882C7.22655 21.0957 5.43648 20.1783 4.06706 18.7754C2.69764 17.3724 1.82377 15.5607 1.57832 13.6156C1.33286 11.6706 1.72924 9.69854 2.70719 7.99938C3.68515 6.30021 5.19118 4.96685 6.99633 4.202C8.80148 3.43715 10.807 3.28265 12.708 3.76199"></path><path stroke="#191919" stroke-linecap="round" stroke-linejoin="round" d="M4.894 19.541L1.5 23.5"></path><path stroke="#191919" stroke-linecap="round" stroke-linejoin="round" d="M16.106 19.541L19.5 23.5"></path><path stroke="#191919" stroke-linecap="round" stroke-linejoin="round" d="M10.5 12.5L16 7"></path><path fill="#66e1ff" stroke="#191919" stroke-linecap="round" stroke-linejoin="round" d="M16.586 2.914C16.2109 3.28899 16.0001 3.79761 16 4.328V7H18.672C19.2024 6.99989 19.711 6.7891 20.086 6.414L22.5 4H19V0.5L16.586 2.914Z"></path></svg>