<?xml version="1.0" encoding="UTF-8" standalone="no"?>
<svg
   xmlns:dc="http://purl.org/dc/elements/1.1/"
   xmlns:cc="http://creativecommons.org/ns#"
   xmlns:rdf="http://www.w3.org/1999/02/22-rdf-syntax-ns#"
   xmlns:svg="http://www.w3.org/2000/svg"
   xmlns="http://www.w3.org/2000/svg"
   xmlns:sodipodi="http://sodipodi.sourceforge.net/DTD/sodipodi-0.dtd"
   xmlns:inkscape="http://www.inkscape.org/namespaces/inkscape"
   fill="none"
   viewBox="0 0 24 24"
   version="1.1"
   id="svg18"
   sodipodi:docname="tg2.svg"
   inkscape:version="1.0.2-2 (e86c870879, 2021-01-15)">
  <metadata
     id="metadata24">
    <rdf:RDF>
      <cc:Work
         rdf:about="">
        <dc:format>image/svg+xml</dc:format>
        <dc:type
           rdf:resource="http://purl.org/dc/dcmitype/StillImage" />
        <dc:title></dc:title>
      </cc:Work>
    </rdf:RDF>
  </metadata>
  <defs
     id="defs22" />
  <sodipodi:namedview
     pagecolor="#ffffff"
     bordercolor="#666666"
     borderopacity="1"
     objecttolerance="10"
     gridtolerance="10"
     guidetolerance="10"
     inkscape:pageopacity="0"
     inkscape:pageshadow="2"
     inkscape:window-width="1825"
     inkscape:window-height="826"
     id="namedview20"
     showgrid="false"
     inkscape:zoom="13.110938"
     inkscape:cx="9.7265782"
     inkscape:cy="6.4965884"
     inkscape:window-x="62"
     inkscape:window-y="0"
     inkscape:window-maximized="0"
     inkscape:current-layer="svg18" />
  <path
     fill="#ffbfc5"
     d="M10.5 21.5C12.28 21.5 14.0201 20.9722 15.5001 19.9832C16.9802 18.9943 18.1337 17.5887 18.8149 15.9442C19.4961 14.2996 19.6743 12.49 19.3271 10.7442C18.9798 8.99836 18.1226 7.39472 16.864 6.13604C15.6053 4.87737 14.0016 4.0202 12.2558 3.67294C10.51 3.32567 8.70038 3.5039 7.05585 4.18509C5.41131 4.86628 4.00571 6.01983 3.01677 7.49987C2.02784 8.97991 1.5 10.72 1.5 12.5C1.5 14.887 2.44821 17.1761 4.13604 18.864C5.82387 20.5518 8.11305 21.5 10.5 21.5V21.5Z"
     id="path2" />
  <path
     fill="#ff808c"
     d="M10.5 16.5C8.54993 16.499 6.65295 15.8646 5.09456 14.6923C3.53617 13.52 2.40069 11.8733 1.859 10C1.4684 11.3412 1.39536 12.7549 1.64565 14.1292C1.89595 15.5035 2.46271 16.8006 3.30107 17.918C4.13944 19.0354 5.22639 19.9422 6.47588 20.5668C7.72537 21.1914 9.1031 21.5166 10.5 21.5166C11.8969 21.5166 13.2746 21.1914 14.5241 20.5668C15.7736 19.9422 16.8606 19.0354 17.6989 17.918C18.5373 16.8006 19.1041 15.5035 19.3543 14.1292C19.6046 12.7549 19.5316 11.3412 19.141 10C18.5993 11.8733 17.4638 13.52 15.9054 14.6923C14.3471 15.8646 12.4501 16.499 10.5 16.5V16.5Z"
     id="path4" />
  <path
     fill="#ffffff"
     stroke="#191919"
     stroke-linecap="round"
     stroke-linejoin="round"
     d="m 10.5,18.054706 c 1.09861,0 2.172557,-0.325728 3.086084,-0.936079 0.913416,-0.610462 1.625418,-1.477996 2.045799,-2.492952 0.42038,-1.014956 0.530474,-2.131786 0.316062,-3.209288 -0.2143,-1.077613 -0.74333,-2.0673173 -1.520212,-2.8441542 C 13.650963,7.795396 12.661225,7.2663546 11.583723,7.0520318 10.50611,6.8376978 9.3892919,6.9477033 8.3743026,7.3681168 7.3593132,7.7885414 6.4917902,8.5005104 5.8814279,9.4139709 5.2710656,10.327442 4.9452932,11.401389 4.9452932,12.499999 c 0,1.47322 0.5852216,2.886115 1.6269403,3.927734 C 7.613941,17.469462 9.0268029,18.054706 10.5,18.054706 Z"
     id="path6"
     style="stroke-width:0.8;stroke-miterlimit:4;stroke-dasharray:none" />
  <path
     stroke="#191919"
     stroke-linecap="round"
     stroke-linejoin="round"
     d="M19.285 10.5C19.7182 12.412 19.5153 14.4132 18.707 16.1994C17.8987 17.9855 16.5294 19.4588 14.807 20.3954C13.0847 21.332 11.1037 21.6806 9.16512 21.3882C7.22655 21.0957 5.43648 20.1783 4.06706 18.7754C2.69764 17.3724 1.82377 15.5607 1.57832 13.6156C1.33286 11.6706 1.72924 9.69854 2.70719 7.99938C3.68515 6.30021 5.19118 4.96685 6.99633 4.202C8.80148 3.43715 10.807 3.28265 12.708 3.76199"
     id="path8" />
  <path
     stroke="#191919"
     stroke-linecap="round"
     stroke-linejoin="round"
     d="M4.894 19.541L1.5 23.5"
     id="path10" />
  <path
     stroke="#191919"
     stroke-linecap="round"
     stroke-linejoin="round"
     d="M16.106 19.541L19.5 23.5"
     id="path12" />
  <path
     stroke="#191919"
     stroke-linecap="round"
     stroke-linejoin="round"
     d="M10.5 12.5L16 7"
     id="path14" />
  <path
     fill="#66e1ff"
     stroke="#191919"
     stroke-linecap="round"
     stroke-linejoin="round"
     d="M16.586 2.914C16.2109 3.28899 16.0001 3.79761 16 4.328V7H18.672C19.2024 6.99989 19.711 6.7891 20.086 6.414L22.5 4H19V0.5L16.586 2.914Z"
     id="path16" />
  <path
     fill="#ffffff"
     stroke="#191919"
     stroke-linecap="round"
     stroke-linejoin="round"
     d="m 10.5,15.142498 c 0.522633,0 1.033533,-0.154956 1.468117,-0.445313 0.434532,-0.29041 0.773247,-0.703115 0.973232,-1.185952 0.199984,-0.482837 0.252358,-1.014137 0.150357,-1.526728 C 12.989759,11.471861 12.738088,11.001037 12.368508,10.631479 11.998982,10.26192 11.528142,10.010244 11.015551,9.9082854 10.502907,9.806322 9.9716118,9.8586543 9.4887594,10.058654 9.0059067,10.258659 8.593207,10.597359 8.3028445,11.031912 8.012482,11.46647 7.8575046,11.97737 7.8575046,12.500003 c 0,0.700843 0.2784029,1.372988 0.7739714,1.868509 0.4955626,0.495573 1.1676919,0.773986 1.868524,0.773986 z"
     id="path6-0"
     style="stroke-width:0.8;stroke-miterlimit:4;stroke-dasharray:none;fill:#ff808c;fill-opacity:1" />
</svg>
