<?xml version="1.0" encoding="UTF-8" standalone="no"?>
<svg
   xmlns:dc="http://purl.org/dc/elements/1.1/"
   xmlns:cc="http://creativecommons.org/ns#"
   xmlns:rdf="http://www.w3.org/1999/02/22-rdf-syntax-ns#"
   xmlns:svg="http://www.w3.org/2000/svg"
   xmlns="http://www.w3.org/2000/svg"
   fill="none"
   viewBox="0 0 30 30"
   version="1.1"
   id="svg18">
  <path
     fill="#ffbfc5"
     d="m 10.752938,22.474458 c 1.841733,0 3.642181,-0.546105 5.173509,-1.569405 1.531432,-1.023196 2.724936,-2.477543 3.429761,-4.179077 0.704825,-1.701636 0.889205,-3.573995 0.529964,-5.380341 C 19.526827,9.5392471 18.639898,7.8799911 17.337649,6.5776587 16.035296,5.2753366 14.375978,4.388439 12.569631,4.0291357 10.763285,3.669822 8.8909055,3.8542332 7.1893414,4.5590476 5.487767,5.263862 4.0334192,6.4574184 3.0101817,7.9887878 1.9869545,9.5201572 1.4408084,11.320595 1.4408084,13.162328 c 0,2.469784 0.981095,4.838272 2.7274608,6.58471 1.7463658,1.746335 4.1149371,2.72742 6.5846688,2.72742 z"
     id="path2"
     style="stroke-width:1.03468" />
  <path
     fill="#ff808c"
     d="M 10.752938,17.301052 C 8.7352377,17.300018 6.7724684,16.643616 5.1600317,15.430659 3.547595,14.217703 2.3727353,12.513893 1.8122589,10.575625 1.4081125,11.963339 1.3325394,13.426068 1.5915097,14.84803 c 0.2589807,1.421963 0.8453966,2.764047 1.7128318,3.9202 0.8674456,1.156153 1.9920922,2.094402 3.2849159,2.740663 1.2928237,0.646262 2.7183349,0.98274 4.1636806,0.98274 1.445346,0 2.870827,-0.336478 4.163661,-0.98274 1.292834,-0.646261 2.417532,-1.58451 3.284905,-2.740663 0.867477,-1.156153 1.453934,-2.498237 1.712811,-3.9202 0.258981,-1.421962 0.183449,-2.884691 -0.220697,-4.272405 -0.560487,1.938268 -1.735367,3.642078 -3.347814,4.855034 -1.612344,1.212957 -3.575134,1.869359 -5.592866,1.870393 z"
     id="path4"
     style="stroke-width:1.03468" />
  <path
     fill="#ffffff"
     stroke="#191919"
     stroke-linecap="round"
     stroke-linejoin="round"
     d="m 10.752938,18.909677 c 1.136711,0 2.247904,-0.337024 3.193113,-0.968543 0.945094,-0.631634 1.681789,-1.529255 2.11675,-2.57941 0.434959,-1.050156 0.548871,-2.205719 0.327023,-3.32059 C 16.168092,10.926148 15.620715,9.9021198 14.816889,9.0983413 14.01318,8.294563 12.989117,7.7471739 11.874246,7.5254181 10.75926,7.3036508 9.6037096,7.4174714 8.5535194,7.8524653 7.503329,8.2874707 6.6057194,9.0241315 5.9741891,9.9692718 5.3426587,10.914423 5.0055882,12.025616 5.0055882,13.162327 c 0,1.524313 0.6055177,2.986208 1.6833644,4.063952 1.077835,1.077857 2.5396965,1.683398 4.0639854,1.683398 z"
     id="path6"
     style="stroke-width:0.827745;stroke-miterlimit:4;stroke-dasharray:none" />
  <path
     stroke="#191919"
     stroke-linecap="round"
     stroke-linejoin="round"
     d="m 19.842612,11.092966 c 0.448224,1.97831 0.238287,4.048914 -0.598046,5.897061 -0.836333,1.848044 -2.253121,3.37244 -4.035256,4.341522 -1.782031,0.969082 -3.831735,1.329772 -5.8375468,1.027231 C 7.3659615,22.056136 5.5138099,21.10692 4.0968969,19.655366 2.6799839,18.203708 1.7758071,16.329176 1.5218446,14.316618 1.2678718,12.304163 1.6779987,10.26371 2.6898651,8.5056214 3.7017418,6.7475223 5.2600026,5.3679199 7.1277572,4.5765441 8.9955118,3.7851682 11.070585,3.62531 13.037514,4.121274"
     id="path8"
     style="stroke-width:0.9;stroke-miterlimit:4;stroke-dasharray:none" />
  <path
     fill="#66e1ff"
     stroke="#191919"
     stroke-linecap="round"
     stroke-linejoin="round"
     d="m 17.050007,3.2438748 c -0.388108,0.3879951 -0.606219,0.9142546 -0.606323,1.4630391 v 2.7646679 h 2.764668 C 19.757147,7.471468 20.283386,7.2533675 20.671391,6.8652587 L 23.169112,4.3675385 H 19.547728 V 0.74615463 Z"
     id="path16"
     style="stroke-width:1.03468" />
  <path
     fill="#ffffff"
     stroke="#191919"
     stroke-linecap="round"
     stroke-linejoin="round"
     d="m 10.752938,15.896471 c 0.540759,0 1.069377,-0.16033 1.519033,-0.460757 0.449602,-0.300482 0.800064,-0.7275 1.006985,-1.227082 0.20692,-0.499583 0.26111,-1.049309 0.155572,-1.579677 -0.105483,-0.530423 -0.365882,-1.017576 -0.74828,-1.399951 -0.382341,-0.382375 -0.869511,-0.64278 -1.399879,-0.748274 -0.530423,-0.1055 -1.080144,-0.05135 -1.5797422,0.155583 -0.4995986,0.206942 -0.9266112,0.557388 -1.2270437,1.007012 -0.3004326,0.449629 -0.4607848,0.978247 -0.4607848,1.519006 0,0.725149 0.2880582,1.420605 0.8008136,1.933311 0.5127492,0.51276 1.2081891,0.800829 1.9333261,0.800829 z"
     id="path6-0"
     style="fill:#ff808c;fill-opacity:1;stroke-width:0.827745;stroke-miterlimit:4;stroke-dasharray:none" />
  <path
     stroke="#191919"
     stroke-linecap="round"
     stroke-linejoin="round"
     d="M 10.752938,13.162328 16.443684,7.4715818"
     id="path14"
     style="stroke-width:1.03468" />
</svg>
